<svg width="57" height="56" viewBox="0 0 57 56" fill="none" xmlns="http://www.w3.org/2000/svg">
<path d="M19.0618 4.39066C18.9438 4.39066 18.8258 4.39066 18.5898 4.39066C18.5898 4.6296 18.5898 4.86853 18.5898 5.10746C18.7078 5.10746 18.8258 5.10746 18.9438 5.10746C19.2977 5.10746 19.5337 4.86853 19.5337 4.74906C19.5337 4.51013 19.4157 4.2712 19.0618 4.39066Z" fill="#90949C"/>
<path d="M19.5337 3.5542C19.5337 3.31527 19.4157 3.1958 18.9438 3.1958C18.8258 3.1958 18.7078 3.1958 18.5898 3.1958C18.5898 3.43473 18.5898 3.67367 18.5898 3.9126C18.7078 3.9126 18.8258 3.9126 19.0618 3.9126C19.4157 3.9126 19.5337 3.67367 19.5337 3.5542Z" fill="#90949C"/>
<path d="M21.6576 4.7492C22.0116 4.7492 22.2475 4.51027 22.2475 4.0324V3.55454C22.2475 3.07667 22.1296 2.83774 21.7756 2.9572C21.4217 2.9572 21.3037 3.19614 21.3037 3.674V4.15187C21.3037 4.62974 21.4217 4.7492 21.6576 4.7492Z" fill="#90949C"/>
<path d="M27.0846 3.43457C27.5565 3.43457 27.6745 3.31511 27.6745 3.07617C27.6745 2.83724 27.4385 2.71777 27.2026 2.71777C27.2026 2.71777 26.9666 2.71777 26.8486 2.71777V3.43457C26.8486 3.43457 26.9666 3.43457 27.0846 3.43457Z" fill="#90949C"/>
<path d="M38.2922 5.10743C38.2922 5.10743 38.4102 5.10743 38.2922 5.10743C38.6462 5.10743 38.7641 4.8685 38.7641 4.5101V4.03223C38.7641 3.55436 38.6462 3.31543 38.2922 3.31543C37.9383 3.31543 37.8203 3.4349 37.8203 3.91276V4.39063C37.8203 4.8685 37.9383 5.10743 38.2922 5.10743Z" fill="#90949C"/>
<path d="M11.0395 4.62939C10.9215 4.62939 10.9215 4.62939 11.0395 4.62939C10.8035 4.98779 10.8035 5.46566 10.6855 5.82406C10.9215 5.82406 11.0395 5.70459 11.2754 5.70459C11.1575 5.34619 11.1575 4.98779 11.0395 4.62939Z" fill="#90949C"/>
<path d="M7.5 2.9568V8.81067V16.9344C7.5 17.1733 7.5 17.2928 7.5 17.5317C7.5 17.7707 7.5 17.8901 7.5 18.1291C7.5 18.9653 7.5 19.9211 7.61798 20.9963C7.85393 24.4608 8.67978 29.2395 10.5674 34.2571C13.3989 41.4251 18.3539 49.1904 27.4382 55.2832L28.5 56L29.5618 55.2832C30.3876 54.6859 31.2135 54.0885 32.0393 53.4912C39.118 48.1152 43.3652 41.664 45.8427 35.6907C46.0787 35.2128 46.1966 34.8544 46.3146 34.3765C46.4326 33.8987 46.6685 33.5403 46.7865 33.0624C49.0281 26.4917 49.5 20.7573 49.5 17.6512C49.5 17.5317 49.5 17.4123 49.5 17.2928V10.2443V8.93013V2.9568C35.8146 -0.9856 21.1854 -0.9856 7.5 2.9568ZM45.0169 3.91253C45.2528 3.91253 45.4888 3.91253 45.6067 3.91253C45.6067 3.91253 45.7247 3.91253 45.7247 4.032V5.1072C46.0787 5.22667 46.3146 5.22667 46.6685 5.34613V4.27093C46.6685 4.27093 46.6685 4.15147 46.7865 4.27093C46.9045 4.27093 47.1405 4.3904 47.2584 4.3904C47.2584 4.3904 47.3764 4.3904 47.3764 4.50987V7.2576C47.3764 7.2576 47.3764 7.37707 47.2584 7.37707C47.1405 7.37707 46.9045 7.2576 46.7865 7.2576C46.7865 7.2576 46.6685 7.2576 46.6685 7.13813V5.94347C46.3146 5.824 46.0787 5.824 45.7247 5.70453V6.8992C45.7247 6.8992 45.7247 7.01867 45.6067 7.01867C45.4888 7.01867 45.2528 6.8992 45.1348 6.8992C45.1348 6.8992 45.0169 6.8992 45.0169 6.77973V3.91253ZM37.1124 3.79307C37.1124 2.9568 37.5843 2.5984 38.0562 2.5984C38.1742 2.5984 38.1742 2.5984 38.2921 2.5984C38.882 2.71787 39.4719 3.07627 39.4719 4.032V4.50987C39.4719 5.4656 39 5.70453 38.2921 5.58507C37.7022 5.4656 37.1124 5.1072 37.1124 4.15147V3.79307ZM33.927 25.6555C33.3371 25.7749 32.7472 25.8944 32.1573 25.8944C31.5674 25.8944 30.9775 25.7749 30.3876 25.6555L28.5 22.6688L25.1966 21.7131C24.6067 20.6379 24.1348 19.4432 24.0169 18.2485L26.0225 15.5008L25.7865 12.0363C25.9045 11.9168 26.0225 11.7973 26.1405 11.6779C26.8483 10.9611 27.6742 10.3637 28.618 9.88587L31.8034 11.0805L34.8708 9.88587C35.8146 10.3637 36.6404 10.9611 37.3483 11.6779C37.4663 11.7973 37.5843 11.9168 37.7022 12.1557L37.5843 15.6203L39.7079 18.368C39.5899 19.6821 39.236 20.8768 38.6461 21.8325L35.3427 22.7883L33.927 25.6555ZM35.5787 26.2528V30.5536L35.3427 30.3147L32.5112 26.9696C32.6292 26.9696 32.7472 26.9696 32.8652 26.9696C33.691 26.8501 34.7528 26.4917 35.5787 26.2528ZM34.0449 2.47893C34.0449 2.35947 34.0449 2.35947 34.1629 2.35947C34.2809 2.35947 34.3989 2.35947 34.5169 2.35947C34.6348 2.35947 34.6348 2.35947 34.6348 2.47893C34.8708 2.83733 34.9888 3.3152 35.2247 3.6736C35.4607 3.3152 35.5787 2.9568 35.8146 2.5984C35.8146 2.47893 35.9326 2.47893 35.9326 2.47893C36.0506 2.47893 36.1685 2.47893 36.2865 2.47893C36.4045 2.47893 36.4045 2.5984 36.4045 2.5984V5.34613C36.4045 5.34613 36.4045 5.34613 36.2865 5.34613C36.1685 5.34613 35.9326 5.34613 35.8146 5.34613C35.8146 5.34613 35.6966 5.34613 35.6966 5.22667V3.6736C35.5787 3.91253 35.4607 4.032 35.3427 4.27093C35.3427 4.27093 35.2247 4.3904 35.2247 4.27093C35.1067 4.27093 34.9888 4.27093 34.8708 4.27093C34.8708 4.27093 34.7528 4.27093 34.7528 4.15147C34.6348 3.91253 34.5169 3.6736 34.3989 3.43467V5.1072C34.3989 5.1072 34.3989 5.22667 34.2809 5.22667C34.1629 5.22667 33.927 5.22667 33.809 5.22667H33.691V2.47893H34.0449ZM31.6854 2.9568C31.6854 2.24 32.0393 2.12053 32.5112 2.12053H32.6292C33.1011 2.12053 33.2191 2.24 33.3371 2.24C33.4551 2.35947 33.4551 2.35947 33.4551 2.35947V2.71787C33.4551 2.71787 33.4551 2.83733 33.3371 2.83733C33.1011 2.83733 32.7472 2.83733 32.5112 2.83733C32.2753 2.83733 32.2753 2.83733 32.2753 3.07627V3.43467C32.6292 3.43467 32.9831 3.43467 33.3371 3.43467C33.3371 3.43467 33.4551 3.43467 33.4551 3.55413V3.91253C33.4551 3.91253 33.4551 4.032 33.3371 4.032C32.9831 4.032 32.6292 4.032 32.2753 4.032V4.50987C32.2753 4.7488 32.3933 4.7488 32.5112 4.7488C32.7472 4.7488 33.1011 4.7488 33.3371 4.7488C33.4551 4.62933 33.4551 4.7488 33.4551 4.7488V5.1072C33.4551 5.1072 33.4551 5.22667 33.3371 5.22667C33.2191 5.22667 32.9831 5.22667 32.6292 5.22667C32.1573 5.22667 31.6854 5.1072 31.6854 4.27093V2.9568ZM28.8539 2.24C28.8539 2.12053 28.9719 2.12053 28.9719 2.12053C29.0899 2.12053 29.2079 2.12053 29.3258 2.12053C29.4438 2.12053 29.4438 2.12053 29.4438 2.24C29.7978 2.83733 30.0337 3.3152 30.3876 3.91253V2.24C30.3876 2.24 30.3876 2.12053 30.5056 2.12053C30.6236 2.12053 30.8596 2.12053 30.9775 2.12053C30.9775 2.12053 31.0955 2.12053 31.0955 2.24C31.0955 3.19573 31.0955 4.032 31.0955 4.98773C31.0955 5.1072 30.9775 5.1072 30.9775 5.1072C30.8596 5.1072 30.7416 5.1072 30.6236 5.1072C30.5056 5.1072 30.5056 5.1072 30.3876 4.98773C30.0337 4.50987 29.7978 3.91253 29.4438 3.43467V4.98773C29.4438 4.98773 29.4438 5.1072 29.3258 5.1072C29.2079 5.1072 28.9719 5.1072 28.8539 5.1072C28.8539 5.1072 28.736 5.1072 28.736 4.98773V2.24H28.8539ZM26.1405 2.35947C26.1405 2.24 26.1405 2.24 26.3764 2.12053C26.6124 2.12053 26.8483 2.00107 27.2022 2.00107C27.9101 2.00107 28.382 2.24 28.382 2.9568C28.382 3.43467 28.1461 3.6736 27.9101 3.79307C28.1461 4.15147 28.264 4.50987 28.5 4.86827C28.264 4.86827 28.1461 4.86827 27.9101 4.86827C27.9101 4.86827 27.9101 4.86827 27.7921 4.7488C27.6742 4.3904 27.4382 4.032 27.3202 3.79307H27.2022H27.0843V4.7488C27.0843 4.7488 27.0843 4.86827 26.9663 4.86827C26.8483 4.86827 26.6124 4.86827 26.4944 4.86827C26.4944 4.86827 26.3764 4.86827 26.3764 4.7488V2.35947H26.1405ZM23.427 2.35947C23.427 2.35947 23.427 2.24 23.427 2.35947C23.6629 2.24 23.8989 2.24 24.0169 2.24C24.0169 2.24 24.1348 2.24 24.1348 2.35947V4.15147C24.1348 4.50987 24.2528 4.7488 24.6067 4.7488C24.9607 4.7488 25.0787 4.50987 25.0787 4.15147V2.24C25.0787 2.24 25.0787 2.12053 25.1966 2.12053C25.3146 2.12053 25.5506 2.12053 25.6685 2.12053C25.6685 2.12053 25.7865 2.12053 25.7865 2.24V4.032C25.7865 4.98773 25.3146 5.22667 24.6067 5.22667C24.0169 5.22667 23.427 5.1072 23.427 4.15147V2.35947ZM20.5955 3.79307C20.5955 2.83733 21.0674 2.47893 21.7753 2.35947H21.8933C22.4831 2.35947 22.9551 2.71787 22.9551 3.55413V4.032C22.9551 4.98773 22.4831 5.34613 21.7753 5.34613C21.0674 5.34613 20.5955 5.1072 20.5955 4.15147V3.79307ZM18 3.07627C18 2.9568 18 2.83733 18.236 2.83733C18.3539 2.83733 18.7079 2.71787 18.9438 2.71787C19.0618 2.71787 19.1798 2.71787 19.2978 2.71787C19.8876 2.71787 20.1236 2.9568 20.1236 3.43467V3.55413C20.1236 3.79307 20.0056 4.032 19.7697 4.15147C20.0056 4.27093 20.1236 4.3904 20.1236 4.7488C20.1236 5.4656 19.5337 5.70453 18.9438 5.824C18.7079 5.824 18.3539 5.824 18.236 5.824C18.118 5.824 18 5.824 18 5.58507V3.07627ZM14.6966 4.50987C14.6966 3.55413 15.2865 3.19573 15.8764 3.07627C15.9944 3.07627 16.2303 3.07627 16.2303 3.07627C16.3483 3.07627 16.3483 3.07627 16.3483 3.07627C16.3483 3.07627 16.4663 3.07627 16.4663 3.19573V3.55413C16.4663 3.55413 16.4663 3.6736 16.3483 3.6736C16.2303 3.6736 15.9944 3.6736 15.7584 3.6736C15.5225 3.6736 15.2865 3.91253 15.2865 4.3904V4.86827C15.2865 5.34613 15.5225 5.4656 15.7584 5.4656C15.9944 5.4656 16.2303 5.34613 16.3483 5.34613C16.3483 5.34613 16.4663 5.34613 16.4663 5.4656V5.824C16.4663 5.824 16.4663 5.94347 16.3483 5.94347C16.3483 5.94347 16.2303 6.06293 15.8764 6.06293C15.2865 6.1824 14.6966 5.94347 14.6966 4.98773V4.50987ZM12.573 4.50987C12.573 3.79307 13.0449 3.55413 13.5169 3.43467C13.9888 3.3152 14.1067 3.3152 14.2247 3.3152C14.2247 3.3152 14.3427 3.3152 14.3427 3.43467V3.79307C14.3427 3.79307 14.3427 3.91253 14.2247 3.91253C13.9888 4.032 13.7528 4.032 13.3989 4.15147C13.1629 4.15147 13.1629 4.27093 13.1629 4.50987V4.7488C13.5169 4.7488 13.8708 4.62933 14.2247 4.62933C14.2247 4.62933 14.3427 4.62933 14.3427 4.7488V5.1072C14.3427 5.1072 14.3427 5.22667 14.2247 5.22667C13.8708 5.22667 13.5169 5.22667 13.1629 5.34613V6.5408C13.1629 6.5408 13.1629 6.66027 13.0449 6.66027C12.927 6.66027 12.691 6.77973 12.573 6.77973C12.573 6.77973 12.4551 6.77973 12.4551 6.66027V4.50987H12.573ZM9.74157 7.2576C9.97753 6.42133 10.0955 5.58507 10.3315 4.62933C10.4494 4.27093 10.6854 4.15147 11.0393 4.032C11.1573 4.032 11.1573 4.032 11.2753 4.032C11.5112 4.032 11.6292 4.15147 11.6292 4.3904C11.8652 5.1072 11.9831 5.94347 12.2191 6.66027C12.2191 6.66027 12.2191 6.77973 12.1011 6.77973C11.8652 6.77973 11.7472 6.8992 11.5112 6.8992H11.3933C11.3933 6.66027 11.2753 6.5408 11.2753 6.30187C11.0393 6.30187 10.8034 6.42133 10.4494 6.5408C10.4494 6.77973 10.3315 7.01867 10.3315 7.2576C10.3315 7.2576 10.3315 7.37707 10.2135 7.37707C10.2135 7.2576 9.97753 7.2576 9.74157 7.2576C9.85955 7.2576 9.74157 7.2576 9.74157 7.2576ZM13.0449 34.1376C12.927 33.8987 12.927 33.6597 12.809 33.5403C11.7472 30.7925 11.0393 28.0448 10.5674 25.6555C10.0955 22.9077 9.85955 20.6379 9.85955 18.8459V9.52747C18.118 7.37707 26.9663 6.77973 35.5787 7.49653V8.93013C34.5169 8.45227 33.1011 8.09387 32.0393 8.09387C26.9663 8.09387 23.073 12.2752 23.191 17.5317C23.191 19.6821 23.8989 21.7131 25.1966 23.2661C24.7247 23.6245 24.3708 23.9829 24.1348 24.2219L19.6517 24.1024L19.5337 25.7749C19.4157 25.7749 19.4157 25.7749 19.2978 25.7749C19.0618 25.7749 18.8258 25.7749 18.5899 25.7749C18 25.7749 17.6461 26.2528 17.5281 26.7307C17.2921 26.7307 17.0562 26.7307 16.7022 26.8501C16.2303 26.9696 15.9944 27.4475 15.8764 27.9253C15.2865 27.9253 14.4607 28.1643 13.9888 28.6421C13.3989 29.4784 13.3989 30.7925 13.9888 31.6288C14.4607 32.3456 17.1742 36.288 17.882 37.7216C18.3539 38.7968 18.5899 42.2613 18.5899 43.9339C16.1124 40.7083 14.3427 37.3632 13.0449 34.1376ZM28.5 52.7744C24.9607 50.3851 22.0112 47.5179 19.4157 44.4117C19.4157 43.6949 19.2978 38.9163 18.5899 37.3632C17.764 35.5712 14.6966 31.1509 14.5787 31.0315C14.2247 30.5536 14.3427 29.5979 14.5787 29.2395C14.8146 29.0005 15.6405 28.7616 16.2303 28.7616H16.7022V28.2837C16.7022 28.1643 16.7022 27.8059 16.8202 27.6864C17.1742 27.5669 17.4101 27.5669 17.6461 27.5669C17.764 27.5669 17.764 27.5669 17.764 27.5669H18.236V27.0891C18.236 27.0891 18.236 26.6112 18.4719 26.4917C18.7079 26.4917 18.8258 26.4917 19.0618 26.4917C19.4157 26.4917 19.6517 26.4917 19.6517 26.4917H20.1236L20.2416 24.6997L24.3708 24.8192L24.4888 24.5803C24.6067 24.3413 25.0787 23.8635 25.5506 23.6245C26.8483 25.0581 28.618 26.1333 30.6236 26.4917L31.8034 28.5227V29.7173L32.2753 31.0315C32.2753 31.1509 32.2753 31.6288 32.2753 31.9872L32.0393 32.4651C31.9213 32.5845 31.8034 32.704 31.6854 32.8235L31.0955 33.3013C30.8596 33.4208 30.5056 33.4208 30.2697 33.4208H29.6798C29.2079 33.4208 28.9719 33.3013 28.9719 33.3013H28.736L24.9607 36.6464L26.7303 38.5579L27.3202 38.6773H27.4382C27.5562 38.6773 27.9101 38.7968 28.1461 38.7968C28.382 38.9163 28.618 39.0357 28.736 39.2747C28.736 39.3941 28.8539 39.6331 28.8539 39.872C28.8539 40.1109 28.8539 40.3499 28.736 40.5888C28.618 40.8277 28.5 40.9472 28.382 41.0667C27.7921 41.4251 27.3202 41.4251 26.8483 41.4251C26.7303 41.4251 26.6124 41.4251 26.4944 41.4251C26.3764 41.4251 26.2584 41.4251 26.1405 41.4251H26.0225H25.7865L24.9607 42.1419L32.0393 50.5045C30.6236 51.2213 29.5618 52.0576 28.5 52.7744ZM26.8483 36.0491L28.1461 37.6021C27.7921 37.4827 27.4382 37.4827 27.3202 37.4827H27.2022L26.3764 36.5269L26.8483 36.0491ZM32.8652 49.9072L26.6124 42.6197C26.8483 42.6197 26.9663 42.6197 27.2022 42.6197L33.2191 49.6683C33.1011 49.6683 32.9831 49.7877 32.8652 49.9072ZM33.809 49.0709L28.1461 42.3808C28.264 42.2613 28.5 42.2613 28.618 42.1419L34.1629 48.7125C34.0449 48.832 33.927 48.9515 33.809 49.0709ZM34.8708 48.1152L29.3258 41.664C29.4438 41.5445 29.5618 41.4251 29.5618 41.3056L35.1067 47.8763C35.1067 47.8763 34.9888 47.9957 34.8708 48.1152ZM35.8146 47.1595L29.9157 40.3499C29.9157 40.2304 29.9157 40.1109 29.9157 39.872C29.9157 39.7525 29.9157 39.6331 29.9157 39.5136L36.1685 46.8011C35.9326 46.9205 35.8146 47.04 35.8146 47.1595ZM36.6405 46.2037L27.5562 35.4517L27.9101 35.0933L36.9944 45.7259C36.8764 45.9648 36.7584 46.0843 36.6405 46.2037ZM37.5843 45.1285L28.5 34.6155L28.8539 34.2571L37.8202 44.7701C37.8202 44.8896 37.7022 45.0091 37.5843 45.1285ZM38.4101 44.0533L30.0337 34.2571H30.2697C30.3876 34.2571 30.5056 34.2571 30.6236 34.2571L38.6461 43.6949C38.6461 43.8144 38.5281 43.9339 38.4101 44.0533ZM39.236 42.9781L31.5674 34.0181L31.9214 33.8987H32.0393L39.4719 42.6197C39.4719 42.7392 39.3539 42.8587 39.236 42.9781ZM40.0618 41.7835L32.7472 33.1819C32.7472 33.1819 32.7472 33.0624 32.8652 33.0624L32.9831 32.704L40.4157 41.3056C40.1798 41.5445 40.0618 41.664 40.0618 41.7835ZM40.7697 40.7083L33.1011 31.7483C33.1011 31.5093 33.1011 31.2704 33.1011 31.1509L32.9831 30.7925L41.0056 40.2304C41.0056 40.3499 40.8876 40.4693 40.7697 40.7083ZM41.4775 39.5136L32.6292 29.2395V28.6421L31.8034 27.4475L41.7135 39.0357C41.7135 39.1552 41.5955 39.2747 41.4775 39.5136ZM41.8315 37.7216L38.764 34.2571V24.1024C40.2978 22.4299 41.0056 20.16 41.0056 17.6512C41.0056 15.2619 40.2978 13.1115 38.764 11.3195V7.85493C39.5899 7.9744 40.8876 8.21333 41.8315 8.3328V37.7216ZM42.1854 5.1072C42.1854 6.06293 41.7135 6.1824 41.0056 6.06293C40.4157 5.94347 39.8258 5.70453 39.8258 4.7488V3.07627C39.8258 3.07627 39.8258 2.9568 39.9438 2.9568C40.0618 2.9568 40.2978 2.9568 40.4157 3.07627C40.4157 3.07627 40.5337 3.07627 40.5337 3.19573V4.98773C40.5337 5.34613 40.6517 5.58507 41.0056 5.58507C41.3596 5.58507 41.4775 5.4656 41.4775 5.1072V3.3152C41.4775 3.3152 41.4775 3.19573 41.5955 3.19573C41.7135 3.19573 41.9494 3.19573 42.0674 3.3152C42.0674 3.3152 42.1854 3.3152 42.1854 3.43467V5.1072ZM44.6629 4.27093C44.6629 4.27093 44.5449 4.27093 44.6629 4.27093C44.427 4.27093 44.191 4.27093 43.9551 4.15147V6.42133C43.9551 6.42133 43.9551 6.5408 43.8371 6.5408C43.7191 6.5408 43.4831 6.42133 43.3652 6.42133C43.3652 6.42133 43.2472 6.42133 43.2472 6.30187V4.032C43.0112 4.032 42.7753 3.91253 42.6573 3.91253C42.6573 3.91253 42.5393 3.91253 42.5393 3.79307V3.43467C42.5393 3.43467 42.5393 3.3152 42.6573 3.3152C43.2472 3.43467 43.9551 3.55413 44.5449 3.6736C44.5449 3.6736 44.6629 3.6736 44.6629 3.79307V4.27093ZM44.8989 31.9872V8.93013C45.7247 9.16907 46.4326 9.28853 47.2584 9.52747V18.8459C47.1405 21.952 46.6685 26.6112 44.8989 31.9872Z" fill="#90949C"/>
<path d="M28.7363 16.576L30.0341 20.7574H34.2813L35.579 16.576L32.0397 13.9478L28.7363 16.576Z" fill="#90949C"/>
</svg>
