<svg width="177" height="56" viewBox="0 0 177 56" fill="none" xmlns="http://www.w3.org/2000/svg">
<path d="M79.7352 39.218H65.3011V14.0786H71.8339V33.5072H79.7352V39.218Z" fill="#1A202C"/>
<path d="M91.762 24.322C88.8552 24.322 86.9873 26.4885 86.9873 29.1443C86.9873 31.9398 88.7553 34.2361 91.5622 34.2361C94.2693 34.2361 96.5268 32.2393 96.5268 29.314C96.5268 26.3588 94.4391 24.322 91.762 24.322ZM80.8141 29.2441C80.8141 23.6331 84.9595 18.6711 90.5534 18.6711C93.0007 18.6711 94.539 19.4898 96.337 21.1372V19.0705H102.35V39.218H96.2371V37.2512C96.2371 37.2512 94.0495 39.7172 90.2237 39.7172C84.6399 39.7172 80.8141 35.7037 80.8141 29.2441Z" fill="#1A202C"/>
<path d="M120.38 39.218H105.936V14.0786H112.469V33.5072H120.38V39.218Z" fill="#1A202C"/>
<path d="M129.161 39.218H123.088V19.0705H129.161V39.218ZM122.498 13.9488C122.498 11.912 124.126 10.2347 126.154 10.2347C128.182 10.2347 129.85 11.8422 129.85 13.8789C129.85 15.9455 128.182 17.6228 126.094 17.6228C124.096 17.6228 122.498 16.0154 122.498 13.9488Z" fill="#1A202C"/>
<path d="M141.937 23.8928C139.1 23.8928 137.691 26.219 137.691 28.715C137.691 31.3108 139.23 33.4374 141.907 33.4374C144.943 33.4374 146.572 31.0113 146.572 28.7449C146.572 26.0593 145.073 23.8928 141.937 23.8928ZM131.778 28.7549C131.778 23.3037 135.244 18.6812 140.538 18.6812C143.085 18.6812 144.814 19.4998 146.542 21.3369V19.0705H152.365V36.8219C152.365 43.0519 147.69 46.3066 142.067 46.3066C137.132 46.3066 132.817 43.8107 132.168 39.278H138.99C139.839 40.6557 140.688 40.9153 142.196 40.9153C144.314 40.9153 146.282 39.9369 146.282 37.7404C146.282 37.2113 146.312 36.752 146.252 36.2329C145.073 37.2812 142.886 38.5591 140.498 38.5591C135.304 38.5691 131.778 34.2361 131.778 28.7549Z" fill="#1A202C"/>
<path d="M165.92 24.322C163.013 24.322 161.155 26.4885 161.155 29.1443C161.155 31.9398 162.914 34.2361 165.73 34.2361C168.447 34.2361 170.695 32.2393 170.695 29.314C170.685 26.3588 168.597 24.322 165.92 24.322ZM154.972 29.2441C154.972 23.6331 159.118 18.6711 164.712 18.6711C167.169 18.6711 168.697 19.4898 170.495 21.1372V19.0705H176.509V39.218H170.395V37.2512C170.395 37.2512 168.208 39.7172 164.382 39.7172C158.798 39.7172 154.972 35.7037 154.972 29.2441Z" fill="#1A202C"/>
<path d="M27.7727 19.0206C22.6184 19.0206 18.433 23.2139 18.433 28.3556C18.433 33.5073 22.6284 37.6905 27.7727 37.6905C32.927 37.6905 37.1124 33.4973 37.1124 28.3556C37.1124 23.2139 32.927 19.0206 27.7727 19.0206Z" fill="white"/>
<path d="M8.29419 12.1018C8.24425 12.2016 8.24424 12.3214 8.31416 12.4212C8.34412 12.4712 8.38409 12.5011 8.43404 12.5211L18.2033 18.1919L18.2232 18.2019C18.3231 18.2618 18.453 18.2519 18.5529 18.182C18.5828 18.162 18.6128 18.132 18.6328 18.1021C18.6428 18.0921 18.6528 18.0721 18.6627 18.0522C19.5618 16.4547 20.8204 15.027 22.4086 13.8989C24.0069 12.7707 25.7749 12.0618 27.5929 11.7423C27.6029 11.7423 27.6229 11.7423 27.6329 11.7324C27.6728 11.7224 27.7128 11.7024 27.7427 11.6824C27.8426 11.6125 27.8926 11.4927 27.8726 11.3729V11.353L25.7849 0.280809V0.260841C25.7749 0.220906 25.7549 0.170986 25.725 0.131051C25.655 0.0411955 25.5452 -0.00872412 25.4353 0.00125979C25.4253 0.00125979 25.4153 0.00125979 25.4053 0.00125979C21.9591 0.630246 18.5429 1.99804 15.4863 4.16455C12.4396 6.33106 10.0323 9.05667 8.29419 12.1018Z" fill="#893A96"/>
<path d="M2.71028 33.5472C2.76022 33.647 2.86012 33.7269 2.97 33.7369C3.01995 33.7369 3.07988 33.7269 3.11983 33.7069L13.6582 29.6435L13.6782 29.6335C13.7881 29.5935 13.868 29.4837 13.868 29.3639C13.868 29.324 13.868 29.284 13.858 29.2541C13.848 29.2341 13.848 29.2241 13.838 29.2042C13.1587 27.5069 12.8291 25.6299 12.949 23.6831C13.0688 21.7262 13.6182 19.8992 14.5073 18.2918C14.5173 18.2818 14.5172 18.2718 14.5272 18.2618C14.5472 18.2219 14.5572 18.1819 14.5572 18.142C14.5672 18.0122 14.4973 17.9024 14.3974 17.8425L14.3774 17.8325L4.42838 12.4911L4.40842 12.4811C4.36846 12.4612 4.31851 12.4512 4.27855 12.4512C4.15869 12.4512 4.0588 12.5111 3.99886 12.6009C3.98888 12.6109 3.98887 12.6209 3.98887 12.6209C2.31072 15.6959 1.2519 19.2203 1.02216 22.9542C0.812389 26.6882 1.4217 30.2824 2.71028 33.5472Z" fill="#0065B1"/>
<path d="M16.1055 51.1588C16.2154 51.1888 16.3353 51.1588 16.4152 51.069C16.4551 51.0291 16.4751 50.9791 16.4951 50.9292L19.8514 40.1566L19.8614 40.1366C19.8913 40.0268 19.8614 39.897 19.7715 39.8171C19.7415 39.7872 19.7116 39.7672 19.6716 39.7572C19.6516 39.7472 19.6416 39.7472 19.6216 39.7472C17.8636 39.2281 16.1954 38.3195 14.737 37.0116C13.2787 35.7037 12.1898 34.1363 11.4806 32.439C11.4806 32.429 11.4706 32.419 11.4706 32.3991C11.4507 32.3591 11.4307 32.3292 11.4007 32.2992C11.3108 32.2194 11.181 32.1994 11.0711 32.2393L11.0511 32.2493L0.682546 36.7321L0.662579 36.7421C0.622623 36.762 0.582667 36.792 0.5527 36.8219C0.472788 36.9118 0.452797 37.0316 0.492753 37.1314C0.492753 37.1414 0.502752 37.1514 0.502752 37.1614C1.88123 40.3862 3.97892 43.4013 6.76584 45.8973C9.55277 48.4033 12.7492 50.1505 16.1055 51.1588Z" fill="#0A9BD7"/>
<path d="M38.1312 51.6879C38.2211 51.6181 38.271 51.5082 38.261 51.3884C38.2511 51.3385 38.2311 51.2886 38.2011 51.2487L31.9081 41.8738L31.8881 41.8538C31.8181 41.7639 31.6983 41.704 31.5784 41.724C31.5385 41.734 31.5085 41.744 31.4685 41.7639C31.4486 41.7739 31.4386 41.7839 31.4286 41.7939C29.9202 42.8322 28.1622 43.571 26.2343 43.8805C24.2964 44.2 22.3985 44.0602 20.6305 43.5511C20.6205 43.5511 20.6105 43.5411 20.5905 43.5411C20.5506 43.5311 20.5106 43.5311 20.4707 43.5411C20.3508 43.561 20.2509 43.6509 20.2209 43.7607L20.2109 43.7807L17.2043 54.6631V54.6831C17.1943 54.733 17.1943 54.773 17.2043 54.8229C17.2242 54.9327 17.3042 55.0226 17.414 55.0625C17.424 55.0625 17.434 55.0725 17.444 55.0725C20.8203 56.021 24.4962 56.2805 28.1822 55.6715C31.8681 55.0625 35.2344 53.6648 38.1312 51.6879Z" fill="#0FB05F"/>
<path d="M52.4654 34.875C52.4654 34.7652 52.4155 34.6554 52.3056 34.5955C52.2557 34.5655 52.2057 34.5556 52.1558 34.5556L40.8982 33.677H40.8782C40.7583 33.667 40.6485 33.7269 40.5885 33.8367C40.5685 33.8667 40.5586 33.9066 40.5486 33.9465C40.5486 33.9665 40.5486 33.9865 40.5486 33.9965C40.4287 35.8235 39.9193 37.6506 38.9703 39.3578C38.0214 41.0751 36.7328 42.4828 35.2344 43.5511C35.2245 43.561 35.2145 43.561 35.2045 43.571C35.1745 43.601 35.1445 43.6309 35.1246 43.6609C35.0646 43.7707 35.0746 43.9005 35.1445 43.9904L35.1545 44.0103L41.8272 53.1156L41.8371 53.1356C41.8671 53.1755 41.8971 53.2055 41.947 53.2255C42.0469 53.2754 42.1668 53.2654 42.2667 53.2155C42.2767 53.2155 42.2767 53.2055 42.2867 53.2055C45.1235 51.1488 47.6008 48.4232 49.4188 45.1585C51.2268 41.8738 52.2257 38.3794 52.4654 34.875Z" fill="#FDDC2D"/>
<path d="M48.2101 13.1601C48.1202 13.0902 48.0003 13.0602 47.8904 13.1002C47.8405 13.1201 47.8005 13.1501 47.7606 13.19L39.9892 21.3868L39.9692 21.4068C39.8893 21.4966 39.8693 21.6164 39.9093 21.7362C39.9292 21.7762 39.9492 21.8061 39.9692 21.8361C39.9792 21.8461 39.9892 21.866 40.0092 21.876C41.3577 23.124 42.4564 24.6715 43.1856 26.4786C43.9148 28.2957 44.2045 30.1826 44.0946 32.0197C44.0946 32.0297 44.0946 32.0496 44.0946 32.0596C44.0946 32.0995 44.1046 32.1395 44.1146 32.1794C44.1646 32.2992 44.2744 32.3691 44.3843 32.3791H44.4043L55.6818 32.9282H55.7018C55.7518 32.9282 55.7917 32.9182 55.8417 32.8983C55.9515 32.8483 56.0215 32.7485 56.0315 32.6387C56.0315 32.6287 56.0315 32.6187 56.0315 32.6087C56.2212 29.1044 55.6619 25.4702 54.2634 22.0058C52.8749 18.5314 50.7773 15.5462 48.2101 13.1601Z" fill="#F68D32"/>
<path d="M28.4618 3.06632C28.352 3.08629 28.2521 3.16616 28.2221 3.28597C28.2021 3.33589 28.2021 3.39579 28.2121 3.44571L29.8603 14.6177V14.6377C29.8803 14.7475 29.9602 14.8473 30.0801 14.8873C30.12 14.8972 30.16 14.8972 30.19 14.8972C30.2099 14.8972 30.2299 14.8972 30.2399 14.8873C32.0479 14.5977 33.9458 14.6876 35.8237 15.2267C37.7117 15.7758 39.3698 16.7143 40.7383 17.9324C40.7483 17.9423 40.7583 17.9523 40.7683 17.9623C40.7983 17.9823 40.8382 18.0022 40.8782 18.0222C40.998 18.0621 41.1179 18.0222 41.1978 17.9324L41.2078 17.9124L48.5997 9.37615L48.6097 9.35618C48.6396 9.31625 48.6596 9.27631 48.6696 9.23637C48.6996 9.12655 48.6596 9.00675 48.5897 8.92687C48.5797 8.91689 48.5797 8.91689 48.5697 8.90691C45.9326 6.60062 42.7261 4.79354 39.1301 3.75521C35.574 2.7069 31.938 2.51721 28.4618 3.06632Z" fill="#EE3435"/>
<path d="M34.5552 33.6271C34.6951 33.2477 34.745 32.8084 34.7849 32.459C34.5952 32.6387 34.3954 32.8084 34.1756 32.9682C33.5363 33.4374 32.8371 33.7369 32.1678 33.8767L30.3598 31.9099L30.3399 31.9298L31.6484 34.2461C31.3088 34.8451 30.7993 35.4242 30.1501 35.8934C29.9303 36.0532 29.7105 36.193 29.4808 36.3128C29.8204 36.3727 30.25 36.4625 30.6595 36.4525C29.7505 36.772 28.7816 36.9517 27.7627 36.9517C26.7438 36.9517 25.7749 36.772 24.8659 36.4525C25.2655 36.4725 25.705 36.3727 26.0446 36.3128C25.8148 36.193 25.5951 36.0532 25.3753 35.8934C24.726 35.4242 24.2166 34.8451 23.877 34.2461L25.1855 31.9298L25.1656 31.9099L23.3575 33.8767C22.6883 33.7369 21.999 33.4274 21.3498 32.9682C21.13 32.8084 20.9302 32.6387 20.7404 32.459C20.7904 32.8084 20.8303 33.2477 20.9702 33.6271C19.8414 32.1694 19.1622 30.3424 19.1622 28.3556C19.1622 28.2657 19.1622 28.1659 19.1722 28.076C19.2721 28.4754 19.5118 28.8748 19.6816 29.1942C19.7216 28.9446 19.7915 28.6851 19.8714 28.4255C20.1211 27.6567 20.5107 26.9978 20.9802 26.4786L23.5673 26.9978L23.5773 26.9678L21.16 25.8596C21.09 25.1807 21.16 24.4319 21.4097 23.6831C21.4896 23.4235 21.5895 23.1839 21.7094 22.9543C21.3797 23.114 20.9402 23.3037 20.6106 23.5833C21.7393 21.896 23.4375 20.638 25.4353 20.0789C25.0657 20.2986 24.736 20.668 24.4763 20.9375C24.736 20.8976 24.9957 20.8876 25.2654 20.8876C26.0646 20.8876 26.8137 21.0573 27.4431 21.3369L27.7427 23.9527H27.7727L28.0723 21.3369C28.7017 21.0573 29.4409 20.8876 30.24 20.8876C30.5097 20.8876 30.7794 20.9076 31.0291 20.9375C30.7694 20.668 30.4497 20.2986 30.0701 20.0789C32.0679 20.638 33.7661 21.896 34.8848 23.5733C34.5652 23.2937 34.1257 23.1041 33.796 22.9443C33.9059 23.1739 34.0058 23.4235 34.0957 23.6731C34.3354 24.4319 34.4154 25.1807 34.3454 25.8596L31.9381 26.9578L31.9481 26.9878L34.5352 26.4686C35.0047 26.9778 35.3943 27.6367 35.644 28.4055C35.7239 28.6651 35.7938 28.9147 35.8338 29.1743C36.0036 28.8648 36.2334 28.4654 36.3332 28.0661C36.3332 28.1559 36.3432 28.2458 36.3432 28.3356C36.3632 30.3524 35.694 32.1694 34.5552 33.6271ZM27.7727 19.0206C22.6184 19.0206 18.433 23.2139 18.433 28.3556C18.433 33.5073 22.6284 37.6905 27.7727 37.6905C32.927 37.6905 37.1124 33.4973 37.1124 28.3556C37.1124 23.2139 32.927 19.0206 27.7727 19.0206Z" fill="black"/>
<path d="M23.9968 27.1375L25.4452 31.5704H30.1101L31.5485 27.1375L27.7727 24.392L23.9968 27.1375Z" fill="black"/>
</svg>
