<svg width="69" height="56" viewBox="0 0 69 56" fill="none" xmlns="http://www.w3.org/2000/svg">
<path d="M68.5085 0L9.54838 17.87C4.3377 19.4009 0.503112 22.8758 0.508551 28.201C0.508551 33.2013 4.00047 36.968 8.66725 38.3448L68.4977 56L68.5085 0Z" fill="#DE2027"/>
<path d="M20.7313 24.5499C20.5464 25.4641 19.8828 26.0588 18.2293 26.0588H16.5268L17.1741 23.041H18.8494C20.6388 23.041 20.938 23.5917 20.7313 24.5499ZM20.0732 30.1615C19.8284 31.307 18.9853 31.8136 17.0218 31.8136H15.3248L16.021 28.5094H17.718C19.6978 28.5094 20.3016 29.0216 20.0732 30.1615ZM49.3411 20.4858C46.7303 20.4858 46.0776 22.3692 46.0776 22.3692L43.2819 29.0932H43.2221L42.5096 20.4858H38.0984C37.4751 20.5037 36.8687 20.6951 36.3458 21.039C35.8229 21.3829 35.4037 21.866 35.1341 22.4353L31.7836 29.0932H31.7238V20.4858H28.7377C26.7578 20.4858 26.3282 21.5872 26.2411 22.182C25.67 21.0806 24.0927 20.4858 21.2752 20.4858H14.2043C11.909 20.4858 11.7023 22.2205 11.7023 22.2205L9.09155 34.2642H19.1213C22.0584 34.2642 22.9994 33.9613 24.0546 33.1958C24.8471 32.5852 25.3909 31.7016 25.583 30.7122C26.0725 28.3497 24.4136 27.408 22.5262 27.2979V27.2594C24.2504 26.8629 25.7135 26.0919 26.2574 24.5444L26.475 34.2642H31.2614C32.0604 34.248 32.8383 34.0017 33.5039 33.554C34.1696 33.1064 34.6954 32.4759 35.0199 31.7365L37.9516 25.8881H38.006L38.6859 34.2642H42.961C43.8391 34.2685 44.6994 34.0135 45.4365 33.5303C46.1737 33.0471 46.7556 32.3567 47.1111 31.5437L50.8695 23.0741L48.5198 34.2917H51.0762C54.3777 34.2917 54.8129 31.6264 54.8129 31.6264L55.3242 29.1317H58.9901C61.813 29.1317 62.221 26.9289 62.221 26.9289L62.3733 26.2075H55.9333L56.5316 23.3439H60.5838C63.3523 23.3439 63.7494 21.2678 63.7494 21.2678L63.9234 20.4418L49.3411 20.4858Z" fill="white"/>
</svg>
