<svg width="57" height="56" viewBox="0 0 57 56" fill="none" xmlns="http://www.w3.org/2000/svg">
<path d="M27.5828 47.2721C27.6888 47.2729 27.7921 47.2424 27.8801 47.1844C27.8394 47.2853 27.7709 47.3727 27.6819 47.4371C27.5928 47.5015 27.4871 47.5404 27.3768 47.5488L27.409 47.7399C27.6011 47.7256 27.78 47.6406 27.911 47.5021C28.042 47.3636 28.1143 47.1818 28.1144 46.9929C28.1144 46.6544 27.9251 46.4762 27.6536 46.4762C27.5959 46.4725 27.5379 46.4809 27.4836 46.5005C27.4294 46.52 27.3797 46.5503 27.3382 46.5897C27.2967 46.6292 27.2645 46.6767 27.2429 46.7292C27.2213 46.7817 27.2114 46.8382 27.2133 46.8948C27.2074 46.9444 27.2126 46.9947 27.2288 47.0421C27.245 47.0895 27.272 47.1329 27.3073 47.1689C27.3426 47.205 27.3858 47.2328 27.4334 47.2507C27.4811 47.2685 27.5319 47.2759 27.5828 47.2721ZM27.651 46.6569C27.7986 46.6569 27.8981 46.7811 27.8981 47.0033C27.8284 47.0595 27.7413 47.0897 27.651 47.0885C27.6217 47.0923 27.5915 47.0896 27.5634 47.0803C27.5354 47.071 27.511 47.0557 27.4901 47.0352C27.4692 47.0147 27.4532 46.9895 27.4437 46.962C27.4343 46.9345 27.4308 46.9056 27.4347 46.8768C27.4329 46.8482 27.4375 46.8192 27.4476 46.7923C27.4577 46.7653 27.4736 46.741 27.4939 46.7203C27.5143 46.6997 27.5389 46.6833 27.566 46.6724C27.5931 46.6615 27.6217 46.6562 27.651 46.6569Z" fill="#90949C"/>
<path d="M26.6807 46.7271V47.7168H26.9137V46.5022H26.7077L26.4014 46.6391L26.4284 46.8202L26.6807 46.7271Z" fill="#90949C"/>
<path d="M28.8641 47.7375C29.1567 47.7375 29.3571 47.5126 29.3571 47.1069C29.3571 46.7011 29.1567 46.4788 28.8641 46.4788C28.5715 46.4788 28.3711 46.7063 28.3711 47.1069C28.3711 47.5074 28.5662 47.7375 28.8641 47.7375ZM28.8641 46.6624C29.0302 46.6624 29.128 46.82 29.128 47.1069C29.128 47.3937 29.0381 47.5539 28.8641 47.5539C28.6901 47.5539 28.6002 47.3963 28.6002 47.1069C28.6002 46.8174 28.6954 46.6624 28.8641 46.6624Z" fill="#90949C"/>
<path d="M30.4479 47.3215C30.4502 47.27 30.4409 47.2183 30.4209 47.1707C30.4008 47.123 30.3707 47.0804 30.3321 47.0454C30.2934 47.0105 30.247 46.9842 30.1969 46.9685C30.1468 46.9527 30.0946 46.9478 30.0424 46.9543C29.9793 46.9534 29.9155 46.9613 29.8545 46.9776L29.879 46.6959H30.4054L30.3745 46.5022H29.6833L29.6383 47.1404L29.7966 47.1741C29.8574 47.1489 29.9236 47.1365 29.9897 47.1379C30.1347 47.1379 30.2162 47.213 30.2162 47.3319C30.2162 47.4508 30.1079 47.5436 29.9523 47.5436C29.8317 47.5433 29.7136 47.5111 29.6099 47.4505L29.5752 47.6496C29.6907 47.7086 29.8195 47.739 29.9498 47.7376C30.0114 47.7487 30.0746 47.7462 30.1351 47.7303C30.1957 47.7144 30.2522 47.6856 30.2999 47.6458C30.3476 47.6059 30.3849 47.5561 30.4106 47.5C30.4362 47.4439 30.4493 47.3829 30.4479 47.3215Z" fill="#90949C"/>
<path d="M38.175 29.9291C38.1355 29.9421 37.8551 30.0093 37.61 30.0635L37.3474 29.9187L37.1041 29.7843L37.0642 29.7635L36.5184 29.4613L36.3588 29.3733L36.3164 29.3862H36.2842L36.2996 29.3992L36.3588 29.4484L37.4311 30.3632C37.8977 30.8801 38.1431 31.397 37.6949 31.6787L37.655 31.6992L37.5997 31.7276C37.8173 31.7619 38.0409 31.7285 38.2381 31.6321C38.4343 31.551 38.6081 31.4262 38.7466 31.2677C39.0102 30.9291 38.5535 29.7972 38.5509 29.761C38.4382 29.8415 38.311 29.8989 38.175 29.9291Z" fill="#90949C"/>
<path d="M36.6484 29.9651L36.7463 30.2522L36.7643 30.3064L36.8325 30.5156L37.1118 30.7405L37.4993 31.0481L37.5765 31.1099C37.5765 31.1099 37.4022 30.7793 37.3705 30.7251C37.1922 30.421 36.9453 30.1609 36.6484 29.9651Z" fill="#90949C"/>
<path d="M33.543 28.3369L33.6356 28.4275C33.6356 28.4275 33.6221 28.3783 33.543 28.3369Z" fill="#90949C"/>
<path d="M26.4411 32.6372C26.5116 31.816 26.7823 31.0234 27.2314 30.3267C27.619 30.4387 28.0256 30.4736 28.4272 30.4293C28.8288 30.3849 29.2178 30.2622 29.5702 30.0684C29.4616 30.641 29.4869 31.2303 29.6449 31.7918C29.8029 32.3532 30.0901 32.8722 30.4828 33.3092C30.3515 32.3471 30.4743 31.3682 30.8407 30.4665C31.0292 29.9901 31.3488 29.5739 31.7636 29.2645C32.0289 29.0676 32.321 28.9076 32.6311 28.7891L32.0828 28.5721C31.6911 28.4508 31.3274 28.254 31.0144 27.9932C30.8732 27.8757 30.7458 27.7429 30.6347 27.5976C31.2228 27.9054 31.8691 28.0927 32.5333 28.1481C32.8858 28.1401 33.2346 28.2136 33.5528 28.3626C33.1442 27.9724 32.2875 27.1869 32.2875 27.1869C33.1639 27.3765 34.0038 27.7055 34.7717 28.161L33.7355 26.9827L35.0034 27.608L35.499 28.4841C36.034 28.9612 36.6341 29.3624 37.283 29.6756C37.0917 29.4967 36.9293 29.291 36.799 29.0655C36.9735 29.1671 37.1771 29.2082 37.3783 29.1819C37.214 29.1111 37.0836 28.982 37.0127 28.8204C36.9418 28.6587 36.9354 28.4765 36.996 28.3109C36.996 28.3109 36.8303 27.9648 36.7591 27.8304C36.7591 27.8304 36.5482 27.3134 36.7038 27.0963C36.8883 27.4581 37.4442 28.4918 37.5971 28.8639C37.6393 28.9673 37.6812 29.0709 37.7181 29.1768L37.7503 29.3112C37.7872 29.2957 37.9211 29.218 37.9897 28.9286V28.9131C38.0313 28.6958 38.0392 28.4735 38.0116 28.2541C38.0116 28.2541 38.0502 28.3343 38.1029 28.4532C38.1599 28.5841 38.2104 28.7179 38.2535 28.8538C38.303 28.9918 38.3291 29.1366 38.3321 29.2828C38.3376 29.3287 38.3336 29.3751 38.3205 29.4194C38.3074 29.4638 38.2858 29.5053 38.2561 29.5412C38.275 29.5332 38.2928 29.5226 38.3089 29.51C38.4318 29.4003 38.5342 29.27 38.6101 29.1251C38.6927 28.8845 38.7334 28.6319 38.7311 28.3781C38.7126 28.3083 38.6854 28.2388 38.659 28.1664C38.1909 27.1312 37.5847 26.1621 36.8544 25.2849L36.875 25.5767L36.9123 26.2073C36.1229 25.3636 35.2117 24.6369 34.2092 24.0495C34.1723 24.4785 34.1355 25.1273 34.096 25.5537C33.8794 24.8491 33.5008 24.2026 32.989 23.6643C33.0259 24.0968 33.0636 24.5275 33.1022 24.9565C32.2613 22.8373 27.7506 18.439 26.5801 15.6738C26.5274 15.5523 26.4038 15.5546 26.2351 15.4435C17.433 9.52542 19.7742 2.73139 19.9086 2.367C16.5238 10.8462 22.4817 14.8233 22.4817 14.8233C21.1353 14.0834 19.9464 13.0963 18.9806 11.9159C18.4334 11.1549 17.9345 10.3619 17.4862 9.54109C16.9636 8.59329 16.5227 7.60425 16.1681 6.58451C15.5237 4.7923 15.2969 2.88159 15.5039 0.992188C14.7307 3.63243 14.7906 6.43999 15.6751 9.04643C16.5596 11.6529 18.2271 13.9363 20.4596 15.5962V15.5833C21.2841 16.2588 22.1661 16.8638 23.0957 17.3922C23.6967 17.7333 24.3457 17.9866 24.9415 18.3458C27.6061 19.9366 29.7186 22.2783 31.0041 25.065L30.9166 24.9978C28.1026 22.2016 24.4711 20.333 20.5252 19.6509C22.8376 20.7057 25.0441 21.9707 27.1156 23.4293C26.4154 23.5126 25.7603 23.811 25.244 24.282C26.0402 24.1275 26.8612 24.1424 27.651 24.3259C28.1406 24.4528 28.6166 24.626 29.0721 24.8429C27.6152 24.6357 26.1311 24.9523 24.8939 25.7344C24.1121 26.1568 23.2562 26.4311 22.371 26.5433C23.5492 26.8355 24.7909 26.766 25.9275 26.3442C27.2042 25.9677 28.5744 26.0411 29.8019 26.5512C29.678 26.5383 29.5564 26.528 29.4325 26.5228C27.8333 26.5114 26.2751 27.0111 24.9917 27.9465C24.9364 27.9853 24.8784 28.0241 24.8257 28.0654L28.1492 28.3396L25.8631 29.9289C25.8463 30.1535 25.8463 30.3789 25.8631 30.6034C25.8899 31.2086 26.0343 31.8032 26.2879 32.3555C26.3342 32.4518 26.3855 32.5458 26.4411 32.6372Z" fill="#90949C"/>
<path d="M44.4113 51.0013L44.3714 51.0323C44.3429 51.0568 44.3212 51.087 44.3057 51.1209C44.2903 51.1548 44.2822 51.1917 44.2826 51.2288C44.2735 51.2957 44.2916 51.3634 44.3328 51.4175C44.4171 51.4846 44.7037 51.4174 44.9146 51.3786C45.0121 51.358 45.1106 51.3374 45.2029 51.3219C45.6263 51.2524 46.06 51.2754 46.4733 51.3891L46.5042 50.9575C46.0917 50.8845 45.6748 50.8447 45.2557 50.8386C44.9645 50.8154 44.6717 50.8718 44.4113 51.0013Z" fill="#90949C"/>
<path d="M10.5967 50.751L10.6108 51.1826C10.813 51.1307 11.0211 51.1061 11.23 51.11C11.4487 51.11 11.667 51.1317 11.8813 51.1747C11.9736 51.1928 12.0709 51.2186 12.1658 51.2444C12.374 51.2987 12.6593 51.3762 12.7463 51.3116C12.7881 51.2576 12.8087 51.1906 12.8042 51.123C12.8085 51.0819 12.8015 51.0404 12.7849 51.0025C12.7683 50.9645 12.7423 50.9312 12.7089 50.9059C12.037 50.6473 11.3004 50.5934 10.5967 50.751Z" fill="#90949C"/>
<path d="M45.0625 50.415C45.8255 50.4063 46.5861 50.4931 47.3267 50.6734C47.7122 50.7958 48.1288 50.7904 48.5109 50.658C48.5751 50.6102 48.6174 50.5396 48.6293 50.4614C47.7724 49.8467 46.7682 49.4597 45.7138 49.3374C45.5725 49.7357 45.3509 50.1021 45.0625 50.415Z" fill="#90949C"/>
<path d="M8.52832 50.2726C8.54953 50.309 8.57657 50.3414 8.60941 50.3682C8.98311 50.5199 9.39838 50.5456 9.78847 50.4408C10.5297 50.2928 11.2868 50.2363 12.0423 50.2726C11.7995 50.0122 11.5829 49.7291 11.3962 49.4275C10.3955 49.5351 9.42369 49.8216 8.52832 50.2726Z" fill="#90949C"/>
<path d="M51.0675 46.6962C50.4169 46.2493 49.708 45.8912 48.9591 45.6315V38.8889L49.3942 38.7287V37.7624L48.9591 37.5709V36.8993L49.3942 36.739V35.5863L47.9654 34.2579V33.9427C47.9424 33.8552 47.8871 33.7788 47.8109 33.7279C47.7348 33.677 47.6424 33.655 47.5509 33.666H47.1274C47.1274 33.666 46.7979 33.7127 46.7979 33.9427V34.2374L45.3318 35.5913V36.7441L45.7669 36.8939V37.5659L45.3241 37.7545V38.2224C42.9798 40.812 40.1421 42.9278 36.9703 44.4507V42.9181H33.4846C33.3913 42.1352 33.1028 41.3869 32.6441 40.7395C32.6474 40.7042 32.6474 40.6687 32.6441 40.6335C33.0558 40.3554 33.3459 39.9358 33.4563 39.4577C33.5208 39.2284 33.5343 38.9881 33.4975 38.753C33.4607 38.5178 33.3743 38.2929 33.2426 38.093C33.2279 38.0702 33.2101 38.0495 33.1898 38.0312C33.1319 37.9795 32.9841 37.8656 32.8127 37.7312C32.5781 37.5503 32.1851 37.248 32.106 37.1602C31.8887 36.8974 31.7289 36.5942 31.6349 36.2687C31.6819 36.2661 31.7273 36.2536 31.7688 36.2318C31.8103 36.2099 31.8462 36.1794 31.8743 36.1425C31.9025 36.1055 31.9214 36.0627 31.931 36.0175C31.9405 35.9724 31.9406 35.9258 31.9297 35.8809L31.8872 35.6973C31.8213 35.4182 31.7445 35.103 31.6838 34.7541V34.7386H31.7289C31.7859 34.7385 31.8418 34.7238 31.8911 34.6957C31.9404 34.6677 31.9812 34.6272 32.0095 34.5787C32.0378 34.5302 32.0535 34.4753 32.0533 34.4194C32.053 34.3635 32.0369 34.309 32.0082 34.2607L31.6504 33.3121L31.7186 33.3872C31.8082 33.475 32.0221 33.6327 32.1434 33.5887C32.2646 33.5448 32.2667 33.3301 32.2772 33.1931C32.3332 32.8602 32.4574 32.5421 32.6428 32.2578C32.8281 31.9735 33.0712 31.7288 33.3559 31.5391C33.3739 31.5932 33.3957 31.646 33.4215 31.6969C33.4769 31.8028 33.4818 32.0354 33.603 32.0354C33.7243 32.0354 33.8177 31.8648 33.9969 31.6865C34.1653 31.4719 34.3858 31.3031 34.6392 31.1956L35.7578 31.6376C35.8396 31.9086 35.9952 32.1525 36.2083 32.343C36.4606 32.5313 36.7242 32.7038 36.9986 32.8597L37.1222 32.9373C37.0854 32.955 37.0476 32.9707 37.0089 32.984C36.8824 33.0305 36.5133 33.1494 36.5133 33.2812C36.5133 33.413 36.8772 33.5395 37.0063 33.5809C37.2595 33.6729 37.528 33.72 37.798 33.7203C38.0426 33.7318 38.2862 33.6918 38.5136 33.6026C38.741 33.5135 38.947 33.3773 39.116 33.2036C39.2343 33.0647 39.3188 32.9016 39.3645 32.7263C39.4101 32.551 39.4159 32.368 39.3799 32.1906C39.3325 31.9037 39.2161 31.1903 39.1765 30.9603L39.479 29.9886C39.4895 29.9587 39.4957 29.9272 39.4957 29.8955C39.4734 29.3648 39.3368 28.8446 39.0967 28.3684L39.0839 28.3321C39.0723 28.2953 39.0535 28.2612 39.0285 28.2314L38.986 28.1513C38.9106 27.989 38.8235 27.8325 38.7234 27.6835C38.1594 26.8103 37.4902 26.0061 36.7322 25.2878C36.6346 25.1999 36.4453 25.0449 36.3267 25.0992C36.2081 25.1534 36.1785 25.4094 36.1864 25.5386V25.6083C36.0554 25.4012 35.9074 25.2049 35.7436 25.0215C35.6146 24.8449 35.517 24.6484 35.454 24.4401C36.1003 21.714 37.4568 19.1988 39.3902 17.1396C39.4433 17.0873 39.4758 17.0188 39.4842 16.9455C40.1221 10.6992 47.3933 7.94959 47.4724 7.92375C47.5538 7.89947 47.6334 7.87111 47.7118 7.83857C47.9754 7.65508 48.0047 7.51294 47.9757 7.44834C47.8913 7.1899 47.4485 7.001 45.6691 7.001C44.9731 7.001 44.3267 7.02687 44.3188 7.02687C44.2911 7.0294 44.2644 7.03455 44.2377 7.04233C43.1669 7.11326 42.1155 7.36157 41.1292 7.77642C42.3473 6.48403 43.8625 5.49435 45.5481 4.88956C45.6456 4.8532 45.7354 4.79909 45.8119 4.72962C45.8699 4.63917 45.967 4.55887 45.8853 4.41415C45.7482 4.15572 45.2077 4.10152 44.8466 4.10152C44.3005 4.11538 43.7556 4.16703 43.217 4.25642C42.8928 4.29147 42.5715 4.34338 42.2529 4.41163H42.213C40.8465 4.70932 39.5659 5.30359 38.4647 6.15081C38.3145 6.26711 38.1669 6.39113 38.0245 6.51518L38.8972 5.06023C39.3477 4.33338 39.8545 3.64231 40.4148 2.99296C40.4516 2.95204 40.4772 2.90189 40.4869 2.84816C40.508 2.74479 40.6314 2.58951 40.5628 2.49389C40.5228 2.44842 40.4735 2.41235 40.4174 2.38821C40.3613 2.36406 40.2997 2.35257 40.2385 2.35445C40.0829 2.35445 39.5618 2.40608 37.5663 3.90498C35.6922 5.18843 34.1045 6.83276 32.9002 8.73766C32.2442 9.82664 31.7134 10.984 31.3183 12.1879C31.3025 12.0794 31.2864 11.9709 31.2758 11.8649C31.2225 11.3928 31.1929 10.9183 31.1883 10.4434C31.1883 9.80507 31.2095 9.23145 31.2359 8.86448C31.2359 8.70942 31.2176 8.34764 31.0647 8.31146C30.9118 8.27528 30.68 8.56991 30.6168 8.71463C29.8776 10.3251 29.4423 12.0534 29.3309 13.8161L28.9743 17.0153C28.9321 17.2375 28.7632 18.3074 28.7632 18.3074C28.5062 17.889 28.2826 17.4519 28.0939 16.9998L28.0682 16.9509L27.7592 16.4701L27.7322 16.4313C27.3126 15.9655 26.8107 15.5777 26.2507 15.2865C25.0557 14.603 23.9971 13.7145 23.1228 12.6634C22.2038 11.5036 21.5315 10.175 21.1457 8.75596C20.5716 6.12186 20.6187 3.39379 21.2847 0.780577C21.3618 0.588248 21.3696 0.37593 21.3079 0.178347C21.275 0.13599 21.234 0.101558 21.1856 0.0773964C21.1372 0.0532352 21.0828 0.0400828 21.0286 0.0389092C20.8203 0.0389092 20.6305 0.217116 19.3256 2.25098V2.26675C18.4635 3.62181 17.8723 5.12486 17.5815 6.69626C17.5182 7.0348 17.4703 7.37327 17.436 7.70923C17.1317 6.96778 16.8811 6.20618 16.6869 5.42996C16.2724 3.82699 16.1382 2.16672 16.2892 0.519684C16.2892 0.424064 16.3204 0.168249 16.2493 0.101057C16.2143 0.0679655 16.1735 0.042016 16.1283 0.024713C16.083 0.00741013 16.0352 -0.00106228 15.9867 0.000106436C15.6993 0.000106436 15.2565 0.364491 14.3365 2.77308C13.482 4.89738 13.1774 7.19632 13.4522 9.46387C12.5291 8.0483 11.9026 6.46732 11.6077 4.81227C11.5075 4.41429 11.4093 4.02387 11.3039 3.64914C11.2538 3.46307 11.1149 3.00832 10.9409 3.0936L10.9062 3.11442L10.8881 3.12988L10.8637 3.14786C10.8294 3.18145 10.7033 3.57681 10.6822 3.62075C10.6138 3.7689 10.5754 3.92863 10.5689 4.09111V4.12203C10.5689 4.19439 10.5689 4.26949 10.5689 4.34443C10.5689 4.41938 10.5689 4.50977 10.5689 4.6028C10.3369 7.20767 10.8271 9.82563 11.9874 12.1801L12.0234 12.2652L12.0904 12.4126C12.2696 12.7795 12.4694 13.1156 12.6619 13.4464C12.7251 13.5549 12.7879 13.6584 12.8485 13.7643C13.0234 14.0699 13.2338 14.3551 13.4741 14.6145C12.5541 14.431 11.1906 14.1648 10.5342 14.0666C10.4612 14.0569 10.3879 14.0717 10.3244 14.1082C10.2608 14.1447 10.2111 14.201 10.1841 14.2681C10.1576 14.3361 10.1559 14.411 10.1789 14.4801C10.2019 14.5493 10.248 14.6084 10.3102 14.648C11.2222 15.3239 12.0904 16.0559 12.9077 16.8395L14.7677 18.5374L14.9402 18.6926C15.5465 19.256 16.1784 19.8324 16.7847 20.37L15.5091 20.2485C15.4397 20.2407 15.3696 20.2554 15.3096 20.2905C15.2496 20.3255 15.2031 20.3787 15.177 20.4422C15.1502 20.5052 15.1445 20.5751 15.1616 20.6413C15.1787 20.7074 15.2181 20.7662 15.2723 20.8091L18.2457 23.1685L19.5444 24.1843L19.5715 24.2102L21.8047 25.9727C21.8602 26.0145 21.9266 26.0388 21.9965 26.0424L22.568 26.0553C21.4193 26.5424 20.1236 26.5729 18.9523 26.1405C17.9503 25.8071 17.0138 25.3061 16.1862 24.6597C16.0728 24.5693 15.7783 24.4012 15.6597 24.4865C15.5411 24.5718 15.6301 24.8925 15.6855 25.0294C15.9762 25.6377 16.3798 26.1878 16.8748 26.6522C15.3013 26.4406 13.7702 25.9908 12.3375 25.3187C12.2031 25.2619 11.9639 25.107 11.869 25.2156C11.7741 25.3241 11.853 25.6626 11.9295 25.7815C12.4737 26.6526 13.1029 27.4696 13.8088 28.221C14.3507 28.777 14.953 29.2735 15.6044 29.7019C15.6782 29.7458 15.8674 29.8646 16.8375 29.8646C17.1986 29.8646 17.5993 29.8464 17.9367 29.8154L18.0603 29.8025C17.2355 30.117 16.3482 30.2409 15.4666 30.1643C15.3032 30.1411 14.9401 30.1643 14.89 30.3117C14.8399 30.459 15.1525 30.7227 15.3186 30.777C16.3915 31.1618 17.504 31.4329 18.6357 31.5858C19.4303 31.8027 20.2424 31.9514 21.0633 32.0303C21.1318 32.0353 21.2008 32.0353 21.2693 32.0303L21.5331 32.0562C21.947 32.0924 22.3237 32.1284 22.7534 32.1284C23.0986 32.1284 23.4435 32.1016 23.7844 32.0483C23.7887 32.0907 23.8004 32.1319 23.8205 32.1698L24.0058 32.5316C23.9551 32.5399 23.9067 32.5598 23.8655 32.59C23.8243 32.6201 23.7914 32.6595 23.769 32.7048C23.7465 32.7501 23.7355 32.8002 23.7368 32.8506C23.738 32.9009 23.7507 32.9499 23.7754 32.9941L24.1796 33.7332L24.2105 33.7824L24.2401 33.8162L24.1899 33.8446C24.1357 33.8813 24.0941 33.9335 24.0715 33.9941C24.0488 34.0547 24.0466 34.1208 24.0637 34.1831C24.1172 34.4528 24.225 34.709 24.3817 34.9367C24.5384 35.1645 24.74 35.359 24.9751 35.5087C25.0674 35.5556 25.1501 35.6199 25.217 35.698C25.284 35.776 25.3337 35.8664 25.3651 35.9636C25.417 36.1323 25.4794 36.298 25.5504 36.4598C25.706 36.8371 25.9374 37.4082 25.7924 37.6331C25.6599 37.8564 25.47 38.0418 25.2415 38.1706C25.0559 38.2874 24.8804 38.4179 24.715 38.5609C24.469 38.7835 24.3202 39.0909 24.3006 39.4186C24.2809 39.7463 24.3918 40.0689 24.6095 40.3183V40.3414C23.9626 41.0725 23.5539 41.9774 23.4382 42.9386H19.9242V44.3964C16.8324 42.7981 14.0546 40.6754 11.7184 38.1268V37.7753L11.2833 37.5917V37.5763V36.9147L11.7184 36.7649V35.6122L10.2523 34.2579V33.9632C10.2523 33.7332 9.92276 33.6869 9.92276 33.6869H9.50056C9.40909 33.6758 9.3167 33.6978 9.24055 33.7487C9.1644 33.7996 9.11037 33.8757 9.08737 33.9632V34.2787L7.65603 35.6071V36.7595L8.0911 36.9198V37.5917L7.65603 37.7829V38.7495L8.0911 38.9098V45.8201C7.43732 46.0234 6.7971 46.2668 6.17448 46.5489L5.5 46.8719L6.02646 47.389C7.07983 48.5691 7.67656 50.0749 7.71138 51.6427C7.71438 51.7988 7.7538 51.9521 7.82594 52.0913C7.89807 52.2305 8.0003 52.3521 8.12714 52.4466C8.64511 52.7307 9.25389 52.8108 9.83008 52.6712L9.85968 53.8756L10.632 53.4387C10.9704 53.3193 11.3369 53.3004 11.6862 53.3844L11.9295 53.4441C12.1222 53.5277 12.3315 53.567 12.5422 53.5589C12.7528 53.5508 12.9591 53.4955 13.1446 53.3974C13.2605 53.3093 13.3539 53.1961 13.4175 53.0665C13.481 52.9368 13.5136 52.7945 13.5114 52.6507C13.5209 52.4976 13.4934 52.3442 13.4316 52.2033C13.3698 52.0624 13.2747 51.9379 13.1549 51.8393C13.1094 51.8064 13.0604 51.7776 13.0094 51.7538C12.8203 51.5628 12.645 51.36 12.483 51.1465C13.6223 51.1524 14.7531 51.34 15.8309 51.702C17.2512 52.2032 18.6235 52.824 19.9345 53.5576C22.3844 55.0907 25.2177 55.9356 28.1235 56C28.4425 56 28.7694 56 29.1095 55.9716C32.2098 55.7161 35.2167 54.8081 37.9267 53.3097C38.9152 52.8316 39.8513 52.3767 40.8267 52.0175L41.0738 51.9219C42.1893 51.4522 43.3788 51.1742 44.5904 51.1001C44.572 51.1156 44.5482 51.1284 44.5376 51.149C44.3124 51.4693 44.0536 51.7656 43.7653 52.033C43.5918 52.2191 43.4985 52.4633 43.5027 52.7153C43.4912 52.8609 43.515 53.0071 43.5723 53.1418C43.6295 53.2766 43.7187 53.396 43.8323 53.4904C44.013 53.597 44.2156 53.662 44.4257 53.6804C44.6357 53.6987 44.8477 53.67 45.0448 53.5964C45.1265 53.5784 45.2103 53.5576 45.2894 53.5472C45.6434 53.477 46.0106 53.5132 46.3436 53.6507L47.0978 54.1261L47.1828 52.9194C47.7519 53.0866 48.3644 53.0348 48.896 52.7746C49.0264 52.6872 49.135 52.5722 49.214 52.438C49.2929 52.3038 49.3398 52.1537 49.3517 51.9992C49.497 50.3668 50.1099 48.8079 51.1203 47.5025L51.5 47.071L51.0675 46.6962ZM19.1712 46.2466V46.4637C19.013 46.3913 18.8467 46.3268 18.6859 46.257V45.5722H19.1737L19.1712 46.2466ZM18.3976 46.1381C17.9046 45.9365 17.3994 45.7401 16.8774 45.5618H18.3976V46.1381ZM20.9294 46.3965H20.2202V44.6548H20.9294V46.3965ZM22.4548 46.6732V47.9912L21.9669 47.7612V46.6732H22.4548ZM21.9759 46.3965V44.6548H22.4522V46.3965H21.9759ZM23.3828 46.3965H22.7482V44.6548H23.3828V46.3965ZM23.3828 46.6732V47.2079V48.4123L22.7431 48.1202V46.6732H23.3828ZM21.6824 46.3965H21.1972V44.6548H21.6824V46.3965ZM21.6824 46.6732V47.624L21.398 47.4896L21.1972 47.394V46.6732H21.6824ZM34.9983 46.6732V48.247C34.8349 48.3271 34.6713 48.415 34.5105 48.4899V46.6807L34.9983 46.6732ZM34.5105 46.3965V44.6548H34.9983V46.3965H34.5105ZM36.0525 47.2183V46.6732H36.6845V47.3293C36.4684 47.456 36.2609 47.5698 36.05 47.6886L36.0525 47.2183ZM36.0525 46.3965V44.6548H36.6845V46.3965H36.0525ZM35.7629 46.3965H35.2777V44.6548H35.7629V46.3965ZM35.7629 46.6732V47.8514L35.2751 48.1098V46.6732H35.7629ZM37.7838 46.293V45.5618H38.2691V46.3914C38.0951 46.4819 37.9379 46.5723 37.7877 46.6498L37.7838 46.293ZM38.551 46.2621V45.5618H40.4946C39.8288 45.7463 39.1803 45.9849 38.5548 46.275L38.551 46.2621ZM45.5378 38.5659C45.6406 38.5194 45.7514 38.4782 45.8647 38.4394V38.6978L45.5378 38.5659ZM46.4517 40.6335V42.6853C46.2893 42.7135 46.1299 42.7524 45.9728 42.8017V40.7341C46.132 40.696 46.292 40.666 46.4543 40.6439L46.4517 40.6335ZM45.9728 40.5146V38.4056C46.1303 38.3577 46.2896 38.3191 46.4517 38.2896V40.3985C46.2899 40.4303 46.1314 40.4724 45.9754 40.525L45.9728 40.5146ZM45.9728 44.8718V43.0626C45.9728 43.0626 46.283 42.975 46.4491 42.944V45.0655C46.2909 45.0474 46.131 45.0345 45.9728 45.0242C45.9781 44.9079 45.9754 44.8822 45.9754 44.8822L45.9728 44.8718ZM47.2111 40.5534V42.6052C47.0498 42.6092 46.8885 42.6214 46.7284 42.6415V40.5896C46.8895 40.5727 47.0517 40.5641 47.2137 40.5638L47.2111 40.5534ZM46.7284 40.3568V38.2482C46.8883 38.2267 47.0497 38.2145 47.2111 38.2119V40.3209C47.0504 40.3271 46.8899 40.3425 46.731 40.3672L46.7284 40.3568ZM46.7284 44.5952V42.8923C46.7284 42.8923 47.045 42.8611 47.2111 42.856V44.5952V45.169C47.0477 45.1406 46.8842 45.1121 46.7181 45.0889C46.7287 44.9028 46.731 44.6056 46.731 44.6056L46.7284 44.5952ZM47.9706 40.5896V42.6415C47.8105 42.6214 47.6492 42.6093 47.4879 42.6052V40.5534C47.6566 40.5689 47.8147 40.582 47.9834 40.6001L47.9706 40.5896ZM47.4879 40.3313V38.2224H47.7221L47.9706 38.2482V40.3568C47.8113 40.3391 47.6507 40.3308 47.4904 40.3313H47.4879ZM47.9706 42.9027V45.3397C47.8097 45.3009 47.6487 45.2594 47.4879 45.2258V42.8664C47.4879 42.8664 47.8173 42.882 47.9834 42.9027H47.9706ZM48.2344 45.4094C48.2344 45.1303 48.2344 44.5229 48.2344 44.5229V42.944C48.2344 42.944 48.5604 43.0135 48.7133 43.0626V45.5542C48.5683 45.5025 48.4081 45.4559 48.2473 45.4094H48.2344ZM48.7171 40.525C48.5596 40.4772 48.3991 40.4383 48.237 40.4086V38.3C48.3991 38.3297 48.5596 38.3683 48.7171 38.4161V40.525ZM48.7171 40.76V42.8121C48.5603 42.7619 48.3996 42.7229 48.237 42.6957V40.6439C48.4038 40.6718 48.5685 40.7105 48.73 40.76H48.7171ZM48.8252 38.7057V38.4473C48.9386 38.4861 49.0519 38.5298 49.1573 38.5763L48.8252 38.7057ZM48.8252 36.7132V36.4548C48.9382 36.492 49.049 36.535 49.1573 36.5838L48.8252 36.7132ZM46.9665 33.9531C46.9665 33.8652 47.1482 33.8651 47.1982 33.8651H47.4776C47.5276 33.8651 47.7118 33.8652 47.7118 33.9531V34.1752C47.5906 34.1752 47.4664 34.1623 47.3398 34.1623C47.2133 34.1623 47.0773 34.1623 46.9665 34.1752V33.9531ZM46.9665 34.3279C47.0878 34.3279 47.2133 34.315 47.3398 34.315C47.4664 34.315 47.5906 34.315 47.7118 34.3279L49.1573 35.6743C48.583 35.4364 47.9659 35.3137 47.3424 35.3137C46.7189 35.3137 46.1005 35.4364 45.5262 35.6743L46.9665 34.3279ZM45.5262 35.8784C46.1005 35.6405 46.7189 35.5178 47.3424 35.5178C47.9659 35.5178 48.583 35.6405 49.1573 35.8784V36.3359C48.5826 36.0997 47.9656 35.9778 47.3424 35.9778C46.7192 35.9778 46.101 36.0997 45.5262 36.3359V35.8784ZM48.7171 36.4289V37.5271C48.56 37.478 48.3994 37.4393 48.237 37.411V36.3125C48.4034 36.34 48.568 36.377 48.73 36.4236L48.7171 36.4289ZM47.9603 36.2712V37.3668C47.8021 37.3487 47.6436 37.336 47.4776 37.3308V36.2349C47.6568 36.2349 47.8147 36.248 47.9834 36.2661L47.9603 36.2712ZM47.2008 36.2324V37.3308C47.0347 37.3308 46.8737 37.3487 46.7181 37.3668V36.2712C46.8816 36.2488 47.0467 36.2342 47.2137 36.2273L47.2008 36.2324ZM46.4414 36.3125V37.411C46.2789 37.4388 46.1183 37.4775 45.9613 37.5271V36.4289C46.1229 36.3778 46.2875 36.3362 46.4543 36.3046L46.4414 36.3125ZM45.5262 36.5917C45.6326 36.5434 45.7418 36.501 45.8531 36.4649V36.7236L45.5262 36.5917ZM45.5262 37.8839C46.0978 37.6391 46.7161 37.5166 47.3398 37.5245C47.9642 37.5182 48.5842 37.6407 49.1573 37.8839V38.3413C48.5828 38.1041 47.9658 37.982 47.3424 37.982C46.719 37.982 46.1007 38.1041 45.5262 38.3413V37.8839ZM44.2326 40.7833V39.9177L45.3473 38.8142V40.0521C45.0267 40.5173 44.6529 40.9446 44.2326 41.3259V40.7833ZM43.6636 40.4215V41.8301C42.5383 42.7394 41.3102 43.5198 40.0042 44.156C41.3289 43.8118 42.5724 43.2166 43.6636 42.4039V43.1118H44.2326V42.0238C44.5832 41.7834 44.9545 41.52 45.3473 41.2228V44.9908C44.1378 44.9534 42.9287 45.0512 41.7419 45.2826H36.9587V44.6961C39.3915 43.5879 41.6536 42.1488 43.6765 40.4215H43.6636ZM36.9587 45.5747H37.4865V46.8463L36.9587 47.1694V45.5747ZM33.5116 43.1894H36.6742V44.391H33.5116V43.1894ZM33.5116 44.6677H34.2183V46.4094H33.5116V44.6677ZM33.5116 46.6861H34.2183V48.6269C33.9837 48.7328 33.7437 48.8335 33.5091 48.9266V46.6861H33.5116ZM29.4853 16.6096C29.9159 17.4819 30.5575 18.2379 31.3543 18.8115C30.6215 17.767 30.022 16.6387 29.5677 15.4518C29.5888 15.1313 29.6204 14.7489 29.6784 14.2372C29.7214 12.3673 30.1536 10.5258 30.9489 8.82567C30.9199 9.23658 30.8908 9.805 30.8987 10.433C30.8987 10.9085 30.9282 11.3841 30.9862 11.8854H31.178V13.0432C31.236 13.3016 31.3047 13.5858 31.3917 13.8804C31.6697 14.7315 32.0023 15.5647 32.3879 16.3745C32.1432 15.5634 31.9503 14.7382 31.8087 13.9038C31.6874 13.0458 31.6607 12.4025 31.6607 12.4025V12.3066C32.0442 11.1095 32.5647 9.95925 33.213 8.87741C34.3934 7.01462 35.9474 5.40654 37.7812 4.15074C40.3014 2.27452 40.2024 2.78602 40.2024 2.78602C39.5886 3.49643 39.0346 4.2555 38.5484 5.05519C34.0933 9.56742 34.3869 12.9864 34.3869 12.9864C35.0084 11.1964 35.9261 9.51902 37.1042 8.02186C37.5541 7.41474 38.0865 6.87054 38.6861 6.40413C39.7571 5.58154 41.0026 5.00572 42.3314 4.71921C42.6388 4.65393 42.9495 4.60394 43.262 4.56936C45.6741 4.21531 45.4271 4.58987 45.4271 4.58987C43.2462 5.30247 41.3836 6.73232 40.1548 8.63702C41.4287 7.86795 42.8777 7.42373 44.3716 7.34486H44.3188C44.3188 7.34486 47.9489 7.18724 47.3347 7.62658C47.3347 7.62658 39.8036 10.3893 39.1366 16.9121C37.137 19.0275 35.7444 21.6238 35.0987 24.4376C35.1652 24.7112 35.2837 24.9698 35.4488 25.1998C35.1325 24.9827 34.7496 24.6958 34.3226 24.3392C34.6634 19.6284 36.0794 15.0531 38.4647 10.95C36.3154 13.0773 34.7914 15.7332 34.0523 18.6383C33.7641 19.4822 33.5211 20.3406 33.3263 21.2097C33.0808 20.9057 32.8172 20.6167 32.536 20.3441V22.6129C31.2711 21.2293 30.1533 19.7226 29.2009 18.1162C29.3322 17.6206 29.4324 17.1174 29.4995 16.6096H29.4853ZM24.9197 38.7729C25.4469 38.3128 25.6821 38.3542 26.0511 37.7779C26.3648 37.2894 25.8087 36.3668 25.6611 35.8526C25.4423 35.0773 24.68 35.3356 24.3611 34.0796C24.6411 34.3035 24.9508 34.4895 25.2814 34.6326L25.1437 34.1986C24.887 34.0122 24.6543 33.797 24.4486 33.5575L24.0444 32.8184L24.6584 33.09L24.092 31.9994C24.415 31.8161 24.7281 31.6167 25.0304 31.4022C23.6789 31.8154 22.246 31.9039 20.8522 31.6606C21.3794 31.198 21.8588 30.8339 22.2964 30.4798L22.671 30.1773C22.8872 29.9964 23.0986 29.8155 23.3094 29.6217C22.9457 29.8207 22.6193 29.9886 22.3003 30.1385C22.0709 30.2548 21.8436 30.3634 21.6142 30.4719C21.1634 30.6838 20.6944 30.8959 20.125 31.1517C19.825 31.307 19.4794 31.3562 19.1467 31.2912C17.8714 31.163 16.6174 30.8791 15.4139 30.446C16.5601 30.5312 17.7096 30.3228 18.749 29.8413C18.9888 29.7379 19.2237 29.6294 19.453 29.5157C19.8379 29.3219 20.2046 29.11 20.542 28.898C20.5921 28.8644 19.6604 29.1205 18.888 29.2936C18.656 29.3453 18.4428 29.3918 18.2688 29.4176C18.1634 29.4383 18.034 29.4511 17.8943 29.464C17.183 29.5619 16.4597 29.5392 15.7563 29.3968C15.1307 28.9817 14.5524 28.5027 14.0302 27.9677C13.3382 27.2299 12.7197 26.4284 12.1843 25.5746C13.9208 26.3934 15.7989 26.8853 17.7205 27.0245C17.0078 26.4181 16.4136 25.6894 15.9674 24.8742C16.8241 25.5464 17.7947 26.0652 18.8352 26.4068C19.6575 26.6966 20.54 26.7871 21.4057 26.6705C22.2714 26.554 23.0954 26.2338 23.8076 25.7374L21.9888 25.6885L19.9486 24.0808L19.7581 23.931C20.1179 23.8449 20.4824 23.7784 20.8496 23.7319C21.6387 23.6735 22.4325 23.7424 23.1987 23.936C22.6478 23.6458 22.0562 23.4368 21.443 23.3158C20.7316 23.1693 20.0061 23.1016 19.2793 23.1142L18.6988 23.0962L15.4641 20.5299L17.7128 20.7473H17.7256C16.9348 20.0598 16.041 19.2457 15.1526 18.4213L14.6017 17.9042C16.576 18.0646 18.5075 18.5568 20.3116 19.3592C18.2836 17.997 15.9437 17.1476 13.4998 16.8862C12.5548 15.9696 11.5511 15.1139 10.493 14.3249C11.5053 14.4722 14.2723 15.0435 14.3198 15.0486C13.8886 14.5779 13.4937 14.077 13.1368 13.5498C12.889 13.126 12.6091 12.6994 12.3903 12.2239C12.3534 12.1515 12.3216 12.0742 12.2873 11.9993C11.1498 9.68965 10.6693 7.12167 10.8959 4.56652C10.8959 4.40371 10.9165 4.24099 10.9165 4.07818C10.9213 3.95735 10.9488 3.83837 10.9963 3.72674L11.0194 3.69047C11.3156 6.1498 12.3325 8.47224 13.9478 10.3762C13.4461 7.85151 13.694 5.23881 14.6622 2.84816C15.685 0.170803 15.9802 0.452489 15.9802 0.452489C15.8268 2.1326 15.9657 3.82603 16.3896 5.46088C16.6988 6.70108 17.1484 7.90331 17.7308 9.04524C17.7071 8.26153 17.769 7.47748 17.9136 6.70635C18.2001 5.16891 18.7822 3.69923 19.6294 2.37527C21.3139 -0.250399 21.0028 0.633253 21.0028 0.633253C20.3184 3.30254 20.2675 6.09039 20.8548 8.78182C21.2544 10.2496 21.9497 11.6238 22.9001 12.8236C25.3359 15.5837 26.4458 15.3485 27.5108 16.5916L27.8197 17.0749C28.7121 18.9536 29.8789 20.6948 31.2835 22.2435C32.8366 23.8306 34.6117 25.193 36.5558 26.2904L36.5185 25.8071L36.5005 25.497C37.2367 26.1948 37.8859 26.9756 38.4351 27.8229C38.5291 27.9616 38.6133 28.1069 38.6861 28.2573L38.7788 28.4406V28.4018L38.7968 28.4586C39.0228 28.8984 39.1515 29.3805 39.174 29.8725L39.1418 29.9681V29.9911L39.0787 30.2031L38.8573 30.9088C38.8573 30.9088 39.013 31.8673 39.071 32.2136C39.2371 33.1982 38.058 33.6119 37.1248 33.2682C37.2347 33.2421 37.3377 33.1907 37.4234 33.1184C37.5091 33.0461 37.575 32.9548 37.6178 32.8521C36.9613 32.4386 36.6881 32.286 36.4245 32.0767C36.233 31.8834 36.0998 31.6418 36.0397 31.3789L35.8762 31.3145L35.2596 31.0716L34.674 30.8416C34.4707 30.8766 34.2779 30.9567 34.1115 31.0764C33.945 31.196 33.8088 31.352 33.7137 31.5316C33.635 31.3708 33.6024 31.1922 33.6172 31.0145C33.1846 31.213 32.8077 31.5119 32.5192 31.8852C32.2308 32.2585 32.0384 32.6952 31.9606 33.1572C31.9606 33.1572 31.365 32.5421 31.568 32.1234C31.5258 32.2087 31.4915 32.2965 31.4599 32.3818L31.4444 32.436C31.4174 32.5077 31.3956 32.581 31.3788 32.6556V32.6944C31.3603 32.7771 31.3418 32.8571 31.3286 32.9398V32.9556C31.3128 33.0461 31.2992 33.1365 31.2913 33.2269L31.7392 34.4156C31.586 34.3504 31.4387 34.2727 31.299 34.1831C31.299 34.2529 31.313 34.32 31.3209 34.3872V34.4364C31.3209 34.5036 31.3387 34.568 31.3466 34.6326V34.6844L31.4599 34.6481L31.4895 34.661L31.3466 34.6844L31.3685 34.8033C31.4449 35.2426 31.5444 35.6406 31.6182 35.9481C31.4758 35.9481 31.3023 35.8937 31.16 35.886C31.2963 36.4174 31.5354 36.9185 31.864 37.3618C32.0196 37.5401 32.826 38.1371 32.9736 38.2612C33.1703 38.6116 33.2272 39.0212 33.1332 39.4104C33.0392 39.7996 32.8013 40.1405 32.4652 40.3672C32.6118 40.0132 32.6608 39.6278 32.608 39.2492C32.5553 38.8706 32.4021 38.512 32.164 38.2094C32.2351 38.4368 32.3693 39.3827 31.9001 39.7445C31.9634 38.8503 31.9 38.6125 31.1355 38.1577C30.9099 37.9688 30.7108 37.7525 30.5408 37.5141C29.9968 37.2103 29.3758 37.0635 28.7504 37.0905C29.8048 36.2118 30.3321 36.9484 30.3954 36.7778C30.4147 36.6413 30.4058 36.5024 30.3696 36.3693C30.3334 36.2362 30.2704 36.1113 30.1843 36.0024C29.9482 35.8048 29.6696 35.6617 29.3695 35.5838C28.9634 35.2954 28.6383 34.9114 28.4234 34.4673L29.3772 34.7257C29.3561 34.6714 28.8025 34.2087 28.7761 34.1519C28.6742 33.877 28.5929 33.5957 28.5315 33.3096C28.3556 33.1324 28.1578 32.9771 27.9433 32.8471C27.7498 33.1153 27.6229 33.4239 27.5726 33.7487C27.5222 34.0735 27.5502 34.4056 27.6537 34.7181L27.8352 35.439C27.6501 35.4351 27.4697 35.3865 27.3087 35.297C27.3825 35.5916 27.501 36.072 27.588 36.5062C27.3172 36.4947 27.0532 36.4194 26.8183 36.2866C26.8816 36.5813 27.0578 37.1318 27.4928 37.1706C28.3818 37.2128 29.2647 37.3392 30.1289 37.5479C30.3513 37.7277 30.532 37.9518 30.6592 38.2053C30.7865 38.4589 30.8581 38.7359 30.8678 39.0183C30.0769 38.1241 29.9735 37.7778 28.3655 37.6719C29.275 37.9303 29.512 37.9069 29.968 38.6331C29.507 38.3622 28.9743 38.2323 28.4376 38.2599C27.9008 38.2875 27.3843 38.4716 26.9547 38.7883C26.7926 38.8376 26.6342 38.8954 26.4785 38.9615C26.2433 38.9689 26.009 38.9981 25.7795 39.0492C25.5994 39.1326 25.4385 39.2506 25.3059 39.3962C25.1732 39.5418 25.0715 39.7121 25.0072 39.8969C24.9545 39.946 24.9016 39.995 24.8515 40.0467C24.7048 39.8609 24.6318 39.6291 24.6468 39.3946C24.6619 39.1602 24.7633 38.9392 24.9326 38.7729H24.9197ZM23.6518 43.5409C23.651 42.4125 24.0664 41.322 24.8219 40.4707C24.8655 40.4871 24.9131 40.4932 24.9596 40.4887C25.0255 40.4778 25.0861 40.447 25.1334 40.4007C25.1806 40.3544 25.2124 40.2949 25.2235 40.2303C25.2511 40.1158 25.3063 40.0095 25.3844 39.9202C25.6854 39.6767 26.0157 39.4701 26.3678 39.305C26.6333 39.3221 26.8954 39.2432 27.1053 39.083C27.1562 39.0387 27.215 39.0043 27.2791 38.982C27.6601 38.8877 28.0511 38.8393 28.444 38.8375C29.7144 38.8375 30.9336 39.332 31.8319 40.2127C32.7301 41.0933 33.2349 42.2876 33.2349 43.533V44.386H32.3622C32.4135 44.1306 32.4394 43.8709 32.4407 43.6106C32.4407 42.564 32.0166 41.5603 31.2616 40.8203C30.5067 40.0802 29.4833 39.6644 28.4157 39.6644C27.3481 39.6644 26.3246 40.0802 25.5697 40.8203C24.8148 41.5603 24.3907 42.564 24.3907 43.6106C24.3904 43.871 24.4163 44.1308 24.4692 44.386H23.6518V43.5409ZM29.5433 40.4398C28.4296 40.7424 27.4627 41.4227 26.8132 42.3597C26.8024 42.3741 26.7879 42.386 26.772 42.3944C26.756 42.4029 26.7386 42.4079 26.7205 42.409C26.6875 42.4083 26.6554 42.3962 26.6304 42.3752C26.2578 42.0599 25.9842 41.6479 25.84 41.1865C25.8349 41.1659 25.8353 41.1445 25.8413 41.124C25.8473 41.1036 25.8592 41.0849 25.8748 41.0701C26.3486 40.606 26.9434 40.2791 27.5945 40.125C28.2456 39.9709 28.9275 39.9958 29.5651 40.1969C29.5919 40.2046 29.6154 40.2204 29.6321 40.2423C29.6488 40.2642 29.6578 40.291 29.6578 40.3183C29.6578 40.3457 29.6488 40.3722 29.6321 40.3941C29.6154 40.4159 29.5919 40.4321 29.5651 40.4398H29.5433ZM30.3722 40.5947C30.3968 40.596 30.4202 40.6041 30.4404 40.618C30.9161 40.9279 31.3107 41.3431 31.5925 41.8301C31.6032 41.8475 31.6096 41.8674 31.6105 41.8878C31.6114 41.9082 31.6068 41.9282 31.5976 41.9465C31.5884 41.9648 31.5747 41.9805 31.5577 41.9922C31.5407 42.0039 31.5204 42.0114 31.4998 42.0137C30.3854 42.1781 29.3661 42.7215 28.6191 43.5487C28.6067 43.562 28.5908 43.5725 28.574 43.5797C28.5572 43.5868 28.5396 43.5904 28.5212 43.5901C28.5021 43.594 28.4824 43.594 28.4633 43.5901C27.9543 43.3485 27.4716 43.0574 27.0217 42.7216C26.9965 42.7013 26.9797 42.6725 26.9753 42.6408C26.9709 42.6092 26.9785 42.577 26.9972 42.5509C27.503 41.8382 28.1945 41.2708 28.9988 40.9073C29.4321 40.7041 29.9048 40.595 30.3851 40.5871L30.3722 40.5947ZM26.4489 42.5717C27.0426 43.0923 27.7124 43.5227 28.4363 43.8484C28.452 43.8564 28.4662 43.8673 28.4775 43.8806C28.4888 43.8939 28.4968 43.9095 28.5019 43.926C28.6444 44.4148 28.71 44.9218 28.695 45.4299C28.6946 45.4479 28.6903 45.4655 28.6821 45.4816C28.6739 45.4977 28.6618 45.5119 28.6474 45.523C28.624 45.5406 28.5958 45.5498 28.5663 45.5488H28.5418C27.9563 45.4421 27.392 45.2459 26.8685 44.9674C25.9923 44.5135 25.2956 43.7858 24.8888 42.8998C24.8798 42.8739 24.8798 42.8457 24.8888 42.8197C24.9948 42.3566 25.1902 41.9179 25.4655 41.5275C25.4783 41.5087 25.496 41.4939 25.517 41.4843C25.5379 41.4748 25.5609 41.4709 25.5839 41.4733C25.6062 41.4759 25.6276 41.4844 25.6457 41.4976C25.6637 41.5107 25.6779 41.5282 25.6869 41.5484C25.8751 41.9333 26.1382 42.2782 26.4617 42.5639L26.4489 42.5717ZM24.8837 43.621C24.9106 43.6121 24.9393 43.6122 24.966 43.6216C24.9928 43.631 25.0153 43.6491 25.0304 43.6727C25.4976 44.3452 26.1335 44.8887 26.8762 45.2516C27.3987 45.5131 27.9571 45.6985 28.5341 45.8021C28.5683 45.8088 28.5992 45.8283 28.6191 45.8564C28.6375 45.8838 28.6437 45.9173 28.6371 45.9495C28.5611 46.3687 28.3736 46.7607 28.0939 47.0864C28.0821 47.0998 28.0678 47.1107 28.0514 47.1183C28.0351 47.1258 28.0167 47.1302 27.9986 47.1306H27.9832C27.3503 47.0553 26.7495 46.8175 26.2404 46.4413C25.7312 46.0651 25.3314 45.5639 25.0832 44.9882C24.9122 44.596 24.816 44.1765 24.7987 43.7503C24.7958 43.7199 24.804 43.6893 24.8219 43.6642C24.8397 43.6391 24.8664 43.6209 24.8965 43.6131L24.8837 43.621ZM28.5109 46.9599C28.6707 46.7145 28.787 46.4447 28.8559 46.1615C28.9378 45.8335 28.9742 45.4961 28.964 45.1586C28.9527 44.7208 28.8825 44.2863 28.7555 43.8664C28.7493 43.8465 28.7483 43.8253 28.7529 43.8049C28.7575 43.7845 28.7683 43.7659 28.7825 43.7503C29.2182 43.2588 29.757 42.8662 30.3632 42.6001C30.3795 42.5927 30.398 42.5886 30.416 42.5885C30.434 42.5883 30.451 42.5921 30.4675 42.5992C30.4839 42.6063 30.4992 42.6167 30.5112 42.6298C30.5232 42.6429 30.5328 42.6584 30.5383 42.6752C30.7149 43.2191 30.8029 43.7868 30.8008 44.3576C30.8013 44.8023 30.724 45.2438 30.5717 45.6627C30.3953 46.132 30.1093 46.554 29.7363 46.8952C29.724 46.9063 29.7094 46.915 29.6939 46.9211C29.347 47.0517 28.9811 47.1285 28.6101 47.1486C28.588 47.1485 28.5663 47.1432 28.547 47.1328C28.5276 47.1224 28.5113 47.1075 28.4994 47.0893C28.4889 47.0667 28.4861 47.0414 28.4903 47.017C28.4946 46.9926 28.5064 46.9699 28.5238 46.952L28.5109 46.9599ZM30.6979 46.058C30.8098 45.8277 30.8984 45.5871 30.9617 45.3397C31.0573 44.9393 31.0953 44.5279 31.075 44.1172C31.0502 43.5903 30.9547 43.069 30.7905 42.5667C30.7778 42.536 30.7778 42.5018 30.7905 42.4711C30.7978 42.4563 30.8087 42.443 30.8214 42.4323C30.8341 42.4216 30.8479 42.4137 30.8639 42.409C31.1332 42.3268 31.4105 42.268 31.6903 42.2332C31.7192 42.2302 31.7479 42.2366 31.7727 42.2515C31.7975 42.2665 31.8164 42.2892 31.8267 42.3159C32.153 43.1547 32.1442 44.0834 31.801 44.9157C31.6016 45.4034 31.2918 45.8406 30.8961 46.1949C30.8852 46.2059 30.872 46.2147 30.8575 46.2205C30.843 46.2262 30.8281 46.2291 30.8124 46.2287C30.7851 46.229 30.7575 46.2208 30.7352 46.2053C30.7144 46.1856 30.7009 46.1598 30.6966 46.1318C30.6923 46.1038 30.6981 46.0749 30.712 46.0501L30.6979 46.058ZM23.6518 44.6753H24.5374C24.7751 45.5042 25.2829 46.2342 25.9829 46.7542C26.683 47.2742 27.5374 47.5558 28.4157 47.5558C29.294 47.5558 30.1484 47.2742 30.8485 46.7542C31.5485 46.2342 32.0563 45.5042 32.294 44.6753H33.2349V49.0404C31.8686 49.5604 30.4168 49.8309 28.9512 49.8389H28.9164C27.091 49.7758 25.2994 49.3355 23.6596 48.5467V44.6702L23.6518 44.6753ZM20.2086 43.197H23.3725V44.3989H20.2086V43.197ZM20.905 46.6937V47.2804C20.6756 47.1693 20.4432 47.058 20.2086 46.9495V46.6911L20.905 46.6937ZM19.9267 46.505V46.8205L19.4427 46.5981V45.5826H19.9267V46.505ZM11.6733 39.7858V38.8088L12.788 39.9152V41.3234C12.3683 40.9416 11.9945 40.5143 11.6733 40.0496V39.7858ZM11.6733 41.2174C12.0661 41.5146 12.4374 41.7784 12.788 42.0187V43.1068H13.3582V42.4011C14.4492 43.2121 15.6905 43.8064 17.0138 44.1507C15.7084 43.5149 14.4824 42.7347 13.3582 41.825V40.419C15.3417 42.1104 17.5512 43.5277 19.9267 44.6314V45.2775C19.9267 45.2775 17.1277 45.2904 15.9493 45.2775C14.5513 44.9411 13.1029 44.8537 11.6733 45.0191V41.2149V41.2174ZM8.78617 40.6414V42.6932C8.62387 42.7218 8.46456 42.7608 8.30734 42.8096V40.742C8.47342 40.7136 8.63426 40.6749 8.80033 40.6439L8.78617 40.6414ZM8.30734 40.5224V38.4135C8.46494 38.3661 8.62417 38.3271 8.78617 38.2971V40.406C8.62829 40.4362 8.4731 40.476 8.32021 40.525L8.30734 40.5224ZM9.54561 40.5612V42.6131C9.38217 42.6131 9.22237 42.6287 9.06421 42.6493V40.5972C9.22869 40.5775 9.39409 40.5665 9.55977 40.5638L9.54561 40.5612ZM9.06421 40.3647V38.2558C9.22415 38.2345 9.38422 38.2226 9.54561 38.2198V40.3284C9.38858 40.3327 9.23262 40.3457 9.07708 40.3672L9.06421 40.3647ZM9.06421 44.4841V42.8998C9.06421 42.8998 9.37696 42.869 9.54304 42.8639V44.4841V45.3886L9.05262 45.51L9.06421 44.4841ZM11.0593 40.7575V42.8096C10.9025 42.7593 10.7418 42.7203 10.5792 42.6932V40.6414C10.7478 40.6699 10.9142 40.7094 11.0774 40.76L11.0593 40.7575ZM10.5792 40.406V38.2971C10.7414 38.3265 10.9019 38.3655 11.0593 38.4135V40.5224C10.907 40.4761 10.7514 40.438 10.5947 40.4086L10.5792 40.406ZM11.0619 43.0601V44.4144V45.1068C10.9011 45.1301 10.74 45.1535 10.5818 45.1819V42.9412C10.5818 42.9412 10.9245 43.0238 11.0774 43.0626L11.0619 43.0601ZM11.1675 38.7031V38.4445C11.2835 38.4832 11.3941 38.5273 11.4996 38.5738L11.1675 38.7031ZM10.3025 40.3647C10.1434 40.3434 9.98287 40.3313 9.82236 40.3284V38.2198H10.0579L10.3025 38.2457V40.3647ZM10.3025 40.5972V42.6493C10.1433 42.6293 9.9828 42.6172 9.82236 42.6131V40.5612C9.99898 40.569 10.1624 40.582 10.3179 40.6001L10.3025 40.5972ZM10.3025 42.8998V45.2258L9.82236 45.3239V42.8585C9.82236 42.8585 10.1624 42.882 10.3179 42.9027L10.3025 42.8998ZM11.1675 36.6977V36.439C11.2806 36.4758 11.3914 36.5191 11.4996 36.5684L11.1675 36.6977ZM9.30877 33.9377C9.30877 33.8498 9.49295 33.8496 9.54304 33.8496H9.82236C9.86981 33.8496 10.0553 33.8498 10.0553 33.9377V34.1597C9.93407 34.1597 9.80987 34.1468 9.68334 34.1468C9.5568 34.1468 9.41949 34.1468 9.30877 34.1597V33.9377ZM9.30877 34.3121C9.43003 34.3121 9.55423 34.2992 9.68077 34.2992C9.8073 34.2992 9.94462 34.2992 10.0553 34.3121L11.497 35.6585C10.9231 35.4207 10.3064 35.2983 9.68334 35.2983C9.06028 35.2983 8.44359 35.4207 7.8697 35.6585L9.30877 34.3121ZM7.8697 35.863C8.44359 35.6251 9.06028 35.5024 9.68334 35.5024C10.3064 35.5024 10.9231 35.6251 11.497 35.863V36.3204C10.9227 36.0841 10.3061 35.9623 9.68334 35.9623C9.06053 35.9623 8.44399 36.0841 7.8697 36.3204V35.863ZM11.0568 36.4131V37.5116C10.8997 37.4622 10.7391 37.4233 10.5766 37.3952V36.2971C10.746 36.3294 10.9131 36.3715 11.0774 36.4236L11.0568 36.4131ZM10.2999 36.2557V37.3513C10.1444 37.3333 9.98059 37.3202 9.81978 37.3151V36.2194C9.99904 36.235 10.1624 36.248 10.3179 36.2661L10.2999 36.2557ZM9.54046 36.2169V37.3151C9.37702 37.3151 9.21594 37.3333 9.05777 37.3513V36.2557C9.22824 36.2437 9.39633 36.2342 9.55977 36.2273L9.54046 36.2169ZM8.78103 36.2971V37.3952C8.61872 37.4238 8.45941 37.4628 8.30219 37.5116V36.4131C8.46601 36.3676 8.63227 36.3314 8.80033 36.3046L8.78103 36.2971ZM7.8697 36.5762C7.97522 36.528 8.0836 36.4855 8.19407 36.4494V36.7078L7.8697 36.5762ZM7.8697 37.8684C8.44039 37.6236 9.05788 37.501 9.68077 37.5091C10.3052 37.5024 10.924 37.6249 11.497 37.8684V38.3258C10.9229 38.0887 10.3063 37.9665 9.68334 37.9665C9.0604 37.9665 8.44377 38.0887 7.8697 38.3258V37.8684ZM7.8697 38.5634C7.97251 38.5169 8.08072 38.4756 8.19407 38.4369V38.6952L7.8697 38.5634ZM8.30219 44.7166V43.0471C8.30219 43.0471 8.61495 42.9592 8.78103 42.9282V45.5722C8.61758 45.6187 8.45503 45.6626 8.30477 45.7091L8.30219 44.7166ZM50.9066 47.2467C49.854 48.6013 49.215 50.2204 49.0621 51.9166C49.0547 52.0276 49.0217 52.1356 48.9655 52.2324C48.9094 52.3291 48.8314 52.4121 48.7377 52.4749C48.2495 52.6835 47.701 52.712 47.1931 52.5551L46.9292 52.4904L46.8533 53.5422L46.5418 53.3456C46.1415 53.1645 45.6932 53.1132 45.261 53.1986C45.1767 53.2116 45.0894 53.232 44.9972 53.2501C44.8448 53.311 44.6801 53.3387 44.5158 53.3311C44.3514 53.3235 44.1905 53.281 44.0446 53.2062C43.9713 53.1416 43.9143 53.0617 43.8773 52.9721C43.8403 52.8826 43.8254 52.7859 43.8323 52.6895C43.8307 52.5915 43.8505 52.4942 43.8915 52.4049C43.9325 52.3156 43.9933 52.2362 44.0691 52.1724L44.0974 52.1494V52.1336L44.1245 52.1182C44.6156 51.7769 45.0017 51.3105 45.2417 50.7692C43.7747 50.7458 42.3206 51.0333 40.9773 51.6118L40.7314 51.7049C39.7534 52.0667 38.8098 52.5215 37.816 52.9971C35.1434 54.4781 32.1764 55.3754 29.1172 55.6277C28.785 55.6458 28.4654 55.6561 28.157 55.6561C25.2993 55.5896 22.5156 54.7565 20.1069 53.2475C18.7812 52.5058 17.3914 51.879 15.9545 51.374C14.6417 50.9297 13.2523 50.7462 11.8664 50.8339C12.194 51.3087 12.5914 51.7327 13.0467 52.0923V52.1077C13.1099 52.1727 13.1596 52.2494 13.1922 52.3333C13.2248 52.4172 13.2403 52.5067 13.2372 52.5964C13.2402 52.6945 13.2191 52.7921 13.178 52.8816C13.1369 52.9711 13.076 53.0502 12.9991 53.1131C12.8498 53.1818 12.6878 53.2176 12.5229 53.2176C12.3579 53.2176 12.1946 53.1818 12.0453 53.1131C11.9557 53.0899 11.8684 53.0666 11.7814 53.0485C11.3547 52.9445 10.9059 52.9754 10.4981 53.1365L10.1763 53.3201L10.1493 52.2655L9.86741 52.3172C9.35399 52.4497 8.80895 52.3956 8.33309 52.1648C8.24285 52.0973 8.16926 52.0106 8.11813 51.9112C8.06699 51.8118 8.04012 51.7023 8.03832 51.591C7.99773 49.9459 7.36931 48.3673 6.26201 47.1306L6.03675 46.9161L6.31993 46.7817C9.35515 45.3786 12.77 44.9707 16.06 45.6185L17.7256 46.182C18.9673 46.6652 20.1243 47.2159 21.2525 47.7612C22.3808 48.3065 23.4574 48.813 24.5593 49.2291L24.8644 49.366L25.0072 49.3969C26.2553 49.8572 27.5753 50.1021 28.9087 50.1206H28.946C32.1724 49.9114 35.2717 48.8129 37.8893 46.952C38.2044 46.7681 38.5323 46.6058 38.8702 46.4662L39.0182 46.399C40.9042 45.5877 42.9552 45.2139 45.0126 45.3062C47.07 45.3986 49.0784 45.9547 50.8809 46.9315L51.0765 47.071L50.9066 47.2467Z" fill="#90949C"/>
<path d="M38.13 45.8667C35.4379 47.7571 32.2625 48.8764 28.9589 49.0996H28.9189C26.1476 48.9094 23.46 48.0862 21.071 46.696C19.5564 45.9298 17.9919 45.2633 16.387 44.701C13.1762 43.939 9.79709 44.2548 6.79102 45.5979C7.77136 46.8059 8.35418 48.2777 8.46049 49.8179C9.64848 49.2663 10.9365 48.9549 12.25 48.9021C13.5634 48.8493 14.875 49.056 16.1051 49.5103C17.5641 50.0255 18.9755 50.6629 20.3232 51.4151C22.9284 53.0708 25.9965 53.8842 29.0979 53.7411C32.0994 53.4989 35.0117 52.6169 37.6293 51.1568C38.5915 50.6679 39.5789 50.2279 40.5872 49.8387L40.8241 49.7482C42.0535 49.1458 43.4162 48.8538 44.7899 48.8989C46.1636 48.9441 47.5045 49.3248 48.6901 50.0066C48.8986 48.4538 49.4958 46.9759 50.4277 45.7039C48.518 44.7519 46.4006 44.2691 44.2583 44.2975C42.116 44.3259 40.0129 44.8645 38.13 45.8667ZM10.9164 48.1305C10.7318 48.1744 10.5404 48.1784 10.3539 48.1428C10.1675 48.1071 9.99071 48.0326 9.83649 47.9238C9.68226 47.8151 9.55446 47.6747 9.46063 47.5128C9.3668 47.3508 9.3096 47.1712 9.2933 46.9856C9.24143 46.8035 9.22996 46.6127 9.25983 46.426C9.2897 46.2392 9.35956 46.0607 9.46578 45.9029C9.57199 45.7451 9.71168 45.6115 9.8751 45.5111C10.0385 45.4108 10.222 45.3461 10.4131 45.3212C10.6563 45.2686 10.9084 45.2758 11.1481 45.342L11.1752 46.0682C10.999 45.9714 10.794 45.9357 10.5946 45.9673C10.215 46.0396 10.021 46.3652 10.1107 46.8304C10.1152 46.9242 10.1392 47.0162 10.1827 47.0998C10.2263 47.1835 10.2881 47.2569 10.3629 47.3156C10.4378 47.3743 10.5237 47.4169 10.6165 47.4402C10.7093 47.4635 10.8066 47.4669 10.901 47.4506C11.1 47.4065 11.2831 47.309 11.4287 47.1689L11.6604 47.8021C11.4443 47.9703 11.1882 48.0833 10.9164 48.1305ZM13.5217 48.0478L13.057 47.1329H12.9309L12.8781 47.9882L12.0504 47.9393L12.2191 45.1792L13.2977 45.2436C14.0227 45.2875 14.4171 45.6263 14.3828 46.2181C14.3832 46.384 14.3338 46.5463 14.2399 46.6843C14.1461 46.8224 14.0127 46.9297 13.8564 46.9932L14.4227 47.9831L13.5217 48.0478ZM16.0626 47.5308L15.7987 48.4844L14.9891 48.2674L15.2529 47.332L14.7793 45.4323L15.6674 45.5537L15.8965 46.7168L16.674 45.8512L17.5119 46.0758L16.0626 47.5308ZM18.346 47.5645C18.8495 48.0013 19.0041 48.3062 18.8249 48.7223C18.7749 48.8439 18.6988 48.9532 18.6009 49.0425C18.503 49.1318 18.3858 49.1988 18.2585 49.239C18.1312 49.2792 17.9973 49.2915 17.8646 49.275C17.732 49.2585 17.6043 49.2136 17.4914 49.1434C17.1517 49.0026 16.8467 48.7929 16.5955 48.5283L16.9778 47.9598C17.1878 48.2166 17.4521 48.4257 17.7527 48.5724C17.9029 48.637 18.0165 48.6265 18.0719 48.5153C18.1272 48.4042 18.0711 48.3321 17.7758 48.0607C17.3277 47.655 17.1624 47.3834 17.3575 46.9389C17.408 46.8258 17.4814 46.7246 17.575 46.6421C17.6687 46.5595 17.7793 46.4976 17.8994 46.4604C18.0195 46.4232 18.1463 46.4115 18.2714 46.4263C18.3964 46.4411 18.5178 46.482 18.6254 46.5462C18.9304 46.6595 19.2016 46.845 19.4157 47.0863L19.0334 47.6497C18.8654 47.4314 18.6473 47.2546 18.3975 47.1329C18.242 47.0683 18.1343 47.0889 18.1079 47.1768C18.0816 47.2647 18.093 47.3344 18.346 47.5541V47.5645ZM19.9512 50.2936L19.2072 49.911L20.1931 48.0658L19.5238 47.7222L19.8482 47.12L21.8562 48.1538L21.6348 48.8075L20.9371 48.451L19.9512 50.2936ZM23.0249 51.7432L22.2102 51.4848L22.2887 50.9681L21.4983 50.5779L21.1611 50.9318L20.439 50.575L22.5796 48.5257L23.415 48.9368L23.0249 51.7432ZM25.1333 52.5341L23.4703 52.0174L24.3379 49.3917L25.1282 49.6501L24.4795 51.6167L25.2389 51.8571L25.1333 52.5341ZM27.7013 52.0174H27.5726L27.543 52.8442L26.7101 52.8183L26.8054 50.0532L27.7798 50.0867C28.5074 50.1099 28.9426 50.4329 28.9215 51.0713C28.9004 51.7096 28.4081 52.0198 27.6858 51.9965L27.7013 52.0174ZM31.0171 52.6505L30.7879 52.1827L29.9075 52.3016L29.8341 52.7795L29.0425 52.8881L29.623 50.0066L30.5511 49.8826L31.8473 52.4101L31.0171 52.6505ZM32.4201 52.3325L31.5873 49.6914L32.3776 49.4485L32.9993 51.4227L33.7613 51.1927L34.0805 51.8259L32.4201 52.3325ZM36.2559 50.9344L35.9019 50.552L35.0923 50.9085L35.1618 51.3867L34.4229 51.7148L34.1436 48.792L34.9983 48.4147L36.9728 50.4823L36.2559 50.9344ZM38.3939 49.9214C38.2274 50.0114 38.0429 50.0649 37.8533 50.0785C37.6637 50.0921 37.4727 50.0652 37.2946 49.9999C37.1166 49.9346 36.9549 49.8325 36.821 49.7002C36.687 49.568 36.5838 49.409 36.5185 49.234C36.4197 49.0715 36.358 48.8901 36.337 48.7021C36.316 48.5141 36.337 48.3236 36.3975 48.144C36.458 47.9644 36.5573 47.7998 36.6884 47.661C36.8195 47.5222 36.9789 47.4125 37.1569 47.3396C37.3791 47.229 37.6247 47.1716 37.8739 47.1717L38.0901 47.8642C37.8956 47.816 37.6896 47.8343 37.507 47.9159C37.3676 48.0276 37.2715 48.1827 37.2341 48.3554C37.1968 48.5281 37.2212 48.7082 37.3024 48.8658C37.3835 49.0234 37.5169 49.1489 37.6808 49.222C37.8447 49.2951 38.0289 49.3111 38.2034 49.2674C38.3833 49.1735 38.5338 49.0332 38.6385 48.8617L39.031 49.4122C38.8604 49.624 38.6392 49.7915 38.3875 49.9006L38.3939 49.9214ZM39.3979 49.4046L38.3437 46.8459L40.0621 46.1559L40.3131 46.7531L39.3477 47.138L39.5009 47.5049L40.2307 47.2156L40.5705 47.7661L39.7454 48.0967L39.9166 48.5052L40.9129 48.1046L41.1613 48.7015L39.3979 49.4046ZM43.02 48.1589L42.2078 48.3267L41.6273 45.6209L43.3727 45.2644L43.513 45.9209L42.5824 46.1121L42.6751 46.5487L43.347 46.4118L43.6108 47.0424L42.8192 47.2027L43.02 48.1589ZM44.1901 47.9831C44.1115 47.9896 44.0325 47.973 43.9635 47.9355C43.8946 47.898 43.8386 47.8412 43.8026 47.7724C43.7666 47.7036 43.7523 47.6258 43.7614 47.5491C43.7705 47.4723 43.803 47.4 43.8541 47.3412C43.9052 47.2823 43.9726 47.2398 44.0485 47.2188C44.1244 47.1977 44.2052 47.1993 44.2802 47.2232C44.3551 47.2471 44.4219 47.2924 44.4707 47.3531C44.5194 47.4139 44.5483 47.4874 44.5543 47.5645C44.5546 47.663 44.5161 47.7578 44.4475 47.8298C44.379 47.9018 44.2852 47.9457 44.1849 47.9522L44.1901 47.9831ZM47.3771 47.5954C47.4555 47.5896 47.5339 47.6066 47.6024 47.6443C47.6709 47.6821 47.7264 47.739 47.762 47.8077C47.7976 47.8764 47.8124 47.9539 47.8032 48.0305C47.7939 48.107 47.7615 48.1791 47.7105 48.2377C47.6595 48.2964 47.5918 48.3391 47.5161 48.3601C47.4405 48.3812 47.3606 48.3797 47.2857 48.356C47.2109 48.3324 47.1441 48.2874 47.0952 48.227C47.0464 48.1666 47.0168 48.0934 47.0103 48.0166C47.0018 47.9634 47.0055 47.9091 47.0193 47.8569C47.0331 47.8048 47.0575 47.7561 47.0914 47.7137C47.1252 47.6713 47.1679 47.6362 47.2162 47.6106C47.2645 47.5849 47.3172 47.5692 47.372 47.5645L47.3771 47.5954ZM44.741 46.5127C44.7456 46.3238 44.792 46.1379 44.8761 45.9679C44.9602 45.7979 45.0804 45.6477 45.2288 45.5272C45.3773 45.4067 45.5499 45.3188 45.736 45.2695C45.922 45.2201 46.1173 45.2103 46.3075 45.2411C46.5556 45.2628 46.794 45.3415 47.0051 45.4711L46.8133 46.1714C46.674 46.0272 46.4869 45.9358 46.2856 45.913C45.9007 45.8743 45.6161 46.1301 45.5661 46.6004C45.5421 46.692 45.5389 46.7878 45.5558 46.8809C45.5726 46.974 45.6092 47.0623 45.6639 47.1402C45.7186 47.2181 45.7897 47.2837 45.8724 47.3323C45.9551 47.381 46.0482 47.4115 46.144 47.4222C46.3481 47.4351 46.5511 47.394 46.7335 47.3033L46.7657 47.9752C46.5068 48.0742 46.2266 48.1082 45.9509 48.0737C45.7566 48.0638 45.5676 48.0116 45.3962 47.9213C45.2247 47.831 45.0755 47.7047 44.9598 47.5513C44.8441 47.3978 44.7646 47.2211 44.7268 47.0339C44.689 46.8467 44.6936 46.6536 44.741 46.4686V46.5127Z" fill="#90949C"/>
<path d="M27.7062 50.658H27.6032L27.5801 51.3996H27.6715C27.9509 51.3996 28.1063 51.2934 28.1143 51.0324C28.1222 50.7714 27.983 50.6683 27.7062 50.658Z" fill="#90949C"/>
<path d="M34.9901 50.2494L35.4638 50.0403L34.8652 49.345L34.9901 50.2494Z" fill="#90949C"/>
<path d="M22.4129 50.3244L22.5867 49.4329L21.9482 50.0944L22.4129 50.3244Z" fill="#90949C"/>
<path d="M29.9951 51.637L30.5087 51.5673L30.1367 50.7351L29.9951 51.637Z" fill="#90949C"/>
<path d="M13.1697 45.8252H13.0011L12.9561 46.5643H13.1285C13.1822 46.5752 13.2375 46.5738 13.2907 46.5609C13.3439 46.5479 13.3926 46.5235 13.4349 46.4893C13.4771 46.455 13.511 46.4118 13.534 46.3631C13.557 46.3143 13.5695 46.2613 13.5688 46.2075C13.5819 45.9801 13.4492 45.8433 13.1697 45.8252Z" fill="#90949C"/>
</svg>
