<svg width="57" height="56" viewBox="0 0 57 56" fill="none" xmlns="http://www.w3.org/2000/svg">
<path d="M26.9101 46.6873H25.9453V51.1089H26.9101V46.6873Z" fill="#90949C"/>
<path d="M27.8262 47.5822H29.1752V51.1218H30.1426V47.5822H31.4904V46.7002H27.8262V47.5822Z" fill="#90949C"/>
<path d="M34.095 48.48L33.0269 46.6873H31.9121L33.605 49.3441V51.1088H34.5825V49.3441L36.2691 46.6873H35.1758L34.095 48.48Z" fill="#90949C"/>
<path d="M23.2369 50.3119C22.882 50.2894 22.5483 50.1335 22.3036 49.8754C22.0589 49.6173 21.9217 49.2763 21.9181 48.9206C21.9145 48.565 22.0452 48.2209 22.2847 47.958C22.5241 47.695 22.8535 47.5323 23.208 47.5026C23.4197 47.5088 23.629 47.5579 23.8214 47.6465C24.0138 47.7352 24.1855 47.8618 24.3278 48.0187L24.9525 47.3014C24.7283 47.0772 24.461 46.9012 24.1665 46.7837C23.8721 46.6662 23.5564 46.6095 23.2395 46.6177C22.634 46.6177 22.0528 46.8584 21.6246 47.2866C21.1965 47.7147 20.957 48.2953 20.957 48.9008C20.957 49.5063 21.1965 50.0871 21.6246 50.5153C22.0528 50.9435 22.634 51.1838 23.2395 51.1838C23.5671 51.1897 23.8926 51.1236 24.1917 50.9899C24.4909 50.8561 24.7561 50.6582 24.9702 50.4101L24.3668 49.791C24.0691 50.1006 23.6657 50.2864 23.2369 50.3119Z" fill="#90949C"/>
<path d="M39.3018 12.6276L40.0525 13.2027L42.1523 10.4605L43.1965 11.2578L43.7129 10.5741L40.875 8.39941L40.3598 9.08559L41.3915 9.88545L39.3018 12.6276Z" fill="#90949C"/>
<path d="M23.3629 9.77672C23.6719 9.69203 23.9593 9.54045 24.2031 9.3327C24.447 9.12496 24.6423 8.86629 24.775 8.57473L24.0368 8.16189C23.8441 8.5346 23.518 8.82113 23.1236 8.96427C22.7827 9.04648 22.4231 8.99561 22.1184 8.82193C21.8137 8.64825 21.5866 8.36489 21.4836 8.02963C21.3806 7.69437 21.4095 7.3323 21.5642 7.01752C21.7189 6.70274 21.9879 6.4588 22.3162 6.33544C22.5136 6.26694 22.724 6.24662 22.9309 6.27624C23.1378 6.30585 23.335 6.38465 23.5053 6.5058L23.8945 5.65965C23.6211 5.50925 23.3197 5.41674 23.009 5.38789C22.6983 5.35904 22.3859 5.39462 22.0895 5.49212C21.8038 5.57134 21.5363 5.70639 21.3035 5.88985C21.0706 6.07331 20.8767 6.30139 20.7329 6.5606C20.589 6.8198 20.4983 7.10515 20.4658 7.39982C20.4333 7.69448 20.4588 7.99249 20.5427 8.27683C20.6265 8.56116 20.7673 8.82607 20.9545 9.0559C21.1418 9.28573 21.372 9.47588 21.6335 9.61549C21.895 9.7551 22.1823 9.84129 22.4774 9.86899C22.7726 9.89668 23.0699 9.86524 23.3529 9.77672H23.3629Z" fill="#90949C"/>
<path d="M10.8491 18.7051L9.75074 16.7187L12.2838 18.0422L12.7146 17.2244L8.8816 15.1914L8.41176 16.0867L9.53408 17.9802L7.33857 18.1377L6.86621 19.038L10.7106 21.0527L11.1388 20.2324L8.61078 18.9114L10.8491 18.7051Z" fill="#90949C"/>
<path d="M17.7628 12.2766L16.3105 9.87262L19.5968 11.1625L20.2581 10.7625L18.0135 7.04761L17.2212 7.52752L18.6219 9.84932L15.464 8.59568L14.7246 9.0419L16.973 12.7565L17.7628 12.2766Z" fill="#90949C"/>
<path d="M26.8072 9.09828L26.7618 7.36473L28.5392 7.32096L28.582 9.05451L29.5065 9.03121L29.3982 4.72583L28.4737 4.74882L28.5177 6.45938L26.7404 6.50315L26.6938 4.79259L25.7705 4.81589L25.8788 9.12159L26.8072 9.09828Z" fill="#90949C"/>
<path d="M34.2503 9.12699L31.9288 8.61118L32.1316 7.67213L33.7502 8.02545L34.181 7.28007L32.3029 6.87479L32.4931 5.99778L34.7768 6.49313L34.9569 5.66241L31.7714 4.97119L30.8506 9.21202L34.0752 9.9111L34.2503 9.12699Z" fill="#90949C"/>
<path d="M43.8522 17.1804L44.4757 16.6646L42.9516 14.8589L43.6809 14.2424L44.7491 15.5064L45.593 15.2331L44.3032 13.7162L44.9897 13.1383L46.4962 14.9207L47.1461 14.374L45.0438 11.8818L41.7285 14.6782L43.8522 17.1804Z" fill="#90949C"/>
<path d="M48.2497 16.0894L44.3965 18.0166L44.8084 18.8419L46.0491 18.2228L46.4005 18.9194L45.573 20.3768L46.0655 21.3624L46.9837 19.7164C47.1849 19.9219 47.4476 20.0564 47.732 20.0997C48.0163 20.1429 48.3063 20.0927 48.5595 19.9564C48.7414 19.8764 48.9045 19.7585 49.0369 19.6103C49.1693 19.4622 49.2687 19.2873 49.3279 19.0976C49.3871 18.9079 49.4043 18.7078 49.3795 18.5107C49.3548 18.3135 49.2885 18.1237 49.1843 17.9545L48.2497 16.0894ZM48.1313 19.1282C48.0526 19.1676 47.9672 19.1904 47.8793 19.1946C47.7915 19.1989 47.7032 19.1846 47.6211 19.1531C47.539 19.1215 47.4643 19.0734 47.4019 19.0114C47.3396 18.9493 47.2916 18.8747 47.2596 18.7928L46.7898 17.8541L47.9247 17.2838L48.4021 18.2332C48.4485 18.3085 48.4788 18.3927 48.4902 18.4804C48.5017 18.5681 48.4944 18.6572 48.4688 18.7418C48.4432 18.8264 48.3997 18.9047 48.3416 18.9714C48.2835 19.038 48.2116 19.0913 48.1313 19.1282Z" fill="#90949C"/>
<path d="M13.8389 15.8523L13.3955 14.8821L14.664 13.5381L15.6553 13.9251L16.3204 13.2156L11.8525 11.5674L11.2617 12.1915L13.1713 16.5564L13.8389 15.8523ZM12.3689 12.6456L13.8439 13.2184L13.029 14.0825L12.3689 12.6456Z" fill="#90949C"/>
<path d="M36.3397 11.0026C36.6231 11.1551 36.9386 11.2382 37.2604 11.2451C37.4888 11.2519 37.7148 11.1952 37.9129 11.0813C38.111 10.9675 38.2736 10.8009 38.3828 10.6002C38.5353 10.3586 38.5924 10.0687 38.5427 9.7874C38.4034 9.20181 37.7686 8.75563 37.3688 8.41253C37.0566 8.15456 37.0538 7.94294 37.1105 7.81137C37.2524 7.50181 37.6116 7.5714 37.8361 7.67974C38.194 7.86331 38.4793 8.16264 38.646 8.52873L39.4194 8.10298C39.1475 7.59692 38.718 7.19296 38.1963 6.95231C38.0317 6.84879 37.8474 6.78193 37.6547 6.75581C37.462 6.72969 37.2653 6.74488 37.0791 6.80084C36.8928 6.85681 36.7216 6.95215 36.5752 7.08016C36.4288 7.20818 36.3116 7.36596 36.2313 7.54307C36.1662 7.68604 36.1318 7.84134 36.1318 7.99843C36.1318 8.15551 36.1662 8.31081 36.2313 8.45378C36.4519 8.81446 36.7423 9.12738 37.0854 9.37456C37.3691 9.63253 37.7557 9.87272 37.5287 10.2365C37.374 10.4944 37.0128 10.4222 36.7238 10.2623C36.3341 10.041 36.0256 9.70096 35.8421 9.29206L35.0498 9.64569C35.328 10.2213 35.7789 10.6956 36.3397 11.0026Z" fill="#90949C"/>
<path d="M5.29492 27.0456L5.38813 27.5048L5.86553 27.381V29.4241H6.39457V26.8057H6.03054L5.29492 27.0456Z" fill="#90949C"/>
<path d="M8.66232 28.0876C8.75993 28.0268 8.8398 27.942 8.89535 27.8413C8.95089 27.7406 8.98039 27.6273 8.97974 27.5123C8.97974 27.1124 8.64155 26.7874 8.07659 26.7874C7.51164 26.7874 7.17093 27.1124 7.17093 27.5123C7.17032 27.6279 7.20006 27.7418 7.25658 27.8426C7.3131 27.9434 7.39447 28.0278 7.49339 28.0876C7.37135 28.1408 7.26767 28.2279 7.1936 28.3386C7.11953 28.4492 7.0779 28.5789 7.0752 28.7121C7.0752 29.1274 7.45218 29.46 8.08163 29.46C8.71108 29.46 9.08555 29.1274 9.08555 28.7121C9.08272 28.5783 9.04095 28.4481 8.96588 28.3373C8.89082 28.2266 8.78551 28.1398 8.66232 28.0876ZM8.08163 27.2726C8.1281 27.2631 8.17666 27.2641 8.22271 27.2755C8.26876 27.2868 8.31068 27.3081 8.34741 27.3381C8.38415 27.3681 8.414 27.4058 8.43432 27.4487C8.45465 27.4915 8.46582 27.5385 8.46582 27.586C8.46582 27.6334 8.45465 27.6801 8.43432 27.7229C8.414 27.7658 8.38415 27.8038 8.34741 27.8338C8.31068 27.8638 8.26876 27.8851 8.22271 27.8964C8.17666 27.9078 8.1281 27.9088 8.08163 27.8993C7.8443 27.8993 7.69997 27.7575 7.69997 27.5872C7.69997 27.417 7.8443 27.2726 8.08163 27.2726ZM8.08163 29.0008C7.79013 29.0008 7.61683 28.8538 7.61683 28.6758C7.61683 28.4978 7.79013 28.3534 8.08163 28.3534C8.37314 28.3534 8.54643 28.4978 8.54643 28.6758C8.54643 28.8538 8.37056 29.0087 8.08163 29.0087V29.0008Z" fill="#90949C"/>
<path d="M51.3438 28.4154V26.8081H50.8765L49.4531 28.4796L49.5274 28.8641H50.8173V29.4265H51.3514V28.8641H51.7154V28.4154H51.3438ZM50.8097 28.4154H50.1006L50.8097 27.5793V28.4154Z" fill="#90949C"/>
<path d="M47.9275 26.8002C47.8042 26.7882 47.6803 26.8015 47.5622 26.8392C47.4442 26.877 47.3345 26.9386 47.241 27.02C47.1476 27.1014 47.0717 27.2008 47.0181 27.3125C46.9645 27.4243 46.9349 27.5458 46.9299 27.6696C46.9238 27.7843 46.9411 27.8991 46.9816 28.0066C47.022 28.1141 47.084 28.2119 47.1642 28.2941C47.2444 28.3763 47.3411 28.441 47.4476 28.484C47.5541 28.527 47.6691 28.5475 47.7839 28.5441C47.9898 28.543 48.1923 28.4925 48.3747 28.3971C48.3463 28.8176 48.1162 28.9647 47.8582 28.9828C47.7524 28.9885 47.6465 28.9707 47.5484 28.9305C47.4502 28.8904 47.363 28.829 47.2914 28.7507L46.9916 29.1661C47.116 29.2801 47.2633 29.366 47.4237 29.4183C47.5841 29.4706 47.7536 29.4878 47.9212 29.469C48.0889 29.4502 48.2513 29.3956 48.3961 29.309C48.5409 29.2225 48.6654 29.1061 48.7614 28.9674C48.9604 28.5555 49.0199 28.0901 48.9314 27.6413C48.9041 27.3991 48.7845 27.1766 48.5976 27.02C48.4108 26.8634 48.1708 26.7848 47.9275 26.8002ZM47.9414 28.0696C47.8644 28.0621 47.7902 28.0325 47.7298 27.9842C47.6693 27.936 47.6244 27.8712 47.6 27.7978C47.5756 27.7244 47.5729 27.6456 47.5925 27.5708C47.612 27.4959 47.6525 27.4283 47.7096 27.3762C47.7668 27.324 47.8386 27.2895 47.9149 27.277C47.9913 27.2644 48.0696 27.2742 48.1404 27.3053C48.2112 27.3364 48.2718 27.3874 48.3142 27.452C48.3567 27.5167 48.3794 27.5923 48.3797 27.6696C48.3796 27.7255 48.3671 27.7808 48.3445 27.8318C48.3219 27.8829 48.29 27.9284 48.2487 27.966C48.2075 28.0036 48.158 28.0322 48.1051 28.0501C48.0522 28.0679 47.997 28.0746 47.9414 28.0696Z" fill="#90949C"/>
<path d="M28.5002 1.73096C23.3048 1.73147 18.2258 3.27235 13.9062 6.15915C9.58665 9.04594 6.22021 13.1488 4.23236 17.9489C2.24451 22.749 1.72456 28.0308 2.73845 33.1263C3.75234 38.2219 6.25446 42.9024 9.92836 46.5759C13.6023 50.2495 18.2829 52.7512 23.3786 53.7646C28.4742 54.778 33.7558 54.2574 38.5557 52.2691C43.3556 50.2808 47.4581 46.9138 50.3445 42.594C53.2309 38.2741 54.7721 33.1954 54.7721 28C54.7605 21.0361 51.9889 14.3607 47.0645 9.43668C42.14 4.51271 35.4641 1.74187 28.5002 1.73096ZM28.5002 53.1159C23.5327 53.1159 18.6764 51.643 14.5461 48.8832C10.4158 46.1235 7.19645 42.2009 5.29548 37.6115C3.39451 33.0222 2.89797 27.9721 3.86707 23.1001C4.83618 18.2281 7.22828 13.7528 10.7408 10.2403C14.2533 6.72779 18.7283 4.33568 23.6003 3.36657C28.4723 2.39747 33.5217 2.89496 38.1111 4.79593C42.7004 6.69689 46.6236 9.91596 49.3834 14.0463C52.1432 18.1766 53.6157 23.0325 53.6157 28C53.6028 34.6572 50.9531 41.0379 46.2457 45.7452C41.5384 50.4526 35.1574 53.1029 28.5002 53.1159Z" fill="#90949C"/>
<path d="M28.5002 0C22.9623 0 17.5485 1.64216 12.9439 4.71885C8.33935 7.79554 4.75069 12.1685 2.63143 17.2848C0.512172 22.4012 -0.0423766 28.0309 1.03801 33.4624C2.1184 38.8939 4.78566 43.8832 8.70154 47.7991C12.6174 51.715 17.6058 54.3816 23.0373 55.462C28.4687 56.5424 34.0995 55.9878 39.2158 53.8686C44.3322 51.7493 48.7051 48.1607 51.7818 43.5561C54.8585 38.9515 56.5003 33.538 56.5003 28.0001C56.486 20.5784 53.5317 13.4647 48.2838 8.21681C43.0359 2.96888 35.9219 0.0143177 28.5002 0ZM28.5002 54.8804C23.1838 54.8804 17.9867 53.3041 13.5662 50.3505C9.14572 47.3968 5.7001 43.1985 3.66558 38.2868C1.63106 33.375 1.09921 27.9703 2.1364 22.756C3.17359 17.5417 5.73328 12.752 9.49258 8.99274C13.2519 5.23344 18.0421 2.67312 23.2564 1.63593C28.4707 0.598741 33.8745 1.13122 38.7863 3.16574C43.6981 5.20026 47.8973 8.64556 50.8509 13.066C53.8046 17.4865 55.3805 22.6836 55.3805 28.0001C55.3662 35.1248 52.5295 41.9537 47.4915 46.9917C42.4535 52.0296 35.625 54.866 28.5002 54.8804Z" fill="#90949C"/>
<path d="M41.4039 15.0628C40.7719 14.9441 40.1293 14.8409 39.4767 14.7428C36.3975 12.1833 32.5208 10.7804 28.5167 10.7766C24.5127 10.7729 20.6332 12.1686 17.5492 14.7224C16.8759 14.823 16.2105 14.9338 15.5552 15.0628C15.4211 15.7258 15.2971 16.4043 15.1862 17.0879C13.2322 19.4628 11.951 22.3177 11.4741 25.3558C10.9972 28.3939 11.3419 31.504 12.4742 34.3633C13.6065 37.2226 15.4843 39.7265 17.912 41.6143C20.3397 43.5021 23.2296 44.705 26.2796 45.0981C27.011 45.3845 27.7579 45.6274 28.518 45.8255C29.2171 45.6063 29.8823 45.3742 30.5195 45.1239C33.5927 44.7663 36.5134 43.587 38.9728 41.71C41.4323 39.833 43.3404 37.3276 44.4963 34.4578C45.6521 31.5879 46.0124 28.4597 45.5405 25.4021C45.0685 22.3444 43.7819 19.4704 41.8145 17.0826C41.6855 16.3835 41.5509 15.7051 41.4039 15.0628ZM28.4802 11.6861C31.7375 11.6828 34.9189 12.6619 37.6112 14.4953C34.5995 14.1476 31.5711 13.9752 28.5394 13.9792C25.479 13.9653 22.4196 14.1291 19.3782 14.4695C22.0647 12.6512 25.2362 11.6816 28.4802 11.6861ZM12.1807 27.9871C12.1788 24.7808 13.128 21.6457 14.9078 18.9786C13.982 24.2583 14.2759 29.6798 15.7669 34.8284C17.1067 38.2526 19.4851 41.1716 22.5675 43.1762C19.5114 41.9779 16.8861 39.8871 15.035 37.176C13.1839 34.465 12.1918 31.2594 12.1883 27.9767L12.1807 27.9871ZM30.3218 44.1824C29.7103 44.2527 29.0957 44.2881 28.4802 44.2882C27.8925 44.2877 27.3048 44.2559 26.7205 44.1927C24.4547 43.3402 22.3913 42.0251 20.6617 40.3311C18.9322 38.6371 17.5744 36.6015 16.675 34.3539C16.0863 32.5259 15.759 30.6238 15.7026 28.7042C15.5171 24.6776 15.8638 20.6442 16.7342 16.7085C17.0283 16.3989 17.3377 16.1024 17.6575 15.816C24.8232 14.6604 32.1283 14.6604 39.294 15.816C39.6526 16.1333 39.998 16.4688 40.3257 16.8196C41.5223 22.1225 41.6861 27.6063 40.8081 32.9711C40.5012 34.1669 40.0324 35.3151 39.4149 36.3841C37.3283 39.9165 34.131 42.6585 30.3218 44.1824ZM44.7683 27.9871C44.7627 31.2538 43.7771 34.4439 41.9405 37.1455C40.1039 39.847 37.5003 41.936 34.4646 43.1429C37.509 41.1984 39.8578 38.3377 41.1721 34.973C42.7176 29.8177 43.0385 24.3728 42.1105 19.0715C43.8515 21.7151 44.7794 24.8114 44.7784 27.9767L44.7683 27.9871Z" fill="#90949C"/>
<path d="M24.0866 33.8249L24.2667 33.7657C24.3529 33.6002 24.4678 33.4515 24.6068 33.327C24.8295 33.1466 25.0892 33.0158 25.3664 32.9428C25.5257 32.8989 25.6778 32.8337 25.8198 32.7492C25.9762 32.6236 26.1147 32.477 26.2305 32.3133C26.3658 32.12 26.5274 31.9462 26.7104 31.7972L24.8058 29.5066H20.4854L24.0866 33.8249Z" fill="#90949C"/>
<path d="M39.7763 33.1514C39.8743 32.8135 39.9561 32.4703 40.0206 32.1195C40.1751 31.2542 40.2811 30.3811 40.3381 29.5039H36.7607L39.7763 33.1514Z" fill="#90949C"/>
<path d="M25.8813 41.0378C25.7975 41.0623 25.7104 41.0746 25.6231 41.074C25.5154 41.0757 25.4084 41.056 25.3082 41.0164C25.208 40.9767 25.1173 40.9178 25.0399 40.8429C24.9625 40.7679 24.9 40.6785 24.8572 40.5796C24.8145 40.4807 24.7922 40.3743 24.7905 40.2666V39.5854C24.6531 39.4578 24.5398 39.3067 24.4554 39.1392C24.391 38.9982 24.3499 38.8474 24.3358 38.693L16.7239 29.5142H16.6924C16.761 31.0845 17.0411 32.6385 17.5237 34.1344C17.9618 35.3235 18.5693 36.4429 19.3288 37.4573C21.661 40.4445 24.8604 42.6375 28.4875 43.7362H28.5076L26.1861 40.9474L25.8813 41.0378Z" fill="#90949C"/>
<path d="M21.2586 26.8984L19.0227 25.9568L19.0794 25.8098C20.7547 26.3478 22.4855 26.694 24.2388 26.8417V26.011C23.84 26.0378 23.4595 26.1936 23.1568 26.4547C22.8163 26.1858 22.5835 25.804 22.4993 25.3783C22.4151 24.9527 22.4857 24.5111 22.6983 24.1329L26.2038 22.9281C25.4241 22.9363 24.6487 23.0466 23.8975 23.2559C23.4711 23.3541 23.0871 23.5843 22.7991 23.9137C22.5536 23.5872 22.4293 23.1853 22.4477 22.7772C22.466 22.3691 22.626 21.9801 22.8999 21.6769L24.2817 21.1945V20.1084L23.8232 20.1497C23.6813 20.1626 23.7791 20.3431 23.6166 20.3509L22.789 20.3975C22.7529 20.3975 22.7391 20.3562 22.7726 20.3458L23.58 20.0671C23.66 20.0414 23.58 19.959 23.6909 19.9229L24.4807 19.6417V21.13L25.6181 20.7458C25.5295 21.1295 25.5366 21.5289 25.6383 21.9093C25.7399 22.2898 25.9332 22.6396 26.2013 22.9281C26.0952 23.4211 26.103 23.9317 26.2227 24.4217C26.381 25.0061 26.6334 25.5608 26.9722 26.0626C26.165 25.956 25.3496 25.9308 24.5374 25.9877V26.8776C25.8453 26.9937 27.1719 27.0299 28.5392 27.0196V26.0651C28.1452 26.1447 27.7908 26.359 27.5378 26.6713C27.3042 26.5113 27.104 26.3066 26.9495 26.0692C26.7951 25.8319 26.6889 25.5664 26.6371 25.288C26.5854 25.0095 26.5896 24.7239 26.6485 24.4468C26.7073 24.1698 26.8205 23.9071 26.981 23.6738L31.265 22.1877C31.1255 22.8294 31.1255 23.4937 31.265 24.1354C31.5089 24.862 31.868 25.545 32.3281 26.158L32.3571 19.4251L31.8872 19.4663C31.7428 19.4663 31.8407 19.6598 31.6781 19.6675L30.8531 19.7163C30.8144 19.7163 30.8032 19.6725 30.8367 19.6622L31.6416 19.3863C31.7242 19.3579 31.6415 19.2754 31.755 19.2393L32.5448 18.9606L32.5737 21.7673L35.3487 20.8128C35.1221 21.519 35.0589 22.2673 35.1635 23.0014C35.2681 23.7356 35.5386 24.4364 35.9533 25.0511L32.6203 26.2172V26.5888C33.6883 26.4805 34.6597 26.3307 35.5704 26.1656C35.5056 26.4508 35.3836 26.7196 35.2101 26.9551C34.9521 27.3136 34.6942 27.4402 34.6168 27.7291C34.5853 27.8661 34.5886 28.0089 34.6269 28.1441C34.6652 28.2794 34.7373 28.4027 34.836 28.5028H33.1821C32.7462 28.3842 32.336 28.2448 31.9439 28.1287C31.5945 28.0119 31.2233 27.9768 30.8581 28.0257C30.3237 28.2258 29.754 28.3136 29.1841 28.2836C28.2141 28.245 27.3187 27.9277 26.3462 27.9045C26.2894 28.1908 25.5535 28.3636 24.8157 28.3095C24.2212 28.1722 23.6186 28.0763 23.0107 28.0229C22.8807 28.0423 22.7577 28.0971 22.6567 28.1813C22.5557 28.2655 22.4801 28.3759 22.4376 28.5003H40.3771C40.4628 26.8114 40.4528 25.1191 40.3481 23.4313C40.2196 21.1274 39.9054 18.8376 39.4072 16.5846C32.1816 15.367 24.8035 15.367 17.578 16.5846C16.7263 20.4957 16.4033 24.5034 16.6181 28.5003H22.3733L21.2586 26.8984ZM27.0944 18.7543L28.6425 18.2177V17.3974L28.1827 17.4386C28.0408 17.4386 28.1386 17.6321 27.9761 17.6399L27.1511 17.6887C27.1098 17.6887 27.0998 17.6449 27.136 17.632L27.9396 17.3561C28.0196 17.3278 27.9408 17.2451 28.0517 17.2116L28.8402 16.9329V18.1557L30.1301 17.7224C29.981 18.0674 29.9409 18.4496 30.0142 18.8182C30.0874 19.1868 30.271 19.5242 30.5407 19.7859C29.8925 19.7878 29.246 19.8544 28.611 19.9846C28.0131 20.0871 27.4673 20.3891 27.0629 20.8412C26.8017 20.5546 26.6591 20.1793 26.6649 19.7916C26.6706 19.4039 26.8248 19.033 27.0944 18.7543ZM26.9911 21.0037L30.5357 19.7988C30.4749 20.226 30.5085 20.6615 30.6352 21.0739C30.7618 21.4863 30.9775 21.8657 31.2675 22.1852C30.086 22.2265 27.9786 22.3401 27.1196 23.4288C26.8026 23.1133 26.6144 22.6913 26.5905 22.2447C26.5667 21.7982 26.7095 21.3589 26.9911 21.0115V21.0037ZM22.4867 21.8061C21.7268 22.9977 21.4389 24.43 21.6793 25.8227C20.8572 25.62 20.0089 25.5435 19.1638 25.5956C19.8635 24.026 21.022 22.7049 22.4867 21.8061Z" fill="#90949C"/>
<path d="M31.0206 26.7229C31.4823 26.6971 31.9263 26.6609 32.3545 26.6222V26.2972C31.2898 26.0432 30.1947 25.9355 29.1009 25.9773C29.0235 25.9773 28.9465 25.9928 28.8691 26.0031V27.0196C29.3283 27.0196 29.7953 27.0014 30.2648 26.9859L31.0206 26.7229Z" fill="#90949C"/>
<path d="M30.5434 40.2868C30.5654 40.3115 30.5934 40.3295 30.6253 40.3384L31.3483 40.5784C31.3984 40.5915 31.4513 40.593 31.502 40.5825C31.5527 40.572 31.5998 40.5496 31.6406 40.5176C31.6813 40.4856 31.714 40.4447 31.7363 40.3979C31.7585 40.3512 31.7699 40.2998 31.769 40.248L31.7942 39.5077C31.7978 39.4661 31.7885 39.4244 31.7665 39.389L31.7501 39.3531C31.957 39.2494 32.1181 39.0717 32.1998 38.8552C32.352 38.445 32.1992 37.9909 32.3875 37.475C32.5475 37.0184 32.9041 36.7888 33.0072 36.3864C33.0634 36.1504 33.0291 35.9019 32.9115 35.6898H32.9405C32.9602 35.6851 32.9783 35.6766 32.9946 35.6646C33.011 35.6526 33.0245 35.6376 33.035 35.6202L33.4872 34.9957C33.5206 34.9559 33.5436 34.9089 33.5552 34.8581C33.5668 34.8074 33.5668 34.7546 33.5539 34.7041C33.5411 34.6537 33.5153 34.6071 33.4809 34.5681C33.4464 34.5291 33.4034 34.4989 33.3549 34.4799L32.5966 34.222C32.5551 34.2115 32.5121 34.2115 32.4706 34.222H32.4316C32.3917 33.9896 32.2705 33.7792 32.089 33.6287C31.7433 33.3372 31.2989 33.3913 30.8268 33.0301C30.3548 32.669 30.3108 32.3054 29.9728 32.1093C29.7626 32.0029 29.5271 31.9588 29.2926 31.9827V31.9028C29.2957 31.8576 29.2844 31.8128 29.2611 31.774L28.8077 31.147C28.7751 31.1056 28.7329 31.0723 28.6855 31.0494C28.6381 31.0264 28.587 31.0144 28.5343 31.0144C28.4817 31.0144 28.4293 31.0264 28.3819 31.0494C28.3346 31.0723 28.2923 31.1056 28.2597 31.147L27.7987 31.7532C27.7734 31.7874 27.7603 31.8294 27.7622 31.8719V32.019C27.5352 31.9716 27.2989 32.0161 27.1047 32.1427C26.7177 32.3749 26.5659 32.8315 26.1196 33.1513C25.7636 33.4093 25.2267 33.4376 24.9507 33.693C24.7908 33.8323 24.6802 34.0197 24.6358 34.2271H24.5766C24.5351 34.2166 24.4921 34.2166 24.4506 34.2271L23.6911 34.485C23.6422 34.5034 23.5987 34.5336 23.5639 34.5725C23.5291 34.6115 23.505 34.6582 23.4921 34.7089C23.4792 34.7595 23.4776 34.8123 23.4896 34.8632C23.5015 34.914 23.526 34.9615 23.5601 35.0011L24.0085 35.6252C24.0305 35.6596 24.0648 35.6844 24.1043 35.6948L24.1685 35.7131C24.0663 35.9283 24.0363 36.1704 24.0816 36.4043C24.1899 36.8429 24.5738 37.1035 24.7467 37.6246C24.8834 38.0399 24.7773 38.641 24.9192 38.9273C25.013 39.12 25.1644 39.2788 25.3525 39.3814L25.3324 39.4252C25.3156 39.4532 25.3081 39.4855 25.3097 39.5181V40.2921C25.3128 40.3443 25.3278 40.3951 25.3538 40.4405C25.3798 40.4858 25.4161 40.5245 25.4596 40.5535C25.5031 40.5825 25.5526 40.6008 25.6045 40.6074C25.6563 40.6139 25.7088 40.6085 25.7581 40.5913L26.4698 40.3772C26.5121 40.3682 26.5501 40.3454 26.5781 40.3126L26.6172 40.2713C27.3137 40.8879 27.7672 40.3205 28.6288 40.3205C29.3176 40.3205 29.8448 40.8983 30.5233 40.2534L30.5434 40.2868ZM31.2891 40.0289L30.6102 39.8072C30.6892 39.5711 30.6892 39.3155 30.6102 39.0794C30.8169 39.2204 31.0592 39.3 31.3093 39.309L31.2891 40.0289ZM32.3208 34.5933L32.9946 34.8361L32.579 35.4086C32.3774 35.2625 32.1338 35.1857 31.8849 35.1894C32.0822 35.0347 32.2302 34.8257 32.3107 34.5883L32.3208 34.5933ZM29.4413 32.5064C30.0294 32.5864 29.999 32.9914 30.4943 33.4067C30.9896 33.8221 31.6015 33.7189 31.8723 34.2271C32.0968 34.6501 31.8713 35.2282 31.0019 35.3469C31.087 35.2417 31.1342 35.1105 31.1342 34.9753C31.1342 34.8401 31.087 34.7088 31.0019 34.6037C30.7956 34.3457 30.3416 34.3457 30.0862 34.1471C29.8308 33.9484 29.7103 33.5564 29.3569 33.4196C29.2355 33.3908 29.1075 33.4002 28.9916 33.4464C28.8757 33.4926 28.7777 33.5732 28.7094 33.6776C28.5288 32.8443 28.9953 32.4395 29.4287 32.5014L29.4413 32.5064ZM29.0004 36.2831C28.9994 36.369 28.9732 36.4527 28.9248 36.5237C28.8764 36.5946 28.8079 36.6498 28.7283 36.6821C28.6487 36.7143 28.5618 36.7222 28.4777 36.7051C28.3935 36.6879 28.3165 36.6463 28.256 36.5854C28.1954 36.5245 28.1543 36.447 28.1376 36.3627C28.1209 36.2785 28.1287 36.1912 28.1615 36.1118C28.1942 36.0324 28.2502 35.9645 28.3215 35.9165C28.3927 35.8685 28.4762 35.8424 28.562 35.8419C28.6757 35.8452 28.7837 35.8928 28.8631 35.9742C28.9425 36.0555 28.9872 36.1644 28.9878 36.278L29.0004 36.2831ZM28.6804 34.1912C28.6765 34.1178 28.6902 34.0444 28.7195 33.977C28.7488 33.9097 28.7929 33.8503 28.8492 33.8032C28.9056 33.7561 28.973 33.7227 29.0445 33.7059C29.116 33.689 29.1897 33.6889 29.2611 33.7059C29.5681 33.7807 29.6434 34.1137 29.9401 34.3537C30.2367 34.5936 30.6076 34.5316 30.7727 34.7844C30.8168 34.8469 30.8452 34.9188 30.8558 34.9945C30.8664 35.0702 30.8596 35.1475 30.8344 35.2196C30.8092 35.2918 30.7665 35.3569 30.711 35.4095C30.6554 35.4621 30.5879 35.5009 30.5145 35.5223L29.1604 35.9581C29.1133 35.8733 29.0486 35.7997 28.9702 35.7427C28.8917 35.6857 28.8021 35.6464 28.7069 35.6278L28.6804 34.1912ZM28.4222 35.6252C28.3263 35.6446 28.2366 35.6848 28.1577 35.7427C28.0789 35.8006 28.0134 35.8749 27.9662 35.9606L26.5996 35.5298C26.5282 35.5103 26.462 35.4743 26.4068 35.425C26.3517 35.3756 26.3082 35.3143 26.2809 35.2455C26.2536 35.1767 26.243 35.1022 26.2494 35.0285C26.2557 34.9547 26.2788 34.8835 26.3174 34.8203C26.4851 34.5624 26.8342 34.583 27.1437 34.3766C27.4533 34.1703 27.5048 33.8299 27.7937 33.7371C27.8679 33.7112 27.9466 33.7041 28.0242 33.7166C28.1018 33.7291 28.1759 33.7607 28.2383 33.8086C28.3007 33.8564 28.3497 33.9189 28.3819 33.9906C28.4142 34.0623 28.4279 34.1411 28.4222 34.2195V35.6252ZM26.5504 35.7673L27.8894 36.2006C27.8894 36.2264 27.8894 36.2547 27.8894 36.2831C27.89 36.4526 27.954 36.6156 28.0695 36.7397L27.2357 37.9058C27.1927 37.9669 27.1362 38.0175 27.0707 38.0535C27.0051 38.0895 26.9325 38.1101 26.8578 38.1136C26.7831 38.1171 26.7085 38.1034 26.6399 38.0736C26.5713 38.0439 26.5108 37.9989 26.4623 37.942C26.2585 37.7021 26.3978 37.4002 26.2998 37.0313C26.2017 36.6624 25.8866 36.5152 25.8891 36.2185C25.8898 36.1401 25.9092 36.0631 25.9458 35.9937C25.9825 35.9243 26.0363 35.8646 26.1007 35.8199C26.1652 35.7751 26.2383 35.7465 26.3161 35.7364C26.394 35.7263 26.4742 35.7351 26.5479 35.7619L26.5504 35.7673ZM27.4271 38.027L28.2572 36.8817C28.3476 36.9259 28.4476 36.9488 28.5482 36.9488C28.6488 36.9488 28.7475 36.9259 28.8379 36.8817L29.6894 38.0349C29.7346 38.0934 29.7656 38.1614 29.7801 38.2339C29.7946 38.3065 29.7918 38.3817 29.7725 38.4531C29.7533 38.5245 29.7182 38.5904 29.6693 38.6458C29.6203 38.7013 29.5589 38.7448 29.4904 38.7727C29.1963 38.894 28.9514 38.6668 28.5696 38.6461C28.1878 38.6255 27.9578 38.8757 27.6715 38.7803C27.5955 38.759 27.5269 38.7193 27.47 38.6647C27.413 38.6101 27.3697 38.5423 27.3453 38.4673C27.3208 38.3923 27.3151 38.3122 27.3289 38.2345C27.3426 38.1569 27.3759 38.084 27.4246 38.022L27.4271 38.027ZM29.042 36.7372C29.1587 36.6149 29.223 36.4521 29.2221 36.2831C29.2221 36.2547 29.2221 36.2264 29.2221 36.1981L30.5737 35.7619C30.6418 35.7343 30.7158 35.7232 30.7891 35.7288C30.8623 35.7345 30.9339 35.7572 30.9969 35.795C31.0599 35.8327 31.1123 35.8845 31.1518 35.9464C31.1914 36.0083 31.2171 36.0784 31.2249 36.1514C31.2481 36.4662 30.9663 36.6416 30.8218 36.9976C30.6773 37.3536 30.8449 37.6683 30.6669 37.9108C30.6222 37.9729 30.5628 38.0231 30.4943 38.0569C30.4258 38.0908 30.3503 38.1074 30.2739 38.1051C30.1975 38.1028 30.1223 38.0819 30.056 38.044C29.9896 38.0061 29.9343 37.9525 29.8935 37.8878L29.042 36.7372ZM28.552 31.5778L28.9702 32.1531C28.7678 32.299 28.6189 32.5075 28.5469 32.7464C28.4624 32.5097 28.3131 32.3014 28.1161 32.1452L28.552 31.5778ZM25.1976 34.2812C25.4556 33.7498 25.8663 33.9073 26.4106 33.5642C26.9549 33.2211 27.0371 32.6251 27.6098 32.5322C28.0793 32.4471 28.5696 32.8856 28.4096 33.7059C28.1517 33.4247 27.9377 33.368 27.703 33.4609C27.4063 33.5821 27.257 34.0079 26.9913 34.1937C26.6869 34.4052 26.2965 34.3663 26.0592 34.6604C25.9917 34.7669 25.9592 34.8916 25.9647 35.0175C25.9702 35.1434 26.0141 35.2647 26.0907 35.3648C25.2574 35.2487 25.0041 34.6656 25.1976 34.2683V34.2812ZM24.0652 34.8333L24.7441 34.6141C24.821 34.8519 24.9731 35.0584 25.1774 35.2023C24.9273 35.2084 24.6841 35.2852 24.4758 35.424L24.0652 34.8333ZM26.4698 39.8327L25.7808 40.0367V39.3247C26.0305 39.3253 26.2736 39.2435 26.4723 39.0923C26.4042 39.3299 26.4034 39.5817 26.4698 39.8198V39.8327ZM25.5982 38.837C25.1725 38.4268 25.4532 38.1043 25.2959 37.48C25.1385 36.8557 24.571 36.6004 24.6509 36.0277C24.718 35.553 25.2961 35.2178 26.0365 35.6306C25.6882 35.788 25.5776 35.9683 25.5931 36.2185C25.6138 36.5358 25.9726 36.8146 26.0655 37.1242C26.1738 37.475 26.0191 37.8362 26.2229 38.1561C26.3048 38.25 26.4131 38.3161 26.5341 38.3457C26.6551 38.3753 26.7822 38.3667 26.8981 38.3211C26.5472 39.0693 25.9153 39.131 25.6032 38.8111L25.5982 38.837ZM30.061 39.8689C29.5451 40.1449 29.2875 39.7839 28.6477 39.7426C28.0079 39.7013 27.6156 40.15 27.0996 39.8998C26.6714 39.6882 26.4698 39.0356 27.1173 38.4758C27.1637 38.8576 27.327 39.028 27.5695 39.0873C27.8816 39.1647 28.2471 38.8888 28.5721 38.894C28.9384 38.894 29.2297 39.1517 29.6038 39.0665C29.7213 39.025 29.8235 38.9477 29.8947 38.8455C29.966 38.7432 30.0035 38.6212 30.0018 38.4965C30.6106 38.997 30.4505 39.6393 30.061 39.8431V39.8689ZM30.187 38.3211C30.5636 38.3934 30.7683 38.3211 30.8999 38.107C31.0702 37.8336 30.9427 37.4003 31.0511 37.0933C31.1697 36.7451 31.5053 36.5774 31.5259 36.193C31.5178 36.067 31.472 35.9463 31.3937 35.8472C31.3153 35.7482 31.2084 35.6751 31.0876 35.6382C31.8176 35.228 32.3567 35.566 32.4366 35.9968C32.5398 36.5824 32.1223 36.6573 31.8824 37.2583C31.6425 37.8594 31.9467 38.4038 31.5133 38.8269C31.1702 39.1313 30.5404 39.0486 30.187 38.2953V38.3211Z" fill="#90949C"/>
<path d="M41.8144 35.2411C41.3687 36.3149 40.8351 37.3502 40.2197 38.3366C42.0984 36.2165 43.3639 33.6246 43.8802 30.8394C44.3965 28.0541 44.1435 25.1807 43.1496 22.5281C43.6039 26.8125 43.1496 31.1448 41.8144 35.2411Z" fill="#90949C"/>
<path d="M13.7358 25.5003C13.7358 24.5303 13.7821 23.5292 13.8517 22.5103C12.8584 25.1593 12.6052 28.0285 13.1173 30.8108C13.6295 33.5932 14.8875 36.1841 16.7589 38.3059C16.0982 37.2892 15.5488 36.2046 15.1189 35.0709C14.0842 31.9902 13.6154 28.7478 13.7358 25.5003Z" fill="#90949C"/>
<path d="M34.3733 13.497C30.6127 11.9647 26.4033 11.9592 22.6387 13.4816C24.5012 13.3578 26.4628 13.295 28.5249 13.2933C30.5241 13.2933 32.4849 13.3629 34.3733 13.497Z" fill="#90949C"/>
<path d="M32.6605 39.0307C32.5819 39.2406 32.4535 39.428 32.2864 39.5774L32.2637 40.2636C32.2604 40.4812 32.1723 40.689 32.0181 40.8427C31.8639 40.9964 31.6563 41.0841 31.4387 41.0867C31.3511 41.0882 31.2637 41.0751 31.1804 41.048L30.5191 40.8288C30.3814 40.9116 30.2308 40.9698 30.0732 41.0014L31.3631 42.5495C32.3556 42.0615 33.3051 41.4902 34.201 40.8417L32.6529 38.9766L32.6605 39.0307Z" fill="#90949C"/>
<path d="M32.8468 29.5244H28.4873L30.417 31.8462C30.5467 31.9642 30.6599 32.0987 30.7546 32.2461L30.7748 32.2745L31.033 32.579C31.0626 32.6082 31.0948 32.6346 31.1287 32.6587C31.2952 32.7781 31.482 32.8658 31.6804 32.9169C31.9448 32.9843 32.193 33.1054 32.4085 33.2727C32.5821 33.4152 32.7193 33.5965 32.8103 33.8018L33.5119 34.0313C33.6308 34.071 33.7381 34.1384 33.8256 34.2281C33.9131 34.3179 33.9791 34.4273 34.0158 34.5471C34.057 34.677 34.0667 34.8148 34.0447 34.9493C34.0228 35.0837 33.969 35.2112 33.8886 35.3212L33.6303 35.6925L36.4065 39.0153C37.1996 38.1999 37.8883 37.2891 38.4572 36.304L32.8468 29.5244Z" fill="#90949C"/>
</svg>
