<svg width="120" height="56" viewBox="0 0 120 56" fill="none" xmlns="http://www.w3.org/2000/svg">
<path fill-rule="evenodd" clip-rule="evenodd" d="M0.00854492 32.6755V34.9338H4.33736L6.28957 36.9099V48.5545H8.92081V36.1336L5.52566 32.6755H0.00854492ZM7.30812 32.6755L9.34521 34.8633H15.0321V32.6755H7.30812ZM52.1241 45.2375V32.6755H54.6705V44.4612L56.4529 46.2961H67.0628V48.5545H55.2646L52.1241 45.2375ZM105.683 32.6755H103.985V48.5545H106.616V37.3333L117.311 48.5545H118.924V46.7196L105.683 32.6755ZM119.009 32.6755H116.377V42.2029L119.009 44.8847V32.6755ZM88.2824 39.5211H80.7282V41.7089H88.2824V39.5211ZM91.7623 40.615C91.7623 43.9475 88.5132 46.649 84.5052 46.649C80.4972 46.649 77.248 43.9475 77.248 40.615C77.248 37.2825 80.4972 34.581 84.5052 34.581C88.5132 34.581 91.7623 37.2825 91.7623 40.615ZM94.054 40.615C94.054 44.9999 89.7788 48.5545 84.5052 48.5545C79.2315 48.5545 74.9563 44.9999 74.9563 40.615C74.9563 36.2301 79.2315 32.6755 84.5052 32.6755C89.7788 32.6755 94.054 36.2301 94.054 40.615Z" fill="#1B1D1B"/>
<path d="M13.5042 19.196L15.2017 20.8192C14.7943 19.1536 16.4749 18.6314 18.0452 17.9609C18.894 17.5728 20.0907 16.98 20.1247 15.4556C20.1586 13.9312 18.7808 13.4089 18.0876 13.3384C20.0257 12.1857 24.1989 9.66856 25.3872 8.82168C26.5755 7.9748 26.6745 6.8221 26.5755 6.35161L14.6076 12.8444L13.5042 19.196Z" fill="#B7414B"/>
<path d="M20.8886 14.4675C20.8886 11.9834 23.1237 11.1271 24.2413 11.0095C25.4013 11.3976 28.3494 12.308 30.8619 12.8444C33.3743 13.3807 36.7468 13.5854 38.119 13.6207L39.5619 34.7927L18.4696 56L19.7003 48.5192C22.0769 44.4965 26.8301 34.7292 26.8301 27.8412C26.8301 20.9532 23.0389 17.4199 21.1432 16.5142C21.0442 16.3142 20.8546 15.625 20.8886 14.4675Z" fill="#B7414B"/>
<path d="M41.0473 12.4915L39.6044 13.0914L42.7449 32.4285L47.0313 30.029L41.0473 12.4915Z" fill="#B7414B"/>
<path d="M44.1029 11.1153L42.5751 11.9622L49.9171 28.7234L54.3308 26.9943L44.1029 11.1153Z" fill="#B7414B"/>
<path d="M47.1161 9.42155L45.5034 10.3743C49.4503 14.8792 57.6241 24.1996 58.7445 25.4417C61.2569 24.7078 65.4216 23.0893 67.19 22.3718L47.1161 9.42155Z" fill="#B7414B"/>
<path d="M50.0869 7.41021L48.3893 8.60996C54.6986 11.5505 68.4122 17.9327 72.792 19.937C78.2242 17.4528 83.9959 14.197 86.2028 12.8796L50.0869 7.41021Z" fill="#B7414B"/>
<path d="M52.5059 5.43415L51.063 6.66919C62.4933 7.65722 86.4405 9.71796 90.7862 10.0567C94.8265 7.71367 101.156 2.37597 103.815 0L52.5059 5.43415Z" fill="#B7414B"/>
</svg>
