<svg width="180" height="56" viewBox="0 0 180 56" fill="none" xmlns="http://www.w3.org/2000/svg">
<g clip-path="url(#clip0_662_30406)">
<path d="M143.724 39.1466C143.48 40.2052 143.072 41.5487 142.421 42.363C142.258 42.2409 141.973 42.078 141.77 41.9966C142.38 41.223 142.787 39.9609 142.95 39.0244L143.724 39.1466ZM145.597 37.3551V43.0552C145.597 43.503 145.475 43.7066 145.19 43.8288C144.905 43.9509 144.416 43.9509 143.724 43.9509C143.683 43.7473 143.561 43.4216 143.439 43.2588C143.927 43.2995 144.457 43.2995 144.62 43.2588C144.782 43.2588 144.823 43.218 144.823 43.0552V37.3551H145.597ZM147.225 38.9837C147.836 40.0016 148.447 41.3452 148.61 42.2002L147.877 42.4852C147.714 41.6302 147.144 40.2459 146.574 39.228L147.225 38.9837Z" fill="#2A2A2A"/>
<path d="M150.32 40.4903C150.076 40.246 149.547 39.961 149.14 39.7575L149.506 39.2689C149.913 39.4317 150.483 39.7167 150.728 39.961L150.32 40.4903ZM149.262 43.5032C149.547 42.9332 149.995 41.9968 150.28 41.1825L150.809 41.5489C150.524 42.3225 150.158 43.1775 149.832 43.8696L149.262 43.5032ZM150.605 38.5767C150.361 38.3324 149.873 38.0067 149.425 37.8031L149.832 37.3146C150.239 37.4774 150.768 37.8032 151.013 38.0474L150.605 38.5767ZM155.858 41.0196H154.799H154.88C154.758 41.2232 154.636 41.4268 154.555 41.5896H155.735V42.1189H153.7V42.5668H155.532V43.0961H153.7V43.9511H153.048V43.0961H151.298V42.5668H153.048V42.1189H151.053V41.5896H152.153C152.112 41.4268 151.99 41.2232 151.908 41.0603L152.071 41.0196H150.85V40.4903H153.008V40.0832H151.42V39.5539H153.008V39.1874H151.216V37.4367H155.532V39.1874H153.7V39.5539H155.369V40.0832H153.7V40.4903H155.858V41.0196ZM152.478 38.0067H151.827V38.6989H152.478V38.0067ZM153.863 41.5896C153.944 41.4268 154.066 41.2232 154.107 41.0196H152.519C152.641 41.1825 152.723 41.4268 152.763 41.5489L152.641 41.5896H153.944H153.863ZM153.008 38.6989H153.7V38.0067H153.008V38.6989ZM154.229 38.6989H154.921V38.0067H154.229V38.6989Z" fill="#2A2A2A"/>
<path d="M163.999 39.0245C163.47 39.8795 162.533 41.0603 161.434 41.956C161.882 42.4038 162.33 42.8924 162.615 43.2588L161.923 43.7881C161.638 43.381 161.027 42.7296 160.579 42.241C160.131 41.7931 159.358 41.101 158.95 40.816L159.561 40.3274C159.846 40.531 160.375 40.9788 160.864 41.4267C161.841 40.6938 162.615 39.7167 162.94 39.0652H158.828C158.543 39.0652 158.177 39.106 158.055 39.106V38.2917C158.258 38.3324 158.584 38.3324 158.828 38.3324H163.063C163.307 38.3324 163.51 38.2917 163.633 38.2509L164.203 38.7395C164.162 38.8617 164.08 38.9431 163.999 39.0245Z" fill="#2A2A2A"/>
<path d="M166.117 38.3731V40.816C166.117 41.0196 166.117 41.2639 166.158 41.4267H165.303C165.303 41.3046 165.343 41.0603 165.343 40.816V38.3731C165.343 38.251 165.343 37.966 165.303 37.8438H166.158C166.158 38.0067 166.117 38.1695 166.117 38.3731ZM169.537 38.4545V39.7574C169.537 41.4267 169.293 42.0374 168.723 42.6482C168.234 43.2182 167.501 43.5439 166.972 43.7067L166.361 43.0553C167.053 42.8924 167.664 42.6074 168.112 42.1189C168.641 41.5489 168.723 40.9789 168.723 39.676V38.4138C168.723 38.1695 168.682 37.9253 168.682 37.7217H169.537C169.537 37.966 169.537 38.2103 169.537 38.4545Z" fill="#2A2A2A"/>
<path d="M176.664 38.7398C176.338 39.2691 175.646 40.2055 174.872 40.7755L174.261 40.2869C174.913 39.9205 175.524 39.1876 175.768 38.7805H171.778C171.493 38.7805 171.249 38.8212 170.923 38.8212V38.0069C171.208 38.0476 171.493 38.0883 171.778 38.0883H175.849C176.012 38.0883 176.338 38.0476 176.46 38.0476L176.908 38.4955C176.867 38.5362 176.745 38.6583 176.664 38.7398ZM171.941 43.7069L171.249 43.1777C171.452 43.0962 171.696 42.9741 171.941 42.8112C172.999 42.1191 173.162 41.2234 173.162 40.0019C173.162 39.7983 173.162 39.6355 173.121 39.4319H173.936C173.976 41.3048 173.854 42.7298 171.941 43.7069Z" fill="#2A2A2A"/>
<path d="M124.63 32.632C123.531 33.5277 122.513 34.0163 121.984 34.0163C121.088 34.0163 119.419 33.1206 119.419 31.3291C119.419 30.5555 119.582 29.8634 119.826 29.2527C119.826 29.1713 119.785 29.0898 119.785 28.9677C119.785 25.7105 123.287 23.3898 125.323 23.3898C127.033 23.3898 128.295 24.4891 128.295 26.0769C128.295 28.6012 126.666 30.7591 124.997 32.2248C127.277 32.062 129.272 30.5148 130.453 29.3341C130.453 29.3341 130.575 29.1713 130.697 29.1713C130.819 29.1713 130.9 29.2934 130.9 29.3341C130.9 29.4155 130.615 29.6598 130.493 29.782C129.353 30.8406 127.562 32.5099 124.63 32.632ZM124.386 24.7741C124.834 24.7741 125.608 25.8326 125.608 26.2398C125.608 26.4841 125.323 26.6062 125.119 26.7284C123.694 27.5834 121.78 29.2527 120.925 30.922C121.577 31.777 122.717 32.2656 124.101 32.347C125.689 30.922 127.277 28.4791 127.277 26.0362C127.277 24.7741 126.544 23.9598 125.078 23.9598C123.572 23.9598 120.885 25.7105 120.437 28.2348C121.048 27.2577 121.903 26.4841 122.676 25.7919C123.246 25.2219 123.857 24.7741 124.386 24.7741ZM120.559 32.2656C120.559 32.9577 120.966 33.5277 121.618 33.5277C122.188 33.5277 122.961 33.202 123.694 32.632C122.432 32.5099 121.373 32.1027 120.681 31.3698C120.6 31.6548 120.559 31.9806 120.559 32.2656Z" fill="#2A2A2A"/>
<path d="M130.289 29.945C130.208 29.945 130.127 29.8635 130.127 29.7821C130.127 29.66 130.412 29.4564 130.493 29.3343C131.348 28.4792 135.053 24.3671 136.6 24.3671C137.577 24.3671 138.677 25.5071 138.677 26.3621C138.677 28.3571 135.786 30.1078 134.442 31.8586C135.908 31.8586 138.188 33.2836 138.188 35.9707C138.188 36.215 138.107 36.8665 138.107 36.8665C139.735 36.8665 140.183 37.1107 140.183 37.2329C140.183 37.355 140.061 37.5586 139.939 37.5586C139.817 37.5586 139.491 37.1922 138.025 37.1922C137.13 41.6708 132.61 47.0451 128.457 47.0451C127.317 47.0451 126.381 46.1087 126.381 44.928C126.381 42.4444 131.307 38.5358 135.664 37.1107C135.908 36.1336 135.99 35.1972 135.99 34.3829C135.99 33.2429 135.501 32.2657 134.28 32.2657C133.424 32.2657 132.936 32.9579 132.732 32.9579C132.447 32.9579 131.837 32.2657 131.837 31.8586C131.837 30.8814 136.763 27.8685 136.763 25.5071C136.763 25.2221 136.641 25.0999 136.437 25.0999C135.053 25.0999 131.592 28.7235 130.534 29.8228C130.412 29.8635 130.33 29.945 130.289 29.945ZM128.05 46.4751C131.552 46.4751 134.524 41.7522 135.582 37.5179C131.755 38.9429 127.195 42.7701 127.195 45.4165C127.195 45.9458 127.439 46.4751 128.05 46.4751Z" fill="#2A2A2A"/>
<path d="M148.327 33.7721C147.105 33.7721 146.047 32.9171 146.047 31.492C146.047 30.7592 146.169 30.1077 146.169 30.1077C144.255 31.9806 141.609 34.7085 140.713 34.7085C139.818 34.7085 138.515 33.6906 138.515 32.5099C138.515 29.4563 143.685 24.2041 146.983 24.2041C148.49 24.2041 149.915 25.5477 149.915 26.362C149.915 26.9727 149.711 27.3391 149.63 27.3391C149.508 27.3391 149.304 27.0949 149.304 26.9727C149.304 26.8506 149.508 26.6877 149.508 26.2398C149.508 25.9548 149.1 25.6291 148.815 25.6291C145.233 25.6291 140.265 30.9627 140.265 33.6092C140.265 33.8942 140.428 34.0978 140.754 34.0978C141.487 34.0978 144.215 31.4513 146.047 29.6192C147.187 28.4792 148.042 27.7056 148.368 27.7056C148.693 27.7056 149.752 28.6827 149.752 29.2934C149.752 29.7413 148.083 31.0035 148.083 32.1842C148.083 32.6728 148.449 32.9171 148.938 32.9171C150.81 32.9171 154.434 29.2934 154.434 29.2934C154.516 29.212 154.597 29.1306 154.678 29.1306C154.801 29.1306 154.841 29.2527 154.841 29.2934C154.841 29.3749 154.556 29.6192 154.475 29.7413C154.312 29.8227 150.444 33.7721 148.327 33.7721Z" fill="#2A2A2A"/>
<path d="M157.04 24.245C157.61 24.245 158.465 25.1 158.465 26.0771C158.465 27.7057 154.882 31.1257 154.882 33.5686C154.882 33.8129 155.045 33.9351 155.208 33.9351C155.859 33.9351 158.424 31.6958 160.379 28.7236C161.071 27.8279 161.356 27.0136 161.681 27.0136C161.966 27.0136 163.229 27.9093 163.229 28.52C163.229 29.1307 162.007 30.5965 162.007 31.8586C162.007 32.4286 162.333 32.7543 162.781 32.7543C164.816 32.7543 166.974 28.1536 166.974 25.4664C166.974 23.7971 166.567 23.5121 166.567 23.2678C166.567 23.1864 166.608 23.1457 166.689 23.1457C167.056 23.1457 168.196 23.7564 168.196 25.1814C168.196 27.9093 164.898 33.2429 162.699 33.2429C161.356 33.2429 160.256 32.3472 160.256 30.8815C160.256 30.4743 160.419 29.4157 160.419 29.4157C160.419 29.4157 156.592 34.4236 155.452 34.4236C154.516 34.4236 153.335 33.3651 153.335 31.8993C153.335 29.4972 156.714 26.6471 156.714 24.4485C156.714 24.3264 156.796 24.245 157.04 24.245Z" fill="#2A2A2A"/>
<path d="M179.84 31.7363C179.922 31.7363 180.003 31.8178 180.003 31.8992C180.003 32.0213 179.799 32.1842 179.596 32.347C178.741 33.0392 177.845 33.7721 177.112 33.7721C175.891 33.7721 174.995 32.9171 174.995 31.492C174.995 30.7592 175.117 30.1077 175.117 30.1077C173.204 31.9806 170.557 34.7085 169.661 34.7085C168.766 34.7085 167.463 33.6906 167.463 32.5099C167.463 29.4563 172.634 24.2041 175.932 24.2041C177.438 24.2041 178.863 25.5477 178.863 26.362C178.863 26.9727 178.659 27.3391 178.578 27.3391C178.456 27.3391 178.252 27.0949 178.252 26.9727C178.252 26.8506 178.456 26.6877 178.456 26.2398C178.456 25.9548 178.049 25.6291 177.764 25.6291C174.181 25.6291 169.214 30.9627 169.214 33.6092C169.214 33.8942 169.376 34.0978 169.702 34.0978C170.435 34.0978 173.163 31.4513 174.995 29.6192C176.135 28.4792 176.99 27.7056 177.316 27.7056C177.642 27.7056 178.7 28.6827 178.7 29.2934C178.7 29.7413 177.031 31.0035 177.031 32.1842C177.031 32.6728 177.316 32.9985 177.764 32.9985C178.252 32.9985 178.822 32.5506 179.433 32.062C179.555 31.8992 179.759 31.7363 179.84 31.7363Z" fill="#2A2A2A"/>
<path d="M47.1078 19.0337C48.0443 19.0337 49.795 20.2958 49.795 21.5172C49.795 23.7566 44.1764 29.5787 44.1764 33.8131C44.1764 34.5052 44.5021 35.7267 45.6828 35.7267C45.805 35.7267 45.9271 35.7674 45.9271 35.8895C45.9271 36.0117 45.7642 36.0931 45.5607 36.0931C44.1764 36.0931 42.2221 34.9938 42.2221 32.5509C42.2221 28.3573 47.8814 22.6165 47.8814 20.2551C47.8814 19.9701 47.6778 19.7665 47.4335 19.7665C44.7871 19.7665 36.6849 27.8687 32.8984 32.3881C32.0434 33.3652 31.6363 33.9352 31.392 33.9352C30.7405 33.9352 29.3155 32.7138 29.3155 31.8588C29.3155 28.4794 41.2856 14.7586 41.2856 12.3972C41.2856 12.0714 41.1635 11.8272 40.5935 11.8272C35.6263 11.8272 21.1319 32.3066 17.5897 36.7852C17.2233 37.2738 17.0197 37.3552 16.6126 37.3552C15.7575 37.3552 13.9661 36.4188 13.9661 35.3195C13.9661 30.6373 25.4476 18.9115 25.4476 12.9265C25.4476 9.87286 23.6969 8.6107 21.6612 8.6107C12.8261 8.56999 2.281 18.9929 2.281 25.2223C2.281 26.8101 2.851 27.9909 4.56102 27.9909C9.89464 27.9909 17.3861 19.4408 18.404 16.7129C18.4447 16.6315 18.4854 16.5093 18.6076 16.5093C18.7704 16.5093 19.1369 17.1201 19.1369 17.4051C19.1369 19.0337 10.3832 28.5609 4.07244 28.5609C2.11814 28.5609 0.000976562 26.973 0.000976562 24.8558C0.000976562 17.6494 12.4597 7.99998 20.8876 7.99998C24.4705 7.99998 27.5241 10.4429 27.5241 13.6593C27.5241 20.0922 16.1647 31.6145 16.1647 36.3781C16.1647 36.4595 16.2461 36.5409 16.3275 36.5409C18.1597 36.5409 34.527 11.135 40.3085 11.135C41.7742 11.135 43.1585 12.6007 43.1585 13.7C43.1585 16.7536 32.4913 28.0723 32.4505 31.7366C33.5091 30.4745 44.0135 19.0337 47.1078 19.0337Z" fill="#2A2A2A"/>
<path d="M57.6531 32.7544C56.4316 32.7544 55.373 31.8994 55.373 30.4744C55.373 29.7415 55.4952 29.0901 55.4952 29.0901C53.5816 30.9629 50.9351 33.6908 50.0394 33.6908C49.1437 33.6908 47.8408 32.673 47.8408 31.4922C47.8408 28.4386 53.0116 23.1864 56.3095 23.1864C57.8159 23.1864 59.2409 24.53 59.2409 25.3443C59.2409 25.955 59.0373 26.3215 58.9559 26.3215C58.8338 26.3215 58.6302 26.0772 58.6302 25.955C58.6302 25.8329 58.8338 25.67 58.8338 25.2222C58.8338 24.9372 58.4266 24.6115 58.1416 24.6115C54.5587 24.6115 49.5916 29.9451 49.5916 32.5915C49.5916 32.8765 49.7544 33.0801 50.0801 33.0801C50.813 33.0801 53.5409 30.4337 55.373 28.6015C56.513 27.4615 57.368 26.6879 57.6938 26.6879C58.0195 26.6879 59.0781 27.6651 59.0781 28.2758C59.0781 28.7236 57.4088 29.9858 57.4088 31.1665C57.4088 31.6551 57.7752 31.8994 58.2638 31.8994C60.1366 31.8994 63.7602 28.2758 63.7602 28.2758C63.8417 28.1943 63.9231 28.1129 64.0045 28.1129C64.1267 28.1129 64.1674 28.2351 64.1674 28.2758C64.1674 28.3572 63.8824 28.6015 63.801 28.7236C63.6788 28.8051 59.8109 32.7544 57.6531 32.7544Z" fill="#2A2A2A"/>
<path d="M66.8136 24.7336C65.9179 24.3672 64.7371 23.8786 64.7371 23.0236C64.7371 21.5986 66.4472 20.3364 67.3429 20.3364C67.8722 20.3364 68.8086 21.11 68.8086 21.3543C68.8086 22.25 68.1979 23.4307 67.3429 24.5707C68.5236 25.1408 70.4779 25.4665 70.4779 26.4843C70.4779 27.9501 67.8315 29.9858 67.8315 31.4515C67.8315 31.8994 68.1165 32.3472 68.6457 32.3472C70.0708 32.3472 74.0608 28.3979 74.0608 28.3979C74.1422 28.3165 74.2237 28.2351 74.2644 28.2351C74.3865 28.2351 74.4272 28.3572 74.4272 28.4386C74.4272 28.5201 74.2237 28.7236 74.1015 28.8458C74.1015 28.8458 70.1115 32.9987 68.2386 32.9987C67.0986 32.9987 65.8772 32.0215 65.8772 30.9222C65.8772 28.6829 67.9129 26.8508 67.9129 25.67C67.9129 25.3443 67.6279 25.1 67.2207 24.8965C66.0807 26.4029 64.6557 27.8686 63.76 28.8051C63.6786 28.8865 63.5971 28.9679 63.5564 28.9679C63.475 28.9679 63.3936 28.8865 63.3936 28.8051C63.3936 28.7236 63.5971 28.5201 63.7193 28.3572C64.4929 27.4615 65.8364 26.1179 66.8136 24.7336ZM67.9536 21.4357C67.6279 21.4357 66.4472 22.25 66.4472 23.5936C66.4472 23.9193 66.6914 24.2043 67.0172 24.4486C67.6686 23.4715 68.1572 22.4536 68.1572 21.6393C68.1979 21.4764 68.0757 21.4357 67.9536 21.4357Z" fill="#2A2A2A"/>
<path d="M78.9884 24.6524C78.9884 25.3446 74.6319 30.2711 74.6319 31.8996C74.6319 32.3475 74.9169 32.5511 75.2426 32.5511C77.4005 32.5511 81.8384 28.3575 81.8384 28.3575C81.8384 28.3575 82.0012 28.1946 82.1234 28.1946C82.2048 28.1946 82.2862 28.3167 82.2862 28.3575C82.2862 28.4389 82.0012 28.6832 81.8791 28.8053C81.8791 28.8053 77.2376 33.2839 74.754 33.2839C74.1433 33.2839 72.9219 32.3882 72.9219 31.2075C72.9219 29.5382 76.2198 25.3039 76.9526 23.5124C77.0748 23.2681 77.2376 23.146 77.4005 23.146C78.1333 23.1053 78.9884 23.9603 78.9884 24.6524ZM82.7341 18.0159C82.7341 18.3009 82.2455 19.0745 81.9198 19.2374C81.6755 19.3595 81.1869 19.5224 80.8612 19.6038C80.1284 19.8481 79.9248 20.2552 79.7619 20.2552C79.6398 20.2552 79.5176 20.1738 79.5176 20.011C79.5176 19.1152 80.9834 17.2017 80.9834 16.2652C80.9834 16.1431 81.0648 16.1024 81.1462 16.1024C81.757 16.1431 82.7341 17.4867 82.7341 18.0159Z" fill="#2A2A2A"/>
<path d="M92.7093 30.7597C92.7907 30.7597 92.8721 30.8411 92.8721 30.9225C92.8721 31.0447 92.6686 31.2075 92.465 31.3704C91.61 32.0626 90.7143 32.7954 89.9814 32.7954C88.76 32.7954 87.8642 31.9404 87.8642 30.5154C87.8642 29.7825 87.9864 29.1311 87.9864 29.1311C86.0728 31.004 83.4263 33.7319 82.5306 33.7319C81.6349 33.7319 80.332 32.714 80.332 31.5333C80.332 28.4797 85.5028 23.2275 88.8007 23.2275C90.3071 23.2275 91.7321 24.5711 91.7321 25.3854C91.7321 25.9961 91.5286 26.3625 91.4471 26.3625C91.325 26.3625 91.1214 26.1182 91.1214 25.9961C91.1214 25.8739 91.325 25.7111 91.325 25.2632C91.325 24.9782 90.9178 24.6525 90.6328 24.6525C87.0499 24.6525 82.0828 29.9861 82.0828 32.6326C82.0828 32.9176 82.2456 33.1211 82.5713 33.1211C83.3042 33.1211 86.0321 30.4747 87.8642 28.6425C89.0042 27.5025 89.8593 26.7289 90.185 26.7289C90.5107 26.7289 91.5693 27.7061 91.5693 28.3168C91.5693 28.7647 89.9 30.0268 89.9 31.2075C89.9 31.6961 90.185 32.0218 90.6328 32.0218C91.1214 32.0218 91.6914 31.574 92.3021 31.0854C92.4243 30.9225 92.6278 30.7597 92.7093 30.7597Z" fill="#2A2A2A"/>
<path d="M97.5941 31.6548C97.5941 31.7769 97.6348 31.8584 97.6755 31.9398C97.6755 31.9805 97.7162 31.9805 97.7162 32.0212C97.7569 32.0619 97.7569 32.1434 97.7977 32.1841C97.8384 32.2248 97.8384 32.2655 97.8791 32.2655C97.9198 32.3062 97.9605 32.3469 98.0012 32.3876C98.0419 32.4284 98.0419 32.4284 98.0827 32.4691C98.1234 32.5098 98.1641 32.5505 98.2048 32.5912C98.2455 32.6319 98.2862 32.6319 98.2862 32.6727C98.3269 32.7134 98.3677 32.7134 98.4491 32.7541C98.4898 32.7541 98.5305 32.7948 98.5712 32.7948C98.612 32.8355 98.6934 32.8355 98.7341 32.8355C98.7748 32.8355 98.8155 32.8762 98.8562 32.8762C98.9377 32.8762 98.9784 32.8762 99.0598 32.9169C99.1005 32.9169 99.1005 32.9169 99.1412 32.9169C99.2634 32.9169 99.3448 32.9169 99.467 32.8762L102.317 32.3469H101.258C99.8334 32.3469 98.6934 31.2069 98.6934 29.7819V11.9489C98.6934 11.8268 98.6934 11.7046 98.7341 11.6232L95.6398 12.1932C94.9883 12.3153 94.4998 12.8039 94.3776 13.4146C94.3369 13.4961 94.3369 13.6182 94.3369 13.7403C94.3369 13.8625 94.3369 13.9439 94.3776 14.0661L97.5941 31.6548Z" fill="#2A2A2A"/>
<path d="M101.258 31.4513H103.416L105.451 31.8178L108.098 32.3063L108.586 32.3878L113.554 33.3242C113.676 33.3649 113.798 33.3649 113.92 33.3649C114.327 33.3649 114.694 33.2428 115.06 32.9985C115.508 32.7135 115.793 32.2249 115.874 31.7363L119.132 14.1476C119.213 13.6183 119.132 13.089 118.806 12.6412C118.521 12.1933 118.032 11.9083 117.544 11.8269L115.304 11.4197L114.205 11.2161C113.92 10.7276 113.432 10.4019 112.821 10.4019H109.767L109.441 10.3204L106.266 9.75042C105.533 9.62828 104.841 9.87257 104.393 10.4019H101.299C100.606 10.4019 99.9957 10.8497 99.7921 11.4604C99.7514 11.6233 99.7107 11.7862 99.7107 11.9897V29.8635C99.67 30.7185 100.362 31.4513 101.258 31.4513ZM101.38 29.0492L104.637 11.4604C104.759 10.809 105.37 10.3611 106.021 10.4833L108.627 10.9719L109.686 11.1754L114.327 12.0304L115.304 12.1933L117.34 12.5597C117.666 12.6004 117.91 12.804 118.114 13.0483C118.277 13.2926 118.358 13.6183 118.317 13.944L115.06 31.5328C115.019 31.8585 114.816 32.1028 114.572 32.3063C114.327 32.4692 114.002 32.5506 113.676 32.5099L112.902 32.3878L110.256 31.8992L107.772 31.4513L107.609 31.4106L102.316 30.4335C101.706 30.3113 101.258 29.7006 101.38 29.0492Z" fill="#2A2A2A"/>
<path d="M105.615 21.7204C105.371 23.0233 106.226 24.2854 107.528 24.5297C108.058 24.6111 108.546 24.5297 108.994 24.3261C108.831 24.9776 108.465 25.5069 107.976 25.8733L108.994 26.0769L110.012 26.2804C109.686 25.7512 109.524 25.1404 109.605 24.489C109.931 24.8554 110.379 25.0997 110.908 25.1811C111.071 25.2219 111.193 25.2219 111.356 25.2219C111.681 25.2219 112.007 25.1404 112.292 25.0183C113.025 24.6926 113.554 24.0819 113.717 23.2268C114.002 21.7204 113.106 20.9061 111.356 18.3411C111.152 18.0561 111.03 17.7711 110.908 17.5675C110.704 17.1604 110.704 16.9161 110.704 16.9161C110.704 16.9161 110.541 17.2418 109.971 17.6897C109.849 17.7711 109.727 17.8932 109.564 17.9747C106.999 19.7661 105.9 20.214 105.615 21.7204Z" fill="#2A2A2A"/>
<path d="M105.614 16.1427C105.736 16.1834 105.899 16.1427 106.021 16.102C105.981 16.2649 105.859 16.4277 105.736 16.5092L106.021 16.5499L106.306 16.5906C106.225 16.4684 106.184 16.2649 106.184 16.102C106.266 16.1834 106.388 16.2649 106.551 16.3056C106.917 16.387 107.243 16.1427 107.324 15.7763C107.406 15.3691 107.161 15.1249 106.673 14.4734C106.51 14.2291 106.51 14.107 106.51 14.107C106.51 14.107 106.469 14.2291 106.225 14.392C105.533 14.8806 105.248 15.0027 105.166 15.4099C105.044 15.7356 105.248 16.102 105.614 16.1427Z" fill="#2A2A2A"/>
<path d="M105.98 13.4554C106.021 13.4554 106.021 13.4554 106.021 13.4554L106.062 13.4147L106.265 13.0483L106.998 13.1704L107.039 13.5776C107.039 13.6183 107.039 13.6183 107.039 13.659C107.039 13.659 107.039 13.659 107.08 13.6997L107.283 13.7404C107.324 13.7404 107.324 13.7404 107.365 13.7404C107.365 13.7404 107.405 13.6997 107.365 13.659L107.12 11.664C107.12 11.6233 107.12 11.6233 107.08 11.5825C107.08 11.5825 107.039 11.5418 106.998 11.5418L106.795 11.5011C106.754 11.5011 106.754 11.5011 106.713 11.5011C106.713 11.5011 106.672 11.5418 106.672 11.5825L105.736 13.3333C105.695 13.374 105.695 13.4147 105.695 13.4147C105.695 13.4147 105.695 13.4147 105.736 13.4147L105.98 13.4554ZM106.876 11.9083L106.998 12.8854L106.428 12.7633L106.876 11.9083Z" fill="#2A2A2A"/>
<path d="M113.962 26.5249L113.677 26.4842L113.392 26.4434C113.474 26.5656 113.514 26.7692 113.514 26.932C113.433 26.8506 113.311 26.7692 113.148 26.7284C112.944 26.6877 112.741 26.7692 112.619 26.8506C112.496 26.932 112.415 27.0949 112.374 27.217C112.293 27.5834 112.496 27.787 112.863 28.357C112.904 28.3977 112.944 28.4792 112.985 28.5606C113.148 28.8049 113.148 28.927 113.148 28.927C113.148 28.927 113.189 28.8049 113.433 28.642C113.799 28.357 114.084 28.2349 114.247 28.072C114.369 27.9499 114.451 27.8277 114.491 27.6649C114.532 27.4206 114.451 27.1763 114.247 27.0134C114.166 26.9727 114.084 26.8913 113.962 26.8913C113.84 26.8506 113.677 26.8913 113.555 26.932C113.718 26.7692 113.84 26.6063 113.962 26.5249Z" fill="#2A2A2A"/>
<path d="M113.715 29.5786C113.675 29.5786 113.675 29.5786 113.675 29.5786L113.634 29.6193L113.43 29.9857L112.942 29.9043L112.657 29.8636L112.616 29.4564C112.616 29.4157 112.616 29.4157 112.616 29.375C112.616 29.375 112.616 29.375 112.575 29.3343L112.372 29.2935C112.331 29.2935 112.331 29.2935 112.29 29.2935C112.25 29.2935 112.25 29.3343 112.29 29.375L112.494 30.8407L112.575 31.37C112.575 31.4107 112.575 31.4107 112.575 31.4107C112.575 31.4107 112.616 31.4514 112.657 31.4514L112.86 31.4921C112.901 31.4921 112.901 31.4921 112.942 31.4921C112.942 31.4921 112.982 31.4514 112.982 31.4107L113.023 31.37L113.96 29.66C114 29.6193 114 29.5786 114 29.5786C114 29.5786 114 29.5786 113.96 29.5786H113.715ZM112.82 31.1257L112.738 30.4336L112.697 30.1486L112.86 30.1893L113.267 30.2707L112.82 31.1257Z" fill="#2A2A2A"/>
<path d="M140.181 37.0295C140.181 37.0295 88.1071 28.1944 17.3857 49.2031C17.3857 49.1624 63.6783 27.9908 140.181 37.0295Z" fill="#2A2A2A"/>
</g>
<defs>
<clipPath id="clip0_662_30406">
<rect width="180" height="56" fill="white" transform="translate(0.000976562)"/>
</clipPath>
</defs>
</svg>
