<svg width="57" height="56" viewBox="0 0 57 56" fill="none" xmlns="http://www.w3.org/2000/svg">
<path d="M18.0496 45.0252L18.2567 44.5042C18.2567 44.5042 17.6635 44.1816 17.1039 43.8219C16.4804 43.4224 16.0259 43.0774 16.0259 43.0774L15.553 43.4199C15.9476 43.4462 16.3191 43.6122 16.5961 43.8864L15.2673 45.7273C15.0552 46.0076 14.7019 46.5115 14.5 46.5586L14.9167 46.8564C15.1211 47.0052 15.3459 47.1441 15.3459 47.1441C15.4681 46.8096 15.6407 46.4946 15.8575 46.2088L17.2249 44.2883C17.6491 44.5389 17.9729 44.7101 18.0496 45.0252Z" fill="#90949C"/>
<path d="M38.7573 50.3225L38.6275 50.3894L38.499 50.4515V50.516C38.5118 50.4838 38.558 50.4614 38.5988 50.4415L38.7236 50.6896C38.7467 50.7238 38.761 50.763 38.7648 50.8038L38.8184 50.7789L38.8746 50.7517C38.8516 50.7517 38.819 50.6823 38.796 50.6426L38.6762 50.4167C38.7094 50.3941 38.7481 50.3804 38.7885 50.377L38.7573 50.3225Z" fill="#90949C"/>
<path d="M17.3807 46.1766C17.3039 46.4708 17.3146 46.7802 17.4119 47.0686C17.5093 47.357 17.6885 47.6126 17.9297 47.8055C18.1709 47.9984 18.4642 48.1205 18.7744 48.158C19.0845 48.1955 19.3988 48.1468 19.6814 48.0172C19.964 47.8876 20.2029 47.6827 20.3701 47.4263C20.5373 47.1699 20.6261 46.8726 20.6259 46.5691C20.6257 46.2657 20.5364 45.9685 20.3689 45.7123C20.2014 45.4561 19.9629 45.2516 19.6802 45.1223C19.4589 45.0337 19.2208 44.9908 18.9815 44.9966C18.7422 45.0024 18.5068 45.0567 18.2903 45.1559C18.0738 45.2552 17.8805 45.3972 17.7238 45.573C17.5672 45.7487 17.4509 45.9544 17.3807 46.1766ZM19.5517 45.3976C20.1598 45.678 19.9282 46.4572 19.5679 47.1891C19.2076 47.9211 18.7262 48.5908 18.1206 48.3104C17.515 48.03 17.7475 47.246 18.1206 46.514C18.4937 45.7821 18.946 45.1173 19.5567 45.3976H19.5517Z" fill="#90949C"/>
<path d="M21.6483 49.7793C21.5639 49.6378 21.8292 48.8862 21.8803 48.6877L22.5453 46.5191C23.0947 46.6556 23.1739 46.7152 23.3451 46.9559L23.4012 46.3974C23.4012 46.3974 22.8773 46.2809 22.2359 46.1048C21.5281 45.9088 21.1567 45.7646 21.1567 45.7646L20.8273 46.2386C21.1007 46.1171 21.2307 46.1296 21.798 46.3132L21.1317 48.4966C21.052 48.8608 20.8958 49.2052 20.6738 49.5088C20.8345 49.5678 20.9992 49.6184 21.1654 49.6602C21.4644 49.7421 21.6483 49.7793 21.6483 49.7793Z" fill="#90949C"/>
<path d="M25.179 47.0375C25.8024 47.1144 25.8921 47.1814 26.1297 47.3849L26.1035 46.8239C26.1035 46.8239 25.5082 46.7719 24.8745 46.6801C24.2409 46.5883 23.7404 46.4717 23.7404 46.4717L23.5059 47.0026C23.7614 46.8562 23.8762 46.8142 24.4179 46.9208L24.0473 49.1761C24.0181 49.541 23.917 49.8974 23.7504 50.2258C23.7504 50.2258 23.9367 50.2654 24.2382 50.3076C24.5398 50.3498 24.7498 50.3721 24.7498 50.3721C24.7066 50.0027 24.7255 49.6289 24.8059 49.2654L25.179 47.0375Z" fill="#90949C"/>
<path d="M26.428 49.4891C26.4423 49.8449 26.3923 50.2002 26.2783 50.5386C26.2783 50.5386 26.843 50.5856 27.5559 50.5955C28.2126 50.5955 28.6589 50.5955 28.6589 50.5955L28.7824 49.9131C28.5269 50.2555 27.9816 50.3053 27.1741 50.2954L27.2228 48.8067H28.2658C28.3629 48.8067 28.3657 48.7545 28.3657 48.6553C28.3657 48.556 28.3654 48.5039 28.2683 48.5014H27.2465L27.2852 47.246C27.7541 47.1796 28.2318 47.2669 28.6439 47.4941L28.5541 46.931C28.5541 46.931 28.1563 46.9533 27.4536 46.931C26.9145 46.9087 26.9882 46.911 26.4031 46.8713C26.5385 47.0028 26.503 47.6354 26.5004 48.0274L26.428 49.4891Z" fill="#90949C"/>
<path d="M31.7231 50.3995C31.7737 50.3943 31.8226 50.3789 31.8666 50.3541C31.9106 50.3293 31.9491 50.2957 31.9789 50.2557C31.8511 50.1837 31.7921 49.7917 31.7231 49.2483L31.5472 47.7869C31.4721 47.4268 31.4588 47.0569 31.5085 46.6926C31.5085 46.6926 31.424 46.7101 31.1966 46.7399L30.9034 46.7771C31.0481 47.1107 31.1335 47.4654 31.1579 47.8266L31.3139 49.0672L29.4362 46.901L28.876 46.921C29.0007 47.2809 29.0659 47.6577 29.0681 48.0374L29.1555 49.5039C29.2039 49.8606 29.1857 50.2226 29.1018 50.5731L29.7094 50.5458C29.5791 50.4416 29.5565 49.6702 29.5335 49.4642L29.4636 48.1664L31.2964 50.2084C31.3425 50.2754 31.407 50.3289 31.4823 50.3626C31.5576 50.3963 31.6408 50.409 31.7231 50.3995Z" fill="#90949C"/>
<path d="M35.1026 49.6426L35.5705 49.5063C35.3789 49.3797 35.2514 48.7296 35.185 48.4765L34.8319 47.0399C34.7142 46.699 34.6519 46.3424 34.646 45.9829C34.646 45.9829 34.5075 46.0326 34.1881 46.1219L33.7128 46.2534C33.8985 46.549 34.0235 46.8769 34.0808 47.2186L34.2068 47.6926L33.059 47.9628L32.9691 47.4991C32.8795 47.1539 32.8449 46.7974 32.8668 46.4421C32.8668 46.4421 32.7062 46.4867 32.3715 46.5487L31.8887 46.6405C32.0445 46.7199 32.1744 47.4097 32.2255 47.6826L32.5075 49.1416C32.5894 49.4897 32.6115 49.8484 32.5736 50.2035C32.5736 50.2035 32.7729 50.1736 33.0565 50.1166L33.568 50.0148C33.4122 49.923 33.2894 49.1714 33.2511 48.9481L33.1201 48.2581L34.2829 47.9804L34.4564 48.66C34.5693 49.0217 34.6212 49.399 34.6098 49.7767C34.6098 49.7767 34.9468 49.6897 35.1026 49.6426Z" fill="#90949C"/>
<path d="M38.254 47.5683L36.5872 45.5612C36.3955 45.3453 36.2863 45.3403 36.0257 45.447C35.8672 45.5171 35.7145 45.6 35.5703 45.695C35.6221 45.7331 35.665 45.7823 35.6938 45.8389C35.7269 45.9308 35.7458 46.0269 35.75 46.1242L35.851 48.9949C35.8676 49.1552 35.8409 49.3172 35.7724 49.464L36.0744 49.3723C36.2711 49.3102 36.3888 49.2678 36.3888 49.2678C36.3433 49.2452 36.3077 49.2073 36.289 49.1611C36.2475 48.9985 36.2219 48.8324 36.2141 48.665L36.1767 48.0596L37.3133 47.628L37.6427 48.0272C37.7595 48.1668 37.8647 48.3156 37.9571 48.4715C37.9948 48.549 38.0016 48.6372 37.9771 48.7196C37.9771 48.7196 38.1892 48.6401 38.5086 48.5012L39.0001 48.288C38.6944 48.1112 38.4382 47.864 38.254 47.5683ZM36.1679 47.7198L36.0968 46.0128L37.1187 47.3724L36.1679 47.7198Z" fill="#90949C"/>
<path d="M41.6999 45.4519L40.7953 44.3231C40.5352 44.0279 40.3285 43.6924 40.1827 43.3306C40.1827 43.3306 39.9929 43.4671 39.786 43.601C39.579 43.735 39.4641 43.8118 39.4641 43.8118L40.29 46.2657L38.1915 44.529C38.1915 44.529 38.0213 44.6208 37.8296 44.7126L37.3867 44.921C37.5962 45.0028 37.8395 45.4173 38.0592 45.8093L38.7878 47.1341C38.9968 47.442 39.1462 47.7841 39.2295 48.1439L39.4853 48.0224C39.6488 47.9455 39.776 47.8786 39.776 47.8786C39.569 47.819 39.2658 47.2037 39.1023 46.9084L38.4497 45.7396L40.3125 47.2286C40.3723 47.2837 40.4509 47.3155 40.5333 47.3182C40.6157 47.321 40.6969 47.2944 40.7604 47.2434C40.8148 47.1989 40.8607 47.1462 40.8976 47.0871L40.1079 44.6432L41.0898 45.8838C41.3335 46.1574 41.5289 46.4684 41.6674 46.8043L42.0654 46.5411C42.2954 46.3897 42.4996 46.2336 42.4996 46.2336C42.2492 46.2014 41.8915 45.6851 41.6999 45.4519Z" fill="#90949C"/>
<path d="M38.877 50.2605L38.8184 50.2905C38.849 50.2905 38.8828 50.3475 38.9032 50.3822L38.9955 50.5334C39.0109 50.5557 39.0543 50.6229 39.0492 50.6551L39.0816 50.6376L39.1178 50.6179C39.0897 50.6055 39.0534 50.5408 39.033 50.5061L38.9494 50.3747L39.164 50.5409C39.1675 50.5447 39.1716 50.5477 39.1764 50.5497C39.1813 50.5518 39.1861 50.5528 39.1914 50.5528C39.1967 50.5528 39.2028 50.5518 39.2076 50.5497C39.2125 50.5477 39.2165 50.5447 39.2201 50.5409L39.2376 50.5237L39.1477 50.2456L39.255 50.3871C39.2841 50.4181 39.3076 50.4543 39.3224 50.4937L39.3686 50.464L39.4197 50.4292C39.3838 50.403 39.3524 50.3712 39.3274 50.335L39.2251 50.206C39.1943 50.1731 39.1733 50.1329 39.164 50.0894L39.1153 50.1218L39.0691 50.1463L39.1615 50.4219L38.9232 50.2284L38.877 50.2605Z" fill="#90949C"/>
<path d="M21.0361 51.1861C21.0361 51.1861 20.7811 51.1017 20.5894 51.0322L20.0991 50.8587C20.0669 51.2327 19.9634 51.5977 19.7947 51.9354L19.6212 52.3573L18.4784 51.9006L18.6581 51.5283C18.7986 51.2306 19.0641 50.5684 19.2532 50.4964C19.1178 50.4443 18.9968 50.392 18.7566 50.2853C18.6165 50.2287 18.4809 50.1641 18.3486 50.0918C18.2925 50.477 18.1636 50.8489 17.9681 51.1885L17.3567 52.5012C17.1651 52.8982 17.017 53.2925 16.7666 53.4116C16.7666 53.4116 16.8456 53.4539 17.2008 53.6127C17.5023 53.7492 17.7123 53.8284 17.7123 53.8284C17.6484 53.6572 17.9119 53.1063 18.0217 52.8607L18.3611 52.161L19.5289 52.635L19.3043 53.2478C19.2328 53.4413 19.008 54.2131 18.7678 54.2751C18.9646 54.357 19.0692 54.3893 19.2557 54.4538L19.741 54.6201C19.6669 54.434 19.8889 53.9179 20.0193 53.5606L20.5071 52.248C20.6119 51.8644 20.7916 51.504 21.0361 51.1861Z" fill="#90949C"/>
<path d="M22.8943 51.6673C22.5288 51.5024 22.1195 51.4506 21.7227 51.5192C21.326 51.5878 20.9616 51.7735 20.6772 52.0508C20.3928 52.328 20.2035 52.6835 20.1345 53.069C20.0654 53.4546 20.1203 53.8513 20.2917 54.2054C20.463 54.5596 20.7418 54.8541 21.0914 55.0486C21.4411 55.2432 21.8442 55.3286 22.2455 55.2931C22.6468 55.2576 23.027 55.103 23.3347 54.8503C23.6424 54.5975 23.8622 54.2589 23.9648 53.8804C24.0566 53.6679 24.102 53.4391 24.097 53.2087C24.092 52.9783 24.037 52.7515 23.9361 52.5429C23.8352 52.3344 23.6901 52.1486 23.5106 51.9978C23.3312 51.8469 23.1213 51.7344 22.8943 51.6673ZM23.1837 53.6796C22.9768 54.4488 22.6363 55.1683 21.9872 55.012C21.3382 54.8557 21.4122 54.0494 21.6192 53.2753C21.8262 52.5012 22.1641 51.7865 22.8157 51.9502C23.4673 52.114 23.3907 52.913 23.1837 53.6796Z" fill="#90949C"/>
<path d="M25.5492 52.1637C25.0381 52.1016 24.6216 52.0568 24.4325 52.0146L24.1768 52.5629C24.4323 52.409 24.5981 52.367 25.1986 52.4414L24.9154 54.5803C24.8804 54.8696 24.8298 55.1568 24.7644 55.4411C24.7441 55.5168 24.7066 55.5872 24.6546 55.647C24.7568 55.6644 24.9898 55.7042 25.1662 55.7215C25.3425 55.7389 25.5388 55.7588 25.6615 55.7736C25.6006 55.4088 25.6099 55.0363 25.6877 54.6745L25.9709 52.5283C26.4819 52.5655 26.7093 52.5903 26.9316 52.8409L26.8979 52.2927C26.8979 52.2927 25.8916 52.2034 25.5492 52.1637Z" fill="#90949C"/>
<path d="M28.756 53.8829C28.2245 53.5951 27.8289 53.4065 27.8289 53.0566C27.8232 52.9872 27.8331 52.9175 27.8589 52.8525C27.8847 52.7875 27.9251 52.729 27.9774 52.6814C28.0297 52.6337 28.0924 52.5981 28.1608 52.5772C28.2292 52.5562 28.3019 52.5503 28.3729 52.5602C28.5554 52.5707 28.7326 52.6249 28.8882 52.718C29.0438 52.8111 29.1733 52.9404 29.265 53.0939L29.4022 52.5354C29.0805 52.3675 28.7207 52.2821 28.3555 52.2873C27.6885 52.2873 27.1203 52.6099 27.1203 53.2426C27.1203 53.7091 27.3539 54.0218 27.9774 54.3345C28.6009 54.6471 28.7822 54.8306 28.7797 55.1011C28.7774 55.1864 28.756 55.2704 28.7185 55.3476C28.681 55.4248 28.6276 55.4933 28.5613 55.5493C28.495 55.6053 28.4182 55.6476 28.3342 55.6729C28.2503 55.6982 28.1608 55.7062 28.0735 55.6965C27.8737 55.6727 27.6849 55.5969 27.5258 55.4772C27.3666 55.3576 27.2428 55.1984 27.1689 55.0165L27.0342 55.6271C27.3454 55.8789 27.741 56.011 28.1458 55.9991C28.9763 56.0115 29.5147 55.5453 29.507 54.9027C29.4994 54.5479 29.3615 54.2154 28.756 53.8829Z" fill="#90949C"/>
<path d="M32.5245 52.9326C32.4577 52.7188 32.3175 52.534 32.1265 52.4093C31.7959 52.2117 31.4033 52.1351 31.0198 52.1933C30.1842 52.2702 29.7422 52.3348 29.7422 52.3348C29.8895 52.6688 29.9649 53.0285 29.9643 53.3918L30.1352 55.1285C30.1694 55.3671 30.1544 55.6099 30.0915 55.843C30.0915 55.843 30.3036 55.843 30.5719 55.8157C30.9271 55.7884 31.1146 55.7688 31.1146 55.7688C30.9511 55.6273 30.8942 54.9399 30.8763 54.7438L30.6542 52.5259C30.6539 52.519 30.6543 52.512 30.6567 52.5056C30.6591 52.4991 30.6632 52.4931 30.668 52.488C30.6727 52.483 30.679 52.4791 30.6854 52.4762C30.6918 52.4733 30.6983 52.4714 30.7054 52.4711C30.7948 52.4562 30.8788 52.449 30.8788 52.449C31.0832 52.4277 31.2886 52.4815 31.454 52.6001C31.5493 52.6778 31.6265 52.7747 31.6798 52.8839C31.7332 52.9931 31.7617 53.112 31.7634 53.2328C31.8003 53.4845 31.7373 53.7407 31.5887 53.95C31.4679 54.0915 31.2943 54.1806 31.1059 54.1981H31.0635C31.0251 54.1981 31.0273 54.2477 31.0273 54.2477V54.275C31.0273 54.3941 31.0781 54.4461 31.2519 54.4337C31.4441 54.436 31.6352 54.401 31.8133 54.3307C31.9915 54.2604 32.1538 54.1564 32.2899 54.0245C32.454 53.8534 32.5549 53.6342 32.5781 53.4015C32.5864 53.319 32.5864 53.236 32.5781 53.1534C32.5664 53.0786 32.5484 53.0047 32.5245 52.9326Z" fill="#90949C"/>
<path d="M35.6212 52.4587C35.4908 52.1058 35.4314 51.7319 35.4453 51.3572C35.3431 51.3919 35.1898 51.4316 34.965 51.4986L34.4846 51.6276C34.6752 51.9315 34.8028 52.2687 34.8602 52.6202L35.2669 54.1088C35.3395 54.3183 35.3324 54.5461 35.2482 54.7515C35.2078 54.8178 35.1531 54.8746 35.0872 54.9175C35.0213 54.9604 34.9462 54.9884 34.8676 54.9996C34.7943 55.0166 34.7186 55.0187 34.6443 55.0059C34.57 54.9931 34.4988 54.9656 34.436 54.9251C34.2635 54.7801 34.1515 54.5788 34.1215 54.3593L33.761 52.8706C33.6505 52.5241 33.6179 52.1585 33.6661 51.7988C33.6661 51.7988 33.5082 51.8361 33.1683 51.8957C32.8285 51.9552 32.6094 51.9875 32.6094 51.9875C32.821 52.3055 32.955 52.6662 33.0024 53.0421L33.2856 54.2057C33.3635 54.5482 33.5787 54.8466 33.8832 55.0353C34.1878 55.224 34.5573 55.2873 34.9101 55.2116C35.2628 55.1359 35.5704 54.9273 35.7647 54.6316C35.959 54.3359 36.0236 53.9773 35.9456 53.6348L35.6212 52.4587Z" fill="#90949C"/>
<path d="M39.6467 53.3446C39.122 53.1197 38.6316 52.824 38.1919 52.4663C38.334 52.3689 38.4531 52.2427 38.54 52.0965C38.6552 51.9067 38.6958 51.6832 38.6548 51.4665C38.6432 51.3986 38.6245 51.3319 38.5987 51.2678C38.5689 51.1991 38.5322 51.1334 38.4889 51.0719C38.376 50.9056 38.2042 50.7856 38.006 50.7345C37.613 50.6492 37.2016 50.6975 36.8407 50.871C36.4775 51.0269 36.1055 51.1626 35.7266 51.2778C35.9029 51.3721 36.1155 51.9601 36.2381 52.2876L36.7085 53.6472C36.8461 53.967 36.9228 54.3082 36.9355 54.6546C36.9355 54.6546 37.1144 54.6049 37.4134 54.5007C37.7124 54.3965 37.9062 54.3223 37.9062 54.3223C37.7325 54.2256 37.5407 53.6475 37.4309 53.3522L36.706 51.3375C36.6728 51.2482 36.706 51.2257 36.706 51.2257C36.7613 51.1872 36.8209 51.1556 36.8844 51.1315C37.046 51.0635 37.2269 51.0547 37.3947 51.1067C37.5019 51.1485 37.599 51.2118 37.6792 51.2927C37.7593 51.3735 37.8211 51.4699 37.8601 51.5755C37.9166 51.6807 37.9476 51.797 37.9511 51.9157C37.9547 52.0343 37.9315 52.1521 37.8813 52.2603C37.8016 52.4278 37.6634 52.563 37.492 52.6426L37.4596 52.6574C37.4563 52.6585 37.4533 52.66 37.4508 52.6623C37.4483 52.6645 37.446 52.6674 37.4446 52.6704C37.4432 52.6734 37.4422 52.6765 37.4421 52.6798C37.442 52.6831 37.4421 52.6864 37.4433 52.6895C37.8966 53.1523 38.4297 53.5352 39.0179 53.8211C39.1528 53.8596 39.2969 53.8581 39.4309 53.8165C39.5648 53.7749 39.6822 53.6952 39.769 53.5878C39.8328 53.5261 39.8792 53.4488 39.9025 53.3643C39.8608 53.3782 39.8154 53.3838 39.7715 53.3804C39.7275 53.377 39.6856 53.3648 39.6467 53.3446Z" fill="#90949C"/>
<path d="M22.257 37.7206C22.0914 37.6773 21.9481 37.5778 21.8515 37.4402C21.5963 37.7432 21.4126 38.0969 21.3137 38.4763C21.2148 38.8558 21.2028 39.2517 21.2788 39.636C21.6932 40.9926 22.5162 42.1976 23.6419 43.0961C24.7676 43.9946 26.1437 44.5455 27.5945 44.6777C26.116 44.1303 24.8293 43.1852 23.8839 41.953C22.9386 40.7209 22.3741 39.2529 22.257 37.7206Z" fill="#90949C"/>
<path d="M21.0167 38.3534C21.1493 37.8654 21.3653 37.4024 21.6555 36.9838C21.599 36.6903 21.6055 36.3885 21.6755 36.0979C21.5192 35.994 21.3711 35.8797 21.2313 35.7556C21.0349 36.456 20.9485 37.1812 20.9756 37.9066C20.9875 38.0555 21.0014 38.2045 21.0167 38.3534Z" fill="#90949C"/>
<path d="M29.8696 44.5416C30.9918 44.2982 32.0398 43.8015 32.9276 43.092C33.8154 42.3825 34.5182 41.4801 34.98 40.4576C34.8609 40.4776 34.7402 40.489 34.6194 40.4921C34.5231 40.9472 34.2565 41.3516 33.8708 41.6267C33.4851 41.9017 33.0081 42.028 32.5321 41.981C31.9207 41.9162 31.3162 41.8 30.7255 41.6336C30.514 41.5565 30.321 41.4393 30.1565 41.289C29.9921 41.1386 29.8594 40.958 29.7673 40.7577C29.6662 40.5465 29.6091 40.318 29.5988 40.0853C29.5936 39.9025 29.6132 39.7198 29.6575 39.542C27.4733 38.905 25.3525 38.0788 23.3206 37.0732C23.264 37.1759 23.1961 37.2723 23.1185 37.361C23.009 37.4949 22.8688 37.6013 22.708 37.6711C22.8698 39.0342 23.3509 40.3431 24.1154 41.497C24.9816 42.9208 26.3827 43.9625 28.0243 44.4025C28.6221 44.5755 29.2514 44.623 29.8696 44.5416Z" fill="#90949C"/>
<path d="M21.8161 35.6811C21.8872 35.5183 21.9815 35.3663 22.0968 35.2295C22.1801 35.1336 22.2781 35.05 22.3863 34.9814C22.6276 33.8001 23.2053 32.7083 24.0544 31.8303C22.8064 32.6916 21.8666 33.9107 21.3682 35.3164C21.5004 35.4562 21.6515 35.5787 21.8161 35.6811Z" fill="#90949C"/>
<path d="M22.3671 37.3907C22.4622 37.3937 22.5565 37.3725 22.6404 37.3289C22.7242 37.2854 22.7948 37.2211 22.845 37.1427C23.0217 36.9184 23.1439 36.6576 23.2006 36.3806C23.2573 36.1036 23.2469 35.8179 23.1719 35.545C23.1003 35.3515 22.9879 35.2297 22.85 35.2049C22.7581 35.1921 22.6653 35.2031 22.5792 35.2367C22.4931 35.2702 22.417 35.3251 22.3596 35.396C22.2017 35.575 22.0819 35.7829 22.0078 36.0075C21.9336 36.232 21.9067 36.4686 21.9279 36.7035C21.9322 36.8162 21.9543 36.9277 21.9941 37.0336C22.0221 37.1179 22.0714 37.1943 22.1363 37.2565C22.2012 37.3187 22.2799 37.3647 22.3671 37.3907Z" fill="#90949C"/>
<path d="M34.1627 39.1303C34.0974 39.0161 34.0087 38.9162 33.9019 38.8368C33.7951 38.7574 33.6719 38.7001 33.5413 38.6687L33.2581 38.6094C33.0026 38.5598 32.6167 38.4827 32.0366 38.3438C31.6705 38.2496 31.2813 38.2926 30.9462 38.464C30.6111 38.6354 30.3546 38.9229 30.2275 39.2693C30.6057 39.376 30.9764 39.4753 31.3392 39.5646C31.3737 39.41 31.3972 39.2532 31.4103 39.0955C31.414 39.0382 31.4409 38.985 31.4852 38.9471C31.5295 38.9092 31.5884 38.8899 31.6474 38.8935C31.7063 38.8971 31.7605 38.9231 31.7996 38.9662C31.8386 39.0092 31.8582 39.0655 31.8545 39.1227C31.8386 39.3055 31.8112 39.487 31.7709 39.6661L31.9855 39.7158L32.2001 39.7606C32.264 39.4579 32.3048 39.1998 32.3074 39.1948C32.3174 39.1393 32.3488 39.0897 32.396 39.0567C32.4431 39.0238 32.502 39.0101 32.5594 39.0186C32.6168 39.027 32.6691 39.0569 32.7041 39.1019C32.7391 39.1468 32.7539 39.2034 32.7466 39.2593C32.7466 39.2792 32.7007 39.5371 32.6368 39.8472L33.061 39.9217C33.0904 39.7658 33.1107 39.6086 33.1221 39.4505C33.1234 39.4221 33.1309 39.3941 33.1433 39.3684C33.1557 39.3427 33.1729 39.3197 33.1945 39.3005C33.2161 39.2814 33.2418 39.2666 33.2693 39.2569C33.2968 39.2473 33.3262 39.2432 33.3554 39.2445C33.3845 39.2458 33.4127 39.2527 33.439 39.2648C33.4654 39.2769 33.4894 39.2938 33.5089 39.3148C33.5284 39.3358 33.5429 39.3605 33.5526 39.3872C33.5622 39.4138 33.5668 39.4419 33.565 39.4701C33.5542 39.6432 33.5319 39.8156 33.5002 39.9862C33.8068 40.0284 34.0653 40.0508 34.2799 40.0608C34.3613 39.7472 34.3196 39.4155 34.1627 39.1303Z" fill="#90949C"/>
<path d="M29.7555 24.3821C29.7935 26.165 29.2074 27.9075 28.0924 29.3245C26.2041 31.1556 24.648 29.8208 24.6302 31.6593C23.7183 32.5288 23.0991 33.6467 22.856 34.865H22.9121C23.0929 34.9005 23.2531 35.0028 23.3575 35.1503C24.5948 34.1855 26.0275 33.4844 27.5622 33.0929C29.0969 32.7013 30.6988 32.6279 32.2646 32.8775C33.0847 33.0262 33.8529 33.3735 34.4979 33.8873C33.6275 32.5179 32.3047 31.4762 30.7449 30.9324C30.3719 30.8034 29.7219 30.6543 29.7219 29.4832C29.7219 27.2998 32.1828 28.9872 33.8104 26.6177C33.8897 26.5011 33.7752 26.3993 33.6807 26.4911C33.0073 26.9867 32.1921 27.2675 31.3476 27.2949C31.0471 27.3176 30.7448 27.269 30.468 27.1535C30.8633 26.4042 31.3159 25.6846 31.8204 25C30.3154 23.5386 32.8421 15.4994 39.5547 15.4994C39.5692 14.0215 39.419 12.5467 39.1055 11.1004C38.9445 11.1376 37.682 11.4278 37.6258 11.1698C37.5696 10.9117 38.5559 10.4455 38.9034 10.2842C38.7524 9.71451 38.5303 9.16458 38.2434 8.64653C32.4993 10.4057 33.6446 15.023 32.2546 15.023C31.5268 14.9564 30.8534 14.6218 30.3719 14.0877C26.9402 10.7555 28.5391 8.54982 28.5391 4.12095C28.5391 1.14356 27.3455 0.022134 25.1429 0.022134C24.6053 -0.0346731 24.0612 0.0181295 23.5459 0.177509C23.0307 0.336889 22.5558 0.599137 22.1511 0.94742C22.5649 0.960466 22.9722 1.05322 23.3488 1.22031C23.7254 1.3874 24.0634 1.62561 24.3444 1.92086C24.6255 2.21612 24.8438 2.56266 24.9857 2.94034C25.1276 3.31803 25.1908 3.71935 25.1716 4.12095C25.1716 7.34646 21.4337 8.23479 21.4337 12.3237C21.4081 19.137 29.7555 19.0104 29.7555 24.3821ZM25.7743 4.12822C25.7766 3.76751 25.7358 3.40776 25.652 3.05634C25.7504 3.04593 25.8449 3.01667 25.9315 2.97003C26.018 2.92339 26.0949 2.86054 26.156 2.78497C26.2172 2.7094 26.2621 2.62263 26.2883 2.52995C26.3145 2.43727 26.3211 2.34055 26.3083 2.24524C26.3211 2.03405 26.2763 1.82309 26.1785 1.63404C26.0807 1.44499 25.9339 1.28432 25.7518 1.16822C25.6573 1.16822 25.6318 1.26756 25.4274 1.26756C24.9164 1.26756 24.8884 0.644847 24.8884 0.644847H25.118C26.554 0.644847 27.8828 1.06914 27.8828 4.13337C27.8708 5.14776 27.8015 6.16081 27.6757 7.16789C27.5632 7.9945 27.5094 8.82767 27.5148 9.66146C27.5148 9.66146 25.0132 9.376 25.0132 7.54739C25.0132 6.35643 25.7743 6.06849 25.7743 4.12822Z" fill="#90949C"/>
<path d="M31.2297 39.9811C30.8541 39.8893 30.4626 39.7874 30.0793 39.6758C30.0002 39.9798 30.0305 40.3011 30.1642 40.5865C30.3012 40.8845 30.5534 41.118 30.8666 41.2365C31.4252 41.3909 31.9961 41.4996 32.5734 41.5615C32.9243 41.5923 33.2749 41.501 33.5628 41.3037C33.8507 41.1065 34.0565 40.8161 34.1442 40.4848C33.9091 40.4724 33.6562 40.445 33.3956 40.4103C33.3474 40.5654 33.2831 40.7153 33.2022 40.857C33.1878 40.8814 33.1678 40.9028 33.1448 40.92C33.1219 40.9372 33.0955 40.9499 33.0675 40.9572C33.0395 40.9646 33.0114 40.9666 32.9826 40.963C32.9539 40.9594 32.9255 40.9504 32.9003 40.9364C32.8751 40.9223 32.8531 40.9035 32.8354 40.8812C32.8177 40.8589 32.8043 40.8336 32.7967 40.8064C32.7891 40.7792 32.788 40.7508 32.7917 40.7228C32.7954 40.6949 32.8048 40.6679 32.8192 40.6435C32.872 40.5471 32.9158 40.4468 32.9514 40.3433C32.8135 40.321 32.6752 40.2936 32.5372 40.2688C32.4969 40.4313 32.4439 40.5906 32.3788 40.7452C32.3674 40.7713 32.351 40.7948 32.3301 40.8146C32.3092 40.8343 32.2849 40.8499 32.2577 40.8603C32.2306 40.8707 32.202 40.8758 32.1729 40.8752C32.1438 40.8746 32.1147 40.8685 32.0881 40.857C32.0342 40.8336 31.991 40.7904 31.9695 40.7371C31.948 40.6837 31.95 40.6244 31.9733 40.5717C32.0255 40.4448 32.0685 40.3144 32.103 40.1819L31.8884 40.1349L31.6614 40.0828C31.6205 40.2094 31.5741 40.331 31.5179 40.4699C31.4948 40.5225 31.4515 40.5639 31.3969 40.5853C31.3422 40.6067 31.2814 40.6061 31.2272 40.5838C31.2002 40.5732 31.1755 40.5576 31.1548 40.5378C31.1341 40.5179 31.1173 40.4942 31.1062 40.4681C31.095 40.442 31.0899 40.414 31.0899 40.3857C31.09 40.3575 31.0949 40.3297 31.1062 40.3036C31.1547 40.1945 31.1939 40.0853 31.2297 39.9811Z" fill="#90949C"/>
<path d="M29.7992 39.1449C29.9592 38.6914 30.2899 38.3134 30.725 38.0869C31.1601 37.8605 31.6673 37.8025 32.1448 37.9243C32.7146 38.0632 33.0793 38.1351 33.3476 38.1872L33.642 38.2468C33.8326 38.2918 34.0112 38.3745 34.1673 38.4897C34.3234 38.605 34.4536 38.7502 34.5491 38.9165C34.7468 39.265 34.8113 39.67 34.7325 40.0605C34.8862 40.0686 35.0401 40.035 35.1754 39.9635C35.7425 38.3827 35.7192 36.6589 35.1093 35.0933C34.7955 34.5941 34.3658 34.1726 33.8554 33.8621C33.3449 33.5516 32.7668 33.3605 32.1673 33.3042C30.647 33.0632 29.0918 33.1403 27.6046 33.5301C26.1174 33.9199 24.7324 34.6135 23.5434 35.5646C23.6289 35.9357 23.6096 36.3224 23.4873 36.6837C25.5094 37.6892 27.6226 38.5129 29.7992 39.1449Z" fill="#90949C"/>
</svg>
