<svg width="156" height="56" viewBox="0 0 156 56" fill="none" xmlns="http://www.w3.org/2000/svg">
<path d="M58.1154 19.4716H55.7251C55.4958 19.4716 55.2894 19.5346 55.106 19.6607L54.6589 18.8525C54.9341 18.8869 55.2207 18.9041 55.5187 18.9041H58.2701C58.488 18.0558 58.7115 16.8692 58.9408 15.3445C59.6286 15.4935 60.1961 15.6311 60.6432 15.7572C61.1018 15.8833 61.3655 15.9807 61.4343 16.0495C61.5145 16.1069 61.5546 16.1756 61.5546 16.2559C61.5546 16.3935 61.4686 16.4909 61.2967 16.5482C61.1247 16.5941 61.0101 16.7259 60.9528 16.9437L60.3165 18.9041H62.0533C62.2367 18.5487 62.4087 18.2392 62.5692 17.9755C62.7297 17.7118 62.8386 17.5513 62.8959 17.494C62.9533 17.4367 63.0106 17.408 63.0679 17.408C63.1825 17.408 63.5781 17.6889 64.2544 18.2507C64.9423 18.8009 65.2862 19.1449 65.2862 19.2824C65.2862 19.4085 65.1716 19.4716 64.9423 19.4716H60.1445C59.9611 20.0792 59.7261 20.8874 59.4395 21.8963H62.9475C63.0851 21.6441 63.2571 21.3517 63.4634 21.0193C63.6812 20.6868 63.8188 20.4804 63.8761 20.4002C63.9334 20.3199 63.9908 20.2798 64.0481 20.2798C64.1857 20.2798 64.5869 20.5779 65.2518 21.174C65.9167 21.7702 66.2492 22.137 66.2492 22.2746C66.2492 22.4007 66.1403 22.4637 65.9225 22.4637H59.3019C59.0841 23.1975 58.8892 23.8853 58.7172 24.5273H61.7266C62.0591 23.9885 62.2597 23.6732 62.3285 23.5815C62.3972 23.4898 62.489 23.4439 62.6036 23.4439C62.7297 23.4439 63.0679 23.6446 63.6182 24.0458C64.1799 24.4471 64.564 24.7279 64.7703 24.8884C64.9767 25.0489 65.0799 25.198 65.0799 25.3355C65.0799 25.4616 65.0397 25.5591 64.9595 25.6279C64.8792 25.6966 64.7187 25.731 64.478 25.731C64.2487 25.731 64.0137 25.7769 63.7729 25.8686C63.5322 25.9489 63.2055 26.138 62.7928 26.4361C62.38 26.7227 61.7381 27.2214 60.8668 27.9322C61.6578 28.1958 62.2539 28.5283 62.6552 28.9295C63.0679 29.3308 63.2743 29.732 63.2743 30.1333C63.2743 30.546 63.1539 30.8842 62.9131 31.1479C62.6838 31.4115 62.4259 31.5434 62.1393 31.5434C61.8527 31.5434 61.6234 31.4918 61.4515 31.3886C61.2795 31.2854 61.1133 31.0905 60.9528 30.8039C60.4369 29.8753 59.8694 29.199 59.2503 28.7748C58.6313 28.3506 57.6797 27.9608 56.3957 27.6054C56.2123 27.5481 56.1206 27.4965 56.1206 27.4507C56.1206 27.4048 56.218 27.3819 56.4129 27.3819C58.0523 27.3819 59.3994 27.5252 60.4541 27.8118C60.8668 27.1469 61.3483 26.2412 61.8986 25.0948H58.4937L58.2014 25.4043C58.0982 25.519 58.0007 25.5763 57.909 25.5763C57.8288 25.5763 57.502 25.4272 56.9288 25.1292C56.3556 24.8196 56.069 24.6247 56.069 24.5445C56.069 24.4642 56.1378 24.3783 56.2754 24.2866C56.6078 24.0802 56.8085 23.8509 56.8772 23.5987L57.2212 22.4637H55.1748C54.9455 22.4637 54.7392 22.5268 54.5557 22.6529L54.1086 21.8447C54.3838 21.8791 54.6704 21.8963 54.9684 21.8963H57.3931C57.6797 20.9906 57.9205 20.1824 58.1154 19.4716ZM52.1139 22.3434C51.7355 22.8363 51.2311 23.3809 50.6006 23.977C49.9815 24.5732 49.6319 24.8712 49.5516 24.8712C49.5402 24.8712 49.5344 24.8598 49.5344 24.8368C49.5344 24.8024 49.5803 24.7165 49.672 24.5789C50.5433 23.3178 51.2254 21.9593 51.7184 20.5034C52.2113 19.036 52.5552 17.3794 52.7501 15.5336C53.6329 15.7973 54.2921 16.0266 54.7277 16.2215C55.1748 16.4049 55.4557 16.5368 55.5703 16.617C55.685 16.6973 55.7423 16.7832 55.7423 16.875C55.7423 16.9552 55.6506 17.024 55.4671 17.0813C55.2837 17.1386 55.1519 17.2017 55.0716 17.2705C55.0028 17.3393 54.9169 17.4768 54.8137 17.6832C54.3322 18.692 53.8622 19.592 53.4036 20.383C54.1373 20.5435 54.5041 20.7155 54.5041 20.8989C54.5041 21.0365 54.3608 21.1568 54.0742 21.26V30.6148C54.0742 30.7065 54.057 30.7753 54.0227 30.8211C53.9883 30.867 53.8622 30.93 53.6443 31.0103C53.4265 31.0905 53.1628 31.1593 52.8533 31.2167C52.5438 31.2854 52.3145 31.3198 52.1655 31.3198C52.0852 31.3198 52.0451 31.2625 52.0451 31.1479L52.0967 29.5314C52.1081 29.027 52.1139 28.5512 52.1139 28.1041V22.3434Z" fill="#EAA82B"/>
<path d="M84.3189 18.5258H80.2262C79.9969 18.5258 79.7906 18.5888 79.6071 18.715L79.16 17.9067C79.4352 17.9411 79.7218 17.9583 80.0198 17.9583H84.4737C84.6456 17.2934 84.7316 16.4221 84.7316 15.3445C85.5341 15.4018 86.1761 15.4649 86.6576 15.5336C87.1391 15.6024 87.42 15.6655 87.5002 15.7228C87.5919 15.7687 87.6378 15.8374 87.6378 15.9292C87.6378 16.0094 87.5805 16.0897 87.4658 16.1699C87.3627 16.2502 87.271 16.3877 87.1907 16.5826C87.1219 16.766 86.9614 17.2246 86.7092 17.9583H90.1657C90.4752 17.4539 90.7102 17.0928 90.8707 16.875C91.0312 16.6571 91.1573 16.5482 91.249 16.5482C91.4095 16.5482 91.7936 16.8119 92.4012 17.3393C93.0088 17.8666 93.3126 18.1991 93.3126 18.3366C93.3126 18.4627 93.1922 18.5258 92.9515 18.5258H86.5028L86.3481 18.9041C89.4205 19.1563 90.9567 19.8442 90.9567 20.9677C90.9567 21.3001 90.8306 21.5925 90.5784 21.8447C90.3262 22.0854 90.0224 22.2058 89.667 22.2058C89.3116 22.2058 89.025 21.9593 88.8072 21.4664C88.383 20.5492 87.4945 19.8212 86.1417 19.2824C85.7405 19.9817 85.1443 20.5664 84.3533 21.0365C83.5737 21.5065 82.4904 21.9249 81.1032 22.2918H91.2318C91.5528 21.7759 91.7936 21.4033 91.9541 21.174C92.126 20.9447 92.2579 20.8301 92.3496 20.8301C92.5215 20.8301 92.8999 21.1052 93.4845 21.6555C94.0807 22.1943 94.3787 22.5325 94.3787 22.6701C94.3787 22.7962 94.2584 22.8593 94.0176 22.8593H91.6961C91.6732 22.9166 91.5528 22.9968 91.335 23.1V29.6174C91.335 29.9613 91.2949 30.2537 91.2146 30.4944C91.1458 30.7352 91.014 30.9358 90.8191 31.0963C90.6357 31.2568 90.3491 31.3886 89.9593 31.4918C89.5695 31.6064 89.1797 31.6638 88.79 31.6638C88.4804 31.6638 88.3199 31.5147 88.3085 31.2167C88.2855 30.7925 88.125 30.4887 87.827 30.3053C87.5289 30.1218 87.0474 29.9556 86.3825 29.8066C86.2334 29.7722 86.1589 29.7263 86.1589 29.669C86.1589 29.6231 86.2736 29.6059 86.5028 29.6174C86.7436 29.6174 86.95 29.6174 87.1219 29.6174C87.6951 29.6174 88.1766 29.5773 88.5664 29.497C88.9677 29.4053 89.1683 29.1531 89.1683 28.7404V22.8593H79.246C79.0167 22.8593 78.8104 22.9223 78.627 23.0484L78.1798 22.2402C78.455 22.2746 78.7416 22.2918 79.0397 22.2918H80.037C81.2866 21.7759 82.2439 21.2256 82.9088 20.6409C83.5737 20.0448 84.0438 19.3398 84.3189 18.5258ZM82.5993 24.3381H85.1615C85.4138 23.9025 85.5685 23.656 85.6258 23.5987C85.6946 23.5414 85.7921 23.5127 85.9182 23.5127C86.1704 23.5127 86.5774 23.7019 87.1391 24.0802C87.7123 24.4585 87.9989 24.7165 87.9989 24.854C87.9989 24.9916 87.8212 25.1062 87.4658 25.198V27.4507C87.4658 27.6456 87.4716 27.8175 87.483 27.9666L87.5174 28.3449C87.5174 28.4137 87.5002 28.4652 87.4658 28.4996C87.4314 28.534 87.2881 28.5971 87.0359 28.6888C86.7837 28.7691 86.5028 28.8264 86.1933 28.8608C85.8952 28.8952 85.6889 28.9124 85.5742 28.9124C85.4711 28.9124 85.4023 28.8952 85.3679 28.8608C85.345 28.8264 85.3335 28.7576 85.3335 28.6544V28.0353H82.3242V28.8092C82.3242 28.9009 82.2726 28.9811 82.1694 29.0499C82.0662 29.1072 81.8312 29.176 81.4643 29.2563C81.0975 29.3365 80.7536 29.3767 80.4326 29.3767C80.3523 29.3767 80.3179 29.3193 80.3294 29.2047C80.3523 28.941 80.3638 28.5168 80.3638 27.9322V24.8884C80.3638 24.4069 80.3466 23.9197 80.3122 23.4267C81.0918 23.656 81.8427 23.9369 82.5649 24.2694L82.5993 24.3381ZM85.3335 27.4679V24.9056H82.5821C82.5018 24.9629 82.4159 25.0088 82.3242 25.0432V27.4679H85.3335Z" fill="#EAA82B"/>
<path d="M118.467 19.8671C120.152 20.3945 121.339 21.0365 122.027 21.7931C122.726 22.5383 123.076 23.2548 123.076 23.9426C123.076 24.3668 122.95 24.7279 122.697 25.026C122.445 25.3126 122.141 25.4559 121.786 25.4559C121.431 25.4559 121.144 25.3355 120.926 25.0948C120.72 24.8426 120.611 24.4872 120.6 24.0286C120.577 23.0771 120.393 22.309 120.049 21.7243C119.705 21.1396 119.178 20.6065 118.467 20.125V30.8383C118.467 30.953 118.433 31.039 118.364 31.0963C118.307 31.1536 118.077 31.2281 117.676 31.3198C117.275 31.4115 116.845 31.4574 116.386 31.4574C116.295 31.4574 116.249 31.3886 116.249 31.251L116.283 30.5116C116.295 29.9613 116.3 29.4512 116.3 28.9811V16.8921C116.3 16.3189 116.289 15.8088 116.266 15.3617C117.355 15.4763 118.06 15.5795 118.381 15.6712C118.714 15.7515 118.88 15.8374 118.88 15.9292C118.88 16.0209 118.742 16.1527 118.467 16.3247V19.8671ZM110.144 19.9703H107.719C107.444 19.9703 107.198 20.0047 106.98 20.0735L106.688 19.334C106.951 19.3799 107.238 19.4028 107.548 19.4028H110.144V17.2877C110.144 16.5883 110.121 15.9693 110.075 15.4305C111.795 15.568 112.655 15.7687 112.655 16.0323C112.655 16.1584 112.5 16.2845 112.191 16.4107V19.4028H112.947C113.417 18.6232 113.681 18.1933 113.738 18.1131C113.807 18.0214 113.881 17.9755 113.962 17.9755C114.099 17.9755 114.426 18.1933 114.942 18.629C115.458 19.0646 115.785 19.3569 115.922 19.506C116.071 19.6436 116.146 19.7582 116.146 19.8499C116.146 19.9302 116.037 19.9703 115.819 19.9703H112.191V22.4122C112.89 22.2287 113.589 22.0338 114.288 21.8275C114.999 21.6211 115.383 21.5179 115.441 21.5179C115.498 21.5179 115.527 21.5466 115.527 21.6039C115.527 21.6498 115.389 21.7358 115.114 21.8619C114.839 21.988 113.864 22.5153 112.191 23.4439V29.2219C112.191 29.6919 112.139 30.0416 112.036 30.2709C111.933 30.5116 111.766 30.7008 111.537 30.8383C111.319 30.9759 111.004 31.0905 110.591 31.1823C110.179 31.2854 109.88 31.337 109.697 31.337C109.525 31.337 109.428 31.2224 109.405 30.9931C109.359 30.5231 109.216 30.1849 108.975 29.9785C108.746 29.7722 108.453 29.6289 108.098 29.5486C107.754 29.4684 107.582 29.411 107.582 29.3767C107.582 29.3308 107.645 29.3079 107.771 29.3079L108.889 29.3423C109.279 29.3423 109.559 29.3193 109.731 29.2735C109.915 29.2276 110.03 29.1531 110.075 29.0499C110.121 28.9467 110.144 28.792 110.144 28.5856V24.5961C109.044 25.2266 108.413 25.6049 108.253 25.731C108.104 25.8457 108.006 25.903 107.96 25.903C107.914 25.903 107.874 25.8858 107.84 25.8514C107.805 25.8056 107.668 25.5419 107.427 25.0604C107.198 24.5674 106.992 24.0687 106.808 23.5643C107.725 23.4382 108.837 23.2204 110.144 22.9108V19.9703Z" fill="#EAA82B"/>
<path d="M142.418 18.629H137.001C136.772 18.629 136.566 18.692 136.382 18.8181L135.935 18.0099C136.21 18.0443 136.497 18.0615 136.795 18.0615H142.418V16.9953C142.418 16.4221 142.407 15.912 142.384 15.4649C143.679 15.5795 144.464 15.6769 144.739 15.7572C145.026 15.826 145.169 15.9234 145.169 16.0495C145.169 16.1756 144.957 16.3304 144.533 16.5138V18.0615H148.076C148.27 17.6488 148.454 17.2991 148.626 17.0125C148.798 16.7259 148.912 16.5425 148.97 16.4622C149.039 16.3705 149.13 16.3247 149.245 16.3247C149.36 16.3247 149.658 16.5024 150.139 16.8578C150.632 17.2017 151.045 17.5284 151.377 17.8379C151.71 18.1475 151.876 18.3596 151.876 18.4742C151.876 18.5774 151.773 18.629 151.566 18.629H144.533V20.6581H146.614C146.786 20.3371 146.929 20.0907 147.044 19.9187C147.158 19.7467 147.262 19.6607 147.353 19.6607C147.457 19.6607 147.743 19.7869 148.213 20.0391C148.695 20.2798 149.056 20.4862 149.297 20.6581C149.537 20.8186 149.658 20.939 149.658 21.0193C149.658 21.1568 149.451 21.2829 149.039 21.3976V23.8566C149.039 24.2464 149.044 24.5158 149.056 24.6649L149.073 25.0776C149.073 25.1693 149.05 25.2381 149.004 25.2839C148.958 25.3298 148.832 25.4043 148.626 25.5075C148.419 25.6107 148.127 25.7024 147.749 25.7826C147.371 25.8514 147.136 25.8858 147.044 25.8858C146.952 25.8858 146.906 25.7884 146.906 25.5935V24.9744H146.7C146.631 25.0547 146.499 25.1464 146.304 25.2495V28.6372C146.304 29.1187 146.413 29.4053 146.631 29.497C146.849 29.5887 147.267 29.6346 147.886 29.6346C148.517 29.6346 148.97 29.5773 149.245 29.4626C149.532 29.348 149.761 29.1072 149.933 28.7404C150.105 28.3621 150.323 27.6685 150.586 26.6596C150.621 26.5221 150.661 26.4533 150.707 26.4533C150.764 26.4533 150.793 26.5393 150.793 26.7112V27.0895C150.793 27.743 150.844 28.2646 150.947 28.6544C151.051 29.0442 151.32 29.3881 151.756 29.6862C151.962 29.8352 152.065 29.99 152.065 30.1505C152.065 30.3224 151.962 30.5517 151.756 30.8383C151.549 31.1249 151.171 31.3141 150.621 31.4058C150.07 31.4975 149.222 31.5434 148.076 31.5434C146.929 31.5434 146.092 31.4975 145.565 31.4058C145.049 31.3141 144.699 31.1593 144.516 30.9415C144.333 30.7352 144.241 30.4256 144.241 30.0129V24.9744H142.934C142.819 25.0661 142.745 25.2553 142.71 25.5419C142.607 26.4476 142.47 27.1469 142.298 27.6398C142.126 28.1328 141.856 28.6143 141.489 29.0843C141.134 29.5429 140.653 29.9384 140.045 30.2709C139.437 30.6148 138.623 30.9186 137.603 31.1823C136.583 31.4574 135.895 31.595 135.539 31.595C135.471 31.595 135.436 31.5778 135.436 31.5434C135.436 31.5205 135.528 31.4746 135.711 31.4058C137.683 30.6262 139.007 29.7951 139.684 28.9124C140.36 28.0181 140.71 26.7055 140.733 24.9744H140.286V25.3011C140.286 25.4043 140.263 25.4788 140.217 25.5247C140.182 25.5705 140.062 25.6336 139.856 25.7138C139.661 25.7941 139.403 25.8629 139.082 25.9202C138.761 25.9775 138.52 26.0062 138.36 26.0062C138.279 26.0062 138.245 25.9603 138.256 25.8686C138.302 25.4674 138.325 24.8712 138.325 24.0802V21.7415C138.325 21.0422 138.314 20.446 138.291 19.9531C139.323 20.1938 140.039 20.4289 140.44 20.6581H142.418V18.629ZM146.906 24.4069V21.2256H140.561C140.538 21.3173 140.446 21.3861 140.286 21.432V24.4069H146.906Z" fill="#EAA82B"/>
<path d="M49.916 41.598C49.9664 41.3938 50.0169 41.2955 50.0673 41.3031C50.1177 41.3031 50.1825 41.3787 50.2618 41.5299C50.2978 41.6055 50.3302 41.666 50.359 41.7114C50.395 41.7492 50.4311 41.7794 50.4671 41.8021C50.5031 41.8172 50.5463 41.8286 50.5967 41.8361C50.6544 41.8361 50.7228 41.8361 50.802 41.8361H54.9835C55.1204 41.8361 55.2285 41.8324 55.3077 41.8248C55.3869 41.8172 55.4482 41.8021 55.4914 41.7794C55.5418 41.7492 55.5814 41.7152 55.6102 41.6774C55.639 41.632 55.6679 41.5753 55.6967 41.5072C55.7615 41.3636 55.8227 41.2917 55.8804 41.2917C55.974 41.2917 56.0208 41.3674 56.0208 41.5186L55.9992 43.5487C55.9992 43.6092 55.9884 43.6583 55.9668 43.6961C55.9524 43.7264 55.9272 43.7377 55.8912 43.7301C55.8623 43.715 55.8299 43.6772 55.7939 43.6167C55.7579 43.5487 55.7255 43.439 55.6967 43.2878C55.6607 43.1442 55.6246 43.0194 55.5886 42.9136C55.5526 42.8001 55.4986 42.7056 55.4265 42.63C55.3545 42.5544 55.2609 42.5015 55.1456 42.4712C55.0304 42.4334 54.8755 42.4145 54.681 42.4145H53.5789V47.9038C53.5789 48.1003 53.6005 48.2364 53.6437 48.312C53.6942 48.3801 53.795 48.433 53.9463 48.4708L54.7891 48.6636V48.9585C54.6954 48.9509 54.573 48.9472 54.4217 48.9472C54.2704 48.9396 54.1011 48.9358 53.9139 48.9358C53.7338 48.9283 53.5393 48.9245 53.3304 48.9245C53.1215 48.9245 52.909 48.9245 52.6929 48.9245C52.484 48.9245 52.2787 48.9245 52.077 48.9245C51.8753 48.9245 51.6916 48.9283 51.526 48.9358C51.3603 48.9358 51.2198 48.9396 51.1046 48.9472C50.9893 48.9472 50.9101 48.9509 50.8669 48.9585V48.6636L51.688 48.5049C51.8969 48.467 52.0338 48.4028 52.0986 48.312C52.1634 48.2138 52.1959 48.0739 52.1959 47.8924V42.4145H51.0721C50.9569 42.407 50.856 42.4183 50.7696 42.4486C50.6832 42.4712 50.5931 42.5204 50.4995 42.596C50.413 42.6641 50.3194 42.7661 50.2186 42.9022C50.1177 43.0308 49.9989 43.2009 49.862 43.4126C49.7611 43.5562 49.6855 43.647 49.6351 43.6848C49.5919 43.7226 49.5595 43.7264 49.5378 43.6961C49.5234 43.6583 49.5198 43.5978 49.527 43.5147C49.5414 43.4239 49.5595 43.3256 49.5811 43.2198L49.916 41.598Z" fill="#EAA82B"/>
<path d="M58.2883 48.6409L58.6341 48.5729C58.843 48.5502 58.9799 48.5086 59.0447 48.4481C59.1167 48.3801 59.1527 48.2251 59.1527 47.9831V42.9362C59.1527 42.8228 59.1491 42.7245 59.1419 42.6414C59.1347 42.5506 59.1095 42.4788 59.0663 42.4259C59.0303 42.3654 58.9727 42.32 58.8934 42.2898C58.8142 42.252 58.7025 42.2255 58.5585 42.2104L58.3316 42.1877C58.3316 42.1272 58.328 42.0705 58.3208 42.0176C58.3208 41.9571 58.3208 41.8966 58.3208 41.8361C58.4648 41.8361 58.5765 41.8361 58.6557 41.8361C58.7349 41.8361 58.7998 41.8361 58.8502 41.8361C58.9006 41.8286 58.9438 41.821 58.9799 41.8135C59.0231 41.8059 59.0807 41.8021 59.1527 41.8021L60.7951 41.7227C60.8671 41.7227 60.9356 41.7227 61.0004 41.7227C61.0724 41.7152 61.1409 41.7114 61.2057 41.7114C61.5875 41.7114 61.9476 41.7416 62.2862 41.8021C62.6247 41.855 62.9201 41.9533 63.1722 42.097C63.4315 42.2331 63.6368 42.4183 63.7881 42.6527C63.9393 42.8871 64.015 43.1782 64.015 43.526C64.015 43.7528 63.9826 43.9494 63.9177 44.1157C63.8601 44.2745 63.7737 44.422 63.6584 44.5581C63.5432 44.6866 63.3991 44.8038 63.2262 44.9096C63.0605 45.0155 62.8696 45.1251 62.6535 45.2385L63.7989 47.28C63.9718 47.59 64.1194 47.8281 64.2419 47.9945C64.3643 48.1533 64.4832 48.2742 64.5984 48.3574C64.7209 48.4406 64.847 48.4973 64.9766 48.5275C65.1135 48.5502 65.2755 48.5767 65.4628 48.6069V48.9358C65.3116 48.9283 65.1459 48.9245 64.9658 48.9245C64.7929 48.9245 64.6056 48.9245 64.4039 48.9245C64.3031 48.9245 64.177 48.9245 64.0258 48.9245C63.8817 48.9245 63.7376 48.9245 63.5936 48.9245C63.4495 48.9245 63.3199 48.9283 63.2046 48.9358C63.0893 48.9358 63.0137 48.9358 62.9777 48.9358L61.4218 45.8396C61.3497 45.7262 61.2705 45.6393 61.1841 45.5788C61.1048 45.5183 61.004 45.488 60.8815 45.488H60.5466V47.9151C60.5466 48.0966 60.579 48.2289 60.6438 48.312C60.7159 48.3952 60.8383 48.4595 61.0112 48.5049L61.5406 48.6409V48.9698C61.2813 48.9547 61.004 48.9434 60.7087 48.9358C60.4205 48.9283 60.1324 48.9245 59.8443 48.9245C59.5633 48.9245 59.286 48.9283 59.0123 48.9358C58.7458 48.9434 58.5044 48.9547 58.2883 48.9698V48.6409ZM60.5466 45.0457C60.9139 45.0609 61.2201 45.0382 61.465 44.9777C61.7171 44.9096 61.9188 44.8189 62.0701 44.7055C62.2213 44.5845 62.3294 44.4409 62.3942 44.2745C62.4591 44.1006 62.4915 43.9116 62.4915 43.7075C62.4915 43.2311 62.3834 42.8644 62.1673 42.6073C61.9512 42.3503 61.5658 42.2217 61.0112 42.2217C60.9536 42.2217 60.8779 42.2255 60.7843 42.2331C60.6906 42.2331 60.6114 42.2369 60.5466 42.2444V45.0457Z" fill="#EAA82B"/>
<path d="M68.7893 48.1986V42.562C68.7893 42.4334 68.7677 42.3427 68.7245 42.2898C68.6885 42.2369 68.6201 42.2066 68.5192 42.1991L67.8385 42.097V41.8021C67.9105 41.8248 68.6669 41.8361 70.1075 41.8361C70.5325 41.8361 70.8711 41.8248 71.1232 41.8021V42.1083L70.4425 42.2104C70.3416 42.218 70.2696 42.2444 70.2264 42.2898C70.1904 42.3352 70.1724 42.4259 70.1724 42.562V48.1986C70.1724 48.3347 70.1904 48.4217 70.2264 48.4595C70.2624 48.4973 70.3344 48.52 70.4425 48.5275L71.1232 48.5842V48.9698C70.9791 48.9547 70.7702 48.9434 70.4965 48.9358C70.23 48.9283 69.8914 48.9245 69.4808 48.9245C69.0703 48.9245 68.7281 48.9283 68.4544 48.9358C68.1879 48.9434 67.9826 48.9547 67.8385 48.9698V48.5842L68.5192 48.5275C68.6273 48.5124 68.6993 48.4859 68.7353 48.4481C68.7713 48.4103 68.7893 48.3272 68.7893 48.1986Z" fill="#EAA82B"/>
<path d="M73.776 41.598C73.8264 41.3938 73.8768 41.2955 73.9273 41.3031C73.9777 41.3031 74.0425 41.3787 74.1217 41.5299C74.1578 41.6055 74.1902 41.666 74.219 41.7114C74.255 41.7492 74.291 41.7794 74.327 41.8021C74.3631 41.8172 74.4063 41.8286 74.4567 41.8361C74.5143 41.8361 74.5828 41.8361 74.662 41.8361H78.8435C78.9804 41.8361 79.0884 41.8324 79.1677 41.8248C79.2469 41.8172 79.3081 41.8021 79.3513 41.7794C79.4018 41.7492 79.4414 41.7152 79.4702 41.6774C79.499 41.632 79.5278 41.5753 79.5566 41.5072C79.6215 41.3636 79.6827 41.2917 79.7403 41.2917C79.834 41.2917 79.8808 41.3674 79.8808 41.5186L79.8592 43.5487C79.8592 43.6092 79.8484 43.6583 79.8268 43.6961C79.8124 43.7264 79.7871 43.7377 79.7511 43.7301C79.7223 43.715 79.6899 43.6772 79.6539 43.6167C79.6179 43.5487 79.5855 43.439 79.5566 43.2878C79.5206 43.1442 79.4846 43.0194 79.4486 42.9136C79.4126 42.8001 79.3585 42.7056 79.2865 42.63C79.2145 42.5544 79.1208 42.5015 79.0056 42.4712C78.8903 42.4334 78.7355 42.4145 78.541 42.4145H77.4389V47.9038C77.4389 48.1003 77.4605 48.2364 77.5037 48.312C77.5541 48.3801 77.655 48.433 77.8062 48.4708L78.649 48.6636V48.9585C78.5554 48.9509 78.4329 48.9472 78.2817 48.9472C78.1304 48.9396 77.9611 48.9358 77.7738 48.9358C77.5937 48.9283 77.3992 48.9245 77.1904 48.9245C76.9815 48.9245 76.769 48.9245 76.5529 48.9245C76.344 48.9245 76.1387 48.9245 75.937 48.9245C75.7353 48.9245 75.5516 48.9283 75.3859 48.9358C75.2202 48.9358 75.0798 48.9396 74.9645 48.9472C74.8493 48.9472 74.77 48.9509 74.7268 48.9585V48.6636L75.548 48.5049C75.7569 48.467 75.8938 48.4028 75.9586 48.312C76.0234 48.2138 76.0558 48.0739 76.0558 47.8924V42.4145H74.9321C74.8169 42.407 74.716 42.4183 74.6296 42.4486C74.5431 42.4712 74.4531 42.5204 74.3595 42.596C74.273 42.6641 74.1794 42.7661 74.0785 42.9022C73.9777 43.0308 73.8588 43.2009 73.722 43.4126C73.6211 43.5562 73.5455 43.647 73.4951 43.6848C73.4518 43.7226 73.4194 43.7264 73.3978 43.6961C73.3834 43.6583 73.3798 43.5978 73.387 43.5147C73.4014 43.4239 73.4194 43.3256 73.441 43.2198L73.776 41.598Z" fill="#EAA82B"/>
<path d="M86.0273 49.0833C85.4942 49.0833 84.9936 49.0001 84.5254 48.8337C84.0644 48.6598 83.661 48.4179 83.3152 48.1079C82.9695 47.7903 82.6958 47.4085 82.4941 46.9624C82.2996 46.5163 82.2023 46.0211 82.2023 45.4767C82.2023 44.9172 82.3032 44.4068 82.5049 43.9456C82.7138 43.4844 82.9947 43.0912 83.3477 42.7661C83.7006 42.441 84.1112 42.1915 84.5794 42.0176C85.0548 41.8361 85.5591 41.7454 86.0921 41.7454C86.6324 41.7454 87.1294 41.8399 87.5832 42.0289C88.0442 42.218 88.444 42.4788 88.7826 42.8115C89.1211 43.1366 89.384 43.526 89.5713 43.9796C89.7658 44.4257 89.8631 44.9134 89.8631 45.4427C89.8631 45.9719 89.7694 46.4596 89.5821 46.9057C89.402 47.3518 89.1427 47.7374 88.8042 48.0625C88.4728 48.3801 88.0694 48.6296 87.594 48.8111C87.1258 48.9925 86.6036 49.0833 86.0273 49.0833ZM83.7691 45.5334C83.7691 45.919 83.8195 46.3008 83.9203 46.6789C84.0284 47.0494 84.1832 47.3821 84.3849 47.6769C84.5866 47.9718 84.8279 48.21 85.1089 48.3914C85.397 48.5729 85.7248 48.6636 86.0921 48.6636C86.798 48.6636 87.3455 48.399 87.7345 47.8697C88.1235 47.3329 88.3179 46.5466 88.3179 45.5107C88.3179 45.0646 88.2711 44.6412 88.1775 44.2405C88.0838 43.8398 87.9398 43.492 87.7453 43.1971C87.558 42.8947 87.3203 42.6565 87.0322 42.4826C86.744 42.3011 86.4091 42.2104 86.0273 42.2104C85.6383 42.2104 85.2998 42.3049 85.0116 42.4939C84.7307 42.683 84.4966 42.9325 84.3093 43.2425C84.1292 43.5525 83.9924 43.9078 83.8987 44.3085C83.8123 44.7017 83.7691 45.11 83.7691 45.5334Z" fill="#EAA82B"/>
<path d="M93.8993 48.0058C93.8993 48.1949 93.9209 48.3234 93.9641 48.3914C94.0073 48.4519 94.0974 48.4897 94.2342 48.5049L95.0878 48.6183V48.9585C94.6556 48.9358 94.2234 48.9245 93.7912 48.9245C93.359 48.9245 92.8584 48.9358 92.2894 48.9585V48.6183L92.8836 48.5049C93.1285 48.4595 93.2834 48.4066 93.3482 48.3461C93.4203 48.2856 93.4563 48.1722 93.4563 48.0058V43.4353C93.4563 43.0875 93.4203 42.8304 93.3482 42.6641C93.2762 42.4902 93.1393 42.3843 92.9377 42.3465L92.3002 42.2444V41.8361H93.8453C94.0109 41.8361 94.1442 41.8361 94.245 41.8361C94.3531 41.8361 94.4431 41.8437 94.5152 41.8588C94.5944 41.8739 94.6628 41.9042 94.7205 41.9495C94.7781 41.9874 94.8465 42.0478 94.9258 42.131L98.9344 46.5768V42.8682C98.9344 42.6641 98.902 42.5204 98.8372 42.4372C98.7795 42.3465 98.6823 42.2936 98.5454 42.2784L97.735 42.165V41.8021C97.9367 41.8248 98.3257 41.8361 98.902 41.8361C99.1901 41.8361 99.4602 41.8361 99.7124 41.8361C99.9717 41.8286 100.152 41.8172 100.253 41.8021V42.165L99.6151 42.2104C99.4927 42.2255 99.417 42.2898 99.3882 42.4032C99.3666 42.5091 99.3558 42.6641 99.3558 42.8682V49.0719H99.0965L93.8993 43.2651V48.0058Z" fill="#EAA82B"/>
<path d="M107.169 41.8361C107.522 41.8361 107.817 41.8361 108.055 41.8361C108.293 41.8286 108.473 41.821 108.595 41.8135L110.162 41.7227C110.299 41.7152 110.392 41.7114 110.443 41.7114C110.5 41.7114 110.544 41.7114 110.573 41.7114C110.911 41.7114 111.228 41.753 111.523 41.8361C111.819 41.9117 112.074 42.0365 112.291 42.2104C112.507 42.3767 112.676 42.5922 112.798 42.8569C112.928 43.1215 112.993 43.4353 112.993 43.7982C112.993 44.1309 112.928 44.422 112.798 44.6715C112.676 44.921 112.51 45.1327 112.301 45.3066C112.1 45.4729 111.866 45.5977 111.599 45.6809C111.34 45.764 111.077 45.8056 110.81 45.8056C110.601 45.8056 110.418 45.7754 110.259 45.7149C110.101 45.6544 109.953 45.5523 109.816 45.4087L109.838 45.3066C109.931 45.3444 110.032 45.3709 110.14 45.386C110.248 45.3935 110.342 45.3973 110.421 45.3973C110.601 45.3973 110.763 45.3709 110.907 45.3179C111.059 45.265 111.188 45.1818 111.296 45.0684C111.405 44.9474 111.487 44.7887 111.545 44.5921C111.61 44.3955 111.642 44.1498 111.642 43.8549C111.642 43.3559 111.523 42.9514 111.286 42.6414C111.048 42.3238 110.684 42.165 110.194 42.165C110.094 42.165 110.007 42.1688 109.935 42.1764C109.87 42.1764 109.809 42.1802 109.751 42.1877C109.694 42.1953 109.643 42.2066 109.6 42.2217C109.564 42.2293 109.528 42.2406 109.492 42.2558V48.0739C109.492 48.1873 109.514 48.2856 109.557 48.3688C109.607 48.4444 109.712 48.4973 109.87 48.5275L110.519 48.6523V48.9698C110.216 48.9547 109.928 48.9434 109.654 48.9358C109.388 48.9283 109.157 48.9245 108.963 48.9245C108.739 48.9245 108.509 48.9283 108.271 48.9358C108.041 48.9434 107.745 48.9509 107.385 48.9585V48.6409L107.99 48.5162C108.098 48.4935 108.17 48.4519 108.206 48.3914C108.242 48.3309 108.26 48.2289 108.26 48.0852V42.9703C108.26 42.683 108.174 42.4902 108.001 42.3919C107.835 42.2936 107.558 42.2217 107.169 42.1764V41.8361Z" fill="#EAA82B"/>
<path d="M119.247 49.0833C118.714 49.0833 118.214 49.0001 117.746 48.8337C117.285 48.6598 116.881 48.4179 116.535 48.1079C116.19 47.7903 115.916 47.4085 115.714 46.9624C115.52 46.5163 115.423 46.0211 115.423 45.4767C115.423 44.9172 115.523 44.4068 115.725 43.9456C115.934 43.4844 116.215 43.0912 116.568 42.7661C116.921 42.441 117.331 42.1915 117.8 42.0176C118.275 41.8361 118.779 41.7454 119.312 41.7454C119.853 41.7454 120.35 41.8399 120.803 42.0289C121.264 42.218 121.664 42.4788 122.003 42.8115C122.341 43.1366 122.604 43.526 122.791 43.9796C122.986 44.4257 123.083 44.9134 123.083 45.4427C123.083 45.9719 122.99 46.4596 122.802 46.9057C122.622 47.3518 122.363 47.7374 122.024 48.0625C121.693 48.3801 121.29 48.6296 120.814 48.8111C120.346 48.9925 119.824 49.0833 119.247 49.0833ZM116.989 45.5334C116.989 45.919 117.04 46.3008 117.141 46.6789C117.249 47.0494 117.403 47.3821 117.605 47.6769C117.807 47.9718 118.048 48.21 118.329 48.3914C118.617 48.5729 118.945 48.6636 119.312 48.6636C120.018 48.6636 120.566 48.399 120.955 47.8697C121.344 47.3329 121.538 46.5466 121.538 45.5107C121.538 45.0646 121.491 44.6412 121.398 44.2405C121.304 43.8398 121.16 43.492 120.965 43.1971C120.778 42.8947 120.54 42.6565 120.252 42.4826C119.964 42.3011 119.629 42.2104 119.247 42.2104C118.858 42.2104 118.52 42.3049 118.232 42.4939C117.951 42.683 117.717 42.9325 117.529 43.2425C117.349 43.5525 117.213 43.9078 117.119 44.3085C117.032 44.7017 116.989 45.11 116.989 45.5334Z" fill="#EAA82B"/>
<path d="M128.405 48.9698C128.268 48.9547 128.085 48.9434 127.854 48.9358C127.624 48.9283 127.343 48.9245 127.011 48.9245C126.68 48.9245 126.381 48.9283 126.115 48.9358C125.848 48.9434 125.646 48.9547 125.51 48.9698V48.6183L126.028 48.5162C126.129 48.5011 126.197 48.4708 126.233 48.4255C126.277 48.3725 126.298 48.278 126.298 48.1419V42.5506C126.298 42.4145 126.28 42.3314 126.244 42.3011C126.215 42.2709 126.143 42.2444 126.028 42.2217L125.51 42.1197V41.8021C125.531 41.8097 125.603 41.8172 125.726 41.8248C125.848 41.8248 125.985 41.8286 126.136 41.8361C126.287 41.8361 126.439 41.8361 126.59 41.8361C126.741 41.8361 126.86 41.8361 126.947 41.8361C127.019 41.8361 127.123 41.8361 127.26 41.8361C127.397 41.8361 127.537 41.8361 127.681 41.8361C127.833 41.8286 127.973 41.8248 128.103 41.8248C128.24 41.8172 128.34 41.8097 128.405 41.8021V42.1197L127.951 42.2217C127.843 42.2444 127.771 42.2747 127.735 42.3125C127.699 42.3427 127.681 42.4221 127.681 42.5506V48.1419C127.681 48.2629 127.699 48.3499 127.735 48.4028C127.779 48.4481 127.851 48.4784 127.951 48.4935L128.405 48.6183V48.9698ZM133.267 48.9698C133.073 48.9547 132.843 48.9434 132.576 48.9358C132.309 48.9283 132.003 48.9245 131.658 48.9245C131.485 48.9245 131.294 48.9245 131.085 48.9245C130.876 48.9245 130.671 48.9283 130.469 48.9358C130.267 48.9358 130.08 48.9396 129.907 48.9472C129.734 48.9547 129.601 48.9623 129.507 48.9698V48.6296L130.275 48.4935C130.39 48.4708 130.44 48.4368 130.426 48.3914C130.419 48.3385 130.354 48.2516 130.231 48.1306L128.276 46.2819C128.11 46.1383 127.951 46.0098 127.8 45.8963C127.656 45.7754 127.523 45.6695 127.4 45.5788C127.487 45.541 127.584 45.488 127.692 45.42C127.8 45.3444 127.908 45.265 128.016 45.1818C128.132 45.0987 128.243 45.0117 128.351 44.921C128.459 44.8227 128.557 44.732 128.643 44.6488L130.361 42.9362C130.455 42.8455 130.53 42.7737 130.588 42.7208C130.653 42.6603 130.7 42.6149 130.728 42.5847C130.764 42.5469 130.786 42.5166 130.793 42.4939C130.808 42.4712 130.815 42.441 130.815 42.4032C130.815 42.3352 130.764 42.2936 130.663 42.2784L130.015 42.165V41.8021C130.217 41.8248 130.656 41.8361 131.333 41.8361C132.003 41.8361 132.443 41.8248 132.652 41.8021V42.165C132.486 42.1802 132.338 42.2142 132.209 42.2671C132.086 42.32 131.946 42.3843 131.787 42.4599C131.629 42.5355 131.452 42.6338 131.258 42.7548C131.07 42.8758 130.869 43.0459 130.653 43.2651L128.946 45.0004L131.733 47.6089C131.935 47.7752 132.097 47.9151 132.219 48.0285C132.349 48.1344 132.443 48.21 132.5 48.2553C132.565 48.3083 132.63 48.3612 132.695 48.4141C132.767 48.467 132.839 48.5011 132.911 48.5162L133.267 48.5956V48.9698Z" fill="#EAA82B"/>
<path d="M142.128 46.7469C142.085 46.9208 142.049 47.1099 142.02 47.314C141.991 47.5106 141.966 47.7072 141.944 47.9038C141.923 48.1003 141.905 48.2931 141.89 48.4822C141.876 48.6636 141.865 48.8224 141.858 48.9585C141.404 48.9434 140.932 48.9358 140.442 48.9358C139.96 48.9283 139.412 48.9245 138.8 48.9245C138.188 48.9245 137.586 48.9283 136.996 48.9358C136.405 48.9358 135.883 48.9434 135.429 48.9585V48.6523L136.175 48.5956C136.297 48.5805 136.38 48.554 136.423 48.5162C136.473 48.4784 136.499 48.3725 136.499 48.1986V42.7208C136.499 42.5393 136.477 42.4108 136.434 42.3352C136.398 42.2595 136.329 42.2142 136.229 42.1991L135.472 42.1197V41.8021C135.768 41.8172 136.193 41.8286 136.747 41.8361C137.302 41.8361 137.921 41.8361 138.606 41.8361C139.29 41.8361 139.855 41.8361 140.302 41.8361C140.749 41.8286 141.116 41.8172 141.404 41.8021C141.39 41.9155 141.379 42.0554 141.372 42.2217C141.372 42.3805 141.372 42.5469 141.372 42.7208C141.372 42.8871 141.372 43.0534 141.372 43.2198C141.379 43.3786 141.386 43.5184 141.393 43.6394H141.253C141.181 43.3597 141.105 43.1366 141.026 42.9703C140.954 42.7964 140.871 42.6641 140.777 42.5733C140.691 42.475 140.594 42.4108 140.486 42.3805C140.385 42.3427 140.27 42.3238 140.14 42.3238H138.195C138.073 42.3238 137.99 42.3616 137.947 42.4372C137.903 42.5053 137.882 42.6262 137.882 42.8001V45.1138H139.546C139.697 45.1138 139.827 45.0911 139.935 45.0457C140.05 45.0004 140.129 44.9096 140.172 44.7735L140.421 44.0137H140.723C140.68 44.9134 140.68 45.8207 140.723 46.7356H140.507L140.162 45.9644C140.09 45.8056 139.974 45.6922 139.816 45.6241C139.657 45.5561 139.484 45.5221 139.297 45.5221H137.882V47.9831C137.882 48.1495 137.911 48.2667 137.968 48.3347C138.026 48.3952 138.148 48.4255 138.336 48.4255H140.172C140.331 48.4255 140.482 48.4028 140.626 48.3574C140.77 48.312 140.914 48.2289 141.058 48.1079C141.202 47.9869 141.343 47.8168 141.48 47.5975C141.624 47.3783 141.768 47.0947 141.912 46.7469H142.128Z" fill="#EAA82B"/>
<path d="M144.504 48.6409L144.85 48.5729C145.059 48.5502 145.196 48.5086 145.261 48.4481C145.333 48.3801 145.369 48.2251 145.369 47.9831V42.9362C145.369 42.8228 145.365 42.7245 145.358 42.6414C145.351 42.5506 145.325 42.4788 145.282 42.4259C145.246 42.3654 145.189 42.32 145.109 42.2898C145.03 42.252 144.919 42.2255 144.774 42.2104L144.548 42.1877C144.548 42.1272 144.544 42.0705 144.537 42.0176C144.537 41.9571 144.537 41.8966 144.537 41.8361C144.681 41.8361 144.792 41.8361 144.872 41.8361C144.951 41.8361 145.016 41.8361 145.066 41.8361C145.117 41.8286 145.16 41.821 145.196 41.8135C145.239 41.8059 145.297 41.8021 145.369 41.8021L147.011 41.7227C147.083 41.7227 147.152 41.7227 147.216 41.7227C147.288 41.7152 147.357 41.7114 147.422 41.7114C147.803 41.7114 148.164 41.7416 148.502 41.8021C148.841 41.855 149.136 41.9533 149.388 42.097C149.647 42.2331 149.853 42.4183 150.004 42.6527C150.155 42.8871 150.231 43.1782 150.231 43.526C150.231 43.7528 150.199 43.9494 150.134 44.1157C150.076 44.2745 149.99 44.422 149.874 44.5581C149.759 44.6866 149.615 44.8038 149.442 44.9096C149.277 45.0155 149.086 45.1251 148.87 45.2385L150.015 47.28C150.188 47.59 150.335 47.8281 150.458 47.9945C150.58 48.1533 150.699 48.2742 150.814 48.3574C150.937 48.4406 151.063 48.4973 151.193 48.5275C151.329 48.5502 151.492 48.5767 151.679 48.6069V48.9358C151.528 48.9283 151.362 48.9245 151.182 48.9245C151.009 48.9245 150.822 48.9245 150.62 48.9245C150.519 48.9245 150.393 48.9245 150.242 48.9245C150.098 48.9245 149.954 48.9245 149.81 48.9245C149.665 48.9245 149.536 48.9283 149.421 48.9358C149.305 48.9358 149.23 48.9358 149.194 48.9358L147.638 45.8396C147.566 45.7262 147.486 45.6393 147.4 45.5788C147.321 45.5183 147.22 45.488 147.098 45.488H146.763V47.9151C146.763 48.0966 146.795 48.2289 146.86 48.312C146.932 48.3952 147.054 48.4595 147.227 48.5049L147.757 48.6409V48.9698C147.497 48.9547 147.22 48.9434 146.925 48.9358C146.636 48.9283 146.348 48.9245 146.06 48.9245C145.779 48.9245 145.502 48.9283 145.228 48.9358C144.962 48.9434 144.72 48.9547 144.504 48.9698V48.6409ZM146.763 45.0457C147.13 45.0609 147.436 45.0382 147.681 44.9777C147.933 44.9096 148.135 44.8189 148.286 44.7055C148.437 44.5845 148.545 44.4409 148.61 44.2745C148.675 44.1006 148.707 43.9116 148.707 43.7075C148.707 43.2311 148.599 42.8644 148.383 42.6073C148.167 42.3503 147.782 42.2217 147.227 42.2217C147.17 42.2217 147.094 42.2255 147 42.2331C146.907 42.2331 146.827 42.2369 146.763 42.2444V45.0457Z" fill="#EAA82B"/>
<path d="M12.368 21.5188C10.8066 16.2103 5.4721 15.9241 3 16.4445C4.95166 18.0059 5.73232 20.7382 5.73232 26.2028C5.73232 31.6675 4.95166 32.4481 5.73232 39.8644C6.51299 47.2807 12.7583 56.2584 23.6876 51.5744C34.4388 46.9667 30.7136 30.4965 29.5426 26.2028C28.3716 21.9092 27.9812 20.3478 27.5909 14.1025C27.2786 9.10628 29.2823 6.03567 30.3232 5.1249C30.3232 5.1249 26.2139 4.34426 23.2973 6.68625C20.5649 9.41857 20.4113 11.6651 19.7843 16.0542C18.2229 26.9835 25.2489 38.6934 19.3939 39.8644C13.539 41.0354 14.3196 28.1545 12.368 21.5188Z" fill="#EAA82B"/>
<path d="M38.1299 18.7865C40.9403 15.6639 44.2451 15.9241 45.5462 16.4445C43.5945 18.3962 43.2042 21.5189 43.2042 28.9352C43.2042 34.4137 43.5945 36.7418 42.4235 42.9871C41.2525 49.2324 38.5202 51.1841 35.7879 52.3551C33.602 53.2919 29.9329 53.0056 28.3716 52.7454C28.3716 52.7454 32.1743 52.5603 34.2265 45.7194C35.3975 41.8161 35.6236 34.974 35.7879 32.8385C36.1782 27.7642 35.0072 22.2562 38.1299 18.7865Z" fill="#EAA82B"/>
</svg>
