<svg width="32" height="32" viewBox="0 0 32 32" fill="none" xmlns="http://www.w3.org/2000/svg">
    <path d="M25 0H7a7 7 0 0 0-7 7v18a7 7 0 0 0 7 7h18a7 7 0 0 0 7-7V7a7 7 0 0 0-7-7z" fill="#FF4B55"/>
    <path d="m7.126 5.449.795 2.384 2.514.02c.325.002.46.417.198.61L8.611 9.958l.758 2.396a.339.339 0 0 1-.52.377L6.806 11.27 4.76 12.73a.339.339 0 0 1-.52-.377L5 9.957 2.977 8.464a.339.339 0 0 1 .198-.611l2.514-.02.795-2.384a.339.339 0 0 1 .642 0zM16.252 6.036l.57.778.92-.288a.13.13 0 0 1 .145.2l-.563.782.558.787a.13.13 0 0 1-.146.199l-.918-.294-.576.773a.13.13 0 0 1-.234-.077l-.004-.964-.914-.308a.13.13 0 0 1 .001-.246l.916-.302.01-.964a.13.13 0 0 1 .235-.076zM12.781 3.719l.958.104.41-.873a.13.13 0 0 1 .244.028l.197.944.957.12a.13.13 0 0 1 .049.24l-.837.48.182.947a.13.13 0 0 1-.215.12l-.714-.647-.844.466a.13.13 0 0 1-.181-.167l.395-.88-.704-.658a.13.13 0 0 1 .103-.224zM14.296 13.062l-.57.778-.92-.288a.13.13 0 0 0-.144.2l.563.782-.558.787a.13.13 0 0 0 .146.199l.918-.294.575.773a.13.13 0 0 0 .234-.077l.004-.964.914-.308a.13.13 0 0 0 0-.246l-.916-.302-.011-.964a.13.13 0 0 0-.235-.076zM17.768 10.884l-.959.105-.409-.873a.13.13 0 0 0-.245.028l-.197.944-.957.119a.13.13 0 0 0-.048.241l.837.48-.183.946a.13.13 0 0 0 .215.121l.714-.648.844.466a.13.13 0 0 0 .182-.167l-.396-.879.704-.659a.13.13 0 0 0-.102-.224z" fill="#FFE15A"/>
</svg>
