<svg width="32" height="32" viewBox="0 0 32 32" fill="none" xmlns="http://www.w3.org/2000/svg">
    <path d="M25 0H7C4.95 0 3.106.881 1.826 2.286h28.348A6.982 6.982 0 0 0 25 0z" fill="#FF4B55"/>
    <path d="M30.174 2.286H1.826A7 7 0 0 0 .433 4.57h31.134a6.998 6.998 0 0 0-1.393-2.285z" fill="#F5F5F5"/>
    <path d="M31.567 4.571H.433a6.979 6.979 0 0 0-.431 2.286h31.996a6.978 6.978 0 0 0-.431-2.286z" fill="#FF4B55"/>
    <path d="M.002 6.857 0 7v2.143h32V7c0-.048 0-.095-.002-.143H.002z" fill="#F5F5F5"/>
    <path d="M32 9.143H0v2.286h32V9.143z" fill="#FF4B55"/>
    <path d="M32 11.429H0v2.285h32V11.43z" fill="#F5F5F5"/>
    <path d="M32 13.714H0V16h32v-2.286z" fill="#FF4B55"/>
    <path d="M0 16.842h.842v1.444H32V16H0v.842z" fill="#F5F5F5"/>
    <path d="M.842 16.842H0v3.729h32v-2.285H.842v-1.444z" fill="#FF4B55"/>
    <path d="M32 20.571H0v2.286h32v-2.286z" fill="#F5F5F5"/>
    <path d="M0 25c0 .048 0 .095.002.143h31.996L32 25v-2.143H0V25z" fill="#FF4B55"/>
    <path d="M.433 27.428h31.134a6.975 6.975 0 0 0 .431-2.285H.002c.016.802.167 1.571.431 2.285z" fill="#F5F5F5"/>
    <path d="M1.826 29.714h28.348a7 7 0 0 0 1.393-2.285H.433a7 7 0 0 0 1.393 2.285z" fill="#FF4B55"/>
    <path d="M7 32h18c2.05 0 3.894-.881 5.174-2.286H1.826A6.982 6.982 0 0 0 7 32z" fill="#F5F5F5"/>
    <path d="M18.286 0H6.999A7 7 0 0 0 0 7v11.286h18.286V0z" fill="#41479B"/>
    <path d="M3.922 9.134a4.924 4.924 0 0 1 6.845-4.53c.077.032.134-.075.065-.122a5.602 5.602 0 0 0-3.46-.964c-2.822.146-5.13 2.42-5.313 5.24a5.623 5.623 0 0 0 8.766 5.03c.069-.046.011-.154-.066-.12a4.924 4.924 0 0 1-6.838-4.533z" fill="#FFE15A"/>
    <path d="m15.17 9.134 2.081-.805c.103-.04.068-.194-.042-.185l-2.223.178 1.528-1.633c.075-.08-.023-.203-.118-.148l-1.93 1.127.665-2.131c.033-.105-.109-.174-.17-.082l-1.25 1.851-.32-2.21c-.016-.109-.174-.109-.19 0l-.205 1.399-.085.591-.032.22-1.25-1.85c-.062-.09-.204-.023-.17.083l.668 2.129-1.93-1.127c-.096-.055-.194.068-.118.148l1.527 1.633-2.223-.178c-.11-.009-.145.145-.042.185l2.082.805-2.082.805c-.103.04-.068.193.042.184l2.223-.178-1.527 1.637c-.076.08.023.204.118.148l1.93-1.13-.669 2.129c-.033.105.11.173.17.082l1.25-1.85.033.225.085.587.205 1.402c.016.109.173.109.19 0l.32-2.214 1.25 1.852c.061.091.203.023.17-.082l-.666-2.131 1.93 1.13c.096.056.194-.067.119-.148l-1.528-1.637 2.223.178c.11.01.145-.144.042-.184l-2.08-.805z" fill="#FFE15A"/>
</svg>
