<svg width="16" height="16" viewBox="0 0 16 16" fill="none" xmlns="http://www.w3.org/2000/svg">
    <path d="M12.5 0h-9A3.5 3.5 0 0 0 0 3.5v9A3.5 3.5 0 0 0 3.5 16h9a3.5 3.5 0 0 0 3.5-3.5v-9A3.5 3.5 0 0 0 12.5 0z" fill="#F5F5F5"/>
    <path d="M9.532 5.704a2.76 2.76 0 0 0-3.825.766A1.378 1.378 0 1 0 8.001 8a1.378 1.378 0 1 1 2.294 1.53 2.758 2.758 0 0 0-.763-3.826z" fill="#FF4B55"/>
    <path d="M5.707 6.47A1.378 1.378 0 1 0 8.001 8a1.378 1.378 0 1 1 2.294 1.53 2.754 2.754 0 0 1-3.824.765 2.759 2.759 0 0 1-.764-3.825z" fill="#41479B"/>
    <path d="m10.935 4.662.501.753a.138.138 0 0 1-.038.191l-.127.085a.138.138 0 0 1-.191-.038l-.502-.753a.138.138 0 0 1 .038-.19l.128-.086a.138.138 0 0 1 .191.038zM11.708 5.823l.503.753a.138.138 0 0 1-.039.192l-.128.084a.138.138 0 0 1-.19-.038l-.503-.752a.138.138 0 0 1 .038-.192l.128-.085a.138.138 0 0 1 .191.038zM11.472 4.304l1.275 1.915a.138.138 0 0 1-.038.191l-.128.086a.138.138 0 0 1-.191-.039l-1.277-1.914a.138.138 0 0 1 .039-.192l.128-.085a.138.138 0 0 1 .192.038zM12.007 3.947l.502.754a.138.138 0 0 1-.039.192l-.128.084a.138.138 0 0 1-.19-.038l-.503-.754a.138.138 0 0 1 .038-.191l.128-.086a.138.138 0 0 1 .192.039zM12.78 5.11l.502.753a.138.138 0 0 1-.039.192l-.127.085a.138.138 0 0 1-.191-.039l-.502-.753a.138.138 0 0 1 .038-.19l.128-.086a.138.138 0 0 1 .191.038zM4.148 9.187 5.423 11.1a.138.138 0 0 1-.038.19l-.128.086a.138.138 0 0 1-.191-.038L3.79 9.425a.138.138 0 0 1 .038-.191l.128-.085a.138.138 0 0 1 .192.038zM3.612 9.545l.5.75a.138.138 0 0 1-.037.192l-.127.085a.138.138 0 0 1-.192-.038l-.501-.751a.138.138 0 0 1 .038-.191l.127-.086a.138.138 0 0 1 .192.039zM4.386 10.706l.501.753a.138.138 0 0 1-.038.191l-.127.086a.138.138 0 0 1-.192-.039l-.501-.752a.138.138 0 0 1 .038-.192l.127-.085a.138.138 0 0 1 .192.038zM3.076 9.902l1.275 1.913a.138.138 0 0 1-.038.191l-.127.085a.138.138 0 0 1-.192-.038L2.72 10.141a.138.138 0 0 1 .038-.192l.128-.085a.138.138 0 0 1 .191.038zM3.79 6.576l1.276-1.914a.138.138 0 0 1 .191-.038l.128.085c.064.042.08.128.038.191L4.147 6.814a.138.138 0 0 1-.19.038l-.128-.084a.138.138 0 0 1-.038-.192zM3.255 6.219 4.53 4.304a.138.138 0 0 1 .192-.038l.127.085c.064.043.08.128.038.191L3.612 6.457a.138.138 0 0 1-.191.039l-.128-.086a.138.138 0 0 1-.038-.191zM2.718 5.863l1.276-1.916a.138.138 0 0 1 .192-.038l.127.085c.063.042.08.127.038.19L3.076 6.103a.138.138 0 0 1-.191.038l-.128-.085a.138.138 0 0 1-.039-.192zM10.578 11.1l.501-.752a.138.138 0 0 1 .192-.038l.127.085c.063.043.08.128.038.192l-.5.75a.138.138 0 0 1-.192.04l-.128-.086a.138.138 0 0 1-.038-.191zM11.351 9.942l.502-.755a.138.138 0 0 1 .192-.038l.128.085c.063.042.08.128.038.191l-.503.754a.138.138 0 0 1-.191.038l-.127-.084a.138.138 0 0 1-.039-.191zM11.114 11.46l.501-.754a.138.138 0 0 1 .192-.038l.128.086c.063.042.08.127.038.19l-.501.754a.138.138 0 0 1-.192.038l-.128-.085a.138.138 0 0 1-.038-.192zM11.887 10.296l.503-.752a.138.138 0 0 1 .19-.038l.129.086c.063.042.08.128.038.191l-.502.752a.138.138 0 0 1-.191.038l-.128-.086a.138.138 0 0 1-.039-.191zM11.65 11.815l.502-.752a.138.138 0 0 1 .19-.038l.128.084a.138.138 0 0 1 .039.192l-.502.753a.138.138 0 0 1-.191.038l-.129-.085a.138.138 0 0 1-.038-.192zM12.424 10.655l.5-.752a.138.138 0 0 1 .192-.039l.127.085c.064.043.08.128.038.192l-.501.751a.138.138 0 0 1-.191.039l-.127-.084a.138.138 0 0 1-.038-.192z" fill="#464655"/>
</svg>
