<svg width="32" height="32" viewBox="0 0 32 32" fill="none" xmlns="http://www.w3.org/2000/svg">
    <path d="M.269 5.05A7.059 7.059 0 0 0 0 6.99v3.116h32V6.989c0-.67-.094-1.32-.269-1.94H.27zM0 25.01c0 .67.094 1.32.269 1.94h31.456a7.058 7.058 0 0 0 .269-1.94v-3.116H0v3.117z" fill="#F5F5F5"/>
    <path d="M6.512 32h18.976a7.006 7.006 0 0 0 6.237-5.056H.269A7.006 7.006 0 0 0 6.512 32zM25.488 0H6.512A7.006 7.006 0 0 0 .275 5.056h31.456A7.006 7.006 0 0 0 25.487 0z" fill="#FF4B55"/>
    <path d="M32 10.106H0v11.788h32V10.106z" fill="#41479B"/>
</svg>
