<svg width="313" height="65" viewBox="0 0 313 65" fill="none" xmlns="http://www.w3.org/2000/svg">
    <g clip-path="url(#kt4uyqsefa)">
        <path d="M137.174 0h-.902v65h.902V0zM178.695 23.843c-4.655 0-8.434 3.784-8.434 8.423 0 4.648 3.788 8.422 8.434 8.422 4.654 0 8.434-3.783 8.434-8.422 0-4.64-3.78-8.422-8.434-8.422zM225.619 42.066h-13.034V19.385h5.899v17.529h7.135v5.152zM236.48 28.627c-2.625 0-4.312 1.954-4.312 4.35 0 2.523 1.597 4.594 4.131 4.594 2.445 0 4.484-1.801 4.484-4.44 0-2.667-1.886-4.504-4.303-4.504zm-9.887 4.44c0-5.062 3.744-9.539 8.795-9.539 2.21 0 3.599.739 5.223 2.225V23.89h5.43v18.177h-5.52v-1.774s-1.976 2.225-5.43 2.225c-5.043 0-8.498-3.622-8.498-9.45zM262.323 42.066H249.28V19.385h5.899v17.529h7.144v5.152zM270.252 42.066h-5.484V23.89h5.484v18.177zm-6.016-22.798c0-1.838 1.47-3.351 3.301-3.351 1.831 0 3.338 1.45 3.338 3.288a3.378 3.378 0 0 1-3.392 3.378c-1.804 0-3.247-1.45-3.247-3.315zM281.789 28.24c-2.561 0-3.833 2.098-3.833 4.35 0 2.342 1.389 4.26 3.806 4.26 2.742 0 4.213-2.188 4.213-4.233 0-2.423-1.353-4.378-4.186-4.378zm-9.173 4.386c0-4.918 3.13-9.089 7.91-9.089 2.301 0 3.861.739 5.422 2.396V23.89h5.259v16.015c0 5.621-4.222 8.558-9.3 8.558-4.456 0-8.353-2.252-8.94-6.342h6.161c.767 1.243 1.534 1.477 2.896 1.477 1.912 0 3.689-.882 3.689-2.864 0-.477.027-.892-.027-1.36-1.064.946-3.04 2.099-5.196 2.099-4.69.009-7.874-3.9-7.874-8.846zM303.447 28.627c-2.625 0-4.302 1.954-4.302 4.35 0 2.523 1.587 4.594 4.131 4.594 2.454 0 4.483-1.801 4.483-4.44-.009-2.667-1.894-4.504-4.312-4.504zm-9.886 4.44c0-5.062 3.744-9.539 8.795-9.539 2.219 0 3.599.739 5.223 2.225V23.89h5.43v18.177h-5.52v-1.774s-1.976 2.225-5.431 2.225c-5.042 0-8.497-3.622-8.497-9.45z" fill="#fff"/>
        <path d="M161.105 17.601a.278.278 0 0 0 .018.288.21.21 0 0 0 .108.09l8.822 5.117.018.009c.09.054.208.045.298-.018a.274.274 0 0 0 .072-.072 11.533 11.533 0 0 1 8.091-5.738c.009 0 .028 0 .037-.01a.283.283 0 0 0 .216-.324v-.017l-1.885-9.99v-.018a.301.301 0 0 0-.316-.234h-.027a22.477 22.477 0 0 0-8.957 3.756 22.385 22.385 0 0 0-6.495 7.161z" fill="#893A96"/>
        <path d="M156.063 36.95c.045.09.135.162.234.171a.327.327 0 0 0 .135-.027l9.517-3.666.018-.01a.264.264 0 0 0 .171-.242c0-.037 0-.073-.009-.1-.009-.017-.009-.027-.018-.045a11.487 11.487 0 0 1-.803-4.98 11.47 11.47 0 0 1 1.408-4.865c.009-.01.009-.018.018-.027a.24.24 0 0 0 .027-.108.288.288 0 0 0-.145-.27l-.018-.01-8.984-4.819-.018-.009a.277.277 0 0 0-.117-.027.301.301 0 0 0-.253.136c-.009.009-.009.018-.009.018a22.344 22.344 0 0 0-2.679 9.323 22.514 22.514 0 0 0 1.525 9.557z" fill="#0065B1"/>
        <path d="M168.159 52.84c.099.027.207 0 .28-.082.036-.036.054-.08.072-.126l3.031-9.719.009-.018c.027-.1 0-.216-.082-.288a.187.187 0 0 0-.09-.054c-.018-.01-.027-.01-.045-.01a11.45 11.45 0 0 1-4.411-2.468 11.466 11.466 0 0 1-2.94-4.125c0-.009-.01-.018-.01-.036a.323.323 0 0 0-.063-.09.298.298 0 0 0-.297-.054l-.018.009-9.364 4.044-.018.01a.4.4 0 0 0-.099.071.27.27 0 0 0-.054.28c0 .009.009.018.009.027a22.4 22.4 0 0 0 5.656 7.881 22.102 22.102 0 0 0 8.434 4.748z" fill="#0A9BD7"/>
        <path d="M188.049 53.317a.306.306 0 0 0 .117-.27.315.315 0 0 0-.054-.126l-5.683-8.459-.018-.018a.3.3 0 0 0-.279-.117.43.43 0 0 0-.1.036.124.124 0 0 0-.036.027 11.467 11.467 0 0 1-4.69 1.883 11.48 11.48 0 0 1-5.061-.297c-.009 0-.018-.01-.036-.01a.22.22 0 0 0-.108 0 .285.285 0 0 0-.226.199l-.009.018L169.151 56v.018a.298.298 0 0 0 .19.343c.009 0 .018.008.027.008a22.39 22.39 0 0 0 18.681-3.054z" fill="#0FB05F"/>
        <path d="M200.993 38.148a.28.28 0 0 0-.279-.288l-10.166-.793h-.018a.269.269 0 0 0-.262.144c-.018.027-.027.063-.036.1v.044a11.454 11.454 0 0 1-1.425 4.837 11.411 11.411 0 0 1-3.374 3.784c-.009.009-.018.009-.027.018a.583.583 0 0 0-.072.08.273.273 0 0 0 .018.298l.009.018 6.026 8.215.009.018a.22.22 0 0 0 .099.081c.09.045.198.036.288-.009.01 0 .01-.009.019-.009a22.512 22.512 0 0 0 6.44-7.26c1.633-2.964 2.535-6.116 2.751-9.278z" fill="#FDDC2D"/>
        <path d="M197.151 18.556a.305.305 0 0 0-.289-.054.344.344 0 0 0-.117.081l-7.018 7.395-.018.018a.295.295 0 0 0-.054.298c.018.036.036.063.054.09.009.009.018.027.036.036a11.532 11.532 0 0 1 3.689 9.152v.036c0 .036.009.072.018.108a.295.295 0 0 0 .244.18h.018l10.184.495h.018a.316.316 0 0 0 .126-.027.289.289 0 0 0 .172-.234v-.027a22.336 22.336 0 0 0-1.597-9.566 22.034 22.034 0 0 0-5.466-7.981z" fill="#F68D32"/>
        <path d="M179.317 9.45a.27.27 0 0 0-.216.197.263.263 0 0 0-.009.144l1.488 10.08v.018c.018.1.09.19.199.225.036.01.072.01.099.01.018 0 .036 0 .045-.01a11.593 11.593 0 0 1 5.042.307 11.459 11.459 0 0 1 4.438 2.44l.027.028c.027.018.064.036.1.054.108.036.216 0 .288-.081l.009-.018 6.675-7.702.009-.018a.291.291 0 0 0 .055-.108.31.31 0 0 0-.073-.28l-.018-.017a22.404 22.404 0 0 0-8.524-4.648 21.935 21.935 0 0 0-9.634-.622z" fill="#EE3435"/>
        <path d="M184.82 37.022c.126-.342.171-.739.207-1.054a5.505 5.505 0 0 1-.55.46 4.727 4.727 0 0 1-1.813.82l-1.633-1.775-.018.018 1.182 2.09a4.769 4.769 0 0 1-1.353 1.486c-.199.144-.397.27-.605.378.307.054.695.135 1.065.126a7.863 7.863 0 0 1-2.616.45c-.92 0-1.795-.162-2.616-.45.361.018.758-.072 1.064-.126a4.793 4.793 0 0 1-.604-.378 4.769 4.769 0 0 1-1.353-1.487l1.182-2.09-.018-.017-1.633 1.774c-.605-.126-1.227-.405-1.813-.82a5.519 5.519 0 0 1-.551-.459c.046.315.082.712.208 1.054a7.741 7.741 0 0 1-1.633-4.756c0-.081 0-.171.009-.252.09.36.307.72.46 1.008.036-.225.1-.459.172-.693a4.838 4.838 0 0 1 1.001-1.757l2.336.469.009-.027-2.183-1a4.7 4.7 0 0 1 .226-1.964c.072-.234.162-.45.27-.657-.297.144-.694.315-.992.567a7.762 7.762 0 0 1 4.357-3.162c-.334.199-.631.532-.866.775.235-.036.469-.045.713-.045.721 0 1.398.153 1.966.405l.271 2.36h.027l.27-2.36a4.84 4.84 0 0 1 1.958-.405c.243 0 .487.018.713.045-.235-.243-.524-.576-.866-.775a7.733 7.733 0 0 1 4.347 3.153c-.288-.252-.685-.423-.983-.567.099.207.19.432.271.657.216.685.288 1.36.225 1.973l-2.174.99.009.028 2.337-.469c.424.46.775 1.054 1.001 1.748.072.234.135.46.171.693.154-.279.361-.64.451-1 0 .082.009.163.009.244a7.559 7.559 0 0 1-1.614 4.774zm-6.125-13.178c-4.655 0-8.434 3.783-8.434 8.422 0 4.648 3.788 8.422 8.434 8.422 4.654 0 8.434-3.783 8.434-8.422 0-4.64-3.78-8.422-8.434-8.422z" fill="#000"/>
        <path d="m175.285 31.167 1.308 4h4.213l1.299-4-3.41-2.477-3.41 2.477z" fill="#000"/>
        <path d="M75.447 16.556c4.113-.612 5.015-2.738 5.015-6.395V6.323c0-4.044-3.238-6.07-9.733-6.07-6.494 0-9.733 2.035-9.733 6.07v4.531c0 3.18.704 4.847 4.456 5.486-3.752.829-4.456 3.162-4.456 6.567v4.972c0 4.09 3.239 6.125 9.733 6.125 6.495 0 9.733-2.035 9.733-6.125v-4.918c0-3.756-.902-5.891-5.015-6.405zm-4.772-2.126c-1.434 0-2.138-.684-2.138-2.035V5.927c0-1.324.704-1.955 2.138-1.955 1.461 0 2.192.658 2.192 1.955v6.468c0 1.35-.73 2.035-2.192 2.035zm0 15.647c-1.434 0-2.138-.685-2.138-2.036v-7.323c0-1.396.704-2.08 2.138-2.08 1.461 0 2.192.684 2.192 2.08v7.323c0 1.351-.73 2.036-2.192 2.036zM97.772 16.556c4.114-.612 5.016-2.738 5.016-6.395V6.323c0-4.044-3.239-6.07-9.742-6.07-6.504 0-9.742 2.035-9.742 6.07v4.531c0 3.18.703 4.847 4.456 5.486-3.753.829-4.456 3.162-4.456 6.567v4.972c0 4.09 3.238 6.125 9.742 6.125 6.503 0 9.742-2.035 9.742-6.125v-4.918c0-3.756-.902-5.891-5.016-6.405zm-4.771-2.126c-1.435 0-2.147-.684-2.147-2.035V5.927c0-1.324.703-1.955 2.147-1.955 1.461 0 2.192.658 2.192 1.955v6.468c.018 1.35-.704 2.035-2.192 2.035zm0 15.647c-1.435 0-2.147-.685-2.147-2.036v-7.323c0-1.396.703-2.08 2.147-2.08 1.461 0 2.192.684 2.192 2.08v7.323c.018 1.351-.704 2.036-2.192 2.036zM34.503 49.011v-.63c-1.398-.144-1.488-.27-1.524-1.919l-.163-6.72c-.036-1.486.036-1.63 1.47-1.774v-.63h-3.599L27.18 45.2l-3.455-7.864h-3.708v.63c1.543.145 1.67.397 1.525 2.442l-.289 3.54c-.126 1.883-.27 2.82-.379 3.396-.108.63-.45.955-1.452 1.045v.63h4.303v-.63c-1.182-.108-1.543-.27-1.615-1.081-.072-.559-.072-1.396 0-2.892l.217-4.684h.072l3.653 9.161h.505l3.96-9.34h.09l.036 6.917c.018 1.649-.09 1.775-1.434 1.919v.63h5.295v-.009zM47.312 49.011v-.63c-1.127-.144-1.362-.379-1.966-1.955-1.164-3.09-2.273-6.215-3.419-9.359l-.911.234-3.671 9.233c-.596 1.504-.803 1.703-1.985 1.847l-.018.63h4.014v-.63c-1.308-.162-1.344-.415-1.091-1.28.216-.72.45-1.369.65-1.918h3.436c.27.739.541 1.486.712 2.027.29.792.199 1.009-.856 1.17v.631h5.105zm-5.322-4.774h-2.796c.469-1.279.91-2.567 1.416-3.882h.054l1.326 3.882zM60.626 37.337h-4.375v.63c1.308.073 1.687.38 1.778 1.154.035.522.144 1.369.144 2.945v3.162H58.1l-6.847-7.882h-3.31v.63c.748.073 1.163.217 1.488.65.343.414.379.756.379 1.918V44.3c0 1.577-.108 2.37-.18 2.964-.073.774-.488 1.063-1.489 1.135v.63h4.393v-.63c-1.326-.054-1.633-.397-1.723-1.19-.054-.54-.144-1.333-.144-2.909v-4.044h.054l7.45 8.944h.858v-7.134c0-1.576.108-2.423.162-2.981.09-.829.47-1.063 1.434-1.117v-.63zM68.835 40.12c-.144-1.116-.27-1.9-.343-2.567-.325-.126-1.344-.486-2.49-.486-2.543 0-4.104 1.54-4.104 3.522 0 1.72 1.272 2.693 3.121 3.63 1.344.72 2.13 1.387 2.13 2.441 0 1.135-.695 1.883-1.796 1.883-1.723 0-2.778-2.009-3.139-3.162l-.631.198c.126 1.1.36 2.603.523 3.054.252.108.595.252 1.091.396a6.39 6.39 0 0 0 1.813.252c2.616 0 4.357-1.594 4.357-3.648 0-1.774-1.29-2.783-3.175-3.702-1.579-.792-2.22-1.369-2.22-2.35 0-1.028.732-1.775 1.742-1.775 1.47 0 2.129 1.333 2.508 2.459l.613-.144zM75.79 49.011v-.63c-1.326-.126-1.489-.252-1.489-1.757v-6.882c0-1.522.163-1.648 1.489-1.774v-.63h-5.376v.63c1.326.126 1.488.252 1.488 1.774v6.882c0 1.505-.162 1.63-1.488 1.757v.63h5.376zM83.376 37.076c-4.104 0-6.287 3.036-6.287 6.125 0 3.45 2.49 6.09 6.07 6.09 3.365 0 6.143-2.351 6.143-6.234 0-3.558-2.67-5.981-5.926-5.981zm-.325.748c2.057 0 3.51 2.153 3.51 5.729 0 3.305-1.381 4.972-3.086 4.972-2.291 0-3.653-2.603-3.653-5.675 0-3.099 1.416-5.026 3.23-5.026zM102.797 37.337h-4.375v.63c1.308.073 1.687.38 1.777 1.154.036.522.144 1.369.144 2.945v3.162h-.072l-6.846-7.882h-3.31v.63c.748.073 1.163.217 1.488.65.342.414.378.756.378 1.918V44.3c0 1.577-.108 2.37-.18 2.964-.072.774-.487 1.063-1.488 1.135v.63h4.392v-.63c-1.326-.054-1.632-.397-1.722-1.19-.055-.54-.145-1.333-.145-2.909v-4.044h.054l7.451 8.944h.857v-7.134c0-1.576.109-2.423.163-2.981.09-.829.469-1.063 1.434-1.117v-.63z" fill="#fff"/>
        <path d="M19.944.739c0-.27.217-.487.487-.487H57.66c.27 0 .487.216.487.487v33.013c0 .27-.217.486-.487.486H20.43a.485.485 0 0 1-.487-.486V.74z" fill="#D4B372"/>
        <path d="M21.83 2.621c0-.27.216-.486.487-.486h33.456c.271 0 .487.216.487.486v29.23c0 .27-.216.487-.487.487H22.317a.485.485 0 0 1-.488-.486V2.622z" fill="url(#nkkbzg5yrb)"/>
        <path fill-rule="evenodd" clip-rule="evenodd" d="M34.702 17.106v10.701c0 .234-.063.378-.271.378-.207 0-.298-.144-.298-.378v-1.414h-.532c-.379 0-1.614.946-2.39 1.54-.253.19-.451.351-.569.433-.857-.496-1.93-1-2.724-1.27-.144.134-.27.252-.397.36a9.408 9.408 0 0 0-.577.55c-.054.053-.09.098-.135.134-.117.126-.18.19-.253.19-.144 0-.325-.172-.325-.325 0-.144.325-.495 1.84-2.036 1.038-1.063 1.453-2.324 1.453-4.27 0-3.215-1.39-5.953-2.986-5.953-.532 0-.803.207-.884.738-.027.27-.144.351-.27.351-.235 0-.352-.387-.352-1.035 0-1.478 1.037-2.649 2.309-2.649.595 0 .992.262 1.344.487.298.189.55.351.848.315V11.8c0-.558-.207-1.036-.623-1.387-.351-.297-2.191-1.531-2.877-1.531a.996.996 0 0 0-.316.054c-.063.018-.126.036-.19.036-.09 0-.116-.027-.116-.09 0-.081.045-.135.18-.289.018-.018.036-.045.054-.063l2.336-2.297c.018-.018.045-.027.064-.045.08-.063.135-.099.234-.099.47 0 1.786.883 2.85 1.613.74.504 1.372.927 1.525.927.28 0 1.128-.522 2.039-1.09 1.073-.666 2.246-1.396 2.706-1.396.216 0 .45.18 1.966 1.406l.01.009c.099.08.198.162.306.243.072.054.162.135.27.225.316.261.75.63 1.155.874.478.297.505.351.505.91.298-.064.623-.298 2.49-1.802.532-.441 2.102-1.712 2.219-1.712.144 0 1.452.532 3.383 1.325.568.234.65.297.65.648V23.51c0 .496.062.676.27.856.884.766 1.425 1.063 1.723 1.063.09 0 .207-.036.297-.117.145-.207.18-.234.27-.234.091 0 .181.117.181.234 0 .18-1.326 1.828-2.697 2.891-.83-.297-2.246-1.27-3.049-2.09-.27-.297-.324-.35-.324-.855V14.34c0-1.27.405-2.126 1.894-4.098.776-1 .83-1.297.676-1.297-.072 0-.74.46-1.344.873-.415.28-.794.55-.938.631l-.19-.108c-1.452-.829-1.92-1.099-2.75-1.099-.47 0-.803.234-.803.531v18.133c0 .234-.117.414-.298.414-.144 0-.235-.144-.235-.378v-1.36c-.83.135-1.569.81-2.056 1.261-.262.243-.451.414-.55.414-.325 0-2.246-2.297-2.246-2.477v-8.674h-3.482zm-.542-7.513c0-.594-.063-.792-.171-.792-.262 0-1.218.594-1.218.792v8.161c0 3.964-.45 4.432-1.48 5.513-.017.018-.035.045-.062.063-.478.496-.596.622-.947 1.036.622.856 2.697 1.243 3.878 1.18V9.593zm4.006 4.72h-3.464V9.36c0-.387.171-.594.505-.594.74 0 2.959 1.675 2.959 2.296v3.252zm4.862-4.197c0-.063-.028-.09-.118-.09s-.234.063-.324.117l-.677.414c-.379.234-.505.351-.505.532v2.945c0 .207.27.351.478.351h1.154v-4.27h-.008zM41.9 17.052h1.119V25.6c-1.092-.09-1.597-.649-1.597-1.829v-6.044c0-.441.153-.675.478-.675z" fill="#fff"/>
        <path d="M2.751 59.496c1.56 0 2.751 1.153 2.751 2.64 0 1.486-1.19 2.63-2.75 2.63C1.19 64.766 0 63.622 0 62.136c0-1.487 1.19-2.64 2.751-2.64zm0 4.225c.866 0 1.534-.685 1.534-1.585 0-.901-.668-1.586-1.534-1.586s-1.533.685-1.533 1.586c0 .9.667 1.585 1.533 1.585zM7.027 59.586h3.175v1.036H8.236v1.09h1.795v1.036H8.236v1.937H7.027v-5.099zM11.7 59.586h3.175v1.036h-1.967v1.09h1.795v1.036h-1.795v1.937H11.7v-5.099zM17.59 59.586v5.099H16.38v-5.099h1.209zM19.132 62.136c0-1.487 1.191-2.64 2.752-2.64.694 0 1.299.225 1.786.604l-.614.892c-.325-.253-.703-.45-1.172-.45-.866 0-1.534.684-1.534 1.584 0 .901.668 1.586 1.534 1.586.46 0 .902-.216 1.217-.495l.64.882c-.495.424-1.136.658-1.848.658-1.561.009-2.76-1.135-2.76-2.621zM26.439 59.586v5.099H25.23v-5.099h1.209zM30.904 59.586l1.768 5.099h-1.263l-.334-1.063h-1.668l-.334 1.063H27.81l1.768-5.099h1.326zm-.659 1.27-.568 1.82h1.128l-.56-1.82zM34.025 59.586h1.209v4.054h1.957v1.045h-3.166v-5.099zM43.37 59.586c1.065 0 1.804.667 1.804 1.658 0 .72-.379 1.26-1.01 1.495l1.146 1.937h-1.308l-1.01-1.775h-.307v1.775h-1.191v-5.099h1.876v.01zm-.685.964V62h.568c.46 0 .73-.306.73-.72 0-.433-.27-.72-.73-.72h-.568v-.01zM46.726 59.586h3.247v1.018h-2.038v1.01h1.867v.999h-1.867v1.045h2.101v1.018h-3.31v-5.09zM52.59 62.154c0 .9.667 1.603 1.533 1.603.225 0 .478-.063.658-.171v-.856H53.78v-.928h2.21v2.28a2.85 2.85 0 0 1-1.877.684c-1.56 0-2.75-1.153-2.75-2.63 0-1.487 1.19-2.64 2.75-2.64.695 0 1.3.225 1.787.604l-.614.892c-.325-.253-.703-.45-1.172-.45-.857.008-1.525.693-1.525 1.612zM58.922 59.586v5.099h-1.21v-5.099h1.21zM63.224 59.496c1.56 0 2.751 1.153 2.751 2.64 0 1.486-1.19 2.63-2.75 2.63-1.561 0-2.752-1.153-2.752-2.63-.01-1.487 1.19-2.64 2.751-2.64zm0 4.225c.866 0 1.534-.685 1.534-1.585 0-.901-.668-1.586-1.534-1.586s-1.533.685-1.533 1.586c-.01.9.658 1.585 1.533 1.585zM67.5 59.586h1.272l1.723 3.243v-3.243h1.118v5.099h-1.272l-1.723-3.243v3.243H67.5v-5.099zM76.051 59.586l1.768 5.099h-1.263l-.333-1.063h-1.687l-.334 1.063H72.94l1.768-5.099h1.344zm-.658 1.27-.569 1.82h1.128l-.56-1.82zM79.172 59.586h1.21v4.054h1.956v1.045h-3.166v-5.099zM87.84 62.982v1.703h-1.208v-5.099h1.885c1.074 0 1.805.703 1.805 1.694 0 .99-.731 1.693-1.805 1.693h-.676v.01zm.551-2.432h-.55v1.469h.55c.46 0 .74-.298.74-.74 0-.44-.28-.729-.74-.729zM94.435 59.586l1.768 5.099H94.94l-.334-1.063H92.92l-.334 1.063h-1.263l1.768-5.099h1.344zm-.668 1.27-.568 1.82h1.128l-.56-1.82zM99.441 59.586c1.065 0 1.804.667 1.804 1.658 0 .72-.379 1.26-1.01 1.495l1.146 1.937h-1.308l-1.01-1.775h-.298v1.775h-1.191v-5.099h1.867v.01zm-.694.964V62h.568c.46 0 .731-.306.731-.72 0-.433-.271-.72-.731-.72h-.568v-.01zM103.69 60.631h-1.254v-1.045h3.707v1.045h-1.253v4.054h-1.209V60.63h.009zM107.578 59.586h1.272l1.722 3.243v-3.243h1.119v5.099h-1.272l-1.723-3.243v3.243h-1.118v-5.099zM113.477 59.586h3.247v1.018h-2.038v1.01h1.867v.999h-1.867v1.045h2.111v1.018h-3.32v-5.09zM120.278 59.586c1.065 0 1.805.667 1.805 1.658 0 .72-.379 1.26-1.011 1.495l1.146 1.937h-1.308L119.9 62.9h-.307v1.775h-1.191v-5.099h1.876v.01zm-.694.964V62h.568c.46 0 .731-.306.731-.72 0-.433-.271-.72-.731-.72h-.568v-.01z" fill="#fff"/>
    </g>
    <defs>
        <radialGradient id="nkkbzg5yrb" cx="0" cy="0" r="1" gradientUnits="userSpaceOnUse" gradientTransform="matrix(61.0729 0 0 53.5842 39.838 3.667)">
            <stop stop-color="#BF2026"/>
            <stop offset=".505" stop-color="#BE2126"/>
            <stop offset="1" stop-color="#C62127"/>
        </radialGradient>
        <clipPath id="kt4uyqsefa">
            <path fill="#fff" d="M0 0h313v65H0z"/>
        </clipPath>
    </defs>
</svg>
