<svg xmlns="http://www.w3.org/2000/svg" width="227" height="73" fill="none" viewBox="0 0 227 73">
    <g clip-path="url(#clip0)">
        <path fill="#fff" d="M35.1 48.94c6.572 0 11.9-5.329 11.9-11.9 0-6.573-5.328-11.9-11.9-11.9s-11.9 5.327-11.9 11.9c0 6.571 5.328 11.9 11.9 11.9zM102.1 51.04H83.5v-32.4h8.4v25.1h10.2v7.3zM117.6 31.84c-3.7 0-6.1 2.8-6.1 6.2 0 3.6 2.3 6.6 5.9 6.6 3.5 0 6.4-2.6 6.4-6.3-.1-3.8-2.8-6.5-6.2-6.5zm-14.1 6.4c0-7.2 5.3-13.6 12.5-13.6 3.2 0 5.1 1.1 7.4 3.2v-2.7h7.7v26h-7.9v-2.5s-2.8 3.2-7.7 3.2c-7.1-.1-12-5.3-12-13.6zM154.4 51.04h-18.6v-32.4h8.4v25.1h10.2v7.3zM165.8 51.04H158v-26h7.8v26zm-8.6-32.5c0-2.6 2.1-4.8 4.7-4.8s4.8 2.1 4.8 4.7c0 2.7-2.1 4.8-4.8 4.8-2.7 0-4.7-2.1-4.7-4.7zM182.2 31.34c-3.7 0-5.5 3-5.5 6.2 0 3.3 2 6.1 5.4 6.1 3.9 0 6-3.1 6-6 .1-3.5-1.9-6.3-5.9-6.3zm-13.1 6.2c0-7 4.5-13 11.3-13 3.3 0 5.5 1.1 7.7 3.4v-2.9h7.5v22.9c0 8-6 12.2-13.3 12.2-6.4 0-11.9-3.2-12.7-9.1h8.8c1.1 1.8 2.2 2.1 4.1 2.1 2.7 0 5.3-1.3 5.3-4.1v-1.9c-1.5 1.4-4.3 3-7.4 3-6.7.1-11.3-5.5-11.3-12.6zM213.1 31.84c-3.7 0-6.1 2.8-6.1 6.2 0 3.6 2.3 6.6 5.9 6.6 3.5 0 6.4-2.6 6.4-6.3-.1-3.8-2.7-6.5-6.2-6.5zm-14.1 6.4c0-7.2 5.3-13.6 12.5-13.6 3.2 0 5.1 1.1 7.5 3.2v-2.7h7.7v26h-7.9v-2.5s-2.8 3.2-7.7 3.2c-7.2-.1-12.1-5.3-12.1-13.6z"/>
        <path fill="#893A96" d="M10 16.14c-.1.1-.1.3 0 .4 0 .1.1.1.2.1l12.6 7.3c.1.1.3.1.4 0l.1-.1v-.1c1.2-2.1 2.8-3.9 4.8-5.3 2.1-1.5 4.3-2.4 6.7-2.8 0 0 .1 0 .1-.1.1-.1.2-.3.2-.4L32.6.84c0-.1 0-.1-.1-.2s-.2-.2-.4-.2c-4.4.8-8.8 2.6-12.8 5.4-3.9 2.8-7 6.4-9.3 10.3z"/>
        <path fill="#0065B1" d="M2.8 43.74c.1.1.2.2.3.2h.2l13.6-5.2c.1-.1.2-.2.2-.4v-.1-.1c-.9-2.2-1.3-4.6-1.1-7.1.2-2.5.9-4.9 2-6.9v-.2c0-.2-.1-.3-.2-.4l-12.7-6.9h-.2c-.2 0-.3.1-.4.2-2.2 4-3.5 8.5-3.8 13.3-.3 4.8.5 9.4 2.1 13.6z"/>
        <path fill="#0B9BD7" d="M20.1 66.44c.1 0 .3 0 .4-.1 0-.1.1-.1.1-.2l4.3-13.9c0-.1 0-.3-.1-.4l-.1-.1h-.1c-2.3-.7-4.4-1.8-6.3-3.5-1.9-1.7-3.3-3.7-4.2-5.9l-.1-.1c-.1-.1-.3-.1-.4-.1L.2 47.84c-.1 0-.1.1-.1.1-.1.1-.1.3-.1.4 1.8 4.2 4.5 8 8.1 11.3 3.6 3.3 7.7 5.5 12 6.8z"/>
        <path fill="#0FB15F" d="M48.5 67.14c.1-.1.2-.2.2-.4 0-.1 0-.1-.1-.2l-8.1-12.1c-.1-.1-.2-.2-.4-.2H40h-.1c-1.9 1.3-4.2 2.3-6.7 2.7-2.5.4-4.9.2-7.2-.4h-.2c-.2 0-.3.1-.3.3l-3.9 14v.2c0 .1.1.3.3.3 4.3 1.2 9.1 1.6 13.8.8 4.7-.7 9-2.4 12.8-5z"/>
        <path fill="#FDDC2D" d="M66.9 45.44c0-.1-.1-.3-.2-.4-.1 0-.1-.1-.2-.1L52 43.84c-.2 0-.3.1-.4.2v.2c-.2 2.4-.8 4.7-2 6.9s-2.9 4-4.8 5.4l-.1.1c-.1.1-.1.3 0 .4l8.6 11.7.1.1c.1.1.3.1.4 0 3.7-2.7 6.8-6.2 9.2-10.4 2.4-3.9 3.6-8.5 3.9-13z"/>
        <path fill="#F68D32" d="M61.5 17.44c-.1-.1-.3-.1-.4-.1-.1 0-.1.1-.2.1l-10 10.6c-.1.1-.1.3-.1.4 0 0 0 .1.1.1 1.7 1.6 3.2 3.6 4.1 5.9.9 2.3 1.3 4.8 1.2 7.1v.2c.1.2.2.2.3.3l14.5.7h.2c.1-.1.2-.2.2-.3.2-4.5-.5-9.2-2.3-13.7-1.6-4.3-4.3-8.2-7.6-11.3z"/>
        <path fill="#EE3435" d="M36 4.44c-.1 0-.3.1-.3.3v.2l2.1 14.4c0 .1.1.3.3.3h.2c2.3-.4 4.8-.3 7.2.4 2.4.7 4.6 1.9 6.3 3.5l.1.1c.2 0 .3 0 .4-.1l9.5-11s.1-.1.1-.2 0-.3-.1-.4c-3.4-3-7.5-5.3-12.2-6.6-4.4-1.3-9.1-1.6-13.6-.9z"/>
        <path fill="#000" d="M43.9 43.84c.2-.5.2-1.1.3-1.5-.2.2-.5.4-.8.7-.8.6-1.7 1-2.6 1.2l-2.3-2.5 1.7 3c-.4.8-1.1 1.5-1.9 2.1-.3.2-.6.4-.9.5.4.1 1 .2 1.5.2-1.2.4-2.4.6-3.7.6-1.3 0-2.6-.2-3.7-.6.5 0 1.1-.1 1.5-.2-.3-.2-.6-.3-.9-.5-.8-.6-1.5-1.3-1.9-2.1l1.7-3-2.3 2.5c-.9-.2-1.8-.6-2.6-1.2-.3-.2-.5-.4-.8-.7.1.4.1 1 .3 1.5-1.5-1.9-2.3-4.2-2.3-6.8v-.4c.1.5.4 1 .7 1.4.1-.3.1-.7.2-1 .3-1 .8-1.8 1.4-2.5l3.3.7-3.1-1.4c-.1-.9 0-1.8.3-2.8.1-.3.2-.6.4-.9-.4.2-1 .5-1.4.8 1.5-2.2 3.6-3.8 6.2-4.5-.5.3-.9.8-1.2 1.1.3 0 .7-.1 1-.1 1 0 2 .2 2.8.6l.4 3.4.4-3.4c.8-.4 1.8-.6 2.8-.6.3 0 .7 0 1 .1-.3-.3-.8-.8-1.2-1.1 2.6.7 4.8 2.3 6.2 4.5-.4-.4-1-.6-1.4-.8.1.3.3.6.4.9.3 1 .4 1.9.3 2.8l-3.1 1.4 3.3-.7c.6.7 1.1 1.5 1.4 2.5.1.3.2.7.2 1 .2-.4.5-.9.6-1.4v.4c.1 2.6-.8 5-2.2 6.8zm-8.8-18.8c-6.6 0-12 5.4-12 12s5.4 12 12 12 12-5.4 12-12c.1-6.6-5.3-12-12-12z"/>
        <path fill="#000" d="M30.3 35.54l1.8 5.7h6l1.9-5.7-4.9-3.6-4.8 3.6z"/>
    </g>
    <defs>
        <clipPath id="clip0">
            <path fill="#fff" d="M0 0H226.7V72.116H0z" transform="translate(0 .44)"/>
        </clipPath>
    </defs>
</svg>
