<svg width="127" height="65" viewBox="0 0 127 65" fill="none" xmlns="http://www.w3.org/2000/svg">
    <path d="M2.42.682C2.42.305 2.723 0 3.1 0h52.023c.376 0 .68.305.68.682v46.299a.681.681 0 0 1-.68.682H3.1a.681.681 0 0 1-.68-.682V.682z" fill="#D3B271"/>
    <path d="M5.055 3.33c0-.377.305-.682.68-.682h46.752c.375 0 .68.305.68.682v41.003a.681.681 0 0 1-.68.682H5.734a.681.681 0 0 1-.68-.682V3.33z" fill="url(#h8xwl5bw8a)"/>
    <path fill-rule="evenodd" clip-rule="evenodd" d="M23.044 23.647V38.66c0 .327-.085.533-.375.533-.291 0-.413-.206-.413-.533v-1.982h-.742c-.533 0-2.25 1.324-3.342 2.166-.35.27-.636.49-.798.601-1.201-.7-2.694-1.402-3.81-1.776-.2.187-.384.356-.55.51a23.74 23.74 0 0 0-.997.961c-.166.172-.258.268-.35.268-.207 0-.46-.243-.46-.458 0-.206.46-.701 2.572-2.86 1.446-1.487 2.028-3.263 2.028-5.993 0-4.506-1.944-8.357-4.178-8.357-.741 0-1.117.29-1.239 1.038-.037.374-.206.495-.375.495-.329 0-.498-.542-.498-1.449 0-2.066 1.446-3.72 3.23-3.72.828 0 1.39.364 1.875.68.41.266.767.497 1.185.442v-3.02c0-.785-.291-1.449-.873-1.944-.498-.412-3.06-2.15-4.018-2.15-.183 0-.317.037-.435.07a.98.98 0 0 1-.269.051c-.122 0-.169-.037-.169-.121 0-.108.067-.187.252-.405l.076-.09 3.267-3.226.082-.06c.117-.089.192-.146.331-.146.66 0 2.491 1.244 3.989 2.262 1.036.704 1.913 1.3 2.132 1.3.396 0 1.57-.732 2.842-1.524 1.5-.935 3.134-1.953 3.785-1.953.308 0 .625.255 2.747 1.967l.435.35c.102.082.23.189.376.311.442.37 1.05.879 1.614 1.223.667.411.704.495.704 1.28.413-.083.873-.41 3.473-2.523.742-.617 2.938-2.403 3.107-2.403.207 0 2.028.748 4.722 1.86.789.328.91.412.91.907v21.389c0 .7.085.953.376 1.196 1.239 1.075 1.99 1.487 2.403 1.487a.607.607 0 0 0 .413-.169c.207-.29.254-.327.376-.327s.253.168.253.327c0 .253-1.859 2.562-3.764 4.057-1.155-.411-3.145-1.776-4.262-2.935-.375-.411-.45-.495-.45-1.197V19.759c0-1.776.572-2.982 2.647-5.749 1.08-1.402 1.154-1.823.948-1.823-.1 0-1.038.647-1.884 1.232-.574.396-1.107.764-1.308.881l-.262-.15c-2.026-1.163-2.687-1.542-3.84-1.542-.657 0-1.117.327-1.117.748V38.79c0 .327-.169.58-.413.58-.206 0-.329-.206-.329-.533V36.93c-1.165.19-2.187 1.138-2.87 1.772-.362.336-.629.583-.772.583-.45 0-3.144-3.225-3.144-3.477V23.647h-4.844zm-.75-10.545c0-.832-.085-1.112-.245-1.112-.366 0-1.699.832-1.699 1.112v11.452c0 5.556-.632 6.22-2.065 7.725l-.085.09a29.9 29.9 0 0 0-1.323 1.449c.873 1.196 3.764 1.739 5.425 1.654v-22.37h-.009zm5.594 6.619h-4.844v-6.946c0-.542.244-.832.704-.832 1.033 0 4.14 2.356 4.14 3.225v4.553zm6.786-5.88c0-.084-.037-.121-.169-.121-.122 0-.328.084-.46.168l-.948.58c-.535.326-.703.495-.703.747v4.132c0 .29.375.495.666.495h1.614v-6.001zm-1.577 9.722h1.568v11.994c-1.53-.122-2.234-.907-2.234-2.562v-8.478c0-.617.216-.954.666-.954z" fill="#fff"/>
    <path d="M17.547 52.152c1.125 0 1.983.832 1.983 1.905s-.858 1.898-1.983 1.898c-1.124 0-1.982-.825-1.982-1.898s.858-1.905 1.982-1.905zm0 3.05c.624 0 1.105-.495 1.105-1.145s-.48-1.144-1.105-1.144c-.624 0-1.105.494-1.105 1.144 0 .65.481 1.144 1.105 1.144zM20.628 52.217h2.288v.748h-1.417v.786h1.294v.748h-1.294v1.398h-.871v-3.68zM23.995 52.217h2.288v.748h-1.417v.786h1.294v.748h-1.294v1.398h-.871v-3.68zM28.24 52.217v3.68h-.871v-3.68h.87zM29.351 54.057c0-1.073.858-1.905 1.983-1.905.5 0 .936.163 1.287.436l-.443.643c-.233-.182-.506-.325-.844-.325-.625 0-1.105.494-1.105 1.145 0 .65.48 1.144 1.105 1.144.331 0 .65-.156.877-.358l.462.637a2.024 2.024 0 0 1-1.333.475c-1.125.006-1.989-.82-1.989-1.892zM34.616 52.217v3.68h-.87v-3.68h.87zM37.834 52.217l1.273 3.68h-.91l-.24-.767h-1.203l-.24.767h-.91l1.274-3.68h.956zm-.475.917-.41 1.313h.813l-.403-1.313zM40.083 52.217h.87v2.926h1.411v.754h-2.281v-3.68zM1.352 58.737c.767 0 1.3.48 1.3 1.196 0 .52-.273.91-.728 1.08l.825 1.397h-.942l-.728-1.28H.858v1.28H0v-3.68h1.352v.007zm-.494.695v1.047h.41c.331 0 .526-.221.526-.52 0-.312-.195-.52-.526-.52h-.41v-.007zM3.77 58.737h2.34v.734H4.641v.729h1.345v.721H4.641v.754h1.514v.735H3.77v-3.673zM7.995 60.59c0 .65.481 1.157 1.105 1.157a.973.973 0 0 0 .475-.124v-.617h-.722v-.67h1.592v1.645a2.053 2.053 0 0 1-1.351.494c-1.125 0-1.983-.832-1.983-1.898 0-1.073.858-1.905 1.983-1.905.5 0 .936.162 1.287.435l-.442.644c-.234-.182-.507-.325-.845-.325-.618.006-1.099.5-1.099 1.164zM12.558 58.737v3.68h-.871v-3.68h.871zM15.658 58.672c1.125 0 1.983.832 1.983 1.905 0 1.072-.858 1.898-1.983 1.898-1.124 0-1.982-.832-1.982-1.898-.007-1.073.858-1.905 1.982-1.905zm0 3.049c.624 0 1.105-.494 1.105-1.144 0-.65-.48-1.145-1.105-1.145-.624 0-1.105.494-1.105 1.145-.006.65.475 1.144 1.105 1.144zM18.74 58.737h.916l1.242 2.34v-2.34h.805v3.68h-.916l-1.241-2.341v2.34h-.806v-3.68zM24.901 58.737l1.274 3.68h-.91l-.24-.768H23.81l-.241.767h-.91l1.274-3.68h.968zm-.474.916-.41 1.314h.813l-.403-1.314zM27.15 58.737h.872v2.925h1.41v.754h-2.281v-3.68zM33.397 61.188v1.228h-.87v-3.68h1.358c.773 0 1.3.508 1.3 1.223 0 .715-.527 1.222-1.3 1.222h-.488v.007zm.397-1.756h-.397v1.06h.397c.331 0 .533-.214.533-.533 0-.319-.202-.527-.533-.527zM38.148 58.737l1.274 3.68h-.91l-.24-.768h-1.215l-.241.767h-.91l1.274-3.68h.968zm-.48.916-.41 1.314h.813l-.404-1.314zM41.756 58.737c.767 0 1.3.48 1.3 1.196 0 .52-.273.91-.728 1.08l.825 1.397h-.942l-.728-1.28h-.214v1.28h-.858v-3.68h1.345v.007zm-.5.695v1.047h.409c.331 0 .526-.221.526-.52 0-.312-.195-.52-.526-.52h-.41v-.007zM44.817 59.49h-.903v-.753h2.671v.754h-.903v2.925h-.871v-2.925h.006zM47.619 58.737h.916l1.242 2.34v-2.34h.806v3.68h-.916l-1.242-2.341v2.34h-.806v-3.68zM51.87 58.737h2.34v.734h-1.469v.729h1.346v.721H52.74v.754h1.521v.735H51.87v-3.673zM56.77 58.737c.768 0 1.3.48 1.3 1.196 0 .52-.272.91-.727 1.08l.825 1.397h-.942l-.728-1.28h-.221v1.28h-.858v-3.68h1.352v.007zm-.5.695v1.047h.41c.331 0 .526-.221.526-.52 0-.312-.195-.52-.526-.52h-.41v-.007z" fill="#fff"/>
    <path opacity=".6" d="M69.294 0h-.65v65h.65V0z" fill="#fff"/>
    <path d="M96.738 19.57a7.262 7.262 0 0 1 4.027-2.884c-.29.197-.533.45-.775.7.84-.108 1.713-.01 2.492.327.1.732.154 1.47.272 2.2.097-.733.17-1.468.262-2.201a4.61 4.61 0 0 1 2.433-.325l.055.043.007-.05c-.253-.24-.488-.5-.781-.694a7.26 7.26 0 0 1 4.023 2.882c-.277-.21-.594-.358-.907-.506.36.75.543 1.593.456 2.423-.684.314-1.38.605-2.056.936.739-.13 1.472-.292 2.208-.434.576.624.935 1.42 1.099 2.243.162-.291.322-.586.423-.904a7.04 7.04 0 0 1-1.502 4.566c.092-.31.141-.628.185-.947-.613.571-1.372.999-2.198 1.18-.521-.55-1.022-1.119-1.555-1.657.359.66.744 1.306 1.114 1.96-.428.729-1.081 1.316-1.829 1.716.321.058.644.11.971.119a7.359 7.359 0 0 1-4.836-.002c.33-.007.655-.06.979-.117-.749-.4-1.401-.987-1.83-1.717.37-.653.757-1.297 1.113-1.957-.535.538-1.032 1.111-1.56 1.655a4.756 4.756 0 0 1-2.19-1.18c.043.321.09.642.185.953a7.056 7.056 0 0 1-1.506-4.572c.106.32.266.616.429.91a4.571 4.571 0 0 1 1.096-2.25c.737.141 1.47.302 2.208.433-.675-.332-1.372-.622-2.056-.937-.086-.828.095-1.671.456-2.42-.316.147-.633.298-.912.508zm6.01.674c-1.058.76-2.118 1.518-3.177 2.276.403 1.23.81 2.458 1.215 3.687 1.31-.003 2.621.004 3.931-.004.398-1.23.813-2.455 1.209-3.686-1.062-.755-2.118-1.517-3.178-2.273z" fill="#fff"/>
    <path d="M100.757 0h.156c.087.075.169.161.177.282.572 3.04 1.149 6.078 1.72 9.119.05.153-.039.335-.208.355a10.96 10.96 0 0 0-3.33 1.152 10.667 10.667 0 0 0-4.16 4.02c-.062.107-.143.23-.285.226-.188-.037-.342-.159-.507-.247-2.603-1.493-5.207-2.985-7.812-4.476-.11-.06-.22-.167-.188-.303.064-.193.193-.356.293-.532 2.025-3.32 5.034-6.037 8.55-7.758A21.447 21.447 0 0 1 100.756 0z" fill="#951B80"/>
    <path d="M105.998 2.298c2.871-.074 5.755.45 8.415 1.519a21.032 21.032 0 0 1 5.646 3.38c.094.082.197.155.277.252.073.118.03.267-.065.359-2.052 2.334-4.103 4.669-6.153 7.004-.064.067-.136.146-.238.143-.129.008-.218-.098-.31-.17-2.325-1.998-5.554-2.921-8.601-2.455-.116.011-.249.055-.35-.025-.083-.047-.107-.147-.119-.234-.44-2.927-.878-5.855-1.317-8.782-.023-.169-.06-.336-.068-.507-.004-.127.108-.233.232-.247a20.827 20.827 0 0 1 2.651-.237z" fill="#E40613"/>
    <path d="M82.836 10.37c.106-.062.228-.027.328.029 2.775 1.47 5.554 2.936 8.328 4.408.177.08.175.306.069.442-1.492 2.679-1.711 6.007-.58 8.853.037.12.122.25.052.375-.066.127-.225.152-.346.206-2.883 1.092-5.763 2.19-8.645 3.282-.122.055-.285.046-.36-.075-.096-.181-.155-.38-.23-.57-1.535-4.13-1.656-8.75-.36-12.958.401-1.317.94-2.592 1.597-3.804.04-.068.077-.145.147-.188z" fill="#01509F"/>
    <path d="M119.657 10.882c.108-.065.241-.016.324.066a20.474 20.474 0 0 1 6.589 14.514v1.105c-.014.193-.011.389-.049.58-.049.14-.212.175-.345.161-3.141-.153-6.283-.297-9.424-.453-.193.006-.296-.193-.261-.363.182-3.04-1.06-6.128-3.305-8.218-.089-.09-.202-.171-.238-.296-.022-.118.062-.212.136-.292l6.233-6.48c.11-.11.209-.236.34-.324z" fill="#F28800"/>
    <path d="M101.74 15.851c2.251-.297 4.613.43 6.286 1.946 1.474 1.306 2.414 3.18 2.561 5.13a7.67 7.67 0 0 1-1.732 5.496 7.9 7.9 0 0 1-5.174 2.817c-2.202.27-4.503-.438-6.153-1.902-1.493-1.296-2.454-3.17-2.617-5.126a7.663 7.663 0 0 1 1.277-4.947 7.899 7.899 0 0 1 5.552-3.414zm-5.001 3.719c.278-.21.596-.36.911-.508-.361.749-.542 1.592-.456 2.42.684.315 1.381.605 2.057.937-.739-.131-1.472-.292-2.208-.434a4.571 4.571 0 0 0-1.097 2.252c-.162-.294-.323-.591-.429-.911a7.055 7.055 0 0 0 1.506 4.572 5.891 5.891 0 0 1-.184-.953 4.755 4.755 0 0 0 2.19 1.18c.527-.544 1.025-1.117 1.559-1.655-.356.66-.744 1.304-1.112 1.957.428.73 1.081 1.317 1.829 1.717-.324.058-.649.11-.978.117a7.355 7.355 0 0 0 4.835.002 6.616 6.616 0 0 1-.971-.119c.749-.4 1.401-.987 1.83-1.716-.37-.654-.756-1.3-1.115-1.96.533.538 1.034 1.107 1.555 1.656.827-.18 1.585-.608 2.198-1.179a6.361 6.361 0 0 1-.185.947 7.034 7.034 0 0 0 1.502-4.566c-.101.318-.261.613-.423.904-.163-.823-.523-1.619-1.099-2.243-.736.142-1.469.303-2.207.434.676-.33 1.371-.622 2.055-.936.087-.83-.095-1.674-.456-2.423.313.148.63.295.908.506a7.262 7.262 0 0 0-4.024-2.882c.293.194.528.455.781.694l-.006.05-.056-.043a4.61 4.61 0 0 0-2.433.325c-.092.733-.165 1.468-.261 2.2-.118-.729-.172-1.467-.273-2.2-.778-.337-1.651-.434-2.492-.326.242-.25.485-.503.775-.7a7.262 7.262 0 0 0-4.026 2.884z" fill="#1D1D1B"/>
    <path d="M102.748 20.244c1.061.756 2.117 1.518 3.179 2.273-.397 1.23-.812 2.456-1.209 3.686-1.311.008-2.621.001-3.932.004l-1.214-3.688c1.059-.757 2.118-1.515 3.176-2.275z" fill="#1D1D1B"/>
    <path d="M88.641 26.785c.18-.103.378.025.425.207 1.216 2.847 3.766 5.096 6.767 5.975.181.027.323.201.246.38-.935 2.969-1.875 5.936-2.813 8.903-.032.184-.237.276-.405.199a20.84 20.84 0 0 1-6.58-3.348 20.615 20.615 0 0 1-6.512-8.309v-.128a.478.478 0 0 1 .246-.203c2.877-1.222 5.75-2.455 8.626-3.676z" fill="#0090D7"/>
    <path d="M113.675 27.958a.737.737 0 0 1 .213-.008c3.12.244 6.241.48 9.362.722a.272.272 0 0 1 .279.32c-.281 4.028-1.823 7.952-4.338 11.132a20.688 20.688 0 0 1-4.213 4.022c-.125.109-.325.068-.409-.068-1.793-2.408-3.584-4.817-5.376-7.226-.1-.15-.247-.28-.291-.458-.026-.163.13-.253.242-.336 2.478-1.779 4.103-4.655 4.337-7.67.009-.157.005-.376.194-.43z" fill="#FEED01"/>
    <path d="M105.901 34.646c.141-.068.289.033.356.155 1.751 2.576 3.508 5.148 5.258 7.726.15.183-.013.399-.195.475-3.978 2.645-8.9 3.853-13.669 3.378a21.13 21.13 0 0 1-3.595-.667.265.265 0 0 1-.191-.356c.836-3 1.677-5.996 2.515-8.994.03-.19.246-.278.414-.198a10.91 10.91 0 0 0 7.116-.443c.702-.284 1.357-.668 1.991-1.076z" fill="#00963F"/>
    <path d="M79.924 51.665h2.742v8.038h3.316c0 .79.003 1.58-.001 2.368h-6.055c-.004-3.468 0-6.937-.002-10.406zM96.97 51.664h2.743v8.038c1.105.004 2.211-.006 3.317.006-.002.786 0 1.573-.001 2.36h-6.058V51.664zM88.226 54.315a3.875 3.875 0 0 1 2.368-.747 3.06 3.06 0 0 1 1.456.361c.326.175.613.409.889.65v-.848h2.527v8.337H92.9a76.974 76.974 0 0 1 0-.804 3.648 3.648 0 0 1-2.59 1.01c-.884-.008-1.783-.284-2.46-.856-.666-.551-1.09-1.346-1.278-2.175a5.473 5.473 0 0 1-.065-2.14c.2-1.095.807-2.126 1.718-2.788zm2.287 1.647c-.417.096-.802.33-1.064.665-.509.647-.54 1.574-.2 2.304.231.508.703.91 1.26 1.025.85.185 1.816-.193 2.243-.955.497-.862.303-2.086-.51-2.697-.482-.37-1.14-.476-1.73-.342zM109.749 54.019c.786-.459 1.755-.555 2.636-.352.633.144 1.177.533 1.618.994-.001-.31-.001-.62.001-.93h2.442v6.368c-.01.574.033 1.152-.06 1.721-.129.847-.561 1.653-1.233 2.201-.767.638-1.773.93-2.762.98h-.515c-.843-.044-1.696-.246-2.416-.695-.793-.477-1.365-1.3-1.489-2.214h2.864c.124.175.251.355.434.474.301.204.685.21 1.038.203.514-.025 1.079-.192 1.384-.63.267-.38.199-.865.194-1.3-.514.425-1.122.75-1.78.891a3.504 3.504 0 0 1-2.187-.275c-.908-.43-1.567-1.273-1.872-2.207a4.964 4.964 0 0 1 .061-3.217c.302-.824.868-1.569 1.642-2.012zm1.793 1.782c-.556.15-.971.625-1.133 1.16-.227.728-.137 1.6.387 2.186.508.572 1.4.66 2.083.367.415-.177.752-.516.94-.92.266-.556.247-1.219.022-1.784a1.67 1.67 0 0 0-.965-.944 2.238 2.238 0 0 0-1.334-.065zM119.378 54.282a3.875 3.875 0 0 1 3.101-.618c.603.144 1.116.512 1.568.917v-.85h2.523v8.337h-2.565v-.802c-.301.286-.65.524-1.033.692-.991.445-2.169.404-3.161-.014-.912-.385-1.61-1.176-1.946-2.088a5.353 5.353 0 0 1-.238-2.817c.211-1.09.833-2.108 1.751-2.757zm2.205 1.69c-.361.088-.695.282-.943.556-.57.624-.638 1.58-.315 2.334.2.48.603.882 1.107 1.044.841.271 1.854-.046 2.348-.781.583-.85.426-2.139-.392-2.79-.496-.403-1.191-.516-1.805-.364zM105.109 50.117c.421-.092.88-.012 1.234.233.458.304.72.868.65 1.41-.06.625-.552 1.18-1.171 1.326-.539.144-1.153-.028-1.519-.448a1.54 1.54 0 0 1 .806-2.521zM104.164 53.73h2.552v8.338h-2.552V53.73z" fill="#fff"/>
    <defs>
        <radialGradient id="h8xwl5bw8a" cx="0" cy="0" r="1" gradientUnits="userSpaceOnUse" gradientTransform="matrix(85.4154 0 0 75.2168 30.17 4.886)">
            <stop stop-color="#C01617"/>
            <stop offset=".505" stop-color="#BE181B"/>
            <stop offset="1" stop-color="#C7120C"/>
        </radialGradient>
    </defs>
</svg>
