<svg width="80" height="32" viewBox="0 0 80 32" fill="none" xmlns="http://www.w3.org/2000/svg">
    <path d="M0 .458C0 .205.204 0 .457 0h34.926c.253 0 .457.205.457.458v31.084a.457.457 0 0 1-.457.458H.457A.457.457 0 0 1 0 31.542V.458z" fill="#D3B271"/>
    <path d="M1.77 2.236c0-.253.204-.458.456-.458h31.387c.252 0 .457.205.457.458v27.528a.457.457 0 0 1-.457.458H2.226a.457.457 0 0 1-.456-.458V2.236z" fill="url(#wykg1a5zma)"/>
    <path fill-rule="evenodd" clip-rule="evenodd" d="M13.847 15.876v10.08c0 .22-.057.358-.252.358-.196 0-.278-.138-.278-.358v-1.33h-.498c-.358 0-1.51.888-2.243 1.453-.235.181-.427.33-.536.404-.806-.47-1.808-.941-2.558-1.192-.135.125-.258.24-.37.342a15.94 15.94 0 0 0-.669.645c-.11.116-.173.18-.234.18-.14 0-.31-.163-.31-.308 0-.138.31-.47 1.728-1.92.97-.998 1.36-2.19 1.36-4.023 0-3.025-1.304-5.611-2.804-5.611-.498 0-.75.195-.832.697-.025.25-.138.332-.252.332-.22 0-.334-.364-.334-.973 0-1.386.97-2.497 2.168-2.497.556 0 .933.244 1.26.456.275.179.514.334.795.297V10.88c0-.528-.196-.973-.586-1.306-.334-.276-2.055-1.443-2.698-1.443-.123 0-.212.025-.292.047a.657.657 0 0 1-.18.034c-.082 0-.114-.025-.114-.081 0-.073.045-.125.17-.272l.05-.061 2.194-2.165.055-.041c.078-.06.129-.097.222-.097.443 0 1.672.835 2.678 1.518.696.473 1.284.873 1.431.873.266 0 1.055-.492 1.909-1.024 1.007-.627 2.104-1.31 2.54-1.31.208 0 .42.17 1.845 1.32l.292.236c.069.054.155.126.253.208.296.248.704.59 1.083.82.447.277.473.334.473.86.277-.056.586-.275 2.331-1.694.498-.414 1.973-1.613 2.086-1.613.139 0 1.362.502 3.17 1.25.53.219.612.275.612.608v14.36c0 .47.056.64.252.803.832.722 1.336.998 1.613.998a.408.408 0 0 0 .277-.113c.139-.195.17-.22.252-.22.082 0 .17.113.17.22 0 .17-1.247 1.72-2.527 2.724-.775-.276-2.11-1.193-2.86-1.97-.253-.277-.303-.333-.303-.804v-10.28c0-1.193.384-2.003 1.777-3.86.725-.942.775-1.224.636-1.224-.067 0-.696.434-1.264.826-.386.267-.743.514-.878.592l-.176-.1c-1.36-.781-1.804-1.036-2.578-1.036-.441 0-.75.22-.75.502v17.078c0 .22-.114.389-.277.389-.14 0-.221-.138-.221-.358v-1.28c-.783.127-1.469.764-1.927 1.19-.243.225-.422.391-.518.391-.303 0-2.111-2.165-2.111-2.334v-8.166h-3.252zm-.505-7.08c0-.558-.056-.746-.163-.746-.246 0-1.141.559-1.141.747v7.688c0 3.73-.424 4.176-1.386 5.187l-.057.06c-.448.47-.555.584-.889.973.586.803 2.527 1.167 3.643 1.11V8.798h-.007zM17.1 13.24h-3.252V8.577c0-.364.164-.558.472-.558.694 0 2.78 1.581 2.78 2.165v3.056zm4.556-3.947c0-.057-.025-.082-.114-.082a.715.715 0 0 0-.308.113l-.637.39c-.359.219-.472.332-.472.501v2.774c0 .195.252.333.447.333h1.084v-4.03zm-1.059 6.527h1.052v8.052c-1.027-.081-1.5-.609-1.5-1.72V16.46c0-.414.146-.64.448-.64z" fill="#fff"/>
    <path opacity=".6" d="M41.28 0h-.32v32h.32V0z" fill="#fff"/>
    <path d="M54.754 9.635a3.575 3.575 0 0 1 1.982-1.42 2.49 2.49 0 0 0-.381.344 2.348 2.348 0 0 1 1.226.161c.05.36.076.724.134 1.083.048-.36.084-.722.13-1.083.373-.16.793-.217 1.197-.16l.027.021.004-.024c-.125-.118-.24-.247-.385-.342a3.575 3.575 0 0 1 1.98 1.418c-.136-.103-.292-.176-.446-.249.178.37.267.785.224 1.193-.336.155-.679.298-1.011.461.363-.064.724-.143 1.086-.213.284.307.46.698.541 1.104.08-.144.159-.289.209-.445a3.464 3.464 0 0 1-.74 2.248c.046-.153.07-.31.091-.466a2.333 2.333 0 0 1-1.082.58c-.256-.27-.503-.55-.765-.815.176.325.366.643.548.964a2.294 2.294 0 0 1-.9.845c.158.029.317.054.478.059a3.622 3.622 0 0 1-2.38-.001c.161-.003.321-.03.48-.058a2.292 2.292 0 0 1-.9-.845c.182-.321.373-.638.548-.963-.263.264-.508.546-.768.814a2.34 2.34 0 0 1-1.078-.58c.02.157.044.316.091.469a3.473 3.473 0 0 1-.741-2.251c.052.157.13.303.21.448.076-.408.258-.8.54-1.108.363.07.724.149 1.087.213-.332-.163-.675-.306-1.012-.461a2.231 2.231 0 0 1 .225-1.191 2.437 2.437 0 0 0-.45.25zm2.958.331c-.52.374-1.042.748-1.564 1.12.199.606.4 1.21.598 1.816.645-.001 1.29.002 1.936-.002.195-.606.4-1.209.595-1.815-.523-.371-1.043-.747-1.565-1.119z" fill="#fff"/>
    <path d="M56.733 0h.076c.043.037.083.08.087.139.282 1.496.566 2.992.847 4.489.025.075-.02.165-.102.175-.573.101-1.13.29-1.64.567a5.25 5.25 0 0 0-2.048 1.98c-.03.052-.07.112-.14.11-.093-.018-.168-.078-.25-.121l-3.845-2.204c-.054-.03-.109-.082-.093-.149.032-.095.095-.175.144-.262a10.213 10.213 0 0 1 4.209-3.82c.869-.428 1.8-.728 2.755-.904z" fill="#951B80"/>
    <path d="M59.313 1.131a10.427 10.427 0 0 1 4.142.748c1.008.406 1.95.97 2.78 1.665.046.04.097.076.136.123.036.058.015.132-.032.177l-3.03 3.448c-.03.033-.066.072-.116.07-.064.005-.108-.048-.153-.083a5.35 5.35 0 0 0-4.234-1.209c-.057.006-.123.027-.172-.012-.041-.023-.053-.072-.06-.115l-.647-4.324c-.011-.083-.03-.165-.034-.249-.002-.063.053-.115.114-.122a10.26 10.26 0 0 1 1.306-.117z" fill="#E40613"/>
    <path d="M47.91 5.105c.052-.03.112-.013.161.014l4.1 2.17c.087.04.086.15.034.218a5.158 5.158 0 0 0-.286 4.359c.019.059.06.123.026.184-.032.063-.11.075-.17.102-1.42.537-2.837 1.078-4.256 1.615-.06.027-.14.023-.178-.037-.047-.089-.075-.187-.113-.28a10 10 0 0 1-.177-6.38c.198-.648.463-1.276.786-1.872.02-.034.038-.072.073-.093z" fill="#01509F"/>
    <path d="M66.037 5.357c.053-.032.118-.008.159.032a10.08 10.08 0 0 1 3.244 7.146v.544c-.007.095-.006.191-.025.285-.024.07-.104.086-.17.08-1.546-.076-3.092-.146-4.639-.223-.095.003-.145-.095-.128-.179a5.182 5.182 0 0 0-1.627-4.046c-.044-.044-.1-.084-.117-.145-.01-.058.03-.105.066-.144l3.069-3.19c.054-.054.103-.117.168-.16z" fill="#F28800"/>
    <path d="M57.216 7.804a3.909 3.909 0 0 1 3.095.958 3.777 3.777 0 0 1 .408 5.231 3.907 3.907 0 0 1-5.577.45 3.772 3.772 0 0 1-.66-4.959 3.888 3.888 0 0 1 2.734-1.68zm-2.462 1.83c.137-.103.293-.177.449-.25a2.23 2.23 0 0 0-.225 1.192c.337.155.68.298 1.013.461-.364-.065-.725-.144-1.087-.214a2.25 2.25 0 0 0-.54 1.109 2.677 2.677 0 0 1-.211-.449c-.028.806.24 1.616.741 2.251a2.893 2.893 0 0 1-.09-.469c.299.282.673.49 1.077.581.26-.268.505-.55.768-.815-.175.325-.366.642-.548.964.211.36.533.648.9.845-.158.028-.319.054-.48.058.762.268 1.617.269 2.38 0a3.266 3.266 0 0 1-.478-.058c.368-.197.69-.486.9-.845-.182-.322-.372-.64-.548-.964.262.264.509.544.765.815.407-.09.78-.3 1.082-.58a3.06 3.06 0 0 1-.09.465 3.464 3.464 0 0 0 .739-2.248c-.05.157-.129.302-.209.446a2.28 2.28 0 0 0-.54-1.105c-.363.07-.724.15-1.087.214.332-.163.675-.306 1.011-.46a2.233 2.233 0 0 0-.224-1.194c.154.073.31.146.447.25a3.575 3.575 0 0 0-1.98-1.42c.143.096.26.225.384.342l-.004.025-.027-.021a2.27 2.27 0 0 0-1.198.16c-.045.36-.08.722-.128 1.083-.058-.359-.085-.723-.135-1.083a2.347 2.347 0 0 0-1.226-.16c.119-.124.238-.248.381-.346a3.575 3.575 0 0 0-1.982 1.42z" fill="#1D1D1B"/>
    <path d="M57.712 9.966c.522.372 1.042.748 1.565 1.12-.195.605-.4 1.208-.595 1.814-.645.004-1.29 0-1.935.002-.2-.605-.4-1.21-.598-1.815l1.563-1.12z" fill="#1D1D1B"/>
    <path d="M50.768 13.187c.088-.051.185.012.209.102.599 1.401 1.854 2.508 3.331 2.941.09.013.159.1.121.187-.46 1.462-.923 2.922-1.385 4.383-.015.09-.116.136-.199.098a10.259 10.259 0 0 1-3.24-1.648 10.148 10.148 0 0 1-3.205-4.09v-.064a.236.236 0 0 1 .121-.1c1.416-.601 2.83-1.208 4.247-1.81z" fill="#0090D7"/>
    <path d="M63.092 13.764a.36.36 0 0 1 .105-.004c1.536.12 3.072.237 4.608.356a.133.133 0 0 1 .138.157 10.027 10.027 0 0 1-2.136 5.48 10.176 10.176 0 0 1-2.074 1.98c-.061.054-.16.034-.201-.033-.883-1.185-1.765-2.372-2.647-3.558-.049-.073-.121-.137-.143-.225-.013-.08.064-.125.12-.165a5.209 5.209 0 0 0 2.134-3.776c.005-.078.003-.185.096-.212z" fill="#FEED01"/>
    <path d="M59.265 17.056c.07-.033.142.017.175.077.862 1.268 1.727 2.534 2.588 3.803.074.09-.006.197-.096.234a10.404 10.404 0 0 1-8.499 1.335.13.13 0 0 1-.094-.175c.412-1.477.826-2.952 1.239-4.428.014-.094.12-.137.203-.098a5.371 5.371 0 0 0 3.503-.218c.346-.14.669-.329.98-.53z" fill="#00963F"/>
    <path d="M46.476 25.435h1.35v3.957h1.632c0 .389.002.777 0 1.166h-2.981c-.002-1.708 0-3.415 0-5.123zM54.868 25.434h1.35v3.958c.544.002 1.089-.003 1.633.002v1.163h-2.983v-5.123zM50.563 26.74c.334-.246.75-.378 1.166-.368.249.002.5.057.717.178.16.086.302.2.437.32v-.418h1.244v4.104h-1.262v-.396a1.796 1.796 0 0 1-1.275.497c-.436-.003-.878-.139-1.211-.42-.328-.272-.536-.663-.63-1.072a2.693 2.693 0 0 1-.031-1.053 2.19 2.19 0 0 1 .845-1.373zm1.126.81a.93.93 0 0 0-.523.328c-.251.318-.266.775-.099 1.134.114.25.346.448.62.505.418.09.894-.095 1.105-.47.244-.425.148-1.028-.251-1.328a1.036 1.036 0 0 0-.852-.169zM61.159 26.594c.386-.226.864-.274 1.297-.174.312.071.58.263.797.49v-.458h1.203v3.135c-.005.283.016.567-.03.848a1.743 1.743 0 0 1-.607 1.083c-.377.314-.873.458-1.36.482h-.253c-.415-.021-.835-.12-1.19-.342a1.535 1.535 0 0 1-.732-1.09h1.41c.06.086.123.175.213.234.148.1.338.104.511.1.253-.013.531-.095.681-.31.132-.188.099-.426.096-.64-.253.209-.553.369-.876.438-.361.074-.746.022-1.077-.136-.447-.211-.772-.626-.921-1.086a2.442 2.442 0 0 1 .03-1.583c.148-.406.427-.773.808-.991zm.882.877c-.273.075-.477.308-.557.57-.112.36-.068.789.19 1.078.25.281.69.324 1.026.18a.914.914 0 0 0 .462-.453c.132-.273.122-.6.011-.878a.823.823 0 0 0-.475-.465 1.103 1.103 0 0 0-.657-.032zM65.899 26.724a1.909 1.909 0 0 1 1.527-.305c.296.071.549.252.772.451v-.418h1.242v4.105h-1.263v-.395c-.149.14-.32.258-.509.34-.488.22-1.067.199-1.556-.007a1.785 1.785 0 0 1-.958-1.028 2.633 2.633 0 0 1-.117-1.386c.104-.537.41-1.038.862-1.357zm1.086.831a.928.928 0 0 0-.465.274c-.28.307-.314.777-.155 1.15a.904.904 0 0 0 .545.513c.414.134.913-.023 1.156-.384.287-.42.21-1.053-.193-1.374a1.034 1.034 0 0 0-.888-.179zM58.875 24.673a.786.786 0 0 1 .607.114c.226.15.355.428.32.694a.766.766 0 0 1-.576.654.753.753 0 0 1-.748-.221.763.763 0 0 1-.08-.896.756.756 0 0 1 .477-.345zM58.41 26.452h1.256v4.104H58.41v-4.104z" fill="#fff"/>
    <defs>
        <radialGradient id="wykg1a5zma" cx="0" cy="0" r="1" gradientUnits="userSpaceOnUse" gradientTransform="matrix(57.3449 0 0 50.4994 18.63 3.28)">
            <stop stop-color="#C01617"/>
            <stop offset=".505" stop-color="#BE181B"/>
            <stop offset="1" stop-color="#C7120C"/>
        </radialGradient>
    </defs>
</svg>
