<svg width="242" height="40" viewBox="0 0 242 40" fill="none" xmlns="http://www.w3.org/2000/svg">
    <path d="M64.736 19.307c4.832-.725 5.89-3.247 5.89-7.566V7.189C70.626 2.406 66.823 0 59.189 0c-7.633 0-11.436 2.406-11.436 7.19v5.362c0 3.769.83 5.74 5.232 6.494-4.403.985-5.232 3.74-5.232 7.769v5.884c0 4.842 3.803 7.248 11.436 7.248 7.634 0 11.437-2.406 11.437-7.248v-5.826c0-4.436-1.058-6.958-5.89-7.566zm-5.604-2.522c-1.687 0-2.516-.812-2.516-2.406V6.725c0-1.565.83-2.319 2.516-2.319 1.716 0 2.573.783 2.573 2.32v7.653c0 1.594-.857 2.406-2.573 2.406zm0 18.523c-1.687 0-2.516-.811-2.516-2.406v-8.667c0-1.653.83-2.464 2.516-2.464 1.716 0 2.573.811 2.573 2.464v8.667c0 1.595-.857 2.406-2.573 2.406zM90.826 19.307c4.836-.725 5.894-3.247 5.894-7.566V7.189C96.72 2.406 92.915 0 85.275 0c-7.64 0-11.446 2.406-11.446 7.19v5.362c0 3.769.83 5.74 5.236 6.494-4.406.985-5.236 3.74-5.236 7.769v5.884c0 4.842 3.806 7.248 11.446 7.248S96.72 37.54 96.72 32.699v-5.826c0-4.436-1.058-6.958-5.894-7.566zm-5.609-2.522c-1.688 0-2.518-.812-2.518-2.406V6.725c0-1.565.83-2.319 2.518-2.319 1.717 0 2.576.783 2.576 2.32v7.653c.028 1.594-.83 2.406-2.576 2.406zm0 18.523c-1.688 0-2.518-.811-2.518-2.406v-8.667c0-1.653.83-2.464 2.518-2.464 1.717 0 2.576.811 2.576 2.464v8.667c.028 1.595-.83 2.406-2.576 2.406z" fill="#fff"/>
    <path d="M0 .572A.57.57 0 0 1 .568 0h43.437a.57.57 0 0 1 .568.572v38.803a.57.57 0 0 1-.568.572H.568A.57.57 0 0 1 0 39.375V.572z" fill="#D3B271"/>
    <path d="M2.201 2.79a.57.57 0 0 1 .568-.57h39.035a.57.57 0 0 1 .568.57v34.366a.57.57 0 0 1-.568.571H2.77a.57.57 0 0 1-.568-.571V2.79z" fill="url(#szqmwvnipa)"/>
    <path fill-rule="evenodd" clip-rule="evenodd" d="M17.22 19.819v12.583c0 .274-.07.446-.313.446s-.344-.172-.344-.446V30.74h-.62c-.445 0-1.879 1.11-2.79 1.815-.292.226-.531.41-.666.504-1.003-.588-2.25-1.176-3.182-1.489-.167.157-.32.3-.46.428-.29.27-.518.481-.677.646-.06.059-.11.112-.155.159-.137.144-.214.224-.291.224-.173 0-.384-.203-.384-.383 0-.173.384-.588 2.147-2.398 1.207-1.246 1.693-2.734 1.693-5.022 0-3.776-1.622-7.004-3.488-7.004-.619 0-.932.243-1.034.87-.032.313-.173.415-.314.415-.274 0-.415-.455-.415-1.215 0-1.731 1.207-3.118 2.696-3.118.692 0 1.16.306 1.566.57.343.223.64.417.989.37v-2.53c0-.659-.243-1.215-.729-1.63-.415-.345-2.555-1.802-3.354-1.802a1.23 1.23 0 0 0-.364.06.815.815 0 0 1-.224.042c-.102 0-.141-.031-.141-.102 0-.09.055-.156.21-.34l.064-.075 2.728-2.703.068-.051c.097-.074.16-.122.276-.122.552 0 2.08 1.043 3.33 1.896.866.59 1.598 1.09 1.78 1.09.331 0 1.312-.614 2.374-1.278 1.252-.784 2.617-1.637 3.16-1.637.258 0 .522.214 2.294 1.649l.363.294c.086.068.192.158.314.26.37.31.876.736 1.348 1.025.556.345.587.415.587 1.073.345-.07.73-.345 2.9-2.115.62-.517 2.454-2.014 2.595-2.014.172 0 1.693.627 3.942 1.56.658.274.76.344.76.76v17.925c0 .588.07.8.314 1.003 1.034.901 1.661 1.246 2.006 1.246.102 0 .243-.04.345-.141.173-.243.212-.274.314-.274.101 0 .211.14.211.274 0 .211-1.552 2.146-3.143 3.4-.964-.345-2.625-1.489-3.558-2.46-.314-.345-.376-.415-.376-1.003V16.56c0-1.489.478-2.5 2.21-4.819.901-1.175.964-1.527.792-1.527-.084 0-.866.542-1.573 1.031-.48.333-.924.641-1.092.74l-.22-.127c-1.691-.974-2.242-1.292-3.205-1.292-.549 0-.933.274-.933.627v21.318c0 .274-.141.486-.345.486-.172 0-.274-.172-.274-.447v-1.598c-.974.159-1.826.954-2.397 1.485-.302.282-.525.49-.644.49-.376 0-2.626-2.703-2.626-2.915V19.819h-4.044zm-.626-8.838c0-.697-.07-.932-.204-.932-.306 0-1.418.697-1.418.932v9.598c0 4.657-.528 5.213-1.724 6.475l-.071.075c-.557.587-.69.729-1.105 1.214.728 1.003 3.143 1.457 4.53 1.387V10.981h-.008zm4.671 5.547h-4.044v-5.82c0-.455.204-.698.588-.698.862 0 3.456 1.974 3.456 2.703v3.815zm5.667-4.928c0-.07-.031-.101-.141-.101-.102 0-.274.07-.384.14l-.792.486c-.447.274-.588.415-.588.627v3.463c0 .243.314.415.557.415h1.348V11.6zm-1.317 8.149h1.309V29.8c-1.277-.102-1.865-.76-1.865-2.147v-7.106c0-.517.18-.8.556-.8z" fill="#fff"/>
    <path opacity=".6" d="M109.855 0h-.398v40h.398V0z" fill="#fff"/>
    <path d="M141.08 13.762c-3.476 0-6.32 2.846-6.32 6.324 0 3.477 2.844 6.323 6.32 6.323 3.477 0 6.321-2.846 6.321-6.323.053-3.478-2.792-6.323-6.321-6.323zM176.371 27.463h-9.797V10.39h4.424v13.226h5.373v3.847zM184.535 17.346c-1.949 0-3.213 1.475-3.213 3.267 0 1.896 1.211 3.477 3.107 3.477 1.844 0 3.371-1.37 3.371-3.32-.052-2.002-1.474-3.424-3.265-3.424zm-7.427 3.372c0-3.794 2.792-7.166 6.584-7.166 1.685 0 2.686.58 3.898 1.686v-1.423h4.055v13.7h-4.161v-1.317s-1.475 1.686-4.055 1.686c-3.74-.053-6.321-2.793-6.321-7.166zM203.918 27.463h-9.797V10.39h4.425v13.226h5.372v3.847zM209.923 27.462h-4.109v-13.7h4.109v13.7zm-4.53-17.125c0-1.37 1.106-2.529 2.476-2.529 1.369 0 2.528 1.107 2.528 2.477a2.496 2.496 0 0 1-2.528 2.529c-1.422 0-2.476-1.107-2.476-2.477zM218.561 17.082c-1.949 0-2.897 1.58-2.897 3.267 0 1.739 1.054 3.214 2.845 3.214 2.054 0 3.16-1.633 3.16-3.161.053-1.845-1.001-3.32-3.108-3.32zm-6.9 3.267c0-3.688 2.37-6.85 5.952-6.85 1.738 0 2.897.58 4.056 1.792v-1.529h3.95V25.83c0 4.215-3.16 6.429-7.005 6.429-3.371 0-6.268-1.687-6.69-4.795h4.636c.579.948 1.158 1.106 2.159 1.106 1.422 0 2.792-.685 2.792-2.16v-1.001c-.79.737-2.265 1.58-3.898 1.58-3.529.053-5.952-2.898-5.952-6.639zM234.837 17.346c-1.949 0-3.213 1.475-3.213 3.267 0 1.896 1.211 3.477 3.108 3.477 1.843 0 3.371-1.37 3.371-3.32-.053-2.002-1.423-3.424-3.266-3.424zm-7.427 3.372c0-3.794 2.792-7.166 6.584-7.166 1.686 0 2.686.58 3.951 1.686v-1.423H242v13.7h-4.161v-1.317s-1.475 1.686-4.056 1.686c-3.792-.053-6.373-2.793-6.373-7.166z" fill="#fff"/>
    <path d="M127.859 9.073a.162.162 0 0 0 0 .21c0 .053.053.053.106.053l6.636 3.847a.16.16 0 0 0 .211 0l.053-.053v-.053a8.556 8.556 0 0 1 2.528-2.792 8.297 8.297 0 0 1 3.529-1.476s.053 0 .053-.052a.404.404 0 0 0 .105-.211l-1.317-7.535c0-.053 0-.053-.052-.106-.053-.052-.106-.105-.211-.105-2.318.422-4.635 1.37-6.742 2.845-2.054 1.476-3.687 3.373-4.899 5.428z" fill="#893A96"/>
    <path d="M124.067 23.616c.053.053.105.105.158.105h.105l7.164-2.74c.053-.052.105-.105.105-.158v-.105a8.108 8.108 0 0 1-.579-3.741c.105-1.318.474-2.582 1.053-3.636v-.106c0-.105-.052-.158-.105-.21l-6.689-3.689h-.106c-.105 0-.158.053-.211.106-1.158 2.107-1.843 4.479-2.001 7.008a17.082 17.082 0 0 0 1.106 7.166z" fill="#0065B1"/>
    <path d="M133.179 35.577c.053 0 .158 0 .211-.052 0-.053.053-.053.053-.106l2.265-7.324c0-.053 0-.158-.053-.21l-.053-.054h-.052c-1.212-.368-2.318-.948-3.319-1.844a8.454 8.454 0 0 1-2.212-3.109l-.053-.052c-.052-.053-.158-.053-.21-.053l-7.058 3.003c-.053 0-.053.053-.053.053-.053.053-.053.158-.053.21.948 2.214 2.371 4.216 4.267 5.955a16.212 16.212 0 0 0 6.32 3.583z" fill="#0A9BD7"/>
    <path d="M148.138 35.946c.053-.053.105-.105.105-.21 0-.053 0-.053-.052-.106l-4.267-6.376c-.052-.053-.105-.105-.21-.105h-.106a8.75 8.75 0 0 1-3.529 1.422c-1.317.211-2.581.106-3.792-.21h-.106c-.105 0-.158.052-.158.158l-2.054 7.377V38c0 .053.053.158.158.158 2.265.633 4.793.843 7.269.422a16.006 16.006 0 0 0 6.742-2.635z" fill="#0FB05F"/>
    <path d="M157.83 24.512a.404.404 0 0 0-.105-.211c-.053 0-.053-.053-.106-.053l-7.637-.58c-.106 0-.158.053-.211.106v.105c-.105 1.265-.421 2.477-1.053 3.636-.632 1.16-1.528 2.108-2.529 2.846l-.052.052a.16.16 0 0 0 0 .211l4.529 6.165.053.053a.16.16 0 0 0 .211 0c1.949-1.423 3.582-3.267 4.846-5.48 1.211-2.055 1.896-4.479 2.054-6.85z" fill="#FDDC2D"/>
    <path d="M154.986 9.758c-.053-.053-.158-.053-.211-.053-.053 0-.053.053-.106.053l-5.267 5.585c-.052.053-.052.158-.052.211 0 0 0 .053.052.053.896.843 1.686 1.897 2.16 3.108a9.33 9.33 0 0 1 .632 3.742v.158c.053.105.105.105.158.158l7.637.369h.106c.052-.053.105-.106.105-.158a17.387 17.387 0 0 0-1.211-7.22c-.843-2.318-2.265-4.373-4.003-6.006z" fill="#F68D32"/>
    <path d="M141.554 2.908c-.052 0-.158.052-.158.158v.105l1.107 7.588c0 .053.052.158.158.158h.105a8.456 8.456 0 0 1 3.792.21c1.264.37 2.423 1.002 3.319 1.845l.052.053c.106 0 .158 0 .211-.053l5.004-5.796s.053-.053.053-.106c0-.052 0-.158-.053-.21a16.181 16.181 0 0 0-6.426-3.478 16.484 16.484 0 0 0-7.164-.474z" fill="#EE3435"/>
    <path d="M145.716 23.669c.105-.264.105-.58.158-.79-.106.105-.264.263-.422.368a3.588 3.588 0 0 1-1.369.633l-1.212-1.318.896 1.58c-.211.422-.58.791-1.001 1.108-.158.105-.316.21-.474.263.211.053.527.105.79.105a6.04 6.04 0 0 1-1.949.317c-.685 0-1.369-.106-1.949-.317.264 0 .58-.052.79-.105-.158-.106-.316-.158-.474-.264-.421-.316-.79-.684-1.001-1.106l.896-1.58-1.212 1.317a3.588 3.588 0 0 1-1.369-.633c-.158-.105-.263-.21-.421-.369.052.211.052.527.158.79-.79-1-1.212-2.212-1.212-3.582v-.211c.053.263.211.527.369.738.053-.159.053-.37.105-.527a3.57 3.57 0 0 1 .738-1.318l1.738.37-1.633-.739c-.053-.474 0-.948.158-1.475.053-.158.105-.316.211-.474-.211.105-.527.263-.738.421.79-1.159 1.896-2.002 3.266-2.37-.263.157-.474.42-.632.579.158 0 .369-.053.527-.053.526 0 1.053.106 1.474.316l.211 1.792.211-1.792c.421-.21.948-.316 1.475-.316.158 0 .368 0 .526.053-.158-.158-.421-.422-.632-.58a5.558 5.558 0 0 1 3.266 2.371c-.211-.21-.527-.316-.737-.421.052.158.158.316.21.474.158.527.211 1.001.158 1.475l-1.633.738 1.739-.369c.316.37.579.79.737 1.318.053.158.105.368.105.527.106-.211.264-.475.316-.738v.21a5.523 5.523 0 0 1-1.158 3.584zm-4.636-9.907c-3.476 0-6.32 2.846-6.32 6.324 0 3.477 2.844 6.323 6.32 6.323 3.477 0 6.321-2.846 6.321-6.323.053-3.478-2.792-6.323-6.321-6.323z" fill="#000"/>
    <path d="m138.552 19.295.948 3.004h3.16l1.001-3.004-2.581-1.897-2.528 1.897z" fill="#000"/>
    <defs>
        <radialGradient id="szqmwvnipa" cx="0" cy="0" r="1" gradientUnits="userSpaceOnUse" gradientTransform="matrix(71.3182 0 0 63.0401 23.17 4.095)">
            <stop stop-color="#C01617"/>
            <stop offset=".505" stop-color="#BE181B"/>
            <stop offset="1" stop-color="#C7120C"/>
        </radialGradient>
    </defs>
</svg>
