<?xml version="1.0" encoding="utf-8"?>
<svg preserveAspectRatio="xMidYMid meet" width="200" height="48" viewBox="0 0 200 48" style="width:100%;height:100%" xmlns="http://www.w3.org/2000/svg">
  <g id="_R_G" transform="matrix(1, 0, 0, 1, -50.332592, -0.665188)">
    <g id="_R_G_L_0_G" transform=" translate(96.143, 24) scale(0.1, 0.1) translate(-1050, -240)">
      <g id="_R_G_L_0_G_L_3_G" transform=" translate(555.124, 239.368) scale(2.74725, 2.74725) translate(-183.865, -74.861)"/>
      <g id="_R_G_L_0_G_L_2_G_M">
        <g id="_R_G_L_0_G_L_2_G" transform=" translate(1560.855, 240) scale(2.74725, 2.74725) translate(-544.127, -75)">
          <path id="_R_G_L_0_G_L_2_G_D_0_P_0" fill="#ffffff" fill-opacity="1" fill-rule="nonzero" d=" M417.78 56.32 C407.06,56.32 398.34,65.04 398.34,75.76 C398.34,86.48 407.06,95.2 417.78,95.2 C428.5,95.2 437.22,86.48 437.22,75.76 C437.22,65.04 428.5,56.32 417.78,56.32z "/>
          <path id="_R_G_L_0_G_L_2_G_D_1_P_0" fill="#ffffff" fill-opacity="1" fill-rule="nonzero" d=" M525.92 98.36 C525.92,98.36 495.87,98.36 495.87,98.36 C495.87,98.36 495.87,46.02 495.87,46.02 C495.87,46.02 509.47,46.02 509.47,46.02 C509.47,46.02 509.47,86.47 509.47,86.47 C509.47,86.47 525.92,86.47 525.92,86.47 C525.92,86.47 525.92,98.36 525.92,98.36z "/>
          <path id="_R_G_L_0_G_L_2_G_D_2_P_0" fill="#ffffff" fill-opacity="1" fill-rule="nonzero" d=" M550.93 67.34 C544.88,67.34 541.01,71.85 541.01,77.38 C541.01,83.19 544.68,87.98 550.53,87.98 C556.17,87.98 560.86,83.81 560.86,77.73 C560.86,71.58 556.51,67.34 550.93,67.34z  M528.16 77.59 C528.16,65.91 536.79,55.59 548.42,55.59 C553.51,55.59 556.71,57.3 560.45,60.71 C560.45,60.71 560.45,56.41 560.45,56.41 C560.45,56.41 572.96,56.41 572.96,56.41 C572.96,56.41 572.96,98.36 572.96,98.36 C572.96,98.36 560.25,98.36 560.25,98.36 C560.25,98.36 560.25,94.26 560.25,94.26 C560.25,94.26 555.69,99.39 547.74,99.39 C536.11,99.39 528.16,91.05 528.16,77.59z "/>
          <path id="_R_G_L_0_G_L_2_G_D_3_P_0" fill="#ffffff" fill-opacity="1" fill-rule="nonzero" d=" M610.49 98.36 C610.49,98.36 580.44,98.36 580.44,98.36 C580.44,98.36 580.44,46.02 580.44,46.02 C580.44,46.02 594.04,46.02 594.04,46.02 C594.04,46.02 594.04,86.47 594.04,86.47 C594.04,86.47 610.49,86.47 610.49,86.47 C610.49,86.47 610.49,98.36 610.49,98.36z "/>
          <path id="_R_G_L_0_G_L_2_G_D_4_P_0" fill="#ffffff" fill-opacity="1" fill-rule="nonzero" d=" M628.77 98.36 C628.77,98.36 616.13,98.36 616.13,98.36 C616.13,98.36 616.13,56.41 616.13,56.41 C616.13,56.41 628.77,56.41 628.77,56.41 C628.77,56.41 628.77,98.36 628.77,98.36z  M614.91 45.75 C614.91,41.51 618.3,38.03 622.52,38.03 C626.74,38.03 630.2,41.38 630.2,45.61 C630.2,49.92 626.74,53.4 622.38,53.4 C618.23,53.4 614.91,50.05 614.91,45.75z "/>
          <path id="_R_G_L_0_G_L_2_G_D_5_P_0" fill="#ffffff" fill-opacity="1" fill-rule="nonzero" d=" M655.35 66.45 C649.44,66.45 646.52,71.3 646.52,76.5 C646.52,81.89 649.71,86.34 655.29,86.34 C661.61,86.34 665,81.28 665,76.57 C665,70.96 661.88,66.45 655.35,66.45z  M634.21 76.57 C634.21,65.22 641.42,55.59 652.43,55.59 C657.74,55.59 661.34,57.3 664.93,61.12 C664.93,61.12 664.93,56.41 664.93,56.41 C664.93,56.41 677.04,56.41 677.04,56.41 C677.04,56.41 677.04,93.38 677.04,93.38 C677.04,106.36 667.32,113.12 655.62,113.12 C645.36,113.12 636.38,107.93 635.03,98.5 C635.03,98.5 649.24,98.5 649.24,98.5 C651,101.37 652.76,101.91 655.9,101.91 C660.32,101.91 664.39,99.87 664.39,95.29 C664.39,94.19 664.46,93.24 664.33,92.15 C661.88,94.33 657.32,97 652.36,97 C641.56,97 634.21,87.98 634.21,76.57z "/>
          <path id="_R_G_L_0_G_L_2_G_D_6_P_0" fill="#ffffff" fill-opacity="1" fill-rule="nonzero" d=" M705.26 67.34 C699.2,67.34 695.33,71.85 695.33,77.38 C695.33,83.19 699,87.98 704.84,87.98 C710.49,87.98 715.18,83.81 715.18,77.73 C715.18,71.58 710.83,67.34 705.26,67.34z  M682.47 77.59 C682.47,65.91 691.11,55.59 702.73,55.59 C707.84,55.59 711.03,57.3 714.77,60.71 C714.77,60.71 714.77,56.41 714.77,56.41 C714.77,56.41 727.28,56.41 727.28,56.41 C727.28,56.41 727.28,98.36 727.28,98.36 C727.28,98.36 714.57,98.36 714.57,98.36 C714.57,98.36 714.57,94.26 714.57,94.26 C714.57,94.26 710.01,99.39 702.06,99.39 C690.44,99.39 682.47,91.05 682.47,77.59z "/>
          <path id="_R_G_L_0_G_L_2_G_D_7_P_0" fill="#922194" fill-opacity="1" fill-rule="nonzero" d=" M377.24 41.91 C377.13,42.12 377.14,42.38 377.28,42.58 C377.34,42.68 377.42,42.75 377.52,42.8 C377.52,42.8 397.84,54.61 397.84,54.61 C397.84,54.61 397.89,54.64 397.89,54.64 C398.1,54.75 398.37,54.74 398.58,54.59 C398.64,54.55 398.7,54.49 398.74,54.42 C398.76,54.39 398.78,54.36 398.8,54.33 C400.67,51.01 403.28,48.04 406.6,45.69 C409.93,43.33 413.61,41.85 417.38,41.19 C417.41,41.19 417.44,41.19 417.46,41.18 C417.54,41.16 417.62,41.13 417.69,41.08 C417.9,40.93 418,40.67 417.96,40.43 C417.96,40.43 417.95,40.39 417.95,40.39 C417.95,40.39 413.65,17.29 413.65,17.29 C413.65,17.29 413.65,17.25 413.65,17.25 C413.63,17.15 413.59,17.06 413.53,16.98 C413.38,16.79 413.15,16.7 412.92,16.72 C412.9,16.73 412.89,16.73 412.87,16.73 C405.69,18.03 398.59,20.9 392.24,25.39 C385.88,29.89 380.86,35.56 377.24,41.9 "/>
          <path id="_R_G_L_0_G_L_2_G_D_8_P_0" fill="#4350a8" fill-opacity="1" fill-rule="nonzero" d=" M365.64 86.54 C365.73,86.76 365.94,86.91 366.19,86.94 C366.3,86.95 366.41,86.92 366.51,86.88 C366.51,86.88 388.44,78.43 388.44,78.43 C388.44,78.43 388.49,78.41 388.49,78.41 C388.71,78.32 388.87,78.1 388.89,77.84 C388.89,77.76 388.88,77.68 388.86,77.61 C388.85,77.57 388.83,77.54 388.81,77.51 C387.4,73.97 386.72,70.07 386.96,66.01 C387.21,61.94 388.37,58.14 390.21,54.79 C390.23,54.77 390.24,54.75 390.25,54.72 C390.29,54.65 390.31,54.57 390.31,54.48 C390.33,54.22 390.19,53.99 389.98,53.87 C389.98,53.87 389.94,53.84 389.94,53.84 C389.94,53.84 369.23,42.73 369.23,42.73 C369.23,42.73 369.2,42.71 369.2,42.71 C369.11,42.67 369.02,42.64 368.92,42.64 C368.67,42.63 368.46,42.76 368.34,42.95 C368.33,42.97 368.32,42.98 368.31,43 C368.31,43 368.31,43 368.31,43 C364.83,49.41 362.62,56.75 362.15,64.51 C361.68,72.28 362.95,79.75 365.64,86.54 "/>
          <path id="_R_G_L_0_G_L_2_G_D_9_P_0" fill="#5b9bc9" fill-opacity="1" fill-rule="nonzero" d=" M393.51 123.22 C393.73,123.28 393.99,123.22 394.16,123.04 C394.23,122.95 394.29,122.85 394.32,122.75 C394.32,122.75 401.31,100.31 401.31,100.31 C401.31,100.31 401.32,100.26 401.32,100.26 C401.39,100.03 401.32,99.77 401.13,99.6 C401.06,99.54 401,99.5 400.92,99.47 C400.89,99.46 400.85,99.45 400.82,99.44 C397.17,98.36 393.69,96.47 390.66,93.76 C387.62,91.04 385.36,87.78 383.88,84.25 C383.87,84.22 383.86,84.2 383.85,84.17 C383.81,84.1 383.76,84.03 383.7,83.97 C383.5,83.79 383.24,83.76 383.01,83.85 C383.01,83.85 382.97,83.87 382.97,83.87 C382.97,83.87 361.4,93.2 361.4,93.2 C361.4,93.2 361.36,93.22 361.36,93.22 C361.28,93.26 361.2,93.31 361.14,93.39 C360.98,93.58 360.94,93.82 361.01,94.04 C361.02,94.06 361.03,94.07 361.04,94.09 C361.04,94.09 361.04,94.09 361.04,94.09 C363.9,100.8 368.28,107.09 374.07,112.28 C379.87,117.47 386.52,121.11 393.5,123.22 "/>
          <path id="_R_G_L_0_G_L_2_G_D_10_P_0" fill="#19ae56" fill-opacity="1" fill-rule="nonzero" d=" M439.33 124.32 C439.52,124.18 439.63,123.94 439.59,123.69 C439.58,123.58 439.53,123.48 439.47,123.39 C439.47,123.39 426.37,103.88 426.37,103.88 C426.37,103.88 426.34,103.84 426.34,103.84 C426.2,103.64 425.96,103.53 425.7,103.57 C425.62,103.58 425.55,103.61 425.48,103.65 C425.45,103.67 425.42,103.69 425.39,103.71 C422.25,105.88 418.6,107.4 414.59,108.06 C410.57,108.73 406.61,108.44 402.93,107.38 C402.9,107.37 402.88,107.37 402.85,107.36 C402.77,107.35 402.68,107.34 402.6,107.35 C402.34,107.4 402.15,107.58 402.08,107.81 C402.08,107.81 402.06,107.86 402.06,107.86 C402.06,107.86 395.81,130.51 395.81,130.51 C395.81,130.51 395.81,130.55 395.81,130.55 C395.78,130.64 395.78,130.74 395.8,130.84 C395.84,131.08 396.01,131.26 396.23,131.34 C396.24,131.35 396.26,131.35 396.28,131.35 C396.28,131.35 396.28,131.35 396.28,131.35 C403.3,133.33 410.94,133.86 418.62,132.6 C426.3,131.34 433.3,128.44 439.33,124.32 "/>
          <path id="_R_G_L_0_G_L_2_G_D_11_P_0" fill="#f0e832" fill-opacity="1" fill-rule="nonzero" d=" M469.17 89.31 C469.18,89.08 469.06,88.85 468.85,88.72 C468.74,88.67 468.64,88.64 468.53,88.63 C468.53,88.63 445.1,86.81 445.1,86.81 C445.1,86.81 445.05,86.8 445.05,86.8 C444.8,86.79 444.57,86.92 444.44,87.14 C444.4,87.21 444.38,87.29 444.37,87.37 C444.36,87.4 444.36,87.44 444.36,87.48 C444.11,91.28 443.05,95.09 441.08,98.65 C439.1,102.21 436.42,105.14 433.31,107.37 C433.29,107.38 433.26,107.4 433.25,107.42 C433.18,107.47 433.12,107.53 433.08,107.61 C432.95,107.84 432.98,108.11 433.12,108.3 C433.12,108.3 433.14,108.34 433.14,108.34 C433.14,108.34 447.04,127.3 447.04,127.3 C447.04,127.3 447.06,127.33 447.06,127.33 C447.12,127.41 447.19,127.47 447.28,127.51 C447.5,127.63 447.75,127.61 447.94,127.49 C447.96,127.48 447.97,127.47 447.99,127.45 C447.99,127.45 447.99,127.45 447.99,127.45 C453.89,123.17 459.05,117.5 462.82,110.7 C466.6,103.89 468.66,96.6 469.17,89.32 "/>
          <path id="_R_G_L_0_G_L_2_G_D_12_P_0" fill="#fe8a22" fill-opacity="1" fill-rule="nonzero" d=" M460.31 44.1 C460.13,43.95 459.88,43.89 459.65,43.98 C459.54,44.02 459.45,44.09 459.38,44.17 C459.38,44.17 443.21,61.22 443.21,61.22 C443.21,61.22 443.17,61.26 443.17,61.26 C443.01,61.44 442.95,61.7 443.05,61.94 C443.09,62.02 443.13,62.09 443.18,62.14 C443.2,62.17 443.23,62.2 443.26,62.22 C446.06,64.81 448.35,68.03 449.87,71.8 C451.4,75.58 451.99,79.51 451.76,83.33 C451.76,83.35 451.76,83.38 451.76,83.41 C451.76,83.49 451.77,83.58 451.8,83.66 C451.9,83.9 452.13,84.05 452.37,84.07 C452.37,84.07 452.41,84.07 452.41,84.07 C452.41,84.07 475.89,85.2 475.89,85.2 C475.89,85.2 475.93,85.2 475.93,85.2 C476.02,85.21 476.12,85.19 476.21,85.15 C476.43,85.06 476.58,84.85 476.6,84.62 C476.61,84.6 476.61,84.58 476.61,84.57 C476.99,77.28 475.84,69.71 472.93,62.5 C470.02,55.28 465.65,49.08 460.31,44.1 "/>
          <path id="_R_G_L_0_G_L_2_G_D_13_P_0" fill="#ff3220" fill-opacity="1" fill-rule="nonzero" d=" M419.22 23.08 C419,23.13 418.8,23.29 418.72,23.53 C418.69,23.64 418.68,23.75 418.7,23.86 C418.7,23.86 422.14,47.11 422.14,47.11 C422.14,47.11 422.15,47.16 422.15,47.16 C422.19,47.4 422.36,47.6 422.61,47.67 C422.69,47.7 422.77,47.7 422.85,47.7 C422.88,47.69 422.92,47.69 422.96,47.68 C426.72,47.07 430.67,47.26 434.58,48.39 C438.49,49.53 441.95,51.49 444.81,54.02 C444.83,54.04 444.85,54.06 444.87,54.07 C444.94,54.13 445.01,54.17 445.1,54.19 C445.35,54.27 445.6,54.18 445.77,54 C445.77,54 445.8,53.97 445.8,53.97 C445.8,53.97 461.18,36.2 461.18,36.2 C461.18,36.2 461.21,36.17 461.21,36.17 C461.27,36.1 461.31,36.01 461.34,35.91 C461.4,35.68 461.32,35.44 461.16,35.28 C461.15,35.26 461.13,35.25 461.12,35.24 C461.12,35.24 461.12,35.24 461.12,35.24 C455.63,30.44 448.96,26.67 441.49,24.51 C434.01,22.35 426.44,21.95 419.23,23.08 "/>
          <path id="_R_G_L_0_G_L_2_G_D_14_P_0" fill="#050304" fill-opacity="1" fill-rule="nonzero" d=" M431.91 86.72 C432.2,85.93 432.29,85.01 432.39,84.29 C432.01,84.66 431.58,85.02 431.13,85.35 C429.79,86.32 428.35,86.95 426.96,87.25 C426.96,87.25 423.2,83.15 423.2,83.15 C423.2,83.15 423.15,83.18 423.15,83.18 C423.15,83.18 425.87,88.01 425.87,88.01 C425.16,89.26 424.11,90.45 422.75,91.44 C422.29,91.76 421.83,92.06 421.35,92.31 C422.06,92.44 422.96,92.63 423.8,92.6 C421.92,93.27 419.9,93.64 417.78,93.64 C415.67,93.64 413.64,93.27 411.76,92.6 C412.6,92.63 413.51,92.44 414.21,92.31 C413.74,92.06 413.27,91.76 412.82,91.44 C411.46,90.45 410.41,89.26 409.7,88.01 C409.7,88.01 412.42,83.18 412.42,83.18 C412.42,83.18 412.37,83.14 412.37,83.14 C412.37,83.14 408.61,87.25 408.61,87.25 C407.22,86.95 405.78,86.32 404.44,85.35 C403.98,85.02 403.56,84.66 403.18,84.29 C403.28,85.01 403.37,85.93 403.67,86.73 C401.31,83.7 399.9,79.9 399.9,75.76 C399.9,75.56 399.91,75.37 399.92,75.17 C400.13,76.01 400.62,76.84 400.97,77.5 C401.06,76.97 401.2,76.44 401.37,75.9 C401.89,74.3 402.71,72.92 403.68,71.86 C403.68,71.86 409.06,72.95 409.06,72.95 C409.06,72.95 409.08,72.89 409.08,72.89 C409.08,72.89 404.05,70.59 404.05,70.59 C403.91,69.18 404.06,67.62 404.57,66.05 C404.74,65.52 404.95,65.01 405.19,64.53 C404.5,64.86 403.58,65.25 402.91,65.83 C405.25,62.33 408.8,59.7 412.96,58.54 C412.18,59 411.5,59.76 410.96,60.33 C411.5,60.26 412.04,60.22 412.61,60.22 C414.28,60.22 415.83,60.56 417.13,61.15 C417.13,61.15 417.76,66.59 417.76,66.59 C417.76,66.59 417.82,66.59 417.82,66.59 C417.82,66.59 418.45,61.15 418.45,61.15 C419.75,60.56 421.3,60.22 422.96,60.22 C423.52,60.22 424.08,60.26 424.61,60.33 C424.07,59.77 423.4,59 422.62,58.55 C426.77,59.71 430.31,62.33 432.65,65.83 C431.98,65.25 431.07,64.86 430.38,64.53 C430.62,65.01 430.82,65.52 431,66.05 C431.51,67.62 431.66,69.19 431.51,70.6 C431.51,70.6 426.5,72.89 426.5,72.89 C426.5,72.89 426.52,72.95 426.52,72.95 C426.52,72.95 431.89,71.86 431.89,71.86 C432.86,72.92 433.68,74.3 434.2,75.9 C434.37,76.44 434.5,76.97 434.6,77.5 C434.95,76.85 435.43,76.03 435.65,75.19 C435.66,75.38 435.66,75.57 435.66,75.76 C435.66,79.89 434.26,83.69 431.91,86.72z  M417.78 56.31 C407.06,56.31 398.34,65.04 398.34,75.76 C398.34,86.48 407.06,95.2 417.78,95.2 C428.5,95.2 437.22,86.48 437.22,75.76 C437.22,65.04 428.5,56.31 417.78,56.31z "/>
          <path id="_R_G_L_0_G_L_2_G_D_15_P_0" fill="#050304" fill-opacity="1" fill-rule="nonzero" d=" M409.93 73.2 C409.93,73.2 412.93,82.44 412.93,82.44 C412.93,82.44 422.65,82.44 422.65,82.44 C422.65,82.44 425.65,73.2 425.65,73.2 C425.65,73.2 417.79,67.49 417.79,67.49 C417.79,67.49 409.93,73.2 409.93,73.2z "/>
          <animate repeatCount="indefinite" dur="13s" begin="0s" fill="freeze" attributeName="opacity" from="0" to="0" keyTimes="0;0.0769231;0.3076923;0.3846154;1" values="0;1;1;0;0" keySplines="0.167 0.167 0.833 0.833;0.167 0 0.833 1;0.167 0.167 0.833 0.833;0 0 0 0" calcMode="spline"/>
        </g>
        <animate repeatCount="indefinite" dur="13s" begin="0s" fill="freeze" attributeName="opacity" from="1" to="0" keyTimes="0;0.3846154;0.3846154;1" values="1;1;0;0" keySplines="0 0 0 0;0 0 0 0;0 0 0 0" calcMode="spline"/>
      </g>
      <g id="_R_G_L_0_G_L_1_G_M">
        <g id="_R_G_L_0_G_L_1_G" transform="matrix(0.73, 0, 0, 0.73, 1435.126709, 36.735931)">
          <path id="_R_G_L_0_G_L_1_G_D_0_P_0" fill="#191513" fill-opacity="1" fill-rule="nonzero" d=" M308.82 83.46 C276.31,32.18 231.19,0.35 180.65,0 C79.56,0.52 0,127.58 0,283.08 C0,360.74 19.93,431.43 52.46,482.69 C84.99,533.96 130.1,565.81 180.65,566 C231.19,565.81 276.31,533.96 308.82,482.69 C341.36,431.43 361.29,360.74 361.29,283.08 C361.29,205.4 341.36,134.72 308.82,83.46z "/>
          <path id="_R_G_L_0_G_L_1_G_D_1_P_0" fill="#f62711" fill-opacity="1" fill-rule="nonzero" d=" M341.63 174.85 C332.7,141.46 319.76,111.48 303.84,86.46 C287.76,61.4 268.87,41.14 248.06,27.17 C227.25,13.39 204.61,5.72 180.65,5.72 C156.69,5.72 134.04,13.39 113.23,27.17 C92.42,41.14 73.54,61.4 57.45,86.46 C41.53,111.48 28.59,141.46 19.67,174.85 C10.75,208.06 5.85,244.68 5.85,283.17 C5.85,359.82 25.63,429.48 57.45,479.55 C73.54,504.6 92.42,524.85 113.23,538.82 C134.04,552.63 156.69,560.28 180.65,560.28 C204.61,560.28 227.25,552.63 248.06,538.82 C268.87,524.85 287.76,504.6 303.84,479.55 C335.67,429.48 355.44,359.82 355.44,283.17 C355.44,244.68 350.54,208.06 341.63,174.85z "/>
          <path id="_R_G_L_0_G_L_1_G_D_2_P_0" fill="#191513" fill-opacity="1" fill-rule="nonzero" d=" M180.65 544.45 C91.28,543.92 21.42,426.42 21.42,283.17 C21.42,139.76 91.28,22.23 180.65,21.73 C270.01,22.23 339.87,139.76 339.87,283.17 C339.87,426.42 270.01,543.92 180.65,544.45z "/>
          <path id="_R_G_L_0_G_L_1_G_D_3_P_0" fill="#ffffff" fill-opacity="1" fill-rule="nonzero" d=" M180.65 129.37 C240.63,129.37 292.64,161.91 319.41,209.76 C312.23,170.78 299.82,135.84 283.2,107.57 C256.8,62.77 220.52,35.55 180.65,35.37 C140.77,35.55 104.49,62.77 78.1,107.57 C61.47,135.84 49.06,170.78 41.89,209.76 C68.65,161.91 120.66,129.37 180.65,129.37z "/>
          <path id="_R_G_L_0_G_L_1_G_D_4_P_0" fill="#ffffff" fill-opacity="1" fill-rule="nonzero" d=" M180.65 436.8 C120.66,436.8 68.82,404.28 42.07,356.42 C49.06,395.41 61.47,430.32 78.1,458.45 C91.38,480.74 106.94,498.98 124.43,511.4 C141.74,524 160.72,530.82 180.65,530.82 C200.58,530.82 219.55,524 236.86,511.4 C254.35,498.98 269.91,480.74 283.2,458.45 C299.82,430.32 312.23,395.41 319.23,356.42 C292.47,404.28 240.63,436.8 180.65,436.8z "/>
          <path id="_R_G_L_0_G_L_1_G_D_5_P_0" fill="#191513" fill-opacity="1" fill-rule="nonzero" d=" M233.04 438.11 C223.27,441.38 217.8,448.82 221.64,459.69 C224.23,467.09 232.01,471.62 241.58,468.45 C244.92,467.29 248.56,465.28 249.73,461.51 C249.73,461.51 249.92,461.61 249.92,461.61 C253.13,470.94 249.92,474.76 246.06,476.69 C242.24,478.49 238.73,477.57 236.45,474.89 C236.45,474.89 236.42,474.85 236.42,474.85 C236.42,474.85 229.99,479.18 229.99,479.18 C233.72,484.62 240.7,486.28 248.41,483.69 C257.43,480.68 264.59,472.08 258.57,455.01 C256.4,448.76 250.32,432.34 233.04,438.11z  M241.23 460.8 C237.5,462.02 232.49,462.04 230.16,455.43 C227.95,449.12 232.95,446.13 235.46,445.36 C240.55,443.68 244.06,445.93 245.86,450.92 C247.7,456.2 244.65,459.63 241.23,460.8z "/>
          <path id="_R_G_L_0_G_L_1_G_D_6_P_0" fill="#191513" fill-opacity="1" fill-rule="nonzero" d=" M183.44 117.94 C193.65,117.94 202.87,113.68 209.24,106.87 C209.24,106.87 201.68,100.13 201.68,100.13 C197.16,104.93 190.67,107.96 183.44,107.96 C169.74,107.96 158.63,97.16 158.63,83.82 C158.63,70.39 169.74,59.57 183.44,59.57 C190.67,59.57 197.16,62.62 201.68,67.41 C201.68,67.41 209.22,60.64 209.22,60.64 C202.81,53.86 193.65,49.59 183.44,49.59 C164.09,49.59 148.4,64.9 148.4,83.82 C148.4,102.64 164.09,117.94 183.44,117.94z "/>
          <path id="_R_G_L_0_G_L_1_G_D_7_P_0" fill="#191513" fill-opacity="1" fill-rule="nonzero" d=" M231.66 90.3 C231.66,90.3 239.14,128.42 239.14,128.42 C240.92,129.16 242.66,129.85 244.43,130.66 C244.43,130.66 255.04,105.27 255.04,105.27 C255.04,105.27 266.15,142.01 266.15,142.01 C270.49,144.74 274.76,147.75 278.82,150.91 C278.82,150.91 259.54,87.44 259.54,87.44 C259.54,87.44 253.53,82.81 253.53,82.81 C253.53,82.81 244.83,103.74 244.83,103.74 C244.83,103.74 237.6,70.24 237.6,70.24 C237.6,70.24 229.24,64.81 229.24,64.81 C229.24,64.81 211.78,120.59 211.78,120.59 C215.05,121.22 218.29,121.93 221.51,122.76 C221.51,122.76 231.66,90.3 231.66,90.3z "/>
          <path id="_R_G_L_0_G_L_1_G_D_8_P_0" fill="#191513" fill-opacity="1" fill-rule="nonzero" d=" M105.66 122.02 C105.66,122.02 136.1,110.23 136.1,110.23 C136.1,110.23 139.97,122.75 139.97,122.75 C143.12,121.92 146.36,121.22 149.6,120.59 C149.6,120.59 132.38,64.81 132.38,64.81 C132.38,64.81 119.78,72.7 119.78,72.7 C119.78,72.7 80.08,152.85 80.08,152.85 C85.07,148.83 90.38,145.09 95.85,141.64 C95.85,141.64 105.66,122.02 105.66,122.02z  M126.65 79.79 C126.65,79.79 133.2,100.91 133.2,100.91 C133.2,100.91 112.09,109.08 112.09,109.08 C112.09,109.08 126.65,79.79 126.65,79.79z "/>
          <path id="_R_G_L_0_G_L_1_G_D_9_P_0" fill="#191513" fill-opacity="1" fill-rule="nonzero" d=" M193.71 445.64 C183.44,446.51 176.28,452.39 177.25,463.85 C177.94,471.55 184.34,477.88 194.42,477.02 C197.97,476.76 201.95,475.66 204.06,472.35 C204.06,472.35 204.21,472.45 204.21,472.45 C204.96,482.27 200.85,485.23 196.66,486.07 C192.51,486.99 189.35,485.29 187.82,482.13 C187.82,482.13 187.82,482.06 187.82,482.06 C187.82,482.06 180.5,484.77 180.5,484.77 C182.71,490.8 189.12,494.08 197.21,493.45 C206.67,492.68 215.78,486.07 214.25,468.09 C213.74,461.49 211.94,444.19 193.71,445.64z  M196.02 469.51 C192.07,469.86 187.19,468.74 186.58,461.74 C186.05,455.02 191.63,453.39 194.31,453.22 C199.6,452.78 202.5,455.76 202.96,461.08 C203.44,466.65 199.6,469.27 196.02,469.51z "/>
          <path id="_R_G_L_0_G_L_1_G_D_10_P_0" fill="#191513" fill-opacity="1" fill-rule="nonzero" d=" M154.41 443.96 C145.33,442.36 137.38,445.93 135.99,453.88 C135.2,458.15 136.85,461.45 140.63,464.02 C132.15,465.87 131.06,472.04 130.64,474.36 C129.48,480.72 132.71,489.29 146.09,491.66 C159.83,493.99 165.69,485.56 166.78,479.71 C167.83,473.71 165.59,470.31 161,467.19 C165.53,466.03 167.96,462.88 168.68,458.89 C169.81,452.47 165.13,445.82 154.41,443.96z  M156.63 478.38 C156.05,481.59 152.81,485.29 147.48,484.32 C142.81,483.53 139.69,479.98 140.51,475.45 C141.4,470.47 146.13,469.05 149.87,469.76 C155.57,470.65 157.25,475.1 156.63,478.38z  M159.09 458.24 C158.48,461.53 155.36,463.54 151.32,462.85 C146.91,462.04 144.8,458.6 145.27,455.91 C145.89,452.45 149.14,450.58 153.75,451.35 C157.02,451.94 159.72,454.69 159.09,458.24z "/>
          <path id="_R_G_L_0_G_L_1_G_D_11_P_0" fill="#191513" fill-opacity="1" fill-rule="nonzero" d=" M105.02 439.42 C105.02,439.42 103.63,438.95 103.63,438.95 C103.63,438.95 101.64,444.48 101.64,444.48 C101.64,444.48 101.71,444.5 101.71,444.5 C101.71,444.5 100.73,447.18 100.73,447.18 C100.73,447.18 102.64,447.87 102.64,447.87 C107.68,449.63 111.12,449.63 113.42,448.7 C113.42,448.7 103.04,478.38 103.04,478.38 C103.04,478.38 112.94,481.65 112.94,481.65 C112.94,481.65 128.22,438.05 128.22,438.05 C128.22,438.05 119.23,435 119.23,435 C118.53,437.02 112.52,441.87 105.02,439.42z "/>
          <path id="_R_G_L_0_G_L_1_G_D_12_P_0" fill="#ffffff" fill-opacity="1" fill-rule="nonzero" d=" M279.19 304.98 C279.19,304.98 279.19,390.31 279.19,390.31 C304.02,368.67 321.34,338.7 326.59,304.98 C326.59,304.98 279.19,304.98 279.19,304.98z "/>
          <path id="_R_G_L_0_G_L_1_G_D_13_P_0" fill="#ffffff" fill-opacity="1" fill-rule="nonzero" d=" M188.79 426.59 C201.03,425.9 212.91,423.69 224.1,420.45 C224.1,420.45 224.1,304.98 224.1,304.98 C224.1,304.98 188.79,304.98 188.79,304.98 C188.79,304.98 188.79,426.59 188.79,426.59z "/>
          <path id="_R_G_L_0_G_L_1_G_D_14_P_0" fill="#ffffff" fill-opacity="1" fill-rule="nonzero" d=" M325.89 256.43 C319.78,224.65 303.07,196.61 279.19,176.02 C279.19,176.02 279.19,256.43 279.19,256.43 C279.19,256.43 325.89,256.43 325.89,256.43z "/>
          <path id="_R_G_L_0_G_L_1_G_D_15_P_0" fill="#ffffff" fill-opacity="1" fill-rule="nonzero" d=" M188.79 256.43 C188.79,256.43 224.1,256.43 224.1,256.43 C224.1,256.43 224.1,145.72 224.1,145.72 C212.73,142.5 201.03,140.28 188.79,139.6 C188.79,139.6 188.79,256.43 188.79,256.43z "/>
          <path id="_R_G_L_0_G_L_1_G_D_16_P_0" fill="#ffffff" fill-opacity="1" fill-rule="nonzero" d=" M279.19 175.87 C279.19,175.87 279.02,175.87 279.02,175.87 C279.08,175.92 279.13,175.97 279.19,176.02 C279.19,176.02 279.19,175.87 279.19,175.87z "/>
          <path id="_R_G_L_0_G_L_1_G_D_17_P_0" fill="#f62711" fill-opacity="1" fill-rule="nonzero" d=" M50.97 352.14 C50.97,352.14 50.97,214.01 50.97,214.01 C39.61,234.64 32.97,258.14 32.97,283.17 C32.97,308.04 39.61,331.54 50.97,352.14z "/>
          <path id="_R_G_L_0_G_L_1_G_D_18_P_0" fill="#f62711" fill-opacity="1" fill-rule="nonzero" d=" M231.81 148.28 C231.81,148.28 231.81,264.09 231.81,264.09 C231.81,264.09 188.77,264.09 188.77,264.09 C188.77,264.09 188.77,297.31 188.77,297.31 C188.77,297.31 231.81,297.49 231.81,297.49 C231.81,297.49 231.81,417.9 231.81,417.9 C246.12,412.8 259.43,405.45 271.33,396.44 C271.33,396.44 271.33,297.49 271.33,297.49 C271.33,297.49 327.8,297.49 327.8,297.49 C328.33,292.7 328.5,287.95 328.5,283.17 C328.5,276.71 327.97,270.23 327.1,264.09 C327.1,264.09 271.33,264.09 271.33,264.09 C271.33,264.09 271.33,169.73 271.33,169.73 C259.43,160.71 246.12,153.39 231.81,148.28z "/>
          <path id="_R_G_L_0_G_L_1_G_D_19_P_0" fill="#f62711" fill-opacity="1" fill-rule="nonzero" d=" M133.69 419.43 C142.61,422.33 151.71,424.37 161.32,425.73 C161.32,425.73 161.32,140.44 161.32,140.44 C151.71,141.63 142.61,143.86 133.69,146.76 C133.69,146.76 133.69,419.43 133.69,419.43z "/>
          <path id="_R_G_L_0_G_L_1_G_D_20_P_0" fill="#f62711" fill-opacity="1" fill-rule="nonzero" d=" M78.61 386.89 C87.01,394.73 96.1,401.36 106.06,407.18 C106.06,407.18 106.06,159.01 106.06,159.01 C96.1,164.63 87.01,171.43 78.61,179.28 C78.61,179.28 78.61,386.89 78.61,386.89z "/>
          <animate repeatCount="indefinite" dur="13s" begin="0s" fill="freeze" attributeName="opacity" from="0" to="0" keyTimes="0;0.3846154;0.4615385;0.6923077;0.7692308;1" values="0;0;1;1;0;0" keySplines="0.167 0.167 0.833 0.833;0.167 0.167 0.833 0.833;0.167 0 0.833 1;0.167 0.167 0.833 0.833;0 0 0 0" calcMode="spline"/>
        </g>
        <animate repeatCount="indefinite" dur="13s" begin="0s" fill="freeze" attributeName="opacity" from="0" to="0" keyTimes="0;0.3846154;0.3846157;0.7692308;0.7692308;1" values="0;0;1;1;0;0" keySplines="0 0 0 0;0 0 0 0;0 0 0 0;0 0 0 0;0 0 0 0" calcMode="spline"/>
      </g>
      <g id="_R_G_L_0_G_L_0_G_M" transform="matrix(1, 0, 0, 1, 250.554306, -2.217295)">
        <g id="_R_G_L_0_G_L_0_G" transform=" translate(1309.001, 240) scale(4, 4) translate(-353.162, -104.453)">
          <path id="_R_G_L_0_G_L_0_G_D_0_P_0" fill="#ec250a" fill-opacity="1" fill-rule="nonzero" d=" M415.91 53.4 C415.91,53.4 307.07,85.98 307.07,85.98 C297.46,88.77 290.37,95.11 290.39,104.81 C290.41,113.93 296.84,120.8 305.46,123.31 C305.46,123.31 305.46,123.31 305.47,123.32 C307.03,123.77 415.94,155.5 415.94,155.5 C415.94,155.5 415.91,53.4 415.91,53.4z "/>
          <path id="_R_G_L_0_G_L_0_G_D_1_P_0" fill="#ffffff" fill-opacity="1" fill-rule="nonzero" d=" M327.72 98.16 C327.37,99.83 326.15,100.91 323.09,100.91 C323.09,100.91 319.96,100.91 319.96,100.91 C319.96,100.91 321.15,95.41 321.15,95.41 C321.15,95.41 324.24,95.41 324.24,95.41 C327.55,95.41 328.1,96.38 327.72,98.16z  M326.5 108.39 C326.05,110.48 324.52,111.42 320.87,111.42 C320.87,111.42 317.73,111.42 317.73,111.42 C317.73,111.42 319.02,105.37 319.02,105.37 C319.02,105.37 322.16,105.37 322.16,105.37 C325.81,105.37 326.92,106.3 326.5,108.39z  M380.51 90.75 C375.7,90.75 374.51,94.18 374.51,94.18 C374.51,94.18 369.34,106.44 369.34,106.44 C369.34,106.44 369.23,106.44 369.23,106.44 C369.23,106.44 367.91,90.75 367.91,90.75 C367.91,90.75 359.78,90.75 359.78,90.75 C355.88,90.75 354.3,94.3 354.3,94.3 C354.3,94.3 348.11,106.44 348.11,106.44 C348.11,106.44 348.01,106.44 348.01,106.44 C348.01,106.44 347.98,90.75 347.98,90.75 C347.98,90.75 342.46,90.75 342.46,90.75 C338.81,90.75 338.01,92.72 337.85,93.84 C336.8,91.82 333.89,90.75 328.69,90.75 C328.69,90.75 315.61,90.75 315.61,90.75 C311.37,90.75 310.99,93.91 310.99,93.91 C310.99,93.91 306.22,115.87 306.22,115.87 C306.22,115.87 324.73,115.87 324.73,115.87 C330.16,115.87 331.89,115.32 333.85,113.92 C335.17,112.98 336.24,111.35 336.66,109.4 C337.57,105.09 334.5,103.38 331.02,103.17 C331.02,103.17 331.02,103.1 331.02,103.1 C334.2,102.37 336.9,100.98 337.91,98.15 C337.91,98.15 338.3,115.87 338.3,115.87 C338.3,115.87 347.14,115.87 347.14,115.87 C352.21,115.87 354.08,111.26 354.08,111.26 C354.08,111.26 359.49,100.6 359.49,100.6 C359.49,100.6 359.6,100.6 359.6,100.6 C359.6,100.6 360.85,115.87 360.85,115.87 C360.85,115.87 368.74,115.87 368.74,115.87 C374.45,115.87 376.4,110.91 376.4,110.91 C376.4,110.91 383.35,95.42 383.35,95.42 C383.35,95.42 379.01,115.87 379.01,115.87 C379.01,115.87 383.73,115.87 383.73,115.87 C389.82,115.87 390.63,111.01 390.63,111.01 C390.63,111.01 391.58,106.55 391.58,106.55 C391.58,106.55 398.35,106.55 398.35,106.55 C403.56,106.55 404.31,102.58 404.31,102.58 C404.31,102.58 404.59,101.26 404.59,101.26 C404.59,101.26 392.69,101.26 392.69,101.26 C392.69,101.26 393.8,96.04 393.8,96.04 C393.8,96.04 401.28,96.04 401.28,96.04 C406.39,96.04 407.12,92.26 407.12,92.26 C407.12,92.26 407.44,90.75 407.44,90.75 C407.44,90.75 380.51,90.75 380.51,90.75z "/>
          <animate repeatCount="indefinite" dur="13s" begin="0s" fill="freeze" attributeName="opacity" from="0" to="0" keyTimes="0;0.7692308;0.8461538;0.9230769;1" values="0;0;1;1;0" keySplines="0.167 0.167 0.833 0.833;0.167 0.167 0.833 0.833;0.167 0 0.833 1;0.167 0.167 0.833 0.833" calcMode="spline"/>
        </g>
        <animate repeatCount="indefinite" dur="13s" begin="0s" fill="freeze" attributeName="opacity" from="0" to="1" keyTimes="0;0.7692308;0.7692311;1" values="0;0;1;1" keySplines="0 0 0 0;0 0 0 0;0 0 0 0" calcMode="spline"/>
      </g>
    </g>
  </g>
  <g id="time_group">
    <animate attributeName="opacity" dur="13s" from="0" to="1"/>
  </g>
</svg>