<?xml version="1.0" encoding="utf-8"?>
<svg preserveAspectRatio="xMidYMid meet" width="88" height="32" viewBox="0 0 88 32" style="width:100%;height:100%" xmlns="http://www.w3.org/2000/svg">
  <g id="_R_G" transform="matrix(1, 0, 0, 1, -20.585365, -0.341463)">
    <g id="_R_G_L_0_G" transform=" translate(42.397, 16.179) scale(0.1, 0.1) translate(-500, -160)">
      <g id="_R_G_L_0_G_L_4_G" transform=" translate(478.213, 156.023) scale(1.83, 1.83) translate(-212.823, -100.013)"/>
      <g id="_R_G_L_0_G_L_3_G" transform=" translate(248.207, 156.043) scale(2.32, 2.32) translate(-120.048, -83.903)"/>
      <g id="_R_G_L_0_G_L_2_G_M">
        <g id="_R_G_L_0_G_L_2_G" transform=" translate(648.46, 156) scale(1.83, 1.83) translate(-292.429, -100)">
          <path id="_R_G_L_0_G_L_2_G_D_0_P_0" fill="#ffffff" fill-opacity="1" fill-rule="nonzero" d=" M291.48 62.19 C281.88,62.19 274.07,70 274.07,79.6 C274.07,89.2 281.88,97.01 291.48,97.01 C301.08,97.01 308.89,89.2 308.89,79.6 C308.89,70 301.08,62.19 291.48,62.19z "/>
          <path id="_R_G_L_0_G_L_2_G_D_1_P_0" fill="#99148d" fill-opacity="1" fill-rule="nonzero" d=" M254.67 48.87 C254.57,49.06 254.58,49.29 254.71,49.48 C254.76,49.57 254.84,49.64 254.93,49.68 C254.93,49.68 273.37,60.4 273.37,60.4 C273.37,60.4 273.42,60.43 273.42,60.43 C273.61,60.53 273.85,60.52 274.04,60.39 C274.1,60.34 274.15,60.29 274.19,60.23 C274.21,60.2 274.23,60.18 274.24,60.14 C275.94,57.13 278.31,54.43 281.33,52.3 C284.35,50.16 287.7,48.82 291.12,48.22 C291.14,48.22 291.16,48.22 291.19,48.21 C291.26,48.19 291.33,48.16 291.4,48.12 C291.59,47.98 291.68,47.75 291.64,47.53 C291.64,47.53 291.64,47.49 291.64,47.49 C291.64,47.49 287.73,26.52 287.73,26.52 C287.73,26.52 287.72,26.48 287.72,26.48 C287.71,26.39 287.67,26.31 287.62,26.24 C287.48,26.06 287.27,25.98 287.07,26 C287.05,26.01 287.03,26.01 287.02,26.01 C287.02,26.01 287.02,26.01 287.02,26.01 C280.5,27.19 274.05,29.8 268.29,33.88 C262.52,37.96 257.96,43.11 254.67,48.87 "/>
          <path id="_R_G_L_0_G_L_2_G_D_2_P_0" fill="#3f41a1" fill-opacity="1" fill-rule="nonzero" d=" M244.14 89.39 C244.22,89.59 244.41,89.73 244.64,89.75 C244.74,89.76 244.84,89.74 244.93,89.7 C244.93,89.7 264.84,82.03 264.84,82.03 C264.84,82.03 264.88,82.01 264.88,82.01 C265.08,81.93 265.23,81.73 265.25,81.5 C265.25,81.42 265.24,81.35 265.22,81.29 C265.21,81.25 265.2,81.22 265.18,81.19 C263.9,77.98 263.28,74.44 263.5,70.76 C263.72,67.06 264.77,63.61 266.45,60.57 C266.46,60.55 266.47,60.53 266.48,60.51 C266.52,60.44 266.54,60.36 266.54,60.28 C266.56,60.05 266.43,59.84 266.24,59.73 C266.24,59.73 266.2,59.71 266.2,59.71 C266.2,59.71 247.4,49.62 247.4,49.62 C247.4,49.62 247.37,49.6 247.37,49.6 C247.29,49.56 247.21,49.54 247.12,49.54 C246.9,49.53 246.7,49.64 246.59,49.82 C246.58,49.83 246.57,49.85 246.56,49.86 C246.56,49.86 246.56,49.86 246.56,49.86 C243.4,55.68 241.4,62.34 240.97,69.39 C240.54,76.44 241.7,83.23 244.14,89.39 "/>
          <path id="_R_G_L_0_G_L_2_G_D_3_P_0" fill="#5e9ac8" fill-opacity="1" fill-rule="nonzero" d=" M269.44 122.7 C269.65,122.75 269.88,122.69 270.03,122.53 C270.1,122.45 270.15,122.36 270.17,122.27 C270.17,122.27 276.52,101.9 276.52,101.9 C276.52,101.9 276.54,101.85 276.54,101.85 C276.59,101.64 276.53,101.4 276.36,101.25 C276.3,101.2 276.24,101.16 276.18,101.14 C276.14,101.12 276.11,101.11 276.08,101.11 C272.76,100.12 269.61,98.41 266.86,95.95 C264.1,93.48 262.05,90.51 260.7,87.31 C260.69,87.29 260.68,87.26 260.67,87.24 C260.64,87.17 260.59,87.11 260.54,87.06 C260.36,86.9 260.12,86.87 259.91,86.95 C259.91,86.95 259.87,86.97 259.87,86.97 C259.87,86.97 240.29,95.44 240.29,95.44 C240.29,95.44 240.26,95.45 240.26,95.45 C240.18,95.49 240.11,95.54 240.05,95.61 C239.9,95.78 239.87,96.01 239.94,96.2 C239.95,96.22 239.95,96.23 239.96,96.25 C239.96,96.25 239.96,96.25 239.96,96.25 C242.56,102.34 246.53,108.05 251.79,112.76 C257.06,117.48 263.09,120.78 269.44,122.7 "/>
          <path id="_R_G_L_0_G_L_2_G_D_4_P_0" fill="#00a144" fill-opacity="1" fill-rule="nonzero" d=" M311.05 123.69 C311.22,123.56 311.32,123.35 311.28,123.12 C311.27,123.02 311.23,122.93 311.17,122.85 C311.17,122.85 299.28,105.13 299.28,105.13 C299.28,105.13 299.25,105.09 299.25,105.09 C299.12,104.91 298.9,104.81 298.67,104.85 C298.6,104.87 298.53,104.89 298.47,104.93 C298.44,104.94 298.41,104.96 298.39,104.99 C295.54,106.95 292.22,108.34 288.58,108.93 C284.93,109.54 281.33,109.28 277.99,108.32 C277.97,108.31 277.95,108.3 277.92,108.3 C277.85,108.28 277.77,108.28 277.7,108.29 C277.46,108.33 277.28,108.5 277.22,108.71 C277.22,108.71 277.21,108.75 277.21,108.75 C277.21,108.75 271.53,129.32 271.53,129.32 C271.53,129.32 271.53,129.35 271.53,129.35 C271.51,129.43 271.5,129.52 271.52,129.61 C271.56,129.83 271.71,130 271.91,130.07 C271.93,130.07 271.94,130.07 271.96,130.08 C271.96,130.08 271.96,130.08 271.96,130.08 C278.34,131.87 285.27,132.35 292.24,131.21 C299.22,130.06 305.57,127.43 311.04,123.69 "/>
          <path id="_R_G_L_0_G_L_2_G_D_5_P_0" fill="#ebfb33" fill-opacity="1" fill-rule="nonzero" d=" M338.13 91.91 C338.14,91.7 338.03,91.49 337.84,91.38 C337.75,91.32 337.65,91.3 337.55,91.29 C337.55,91.29 316.28,89.63 316.28,89.63 C316.28,89.63 316.23,89.63 316.23,89.63 C316.01,89.62 315.8,89.73 315.68,89.94 C315.65,90 315.63,90.07 315.62,90.14 C315.61,90.18 315.61,90.21 315.61,90.24 C315.38,93.7 314.42,97.16 312.63,100.38 C310.83,103.62 308.4,106.28 305.58,108.3 C305.56,108.32 305.54,108.33 305.52,108.35 C305.46,108.39 305.41,108.45 305.37,108.52 C305.26,108.73 305.28,108.97 305.4,109.15 C305.4,109.15 305.43,109.19 305.43,109.19 C305.43,109.19 318.04,126.39 318.04,126.39 C318.04,126.39 318.07,126.42 318.07,126.42 C318.12,126.49 318.18,126.55 318.26,126.59 C318.46,126.7 318.69,126.68 318.86,126.57 C318.88,126.56 318.89,126.55 318.9,126.54 C318.9,126.54 318.9,126.54 318.9,126.54 C324.27,122.65 328.95,117.5 332.37,111.33 C335.8,105.15 337.67,98.53 338.13,91.92 "/>
          <path id="_R_G_L_0_G_L_2_G_D_6_P_0" fill="#fe8817" fill-opacity="1" fill-rule="nonzero" d=" M330.09 50.86 C329.93,50.72 329.7,50.67 329.49,50.75 C329.39,50.79 329.31,50.85 329.24,50.92 C329.24,50.92 314.56,66.41 314.56,66.41 C314.56,66.41 314.53,66.44 314.53,66.44 C314.38,66.6 314.33,66.84 314.42,67.06 C314.45,67.13 314.49,67.19 314.54,67.24 C314.56,67.27 314.59,67.29 314.61,67.31 C317.16,69.66 319.23,72.59 320.61,76.01 C322,79.44 322.54,83.01 322.33,86.48 C322.32,86.5 322.32,86.52 322.33,86.55 C322.33,86.62 322.34,86.7 322.37,86.77 C322.46,86.99 322.66,87.13 322.88,87.15 C322.88,87.15 322.92,87.15 322.92,87.15 C322.92,87.15 344.23,88.18 344.23,88.18 C344.23,88.18 344.27,88.18 344.27,88.18 C344.36,88.19 344.44,88.17 344.52,88.13 C344.73,88.05 344.86,87.86 344.88,87.65 C344.88,87.63 344.88,87.62 344.89,87.6 C344.89,87.6 344.89,87.6 344.89,87.6 C345.24,80.98 344.19,74.11 341.55,67.56 C338.9,61.01 334.94,55.38 330.09,50.86 "/>
          <path id="_R_G_L_0_G_L_2_G_D_7_P_0" fill="#ff2a0f" fill-opacity="1" fill-rule="nonzero" d=" M292.79 31.78 C292.58,31.82 292.4,31.97 292.33,32.19 C292.3,32.29 292.3,32.39 292.32,32.48 C292.32,32.48 295.43,53.59 295.43,53.59 C295.43,53.59 295.44,53.64 295.44,53.64 C295.48,53.86 295.64,54.04 295.87,54.1 C295.94,54.13 296.01,54.13 296.08,54.13 C296.11,54.12 296.15,54.12 296.18,54.11 C299.6,53.56 303.18,53.73 306.73,54.76 C310.28,55.79 313.42,57.57 316.02,59.87 C316.04,59.89 316.06,59.9 316.08,59.92 C316.13,59.96 316.2,60 316.28,60.02 C316.51,60.09 316.74,60.01 316.89,59.85 C316.89,59.85 316.92,59.82 316.92,59.82 C316.92,59.82 330.88,43.69 330.88,43.69 C330.88,43.69 330.9,43.66 330.9,43.66 C330.96,43.59 331,43.52 331.02,43.43 C331.08,43.21 331.01,43 330.87,42.85 C330.85,42.84 330.84,42.83 330.83,42.82 C330.83,42.82 330.83,42.82 330.83,42.82 C325.84,38.46 319.79,35.04 313,33.07 C306.21,31.11 299.34,30.75 292.79,31.78 "/>
          <path id="_R_G_L_0_G_L_2_G_D_8_P_0" fill="#050304" fill-opacity="1" fill-rule="nonzero" d=" M291.48 61.95 C281.75,61.95 273.83,69.87 273.83,79.6 C273.83,89.34 281.75,97.25 291.48,97.25 C301.21,97.25 309.13,89.34 309.13,79.6 C309.13,69.87 301.21,61.95 291.48,61.95z  M304.3 89.55 C304.57,88.84 304.66,88 304.75,87.35 C304.4,87.69 304.01,88.01 303.6,88.31 C302.38,89.19 301.07,89.77 299.81,90.03 C299.81,90.03 296.4,86.31 296.4,86.31 C296.4,86.31 296.35,86.35 296.35,86.35 C296.35,86.35 298.83,90.73 298.83,90.73 C298.18,91.86 297.22,92.94 295.99,93.84 C295.58,94.14 295.15,94.4 294.72,94.63 C295.37,94.75 296.18,94.92 296.95,94.89 C295.24,95.5 293.4,95.84 291.48,95.84 C289.56,95.84 287.72,95.5 286.02,94.89 C286.78,94.93 287.6,94.75 288.24,94.63 C287.81,94.4 287.39,94.14 286.98,93.84 C285.74,92.94 284.79,91.86 284.14,90.73 C284.14,90.73 286.62,86.34 286.62,86.34 C286.62,86.34 286.57,86.31 286.57,86.31 C286.57,86.31 283.15,90.03 283.15,90.03 C281.89,89.77 280.58,89.19 279.37,88.31 C278.95,88.01 278.57,87.69 278.22,87.35 C278.31,88 278.39,88.84 278.67,89.56 C276.53,86.81 275.25,83.36 275.25,79.6 C275.25,79.43 275.25,79.25 275.26,79.07 C275.45,79.84 275.9,80.59 276.22,81.19 C276.3,80.7 276.42,80.22 276.58,79.73 C277.05,78.28 277.79,77.03 278.68,76.06 C278.68,76.06 283.56,77.05 283.56,77.05 C283.56,77.05 283.58,76.99 283.58,76.99 C283.58,76.99 279.02,74.91 279.02,74.91 C278.88,73.63 279.02,72.22 279.49,70.79 C279.64,70.31 279.83,69.84 280.05,69.4 C279.42,69.71 278.59,70.07 277.98,70.59 C280.1,67.41 283.32,65.03 287.1,63.97 C286.39,64.39 285.78,65.08 285.29,65.59 C285.77,65.53 286.27,65.49 286.78,65.49 C288.3,65.49 289.71,65.8 290.89,66.34 C290.89,66.34 291.46,71.27 291.46,71.27 C291.46,71.27 291.52,71.27 291.52,71.27 C291.52,71.27 292.08,66.33 292.08,66.33 C293.26,65.8 294.67,65.49 296.18,65.49 C296.69,65.49 297.2,65.53 297.68,65.59 C297.19,65.08 296.58,64.39 295.87,63.97 C299.64,65.03 302.86,67.41 304.98,70.58 C304.37,70.06 303.54,69.7 302.92,69.4 C303.13,69.84 303.32,70.31 303.48,70.79 C303.94,72.22 304.08,73.64 303.95,74.92 C303.95,74.92 299.39,77 299.39,77 C299.39,77 299.41,77.05 299.41,77.05 C299.41,77.05 304.29,76.07 304.29,76.07 C305.17,77.03 305.91,78.28 306.38,79.73 C306.54,80.22 306.66,80.71 306.75,81.19 C307.07,80.59 307.5,79.85 307.7,79.09 C307.71,79.26 307.72,79.43 307.72,79.6 C307.72,83.35 306.44,86.81 304.3,89.55z "/>
          <path id="_R_G_L_0_G_L_2_G_D_9_P_0" fill="#050304" fill-opacity="1" fill-rule="nonzero" d=" M284.35 77.28 C284.35,77.28 287.08,85.67 287.08,85.67 C287.08,85.67 295.9,85.67 295.9,85.67 C295.9,85.67 298.62,77.28 298.62,77.28 C298.62,77.28 291.49,72.09 291.49,72.09 C291.49,72.09 284.35,77.28 284.35,77.28z "/>
          <path id="_R_G_L_0_G_L_2_G_D_10_P_0" fill="#ffffff" fill-opacity="1" fill-rule="nonzero" d=" M240.26 143.64 C240.26,143.64 240.26,167.32 240.26,167.32 C240.26,167.32 253.85,167.32 253.85,167.32 C253.85,167.32 253.85,161.95 253.85,161.95 C253.85,161.95 246.41,161.95 246.41,161.95 C246.41,161.95 246.41,143.64 246.41,143.64 C246.41,143.64 240.26,143.64 240.26,143.64z "/>
          <path id="_R_G_L_0_G_L_2_G_D_11_P_0" fill="#ffffff" fill-opacity="1" fill-rule="nonzero" d=" M265.17 153.29 C262.43,153.29 260.68,155.33 260.68,157.83 C260.68,160.46 262.34,162.63 264.98,162.63 C267.54,162.63 269.66,160.74 269.66,157.99 C269.66,155.21 267.69,153.29 265.17,153.29z  M254.87 157.93 C254.87,152.64 258.77,147.97 264.03,147.97 C266.34,147.97 267.78,148.75 269.47,150.29 C269.47,150.29 269.47,148.34 269.47,148.34 C269.47,148.34 275.13,148.34 275.13,148.34 C275.13,148.34 275.13,167.32 275.13,167.32 C275.13,167.32 269.38,167.32 269.38,167.32 C269.38,167.32 269.38,165.47 269.38,165.47 C269.38,165.47 267.32,167.79 263.72,167.79 C258.46,167.79 254.87,164.01 254.87,157.93z "/>
          <path id="_R_G_L_0_G_L_2_G_D_12_P_0" fill="#ffffff" fill-opacity="1" fill-rule="nonzero" d=" M292.11 167.32 C292.11,167.32 278.52,167.32 278.52,167.32 C278.52,167.32 278.52,143.64 278.52,143.64 C278.52,143.64 284.67,143.64 284.67,143.64 C284.67,143.64 284.67,161.95 284.67,161.95 C284.67,161.95 292.11,161.95 292.11,161.95 C292.11,161.95 292.11,167.32 292.11,167.32z "/>
          <path id="_R_G_L_0_G_L_2_G_D_13_P_0" fill="#ffffff" fill-opacity="1" fill-rule="nonzero" d=" M300.39 167.32 C300.39,167.32 294.66,167.32 294.66,167.32 C294.66,167.32 294.66,148.34 294.66,148.34 C294.66,148.34 300.39,148.34 300.39,148.34 C300.39,148.34 300.39,167.32 300.39,167.32z  M294.11 143.52 C294.11,141.6 295.65,140.03 297.56,140.03 C299.46,140.03 301.03,141.54 301.03,143.46 C301.03,145.41 299.46,146.98 297.49,146.98 C295.62,146.98 294.11,145.47 294.11,143.52z "/>
          <path id="_R_G_L_0_G_L_2_G_D_14_P_0" fill="#ffffff" fill-opacity="1" fill-rule="nonzero" d=" M312.41 152.89 C309.73,152.89 308.41,155.08 308.41,157.43 C308.41,159.87 309.86,161.88 312.38,161.88 C315.24,161.88 316.78,159.6 316.78,157.46 C316.78,154.93 315.36,152.89 312.41,152.89z  M302.84 157.46 C302.84,152.33 306.11,147.97 311.09,147.97 C313.49,147.97 315.12,148.74 316.75,150.47 C316.75,150.47 316.75,148.34 316.75,148.34 C316.75,148.34 322.22,148.34 322.22,148.34 C322.22,148.34 322.22,165.07 322.22,165.07 C322.22,170.94 317.82,174 312.53,174 C307.89,174 303.83,171.65 303.22,167.38 C303.22,167.38 309.64,167.38 309.64,167.38 C310.44,168.68 311.24,168.93 312.66,168.93 C314.66,168.93 316.5,168 316.5,165.93 C316.5,165.44 316.53,165 316.47,164.51 C315.36,165.5 313.3,166.7 311.06,166.7 C306.17,166.7 302.84,162.63 302.84,157.46z "/>
          <path id="_R_G_L_0_G_L_2_G_D_15_P_0" fill="#ffffff" fill-opacity="1" fill-rule="nonzero" d=" M334.99 153.29 C332.25,153.29 330.49,155.33 330.49,157.83 C330.49,160.46 332.16,162.63 334.8,162.63 C337.35,162.63 339.47,160.74 339.47,157.99 C339.47,155.21 337.51,153.29 334.99,153.29z  M324.68 157.93 C324.68,152.64 328.59,147.97 333.85,147.97 C336.15,147.97 337.6,148.75 339.29,150.29 C339.29,150.29 339.29,148.34 339.29,148.34 C339.29,148.34 344.95,148.34 344.95,148.34 C344.95,148.34 344.95,167.32 344.95,167.32 C344.95,167.32 339.2,167.32 339.2,167.32 C339.2,167.32 339.2,165.47 339.2,165.47 C339.2,165.47 337.14,167.79 333.54,167.79 C328.28,167.79 324.68,164.01 324.68,157.93z "/>
          <animate repeatCount="indefinite" dur="13s" begin="0s" fill="freeze" attributeName="opacity" from="0" to="0" keyTimes="0;0.0769231;0.3076923;0.3846154;1" values="0;1;1;0;0" keySplines="0.167 0.167 0.833 0.833;0.167 0 0.833 1;0.167 0.167 0.833 0.833;0 0 0 0" calcMode="spline"/>
        </g>
        <animate repeatCount="indefinite" dur="13s" begin="0s" fill="freeze" attributeName="opacity" from="1" to="0" keyTimes="0;0.3846154;0.3846154;1" values="1;1;0;0" keySplines="0 0 0 0;0 0 0 0;0 0 0 0" calcMode="spline"/>
      </g>
      <g id="_R_G_L_0_G_L_1_G_M">
        <g id="_R_G_L_0_G_L_1_G" transform="matrix(0.48, 0, 0, 0.48, 614.075806, 22.696573)">
          <path id="_R_G_L_0_G_L_1_G_D_0_P_0" fill="#191513" fill-opacity="1" fill-rule="nonzero" d=" M308.82 83.46 C276.31,32.18 231.19,0.35 180.65,0 C79.56,0.52 0,127.58 0,283.08 C0,360.74 19.93,431.43 52.46,482.69 C84.99,533.96 130.1,565.81 180.65,566 C231.19,565.81 276.31,533.96 308.82,482.69 C341.36,431.43 361.29,360.74 361.29,283.08 C361.29,205.4 341.36,134.72 308.82,83.46z "/>
          <path id="_R_G_L_0_G_L_1_G_D_1_P_0" fill="#f62711" fill-opacity="1" fill-rule="nonzero" d=" M341.63 174.85 C332.7,141.46 319.76,111.48 303.84,86.46 C287.76,61.4 268.87,41.14 248.06,27.17 C227.25,13.39 204.61,5.72 180.65,5.72 C156.69,5.72 134.04,13.39 113.23,27.17 C92.42,41.14 73.54,61.4 57.45,86.46 C41.53,111.48 28.59,141.46 19.67,174.85 C10.75,208.06 5.85,244.68 5.85,283.17 C5.85,359.82 25.63,429.48 57.45,479.55 C73.54,504.6 92.42,524.85 113.23,538.82 C134.04,552.63 156.69,560.28 180.65,560.28 C204.61,560.28 227.25,552.63 248.06,538.82 C268.87,524.85 287.76,504.6 303.84,479.55 C335.67,429.48 355.44,359.82 355.44,283.17 C355.44,244.68 350.54,208.06 341.63,174.85z "/>
          <path id="_R_G_L_0_G_L_1_G_D_2_P_0" fill="#191513" fill-opacity="1" fill-rule="nonzero" d=" M180.65 544.45 C91.28,543.92 21.42,426.42 21.42,283.17 C21.42,139.76 91.28,22.23 180.65,21.73 C270.01,22.23 339.87,139.76 339.87,283.17 C339.87,426.42 270.01,543.92 180.65,544.45z "/>
          <path id="_R_G_L_0_G_L_1_G_D_3_P_0" fill="#ffffff" fill-opacity="1" fill-rule="nonzero" d=" M180.65 129.37 C240.63,129.37 292.64,161.91 319.41,209.76 C312.23,170.78 299.82,135.84 283.2,107.57 C256.8,62.77 220.52,35.55 180.65,35.37 C140.77,35.55 104.49,62.77 78.1,107.57 C61.47,135.84 49.06,170.78 41.89,209.76 C68.65,161.91 120.66,129.37 180.65,129.37z "/>
          <path id="_R_G_L_0_G_L_1_G_D_4_P_0" fill="#ffffff" fill-opacity="1" fill-rule="nonzero" d=" M180.65 436.8 C120.66,436.8 68.82,404.28 42.07,356.42 C49.06,395.41 61.47,430.32 78.1,458.45 C91.38,480.74 106.94,498.98 124.43,511.4 C141.74,524 160.72,530.82 180.65,530.82 C200.58,530.82 219.55,524 236.86,511.4 C254.35,498.98 269.91,480.74 283.2,458.45 C299.82,430.32 312.23,395.41 319.23,356.42 C292.47,404.28 240.63,436.8 180.65,436.8z "/>
          <path id="_R_G_L_0_G_L_1_G_D_5_P_0" fill="#191513" fill-opacity="1" fill-rule="nonzero" d=" M233.04 438.11 C223.27,441.38 217.8,448.82 221.64,459.69 C224.23,467.09 232.01,471.62 241.58,468.45 C244.92,467.29 248.56,465.28 249.73,461.51 C249.73,461.51 249.92,461.61 249.92,461.61 C253.13,470.94 249.92,474.76 246.06,476.69 C242.24,478.49 238.73,477.57 236.45,474.89 C236.45,474.89 236.42,474.85 236.42,474.85 C236.42,474.85 229.99,479.18 229.99,479.18 C233.72,484.62 240.7,486.28 248.41,483.69 C257.43,480.68 264.59,472.08 258.57,455.01 C256.4,448.76 250.32,432.34 233.04,438.11z  M241.23 460.8 C237.5,462.02 232.49,462.04 230.16,455.43 C227.95,449.12 232.95,446.13 235.46,445.36 C240.55,443.68 244.06,445.93 245.86,450.92 C247.7,456.2 244.65,459.63 241.23,460.8z "/>
          <path id="_R_G_L_0_G_L_1_G_D_6_P_0" fill="#191513" fill-opacity="1" fill-rule="nonzero" d=" M183.44 117.94 C193.65,117.94 202.87,113.68 209.24,106.87 C209.24,106.87 201.68,100.13 201.68,100.13 C197.16,104.93 190.67,107.96 183.44,107.96 C169.74,107.96 158.63,97.16 158.63,83.82 C158.63,70.39 169.74,59.57 183.44,59.57 C190.67,59.57 197.16,62.62 201.68,67.41 C201.68,67.41 209.22,60.64 209.22,60.64 C202.81,53.86 193.65,49.59 183.44,49.59 C164.09,49.59 148.4,64.9 148.4,83.82 C148.4,102.64 164.09,117.94 183.44,117.94z "/>
          <path id="_R_G_L_0_G_L_1_G_D_7_P_0" fill="#191513" fill-opacity="1" fill-rule="nonzero" d=" M231.66 90.3 C231.66,90.3 239.14,128.42 239.14,128.42 C240.92,129.16 242.66,129.85 244.43,130.66 C244.43,130.66 255.04,105.27 255.04,105.27 C255.04,105.27 266.15,142.01 266.15,142.01 C270.49,144.74 274.76,147.75 278.82,150.91 C278.82,150.91 259.54,87.44 259.54,87.44 C259.54,87.44 253.53,82.81 253.53,82.81 C253.53,82.81 244.83,103.74 244.83,103.74 C244.83,103.74 237.6,70.24 237.6,70.24 C237.6,70.24 229.24,64.81 229.24,64.81 C229.24,64.81 211.78,120.59 211.78,120.59 C215.05,121.22 218.29,121.93 221.51,122.76 C221.51,122.76 231.66,90.3 231.66,90.3z "/>
          <path id="_R_G_L_0_G_L_1_G_D_8_P_0" fill="#191513" fill-opacity="1" fill-rule="nonzero" d=" M105.66 122.02 C105.66,122.02 136.1,110.23 136.1,110.23 C136.1,110.23 139.97,122.75 139.97,122.75 C143.12,121.92 146.36,121.22 149.6,120.59 C149.6,120.59 132.38,64.81 132.38,64.81 C132.38,64.81 119.78,72.7 119.78,72.7 C119.78,72.7 80.08,152.85 80.08,152.85 C85.07,148.83 90.38,145.09 95.85,141.64 C95.85,141.64 105.66,122.02 105.66,122.02z  M126.65 79.79 C126.65,79.79 133.2,100.91 133.2,100.91 C133.2,100.91 112.09,109.08 112.09,109.08 C112.09,109.08 126.65,79.79 126.65,79.79z "/>
          <path id="_R_G_L_0_G_L_1_G_D_9_P_0" fill="#191513" fill-opacity="1" fill-rule="nonzero" d=" M193.71 445.64 C183.44,446.51 176.28,452.39 177.25,463.85 C177.94,471.55 184.34,477.88 194.42,477.02 C197.97,476.76 201.95,475.66 204.06,472.35 C204.06,472.35 204.21,472.45 204.21,472.45 C204.96,482.27 200.85,485.23 196.66,486.07 C192.51,486.99 189.35,485.29 187.82,482.13 C187.82,482.13 187.82,482.06 187.82,482.06 C187.82,482.06 180.5,484.77 180.5,484.77 C182.71,490.8 189.12,494.08 197.21,493.45 C206.67,492.68 215.78,486.07 214.25,468.09 C213.74,461.49 211.94,444.19 193.71,445.64z  M196.02 469.51 C192.07,469.86 187.19,468.74 186.58,461.74 C186.05,455.02 191.63,453.39 194.31,453.22 C199.6,452.78 202.5,455.76 202.96,461.08 C203.44,466.65 199.6,469.27 196.02,469.51z "/>
          <path id="_R_G_L_0_G_L_1_G_D_10_P_0" fill="#191513" fill-opacity="1" fill-rule="nonzero" d=" M154.41 443.96 C145.33,442.36 137.38,445.93 135.99,453.88 C135.2,458.15 136.85,461.45 140.63,464.02 C132.15,465.87 131.06,472.04 130.64,474.36 C129.48,480.72 132.71,489.29 146.09,491.66 C159.83,493.99 165.69,485.56 166.78,479.71 C167.83,473.71 165.59,470.31 161,467.19 C165.53,466.03 167.96,462.88 168.68,458.89 C169.81,452.47 165.13,445.82 154.41,443.96z  M156.63 478.38 C156.05,481.59 152.81,485.29 147.48,484.32 C142.81,483.53 139.69,479.98 140.51,475.45 C141.4,470.47 146.13,469.05 149.87,469.76 C155.57,470.65 157.25,475.1 156.63,478.38z  M159.09 458.24 C158.48,461.53 155.36,463.54 151.32,462.85 C146.91,462.04 144.8,458.6 145.27,455.91 C145.89,452.45 149.14,450.58 153.75,451.35 C157.02,451.94 159.72,454.69 159.09,458.24z "/>
          <path id="_R_G_L_0_G_L_1_G_D_11_P_0" fill="#191513" fill-opacity="1" fill-rule="nonzero" d=" M105.02 439.42 C105.02,439.42 103.63,438.95 103.63,438.95 C103.63,438.95 101.64,444.48 101.64,444.48 C101.64,444.48 101.71,444.5 101.71,444.5 C101.71,444.5 100.73,447.18 100.73,447.18 C100.73,447.18 102.64,447.87 102.64,447.87 C107.68,449.63 111.12,449.63 113.42,448.7 C113.42,448.7 103.04,478.38 103.04,478.38 C103.04,478.38 112.94,481.65 112.94,481.65 C112.94,481.65 128.22,438.05 128.22,438.05 C128.22,438.05 119.23,435 119.23,435 C118.53,437.02 112.52,441.87 105.02,439.42z "/>
          <path id="_R_G_L_0_G_L_1_G_D_12_P_0" fill="#ffffff" fill-opacity="1" fill-rule="nonzero" d=" M279.19 304.98 C279.19,304.98 279.19,390.31 279.19,390.31 C304.02,368.67 321.34,338.7 326.59,304.98 C326.59,304.98 279.19,304.98 279.19,304.98z "/>
          <path id="_R_G_L_0_G_L_1_G_D_13_P_0" fill="#ffffff" fill-opacity="1" fill-rule="nonzero" d=" M188.79 426.59 C201.03,425.9 212.91,423.69 224.1,420.45 C224.1,420.45 224.1,304.98 224.1,304.98 C224.1,304.98 188.79,304.98 188.79,304.98 C188.79,304.98 188.79,426.59 188.79,426.59z "/>
          <path id="_R_G_L_0_G_L_1_G_D_14_P_0" fill="#ffffff" fill-opacity="1" fill-rule="nonzero" d=" M325.89 256.43 C319.78,224.65 303.07,196.61 279.19,176.02 C279.19,176.02 279.19,256.43 279.19,256.43 C279.19,256.43 325.89,256.43 325.89,256.43z "/>
          <path id="_R_G_L_0_G_L_1_G_D_15_P_0" fill="#ffffff" fill-opacity="1" fill-rule="nonzero" d=" M188.79 256.43 C188.79,256.43 224.1,256.43 224.1,256.43 C224.1,256.43 224.1,145.72 224.1,145.72 C212.73,142.5 201.03,140.28 188.79,139.6 C188.79,139.6 188.79,256.43 188.79,256.43z "/>
          <path id="_R_G_L_0_G_L_1_G_D_16_P_0" fill="#ffffff" fill-opacity="1" fill-rule="nonzero" d=" M279.19 175.87 C279.19,175.87 279.02,175.87 279.02,175.87 C279.08,175.92 279.13,175.97 279.19,176.02 C279.19,176.02 279.19,175.87 279.19,175.87z "/>
          <path id="_R_G_L_0_G_L_1_G_D_17_P_0" fill="#f62711" fill-opacity="1" fill-rule="nonzero" d=" M50.97 352.14 C50.97,352.14 50.97,214.01 50.97,214.01 C39.61,234.64 32.97,258.14 32.97,283.17 C32.97,308.04 39.61,331.54 50.97,352.14z "/>
          <path id="_R_G_L_0_G_L_1_G_D_18_P_0" fill="#f62711" fill-opacity="1" fill-rule="nonzero" d=" M231.81 148.28 C231.81,148.28 231.81,264.09 231.81,264.09 C231.81,264.09 188.77,264.09 188.77,264.09 C188.77,264.09 188.77,297.31 188.77,297.31 C188.77,297.31 231.81,297.49 231.81,297.49 C231.81,297.49 231.81,417.9 231.81,417.9 C246.12,412.8 259.43,405.45 271.33,396.44 C271.33,396.44 271.33,297.49 271.33,297.49 C271.33,297.49 327.8,297.49 327.8,297.49 C328.33,292.7 328.5,287.95 328.5,283.17 C328.5,276.71 327.97,270.23 327.1,264.09 C327.1,264.09 271.33,264.09 271.33,264.09 C271.33,264.09 271.33,169.73 271.33,169.73 C259.43,160.71 246.12,153.39 231.81,148.28z "/>
          <path id="_R_G_L_0_G_L_1_G_D_19_P_0" fill="#f62711" fill-opacity="1" fill-rule="nonzero" d=" M133.69 419.43 C142.61,422.33 151.71,424.37 161.32,425.73 C161.32,425.73 161.32,140.44 161.32,140.44 C151.71,141.63 142.61,143.86 133.69,146.76 C133.69,146.76 133.69,419.43 133.69,419.43z "/>
          <path id="_R_G_L_0_G_L_1_G_D_20_P_0" fill="#f62711" fill-opacity="1" fill-rule="nonzero" d=" M78.61 386.89 C87.01,394.73 96.1,401.36 106.06,407.18 C106.06,407.18 106.06,159.01 106.06,159.01 C96.1,164.63 87.01,171.43 78.61,179.28 C78.61,179.28 78.61,386.89 78.61,386.89z "/>
          <animate repeatCount="indefinite" dur="13s" begin="0s" fill="freeze" attributeName="opacity" from="0" to="0" keyTimes="0;0.3846154;0.4615385;0.6923077;0.7692308;1" values="0;0;1;1;0;0" keySplines="0.167 0.167 0.833 0.833;0.167 0.167 0.833 0.833;0.167 0 0.833 1;0.167 0.167 0.833 0.833;0 0 0 0" calcMode="spline"/>
        </g>
        <animate repeatCount="indefinite" dur="13s" begin="0s" fill="freeze" attributeName="opacity" from="0" to="0" keyTimes="0;0.3846154;0.3846157;0.7692308;0.7692308;1" values="0;0;1;1;0;0" keySplines="0 0 0 0;0 0 0 0;0 0 0 0;0 0 0 0;0 0 0 0" calcMode="spline"/>
      </g>
      <g id="_R_G_L_0_G_L_0_G_M">
        <g id="_R_G_L_0_G_L_0_G" transform=" translate(700.46, 160) scale(2.3, 2.3) translate(-297.524, -97.822)">
          <path id="_R_G_L_0_G_L_0_G_D_0_P_0" fill="#ec250a" fill-opacity="1" fill-rule="nonzero" d=" M360.27 46.77 C360.27,46.77 251.43,79.35 251.43,79.35 C241.82,82.14 234.74,88.47 234.75,98.18 C234.77,107.3 241.2,114.17 249.82,116.68 C249.82,116.68 249.82,116.68 249.83,116.68 C251.39,117.14 360.3,148.87 360.3,148.87 C360.3,148.87 360.27,46.77 360.27,46.77z "/>
          <path id="_R_G_L_0_G_L_0_G_D_1_P_0" fill="#ffffff" fill-opacity="1" fill-rule="nonzero" d=" M272.08 91.53 C271.73,93.2 270.52,94.28 267.46,94.28 C267.46,94.28 264.32,94.28 264.32,94.28 C264.32,94.28 265.51,88.78 265.51,88.78 C265.51,88.78 268.6,88.78 268.6,88.78 C271.91,88.78 272.46,89.75 272.08,91.53z  M270.86 101.76 C270.41,103.85 268.88,104.79 265.23,104.79 C265.23,104.79 262.1,104.79 262.1,104.79 C262.1,104.79 263.38,98.74 263.38,98.74 C263.38,98.74 266.52,98.74 266.52,98.74 C270.17,98.74 271.28,99.67 270.86,101.76z  M324.87 84.12 C320.06,84.12 318.87,87.55 318.87,87.55 C318.87,87.55 313.7,99.81 313.7,99.81 C313.7,99.81 313.59,99.81 313.59,99.81 C313.59,99.81 312.27,84.12 312.27,84.12 C312.27,84.12 304.14,84.12 304.14,84.12 C300.24,84.12 298.67,87.67 298.67,87.67 C298.67,87.67 292.47,99.81 292.47,99.81 C292.47,99.81 292.37,99.81 292.37,99.81 C292.37,99.81 292.34,84.12 292.34,84.12 C292.34,84.12 286.82,84.12 286.82,84.12 C283.17,84.12 282.38,86.09 282.22,87.21 C281.16,85.19 278.25,84.12 273.06,84.12 C273.06,84.12 259.97,84.12 259.97,84.12 C255.73,84.12 255.35,87.28 255.35,87.28 C255.35,87.28 250.58,109.24 250.58,109.24 C250.58,109.24 269.09,109.24 269.09,109.24 C274.52,109.24 276.26,108.69 278.21,107.29 C279.53,106.35 280.6,104.72 281.02,102.77 C281.93,98.46 278.87,96.75 275.39,96.54 C275.39,96.54 275.39,96.47 275.39,96.47 C278.56,95.74 281.26,94.34 282.27,91.52 C282.27,91.52 282.67,109.24 282.67,109.24 C282.67,109.24 291.51,109.24 291.51,109.24 C296.57,109.24 298.44,104.63 298.44,104.63 C298.44,104.63 303.85,93.97 303.85,93.97 C303.85,93.97 303.96,93.97 303.96,93.97 C303.96,93.97 305.21,109.24 305.21,109.24 C305.21,109.24 313.1,109.24 313.1,109.24 C318.82,109.24 320.76,104.28 320.76,104.28 C320.76,104.28 327.71,88.79 327.71,88.79 C327.71,88.79 323.37,109.24 323.37,109.24 C323.37,109.24 328.09,109.24 328.09,109.24 C334.18,109.24 334.99,104.38 334.99,104.38 C334.99,104.38 335.94,99.92 335.94,99.92 C335.94,99.92 342.71,99.92 342.71,99.92 C347.92,99.92 348.67,95.95 348.67,95.95 C348.67,95.95 348.95,94.63 348.95,94.63 C348.95,94.63 337.05,94.63 337.05,94.63 C337.05,94.63 338.16,89.41 338.16,89.41 C338.16,89.41 345.64,89.41 345.64,89.41 C350.75,89.41 351.48,85.63 351.48,85.63 C351.48,85.63 351.8,84.12 351.8,84.12 C351.8,84.12 324.87,84.12 324.87,84.12z "/>
          <animate repeatCount="indefinite" dur="13s" begin="0s" fill="freeze" attributeName="opacity" from="0" to="0" keyTimes="0;0.7692308;0.8461538;0.9230769;1" values="0;0;1;1;0" keySplines="0.167 0.167 0.833 0.833;0.167 0.167 0.833 0.833;0.167 0 0.833 1;0.167 0.167 0.833 0.833" calcMode="spline"/>
        </g>
        <animate repeatCount="indefinite" dur="13s" begin="0s" fill="freeze" attributeName="opacity" from="0" to="1" keyTimes="0;0.7692308;0.7692311;1" values="0;0;1;1" keySplines="0 0 0 0;0 0 0 0;0 0 0 0" calcMode="spline"/>
      </g>
    </g>
  </g>
  <g id="time_group">
    <animate attributeName="opacity" dur="13s" from="0" to="1"/>
  </g>
</svg>