<svg width="25" height="24" viewBox="0 0 25 24" fill="none" xmlns="http://www.w3.org/2000/svg">
<path d="M15.3051 12L24.6028 3.02576C24.8586 2.77872 24.9997 2.44914 25.0001 2.0977C25.0001 1.74606 24.859 1.41609 24.6028 1.16944L23.7881 0.383244C23.5319 0.135619 23.1904 0 22.8259 0C22.462 0 22.1205 0.135619 21.8644 0.383244L12.5666 9.3569L3.2685 0.383244C3.01274 0.135619 2.67106 0 2.30674 0C1.94282 0 1.60114 0.135619 1.34539 0.383244L0.530209 1.16944C-0.000304058 1.68148 -0.000304058 2.51431 0.530209 3.02576L9.82814 12L0.530209 20.9739C0.274253 21.2213 0.133335 21.5509 0.133335 21.9023C0.133335 22.2537 0.274253 22.5833 0.530209 22.8306L1.34519 23.6168C1.60094 23.8642 1.94282 24 2.30654 24C2.67086 24 3.01254 23.8642 3.2683 23.6168L12.5664 14.6429L21.8641 23.6168C22.1203 23.8642 22.4618 24 22.8257 24H22.8261C23.1902 24 23.5317 23.8642 23.7879 23.6168L24.6026 22.8306C24.8584 22.5835 24.9995 22.2537 24.9995 21.9023C24.9995 21.5509 24.8584 21.2213 24.6026 20.974L15.3051 12Z" fill="white"/>
</svg>
