<svg width="32" height="32" viewBox="0 0 32 32" fill="none" xmlns="http://www.w3.org/2000/svg">
    <g clip-path="url(#8slhgmxdla)">
        <path d="M16 32c8.837 0 16-7.163 16-16S24.837 0 16 0 0 7.163 0 16s7.163 16 16 16z" fill="#1A202C"/>
        <path d="M25.972 15.925V15.8l.155-.023v-.153l-.155-.016v-.426h.158v.286c.146 0 .148.08.143.182-.01.141-.01.284 0 .426a.66.66 0 0 0 .08.194h.052v.815l.187.12-.023.057h-.29v.439h.285v1.038h-.154v.867c-.148 0-.145.08-.142.182v.574h-.138v-.27h-.122l-.213.296h.34v.127l-.148.02.026.037a.778.778 0 0 0-.168.16c0 .022.052.092.119.126v.26c-.156.08-.122-.053-.138-.136h-.28a.31.31 0 0 0 .278.31v.414l-.14.026c-.089.151.098.374-.159.463v.238l-.3.234v.226c-.23.018-.11.19-.149.293l-.275.205c-.078.076.078.26-.156.286v.26l-.309.233v.239h-.26l-.207-.296h.322c0-.132 0-.132-.26-.15l-.023-.143s-.018-.016-.026-.016h-.205l-.462-.498-.047.033v-.26l-.041.016-.102-.145c-.039-.065-.158.016-.181-.125-.016-.09-.151-.16-.26-.26v-.217l-.164-.026v-.416l.156-.028v-.231l.255-.294v-.202l.166-.02v-.414c.236-.018.098-.207.16-.319l.149-.015v-.405c.26-.086.067-.307.166-.455.096 0 .12-.075.111-.184v-.571l.161-.024v-2.36l-.16-.033v-.577a.741.741 0 0 0-.078-.197l-.055.013v-.4c-.213 0-.112-.171-.15-.28l-.154-.02v-.595h-.3V13.9l-.276-.241v-.24a.394.394 0 0 1-.312-.274c0-.034-.072-.052-.127-.089v-.244l-.036.026-.457-.441.026-.018-.187-.125.02-.047h-.259l-.234-.3h-.241v.293l.15.015v.293l-.163.027c.006.11.006.221 0 .332 0 .093.083.246-.13.246v.26l-.306.236v.226l-.052-.016-.09.18h-.128c-.078.109-.143.205-.213.298a.688.688 0 0 1-.104.088l.127.084a.335.335 0 0 1-.26.283l-.207.295h.462v-.314h.317v.307h.304v.298h.244c.08.286.306.08.467.174.029.063.02.112-.09.11h-.494a.469.469 0 0 1-.148-.076v-.055h-.218c-.075-.067-.12-.132-.161-.132-.042 0-.083.068-.153.127h-.182c-.034.229-.197.11-.32.14l-.015-.283a1.271 1.271 0 0 0-.13.058.548.548 0 0 0-.104.088c-.037.04-.072.082-.103.127h.148l.244.309h.462l.205.16.052-.033v-.26h.519l.122.133c.034-.029.065-.062.101-.09.036-.03.042-.042.06-.04.018.003.067.031.067.047 0 .117.086.075.143.088v.138h-.415l-.034.171h-.4v.047l-.176.085v-.14h-.286l-.031-.16h-.595l.206.3h-.335v1.784a.612.612 0 0 1-.078.195h-.047v.438l.29-.194v.457c-.072.023-.217-.026-.134.143h.278v.425a.72.72 0 0 0 .075.195h.06v1.423l.303.22v-.919c0-.06-.06-.12-.09-.179l-.047.016v-.725l-.169-.023v-.433h.26l.233.306.12.015v.244l.039-.02.117.163h-.07l-.091.18h-.162v.29l.151.026v1.17l-.15.016-.029.05.18.122v.111l-.154.032v.26l.166.023v1.038h.135v.436h.169v-.29l.054-.034.26.283-.029.036h.26l.203.26.415.358.031-.023c0 .054 0 .111.018.166h-.181v.446c-.224-.039-.081-.22-.167-.314h-.233l-.226-.304h-.11c-.033.294-.033.294-.152.26v-.717h-.107a5.229 5.229 0 0 0-.044.294.364.364 0 0 1-.311-.294h-.136l-.03.161-.052.018a.858.858 0 0 0-.068-.116c-.036-.04-.08-.07-.14-.122v-.26h-.696l-.132.177-.047-.026v-.148h-.18v.74c0 .098 0 .192-.13.181v.436h.575v.26c-.057 0-.143.031-.146-.086 0-.02-.072-.039-.132-.067v.314l-.15.013c-.07.177.088.112.142.145l.02.146h.26v-.468h.14a.796.796 0 0 1 .094-.13s.055 0 .07.027c.016.025.08.1.153.194v.382h.429l.015-.15h.302v.24l.298.216v-.371l-.171-.182h.309v.286h.153c.023-.156.023-.156.14-.138.02.26.02.26.15.26v-.428l.172.018v.285l.309.016v.576h.42c.037.296.037.296.156.275v-.26l.042-.03.158.158.26-.184v-.26h.594c.023.07-.028.215.133.148.036-.283.036-.283.153-.26v.26h.171v-.28l.047-.029.26.296-.026.031h.26l.033-.171h.14l-.028.036.26.28.043-.033v-.294h.436v.161h.304v-.277l.174.088-.018.047h.15v.176c-.142-.065-.168.034-.192.13h-.181l.018.036-.208.15v.102c-.112.044-.285-.067-.283.15h-.306c.078.154-.26.12-.117.302h.241l.013-.143c.115-.062.304.075.322-.156h.26c.088-.26.314-.07.462-.158l.029-.15h.236l.19-.211c.059-.065.116-.132.176-.2.06-.067.26.065.285-.169h.26l.229-.306h.212l.208-.26.447-.449-.029-.041h.218l.195-.184v-.26l-.04-.031-.272.327c-.088.034-.26-.088-.28.14h-.26l.034.044-.45.447-.03-.032-.026.154h-.283c0 .238-.195.078-.275.158l-.016.153c-.135-.062-.16.037-.184.133h-.234l-.031.127-.299.015v-.28h-.309v-.29l-.049-.03-.138.154h-.223l-.083-.13c-.031.034-.054.08-.09.101a.26.26 0 0 1-.107.026l-.127-.13-.112.133h-.234c-.083-.26-.316-.052-.462-.161l-.026-.133h-.27l-.023.154h-.244l-.036-.167h-.26l-.034-.137h-.26c-.127-.231-.321-.08-.422-.122-.07.057-.138.127-.151.117a1.402 1.402 0 0 1-.182-.172l-.028.024-.026-.153h-.26v-.26c.093-.016.164 0 .125.13h.727c.09.26.314.073.467.166v.14h.548v.057c.06.037.125.065.194.08h.52c.07.06.114.115.166.13.052.016.07-.067.124-.122h.78l.124.128.104-.13h.324l.26-.205v-.104h.636c.078-.067.122-.101.163-.14.042-.04.076-.07.14-.133h.234l.026-.171h.418l.031-.047-.098-.09c-.034-.032-.07-.058-.104-.084l.026-.044h.104l.23-.3h.24l-.026-.032.44-.457.045.036.026-.155h.125v.174h.17v-.161h-.17v-.26l.166-.02c0-.177 0-.351.205-.307l.23-.182.11-.166a.52.52 0 0 0 .301.369c.093.041.148.168.195.23l.428.388v.2l.301.223v.392l-.298.236a1.58 1.58 0 0 0-.234.22 1.427 1.427 0 0 1-.332.294c-.026.018 0 .083-.021.135-.07.029-.223-.042-.156.145h-.26v.359c.06.098.081.184.13.21.172.086.154.15 0 .228v.096h-.309l-.015.156-.26.016v.26h-.477v.282l-.034-.018-.135.171h.322l-.024-.033.343-.304v-.104l.177-.08-.013-.055h.26l-.019-.031.169-.153v-.117h.124v.397l-.485.483h-.203l-.023.114-.21.159.02.033h-.228l-.231.307h-.215l-.333.392v.63h-.288l-.023.167h-.26l-.213.314h-.233c0 .231-.185.109-.278.145-.044.047-.086.089-.122.135-.037.047-.063.099-.104.164h-.239l-.05.14H25.7l-.034.138h-.26l-.015.166h-.283l-.026.117c-.104.078-.296-.086-.309.155h-.26l-.025.17h-.26c-.083.259-.314.056-.467.168l-.016.127h-.283c0 .195-.135.13-.236.145-.101.016-.26-.083-.23.135h-.284l-.023.146c-.185.096-.436-.083-.644.158h-.33c-.111.26-.332.075-.498.161l-.031.148h-.546a.648.648 0 0 0-.2.08l.019.05H19.9l.013.052a.696.696 0 0 1-.195.083h-.59l-.015.166h-.99v.057a.624.624 0 0 1-.194.08h-.779a.504.504 0 0 1-.163-.072l.015-.052h-.26c-.085.26-.298.062-.417.13l-.114-.138a.505.505 0 0 1-.078.099.454.454 0 0 1-.122.05v-.317h1.731c.101 0 .192 0 .182-.138h.883v-.052a.62.62 0 0 1 .194-.08h.725l.015-.17h.548v-.056a.653.653 0 0 1 .195-.078c.14-.013.283 0 .425 0l-.015-.047a.691.691 0 0 1 .197-.086c.133-.013.26 0 .418 0l.02-.166h.419c0-.195.132-.135.236-.14.104-.005.239.052.236-.138h.41c0-.054.016-.1.024-.147.15-.094.379.09.52-.156h.212l.026-.167h.278c0-.204.16-.116.26-.13.098-.012.228.058.194-.134h.283l.034-.169h.26l.046-.14h.226l-.018-.029.174-.142.03.023.019-.153h.26l.023-.107c.104-.08.293.083.311-.158h.278l.026-.166h.26c.047-.122.047-.122.29-.143l.016-.112.203-.137-.018-.042h.26l.049-.14h.236v-.324h-.203l-.226.186v.104h-.275l-.044.135h-.226l.018-.028-.202-.15-.02.316h-.26l-.024.153-.028-.029-.312.302.034.033c-.089.083-.294-.09-.312.156h-.26l-.233.306h-.223c-.042.125-.042.125-.434.143l-.228.296h-.366c-.029.231-.192.12-.32.146l-.013-.291c-.205 0-.109-.169-.142-.28l-.154-.021v-.26l-.303-.234v-.519c.083-.101.277.068.298-.153-.335-.06-.423-.039-.462.101-.28.037-.28.037-.32.15h-.396l-.032.167h-.233l-.05.14h-.573l-.026.15c-.184.092-.434-.082-.639.154h-.52v.06a.826.826 0 0 1-.194.078c-.13.012-.26 0-.402 0l-.037.17h-.747a.718.718 0 0 0-.2.081l.018.05h-4.836v-.047a.63.63 0 0 0-.195-.083h-.862l-.016-.166h-.706c-.013-.221-.171-.125-.277-.14-.107-.016-.206.036-.193-.136h-.73l-.025-.166h-.397c-.089-.272-.317-.067-.47-.179l-.016-.13h-.285c0-.148-.08-.145-.185-.142-.104.002-.117 0-.15-.125h-.574v-.12l-.239-.202c-.06-.015-.215.075-.21-.137h-.418l-.02-.148c-.118-.055-.305.08-.315-.156h-.26l-.23-.307h-.227v-.051a1.823 1.823 0 0 0-.194-.081.593.593 0 0 0-.15 0v-.135h-.255l.013.158h.26v.128l.158.023.026.16h.192l.301.26h.197l.018.149c.117.054.307-.084.317.153h.26c.018.236.21.085.311.153l.034.156h.42v.127h.284c0 .215.168.117.28.153l.018.153h.416c.015.242.205.096.342.18l-.106.17-.047-.02v.55l-.166.021v.55c-.236.018-.099.206-.161.32l-.28.015v.117l.205.148-.016.034h.216c.085.26.316.06.47.174v.13h.578v.057a.835.835 0 0 0 .195.08h.288a.601.601 0 0 1 .166.068l-.015.06h.607l.026.168h.995c0 .13.075.156.186.145.096-.011.193-.011.289 0a.833.833 0 0 1 .194.081v.057h1.039v.12l-.26.179h-.467c-.08-.275-.317-.05-.467-.174v-.122h-.31l-.025.153h-.148l-.016-.169h-.55a.723.723 0 0 1-.195-.078v-.054h-.992l.016-.05a.617.617 0 0 0-.197-.083 3.687 3.687 0 0 0-.418 0l-.019-.166h-.44l.012-.054a.846.846 0 0 0-.195-.083c-.1-.013-.205 0-.306 0a.484.484 0 0 1-.15-.076l.018-.052H8.87c0-.057-.015-.106-.023-.153-.088-.085-.296.094-.309-.14-.104-.067-.296.083-.314-.153h-.236l-.034-.166h-.26l-.05-.14h-.407l-.03-.156c-.11-.06-.3.08-.315-.153h-.26l-.23-.302h-.338l-.231-.277H5.59l-.031-.159c-.28-.028-.28-.028-.312-.145h-.239l-.316-.382v-.493h.132v.26h.13v.163h.3v.146h.294c.018.088-.018.22.135.142v-.283h-.41v-.163h-.311v-.28h-.133v-.128l-.342-.285.018-.034h-.278l-.016-.166H3.97l.018-.044a.764.764 0 0 1-.16-.099c-.081-.08-.149-.174-.222-.26l.026-.033h-.26l-.24-.31H2.9c0-.132 0-.132.146-.16v-.688c.096-.07.184-.13.26-.2.015-.016 0-.101 0-.101-.11 0-.094-.091-.13-.151a1.018 1.018 0 0 0-.26-.2l-.21-.275H2.48l-.231-.306h-.187l-.15-.172-.035.016v-.275l-.163-.026v-.398a.434.434 0 0 0 .304-.288c0-.03.072-.046.127-.08v-.226l.153-.02-.026-.03.309-.342v-.166l.345-.301-.026-.037h.24l.194.198v.23h.13l.116-.178.058.026v.737h.26l.24.322h.232c.018.233.194.101.275.163l.371.416h.203l.225.309h.26l-.018.036.187.145.205.26h.26v.13h.26V25h.113l.187.192v.231c-.236.026-.083.2-.143.317h.26l-.013-.042a.603.603 0 0 1 .195-.083h.73c.072.159.07.156.181.024.057-.056.119-.106.184-.151l-.026-.05h.44l-.016-.054a.681.681 0 0 1 .197-.083h.553l.018-.166h.574c.09-.26.314-.075.464-.164v-.283h-.26v-.057a.957.957 0 0 0-.194-.08c-.08-.016-.192.028-.145-.135h-.26l-.018-.13-.2-.132.018-.047h-.26v-.301h-.259l-.236-.31h-.223l.018-.03-.348-.296v-.218l-.26-.192-.285-.328-.04.024v-.278l-.178-.029v-.26h.174v-.168H7.38v.164h-.13v-.291l-.176-.04v-.22l-.138-.122-.135-.117v-.241l-.166-.026v-.273c-.213 0-.132-.163-.143-.26-.01-.095.042-.217-.135-.2v-.578l-.171-.034v-.444a.688.688 0 0 0-.08-.194H6.06V16.25h.046a.66.66 0 0 0 .08-.195v-.439l.154-.034c.08-.19-.096-.439.15-.618v-.223c.26-.085.07-.311.164-.467l.14-.018v-.359l.278-.233v-.377l.146-.026-.026-.023.314-.324.039.03v-.238l.277-.234v-.233a.459.459 0 0 0 .312-.278c.029-.065.104-.172.145-.166.143.018.133-.148.242-.17.034 0 .052-.09.08-.147a.392.392 0 0 0 .286-.26c.026-.067.093-.158.148-.163.114 0 .14-.089.195-.153.054-.065.179-.193.293-.312h.202l.224-.288.16-.11-.018-.043h.247l.213-.278c.083-.078.26.065.293-.171h.26v-.598l.164-.026v-1.76h-.162v1.06c0 .085 0 .153-.127.111V5.678c.226 0 .089-.2.17-.275.08-.075.173-.184.259-.26a.778.778 0 0 1 .163-.085V4.86l.322-.345.26-.208V2.864c.12-.075.137-.013.137.086v1.067l.167.015v1.16l.06-.015c.037.06.063.128.077.197v1.924h-.148v-1.02h-.166l-.018-.169a.494.494 0 0 0-.112.026c0 .101-.057.143-.145.182-.089.039-.094.096-.172.182v1.246h.161v.26c.26.168.068.415.135.55l.198.244h.379V8.51c.122-.04.194-.029.179.116h.779c.049 0 .098-.062.13-.127h.747l-.215.299h-.102c-.028.26-.028.26-.142.26v-.26a.61.61 0 0 0-.161.036c-.04.02-.063.065-.094.099l-.083-.13h-.519c-.016.23-.208.08-.317.15v.452l.21-.163.091.09c.018.016.042.042.06.04a.135.135 0 0 0 .073-.045.757.757 0 0 0 .072-.085l.115.127h.519l.137-.146.04.026v.418c-.133 0-.149.083-.125.185a.884.884 0 0 0 .088.179l.044-.016v.501l.291.226v.208l.205.2h.229c0 .065 0 .12.02.174h-.15v.29l-.156.019-.026.052.187.122v.7c.148-.046.14.047.137.138l-.186.096.015.042h-.275v-.392l.132-.112-.132-.125v-.547a.552.552 0 0 0-.083-.195h-.057v-.395H13.37l-.228.299-.12.013v.436h-.142v-1.075l-.172.021v.758h-.43l-.03.166h-.233l-.047.14h-.244l-.23.304h-.2c-.37.369-.717.717-1.062 1.067-.086.08-.146.197-.242.26a.519.519 0 0 0-.26.311h-.116v-.171h-.169v.158h.164v.26l-.115.013-.2.244v.18l-.137.033v.28l-.146.016c-.062.117.078.303-.155.32v.259c-.273.083-.06.316-.164.462l-.14.034v.534l-.052-.013a.62.62 0 0 0-.08.195v2.215c.014.069.041.135.08.194h.057v.405l.164.021v.452a.666.666 0 0 0 .083.194h.05v.242l.308.228v.205l.135.115.14.12v.163l.301.23v.232l.273.21c.073.088.145.184.228.26a.889.889 0 0 0 .159.106l-.016.026h.234l.016.112.26.2.051-.037c-.099-.135.12-.35-.158-.451v-.701l-.156-.006v-1.739h.163v.4l.26.223v-1.207l-.127-.107.137-.124v-.239l.04.023c.04-.053.086-.103.137-.148a.195.195 0 0 1 .12 0c0 .15.095.094.184.086v-.275c.236 0 .075-.197.155-.278h.115v.275h.158v-.26h-.164v-.332h.307v-.132h.446v-.158h-.428v.16h-.755v.26a.62.62 0 0 1-.104 0c-.021-.085-.031-.171-.047-.26h-.156v.26l-.041.031-.296-.298h-.24v-.164h.575c.111 0 .181-.018.184-.143h.39a1.53 1.53 0 0 1 .093-.13s.067.016.07.026c0 .07.02.135.106.104.042-.018.07-.075.125-.135h.205l.036-.176h.429v-.28l.163-.034v-.26h.14v.26l.159.023-.026.039.163.177v.519c-.17-.06-.119.078-.14.163h-.132c-.11.148.109.385-.171.468v.236l-.156.015v.61l.166-.015v-.26c.236-.124.07-.342.166-.467a.66.66 0 0 0 .14-.112c.021-.018.065-.049.073-.041.068.06.132.124.192.192 0 0-.023.052-.044.073-.073.078-.15.153-.223.233v.068h.42v-.836l-.153-.024V16.07h.164v.291l.049.029.26-.294.26-.21v-.649l.18-.138-.028-.041-.15-.031v-1.74l.163-.023v-.465l.182-.03v.729l-.044-.016c-.034.05-.096.099-.096.148v1.012l.32.385h.415c.07.017.136.045.197.083l-.016.054h.538l.026.159h.145l.039-.21.223.259.04-.208c.168-.06.15.068.163.154h.42l.034-.164h.402a.65.65 0 0 0 .195-.078v-.057h.275l.016-.304h.706l.192-.26-.036-.043h-.436l-.029-.047.327-.294v-.81h.143v.756l.309-.21v.337h.285l-.026-.034.32-.342v-.48l.156-.021-.026-.032.163-.194v-.229l-.05-.044-.124.18h-.233l-.04-.04.149-.184v-.83h-.247l.018-.047-.207-.136v-.26h.163v-.747l-.156.013.026.034-.117.138-.049-.029v-.49c0-.11-.044-.123-.135-.091v.874l-.184-.013v-.246l-.04-.034c-.033.031-.082.06-.093.096a.717.717 0 0 0 0 .182l-.174.026v.277l-.044.03-.135-.146h-.2l-.2.19v.993c-.096 0-.181 0-.111.136h.39l.087-.136c.028.037.06.07.094.1.044.026.09.048.138.067v.26l.166.023v.296l-.164-.013.029-.037-.192-.176v-.218h-.564l-.026.16h-.223c-.07.06-.112.128-.153.128-.042 0-.083-.068-.143-.12h-.163c-.055.058-.084.115-.122.12-.04.005-.063-.06-.102-.08a.208.208 0 0 0-.13-.016c-.036.018-.06.067-.09.104l-.078-.13h-.231l-.115.13-.119-.14h-.841c-.031-.066-.052-.156-.08-.159-.115 0-.079-.086-.089-.145h.558l-.02.041.207.14v-.763l-.13-.018a1.632 1.632 0 0 0-.09-.161.449.449 0 0 0-.078-.078c.026-.018.062-.034.078-.06.015-.025.046-.1.03-.124a.99.99 0 0 0-.16-.15l.02-.037h-.41v-.127h.395l.12-.192.057.023v.28l.044.042.26-.192v-.397h.163v.197l.26.306v.673h.127l.116-.18.06.026v.598h.296v-.117l-.184-.125.028-.052h.28v-.52l-.127-.21-.174-.124.021-.042h-.236v-.49l.325.314h.342c.042-.047.068-.107.112-.125.044-.018.096.034.109.104 0 .016.07.021.125.037v-.437l.155-.03.018-.26h.26V9.393h.18v.299c.152 0 .165-.042.11-.294h-.116v-.127l-.16-.023v-.423c-.092-.044-.149-.047-.146.07a1.39 1.39 0 0 1 0 .26c0 .038-.052.072-.078.106l-.052-.026V8.5h-.171v.288h-.24l-.337.346v.22l-.171.034v.597h-.441v.706c-.1.04-.14.024-.14-.085v-.78h.446l.026-.054c-.037-.028-.07-.075-.107-.08h-.358V9.25h-.14v-.174h.13v-.26l-.047-.028c-.026.037-.07.07-.078.11a.898.898 0 0 0 0 .186h-.163v-.26h-.302l-.028-.165h-.377l-.19-.21V8.25l.13-.12-.13-.103v-.52l.432-.347a.343.343 0 0 0-.29-.283V6.62a2.997 2.997 0 0 1-.26-.202l.07-.14.052.018V5.83c.145-.104.37.083.482-.169h.434a.579.579 0 0 0 .18-.08l-.014-.047h.231c0 .218.182.101.278.132l.135.15.039-.028v-.703h-.26l-.026-.17h-.368c-.073-.064-.115-.131-.156-.131-.042 0-.086.062-.159.124h-.345l-.03.166h-.556v-.579c.106-.023.106-.023.14.26h.275c0-.197.169-.101.28-.138l.019-.142.033.023a.932.932 0 0 1 .138-.148.138.138 0 0 1 .122.013c.052.034.09.088.14.125l.117.16.052-.025V4.18c.124 0 .124 0 .153.322l.296-.195v.32h.374c.083-.076.135-.117.181-.166.047-.05.032-.065.024-.073a.971.971 0 0 0-.135-.096v-.397h-.26l-.285.283-.042-.034v-.696h-.737v-.171h.288c0-.047.015-.104 0-.117-.08-.06-.174-.101-.26-.166-.036-.029-.041-.094-.067-.156l-.14-.018v-.244l-.278-.234v-.244l-.164-.034v-.3l.296.215v.228l.26.21c.106.052-.065.26.169.28v-.591l-.029.018a.78.78 0 0 1-.08-.195v-.425c.23.023.08.207.166.3l.132.019v.537c.148.08.145-.013.145-.103V.756c0-.078 0-.171.133-.12V1.8l.148.013c.062-.06-.039-.24.156-.164l.013-.26c.142.013.137-.083.132-.184-.005-.101 0-.19 0-.296h.239c.07.07.122.117.169.166.046.05.036.06.03.068-.004.008-.072.062-.126.106v.22l.13.118-.149.122c-.07.09.154.327-.122.41v.397l-.166.034v.275c.07 0 .135.052.177-.08.041-.133.143-.159.26-.26v.48l-.26.216v.26h.381l.242.272h.23l-.025.036.311.325c.122.104-.088.337.18.423v.26c-.138 0-.14.083-.135.184.005.101 0 .26 0 .402l-.167.013v1.039c-.228.02-.109.192-.132.26l-.504.467.034.041-.143.016v.428l.156.016v.26c.15.114.392-.097.478.17h.26c.08.276.306.05.451.138l.037.166h.516c.042.125.042.125.442.143l-.016.044a.683.683 0 0 0 .197.07h.452l.02.164h.281c0 .197.135.138.239.143.104.005.236-.052.236.137h.242l.026.161h.236l.413.405-.032.044h.26l.234.307h.192l.368.397h-.018c.096.064.19.133.278.208l-.083.137h-.065l.197.26h.242l.05.14h.215l.381.441.392.346.037-.029v.242l.277.236v.205l.307.23c.057.079-.104.26.137.284v.418l.13.02.132.2.045-.02v.519l.309.236v.244h-.11l-.153-.148-.036.029v.415l.036.031.153-.15h.107v.84l-.182.123.026.054h.299c-.018.047-.031.13-.055.133-.142.018-.067.104-.075.166h.288v-.257h-.171zm-1.02 11.451h.44v-.306h.445v-.306c.117-.026.29.093.337-.138h.405v-.293h-.288l-.026.163h-.26c-.036.057-.06.125-.085.128-.117 0-.083.082-.083.145h-.15l-.024.174h-.26v.132h-.163l-.024.174h-.26v.133h-.329c.07.223.22.098.327.132l-.003-.138zm.134-13.087v-.127c-.306-.028-.306-.028-.28.122h.286v.301h.293v-.296h-.299zm-.306 6.849h.436l.037-.044c-.07-.086-.138-.174-.21-.26 0 0-.063 0-.086.029a3.259 3.259 0 0 1-.143.148l-.029-.021v.15h-.171c-.104 0-.122.04-.09.128h.259l-.003-.13zM2.89 24.684v.174h.171l-.013-.158h-.163v-.436l-.055-.029-.124.182-.112.018v.26l.296-.01zm9.374-6.07h.164l-.026-.038.164-.195v-.371h-.1c-.02.096-.033.192-.046.29l-.15.024v.296h-.14v.625c0 .034.06.068.093.099l.036-.034.005-.695zm11.327-3.894v.301h.332l-.215-.295h-.122l-.083-.177h-.044v-.22l.171-.19h-.304v.568l.265.013zm-4.608 6.56v-.127c-.306-.03-.306-.03-.28.123h.283l.166.319h.26l-.019.031.159.135v-.34l-.26-.018-.016-.286c-.064.029-.153.05-.153.073 0 .117-.083.078-.14.09zm-7.295-2.523h-.14v.288l-.169.032v.519l-.135.117.13.111v.52l-.13.111.14.12v.379l.04.038c.088-.067.176-.132.259-.204 0 0-.016-.065-.037-.091a1.351 1.351 0 0 0-.109-.107l.151-.137-.13-.11v-.37h.052a.647.647 0 0 0 .075-.195v-.712l.042.021.117-.163h-.068l-.096-.177h.127c.042-.41.032-.441-.116-.418a.27.27 0 0 0 0 .05c-.003.13-.003.254-.003.378zm1.633 8.007c.102.007.204.007.306 0a.678.678 0 0 0 .177-.083v-.042c.283-.023.283-.023.26-.153h-.73l-.018-.153h-.296v.163h-.423a.34.34 0 0 1-.32.26c-.023-.26-.023-.26-.155-.22v.404h-.278c-.029-.153-.029-.153-.161-.145v.28l-.05.026-.142-.16h-.678v-.442h.434v-.615h.433v-.26l.042-.029.137.146h.242c.031-.231.197-.088.306-.133l.04.14h.259l-.021-.036.138-.096.16.159.037-.032V23.56l-.187-.184h-.26v.747c-.233-.026-.075-.215-.163-.296h-.138l-.015.291h-.244l.018.047-.218.145v.535c-.154.094-.382-.104-.468.169h-.275v.444c-.228-.031-.07-.231-.158-.304h-.283v.286l-.26.018v.29h-.306l.02.047-.204.133c0 .049.023.179-.13.098v-.26c.044-.026.087-.057.127-.09 0 0 0-.057-.023-.073-.024-.015-.102-.093-.187-.169l-.099.154h-.122c-.02-.073.026-.218-.148-.135v.26l-.041.03-.135-.137h-.26v.285l-.309-.192v.623c-.177-.033-.132.07-.13.161h.307v-.415l.049-.029c.026.037.075.073.078.112v.483h.283c.02.05.03.12.054.122.07.013.133.028.101.111-.018.045-.077.07-.124.11v.729a.503.503 0 0 0 .127-.07c.036-.05.069-.104.099-.158l.044.015v-.721h.127s.018 0 .026.015c.029.286.029.286.15.26v-.717a.77.77 0 0 1 .112 0c.016.14.024.278.034.418.117 0 .275-.109.338-.296l.205.187h.197v.418l-.042-.02-.135.204h-.241l-.031.042.228.22h.392c.016-.26.016-.26.143-.24v.7c.184-.067.12.083.145.156h.17v-.293l.048-.027.125.151h.343l.29-.26h.216v-.293l.052-.031a.85.85 0 0 0 .117.12c.04.019.083.034.127.043v.102l-.19.205h-.212l-.234.311h-.234v.26h.247c.044-.041.085-.084.125-.13.036-.041.064-.085.106-.14h.384l.031-.166h.26c.088-.26.327-.06.483-.174v-.26h.26a.665.665 0 0 1 .062-.13.5.5 0 0 1 .1-.077l-.142-.117v-.26h-.293l-.008-.19zm4.154.171h.163l-.026-.041.172-.2v-.167h.054a.612.612 0 0 0 .078-.194V25.14l.161-.034V22.92h-.15c-.032.293-.032.293-.143.26v-.393c.143 0 .158-.065.114-.17h-.26v.864l-.163.026v3.434h-.146v.294c-.088.018-.22-.019-.145.135h.286l.005-.434zm.612-6.986h.14v-1.324c0-.099 0-.192.143-.182v-.73c.307-.038.307-.038.28-.158h-.259v-.3h.153l-.026.033.12.14.041-.028v-.41l-.039-.03a.719.719 0 0 1-.09.105c-.055.03-.111.056-.17.077v-.765l-.054-.026c-.028.041-.075.078-.078.12v.492a.685.685 0 0 1-.083.198l-.057-.016v.727h-.32v.29l-.298-.202v2.856l.17.031v.434c.222-.034.08-.213.15-.299.106 0 .106 0 .135.143h.137c.055-.114-.08-.301.148-.314v-.395l-.05.013a.828.828 0 0 1-.077-.194 2.17 2.17 0 0 1 0-.291l-.016.005zm-4.018.306v.26l.145.034v.267h.158v-.418l-.16-.018v-.122h.173v-.924h.429v-.273c-.13.013-.197-.02-.143-.163l.153-.016v-.693l.26-.226v-.696l-.13-.031v-.26c-.182.042-.135-.085-.138-.176V15.18h-.142l-.029.138c-.088.07-.26-.055-.26.166h.26v.26l-.122.114.13.108v.219l-.13.116.13.11v.251h-.042l-.093.177h-.138v.594l-.176.032v.69l-.294.016v2.108l.159-.024zm2.666.14h.158v-.316H16.6c0-.042 0-.094-.029-.125a1.073 1.073 0 0 0-.15-.135l.023-.041h-.143c-.028.296-.028.296-.153.26v-.388h-.587c-.052.117.084.304-.137.315-.05.111.08.29-.153.308v.237l-.161.033c0 .26 0 .26-.146.32v.348c-.065.072-.124.109-.127.148-.013.173 0 .347 0 .519h.26v-.101l.26-.206h.35l.031-.155h.994l.024.153.044-.034.368.382.034-.195h.436c.024.158.024.158.138.138v-.283h-.28l-.024-.172h-.298v-.493l-.314-.356.025-.03-.155-.016.005-.115zm0-3.582v.748h.176v-.746h.138v.424l.044-.021.125.187v-.016l.195.164h.225c.068-.107-.08-.301.159-.32v-.236l.06.016c.025-.057.077-.117.067-.164-.023-.127.109-.311-.133-.374v-.54c-.26-.015-.067-.226-.174-.288l-.179-.143c.213-.03.213-.03.198-.148h-.455v.26l-.039.029-.137-.14H16.6v.29a.45.45 0 0 1-.088 0c-.026-.098-.044-.197-.065-.296h-.24l-.126.125-.133-.153-.174.148h-.213l.019-.026-.146-.115-.039.037v.26c-.181.04-.122-.089-.127-.162-.005-.072 0-.176 0-.26h-.164v1.008l.162.02v.45c.017.07.045.136.083.197l.051-.015v.22l.034-.018.15.21h.214a.13.13 0 0 0 .039-.015l.015-.14.15-.021c.021-.26.021-.26.138-.244l.016.241h.304v-.433h.275zm-5.047 4.912v.13l-.426.35v.581h.26l.044.128c.114.028.26-.063.26.15h.28l.02.15h.32v-.28l.04.024.259-.306c.026-.037.088-.04.124-.073.099-.091.187-.198.278-.296l.044.028v-.26l.042-.025.145.163h.366c.034.296.034.296.146.26v-1.602l-.058.016a.558.558 0 0 1-.07-.164v-1.233l-.314.234v2.01l-.052.025c-.026-.041-.072-.08-.072-.122v-.636h-.299l-.02.166h-.3v-.169c.089 0 .216.021.138-.137h-.285v-.14h.42l.037-.177h.275v-.26c-.127.024-.29-.085-.32.138h-.26l-.03.138h-.234l-.034.171h-.226c-.049.055-.085.093-.119.135l-.114.14h-.26v.306l-.093.172-.034-.016v.28h.122zm7.88 4.327h-.13l.018-.044-.143-.179-.05.226h-.285v.26l-.044.028-.14-.143h-.21l-.123.13a.86.86 0 0 0-.098-.096.775.775 0 0 0-.128-.047v1.039c.122 0 .122 0 .148-.14h.154v.415l.044-.02.137.202c.086-.029.14.026.135.145h.26c.02.236.21.08.311.156l.026.148h.395l.086.135a.383.383 0 0 1 .09-.101.575.575 0 0 1 .162-.042v.41l.26.198.043-.037v-.423h.275v-.299h.28c.154 0 .154 0 .13-.147h-.404v-.483l.207.16-.018.034h.727v.289h.26l-.021-.034.137-.102.21.21v.23h.302v-.157L22.54 28l-.164-.132c.069-.018.136-.043.2-.073.034-.02.052-.065.078-.098l.101.127h.26l.026-.052-.18-.114v-.125h.154v-.77l-.184.025v.52l-.26-.26-.101-.091-.117.127h-.836l-.013-.288-.052-.026-.117.176h-.26l-.015-.142c-.114-.06-.304.078-.317-.146h-.249v.301l-.171-.018v-.43H19.7l.218-.31h-.348v-.135h.174v-.168h-.159l-.018.155zm-4.91-1.313v.55h.174v-.299h.418c.041-.295.041-.295.156-.277v.568c.179.076.114-.085.15-.145h.14l.029.156h.454c-.03-.068-.049-.117-.075-.161a.883.883 0 0 0-.096-.102l.036-.041h.26v-.441l.171.018v.28l.055.029.122-.18h.244c.026.154.026.154.145.143v-2.224l-.05-.026-.126.197H16.6l-.018.26h-.416c-.03.07.026.225-.153.14v-.418a.61.61 0 0 0-.158.039.395.395 0 0 0-.088.106l-.081-.122h-.278v.26l-.039.028-.137-.148h-.561c-.07.172.083.112.145.146v.584l-.163.034v.402c-.229.023-.094.21-.161.304a.392.392 0 0 0-.104.116c.073.065.158.13.27.224zm1.194 2.772v.315h.312v-.564h.545l-.016.04c.055.028.13.098.156.082a.777.777 0 0 0 .19-.192c.036-.046.07-.094.098-.145l.034.018v-.87a.375.375 0 0 0-.125.034.524.524 0 0 0-.088.106l-.106-.166a.588.588 0 0 1-.122.12.157.157 0 0 1-.128 0c-.033-.016-.052-.063-.077-.097l-.102.125h-.275v-.26h-.29l-.019-.155-.052-.026-.117.179-.124.023v.26l-.04.028-.259-.282h-.26v.285l-.298-.195v1.08l.171.034v.854h.26v-.316h.571c.075-.102-.075-.286.161-.315zm-2.217-1.884.135-.042v-1.874c.055-.05.114-.078.13-.12.031-.085-.034-.104-.104-.106 0 0-.015-.04-.028-.055-.013-.015-.068-.06-.102-.088l-.044.034v.296h-.285l.018.034-.169.147v.548c.015.07.042.135.08.195l.047-.013v.387h-.05a.651.651 0 0 0-.077.195c-.013.145 0 .293 0 .417.047.03.092.066.132.104 0 0 0 .05-.028.068-.029.018-.068.06-.101.09l.137.089v.208l.197.205.245-.18c-.032-.1.09-.259-.133-.29v-.25zm.6 1.939-.156.179v.192c.042.016.099.018.12.047a.387.387 0 0 1 .025.135h.148c.021-.073-.025-.216.148-.133v.566c.117.047.135 0 .135-.098v-.92a.652.652 0 0 0-.077-.194h-.058v-.849l-.062.016a.486.486 0 0 1-.067-.164v-.927l-.174.018v1.299l-.045-.021-.103.155c.051.034.1.07.148.11 0 0-.026.052-.045.072l-.111.122c.055.034.107.07.156.112 0 0 0 .052-.026.07a.87.87 0 0 1-.107.088l.15.125zm-6.16-.187c.054.15.17.176.477.112-.018-.221-.203-.058-.296-.143l-.039-.112h-.234l-.03-.166h-.26l-.229-.309h-.21c-.023-.228-.21-.09-.29-.137l-.23-.304h-.186l-.192-.174v.623h.415l.036.171h.24l.03.138h.283v.145c.115.068.304-.075.322.159l.392-.003zm7.38-20.971h.543l.044-.13c.12 0 .26-.065.26.125h.298V6.12c-.114-.055-.304.083-.314-.148h-.857c0 .26-.226.062-.312.155v.307c.056-.02.11-.045.161-.073a.397.397 0 0 0 .073-.086l.104.133zm.12 1.916.275.2v-.33h.17v.29l.048.027.148-.161h.384v-.437c.174.026.153-.064.124-.166h-.244l-.033.159c-.26 0-.26 0-.314.132h-.52l-.197-.169v.317c.166-.06.11.08.158.138zm4.286 14.278v-.439h-.26l-.239-.28h-.241l.026-.036-.366-.431h-.096v.475c.137-.063.163.039.184.132h.236l.031.138h.275c.024.153.33.436.45.428v.013zm-.78-2.653.045.031v.55l.16-.015v-.828l-.3-.213v.285l-.133.032v.334l.229-.176zm-6.7-10.87h-.239v.314h.424c.015.291.015.291.137.28v-.57a.807.807 0 0 1-.124-.065.496.496 0 0 1-.081-.097l-.117.138zm6.605-.14h-.473l.21.296.128.02v.548a.3.3 0 0 0 .26-.26.81.81 0 0 1-.125-.09s0-.052.026-.07a.87.87 0 0 1 .106-.088l-.135-.091v-.26l.003-.005zm-8.048 11.828v.836c0 .106.028.145.132.098v-1.428c-.124 0-.124 0-.137.19-.055.065-.122.104-.122.148s.062.083.124.156h.003zM15.543 7.15h.47v-.283l-.135-.026c-.088-.09.068-.28-.169-.296v.294l-.166.03v.281zm2.614 20.803h.193l.03-.037-.16-.16v-.24h-.273l.021-.033-.171-.133v.291l.36.312zM16.16 7.29h.485l-.19-.205v-.22h-.296v.425zm-2.077 9.821v-.724c-.138-.078-.143.05-.203.104-.06.054-.127.029-.096.112.018.041.075.07.14.127v.381h.159zm-8.827 8.497c.052.154.083.164.39.104l-.219-.158-.026-.12h-.246c.015-.155-.063-.158-.164-.119v.293h.265zm18.069 2.376v.135h.555v-.293h-.27c0 .225-.187.093-.293.158h.008zm5.802-4.354.26.205c.052.042 0 .19.168.117v-.26l-.033.019-.12-.172-.28-.207.005.298zm-2.856-5.192v-.426h-.285v.429l.285-.003zM23.9 16.05h.29v-.426h-.29v.426zm1.763.612v-.337l-.26.215v.423c.135.05.133-.036.13-.119-.003-.083-.023-.197.13-.182zm-.722-1.038v-.444h-.28l-.04.036.16.205v.19l.16.013zm-6.61 6.046v.044l-.241.013v.153h.428v-.332l-.187.122zM5.956 26.047l.153.156.036-.031v-.283h-.428v.158h.239zm18.977-11.015v-.434h-.277l-.032.037.156.168v.229h.153zm-6.256 5.402v.26h.153l-.026-.034.164-.197v-.231l-.291.202zm7.282-1.677c-.146.073-.114-.26-.294-.114v.241h.156c.016.078-.026.219.138.14v-.267zm-6.22-6.508.26-.223v-.296l-.26.218v.3zM16.987 5.81l.054-.042v-.452c0-.109-.044-.12-.137-.085v.46c.005.043.054.082.083.121v-.002zm7.96 16.355h-.3a.275.275 0 0 0 .185.26.28.28 0 0 0 .112.015l.002-.275zM19.714 9.507V9.08h-.153v.428h.153zm.779-.132h-.156v.436h.156v-.436zm-1.947 13.224v-.428h-.156v.428h.156zm.592 6.413a.281.281 0 0 0 .283-.29h-.296l.013.29zm5.49-12.656h.33v-.288h-.111l-.218.288zm.78-2.503h-.34l.22.289h.12v-.289zm-1.039 1.314a.288.288 0 0 0 .283-.26h-.283v.26zm1.062.013c0 .145.143.298.26.26v-.26h-.26zM10.076 27.51v-.259a.286.286 0 0 0-.278.26h.278zm14.712-13.964h.291a.303.303 0 0 0-.291-.26v.26zM6.903 18.293v-.444c-.21.067-.103.23-.124.337-.02.107 0 .161.124.107zm-.122-1.63c.146 0 .167-.07.117-.416-.14-.008-.14-.008-.117.415zm18.433 1.017v-.413c-.138 0-.138 0-.127.304.005.13.005.13.13.106l-.003.003zM6.475 19.183c.029-.43.026-.436-.122-.402-.041.405-.041.405.122.402zm18.487-2.677v.304h.28c-.067-.109-.122-.202-.187-.29-.01-.026-.06-.014-.093-.014zm-.322 1.039c.023-.436.023-.436-.125-.4-.023.405-.023.405.133.4h-.008zm-17.591-.286v.156h.288v-.156h-.288zm13.43-6.568-.154.016v.301l.153-.018v-.299zm9.22 13.412v.29h.156v-.28l-.155-.01zm-11.606-1.94h-.156v.289h.156v-.289zm6.415-4.008h-.164v.278h.164v-.278zm.724 3.894v.283h.156v-.296l-.156.013zM7.649 16.662v-.16h-.28v.16h.28zm17.297 5.348v-.275h-.158v.283l.158-.008zm.291-.415v.285h.15v-.285h-.15zM7.81 18.145v.303h.15v-.303h-.15zm16.98 3.432h.286v-.156h-.285v.156zM16.297 19.5h.156v-.294h-.156v.294zm9.84 0v-.294h-.151v.291l.15.003zm-21.91 5.192v.29h.154v-.29h-.153zm20.123-8.308v.278h.15v-.288l-.15.01zm-.018 4.603h-.29v.156h.29v-.156zm-.877-.898v.156h.29v-.156h-.29zm-8.635 5.66-.153.018v.298l.153-.015v-.301zm-8.206-5.657v.29h.155v-.29h-.155zM15.107 7.61v.293h.153V7.61h-.153zm9.395 8.307v-.293h-.155v.283l.155.01zm-4.332-6.41v-.26h-.154v.26h.154zm-3.43 8.638.153-.016v-.26l-.153.013v.263zm5.216-6.254h.158v-.26h-.158v.26zm1.625.903h-.26v.156h.26v-.156zm-5.34 2.253v.278c.124.052.14-.015.13-.106-.011-.091.046-.21-.13-.171zM6.893 29.448c0-.143 0-.143-.26-.112-.023.143-.02.143.26.112zM19.422 8.923v-.277c-.127 0-.135 0-.13.106.005.075-.057.21.13.171zm6.737 7.461c-.034.278-.031.284.111.26.034-.265.032-.27-.111-.26zm-18.49 2.937c.299.03.299.03.28-.115-.272-.026-.272-.026-.28.115zm13.407-9.928v.286c.158.044.124-.068.124-.143 0-.075.034-.192-.124-.143zm-7.591 18.744c0 .138 0 .135.187.132.103 0 .13-.036.09-.132h-.277zM7.044 13.991c-.14 0-.138 0-.135.19 0 .1.036.127.135.09v-.28zm8.98 5.057c.14 0 .134 0 .132-.187 0-.101-.036-.13-.133-.09v.277zm8.491-5.192c-.015.298-.015.298.125.26.008-.263.008-.263-.125-.258v-.002zM8.238 25.878c-.21 0-.114.143-.127.221 0 .026.06.065.093.099l.034-.037v-.283zM21.384 9.505c-.028.311-.028.311.125.288-.041-.088.091-.247-.125-.286v-.002zM7.532 26.047c.21 0 .111-.14.124-.218 0-.026-.06-.065-.09-.099l-.034.034v.283zm3.284-3.115c.213-.063.08-.213.12-.317-.154.018-.154.018-.12.312v.005zm13.832-10.288c-.013-.05-.018-.117-.031-.12a1.462 1.462 0 0 0-.26 0v.112l.29.008zm-10.143 10.56c.034-.277.031-.283-.112-.275-.034.278-.031.283.112.275zm9.086-7.73h.278c.052-.123-.016-.14-.107-.13-.09.01-.202-.058-.153.13h-.018zM13.33 23.341c.148 0 .153 0 .117-.278-.13-.005-.13-.005-.117.278zM8.43 26.753c.275.034.283.031.26-.109-.263-.036-.27-.034-.26.11zM22.57 12.53c-.31-.034-.31-.034-.293.122.097-.039.25.089.294-.122zM12.006 4.78c-.029.3-.029.3.114.281.026-.27.026-.27-.114-.28zm-1.506 19.316c.14 0 .135 0 .133-.187 0-.104-.037-.13-.133-.09v.277zm13.414-7.298c.278.034.283.031.26-.111-.265-.024-.27-.024-.26.111zm-3.92 11.896c.036-.276.034-.283-.11-.26-.033.262-.03.27.11.26zm-5.345.314v-.28c-.125-.05-.143.017-.13.108.013.091-.057.21.13.172zm1.817-11.013c-.034.312-.034.312.125.296-.03-.096.096-.25-.115-.296h-.01zm5.343-7.303v-.241c-.128-.05-.135.023-.13.111.005.089-.024.182.13.13zm-.312-.683c-.14 0-.14 0-.111.237.147.013.147.013.111-.236zm-8.185.26c.026-.26.026-.26-.128-.26.042.086-.09.242.128.258v.002zm10.26 3.258c.012-.14.012-.14-.237-.111-.013.132-.013.132.236.109v.002zm-.26.314c.28 0 .28 0 .241-.135-.072.04-.23-.083-.236.133l-.005.002zm1.337 5.037c.176.047.122-.078.132-.153.01-.076-.034-.128-.132-.091v.244zm-5.78.444c.188-.024.092-.156.11-.26-.216.016-.094.166-.11.26zm-6.162 6.88c-.083.028-.24-.094-.24.108.071-.026.24.094.24-.109zm11.5-2.989v-.156h-.153v.156h.153zm-10.573-.439v-.168h-.161v.158l.16.01zM9 22.613v.155h.153v-.155h-.153zm15.029-.444v.166h.163v-.156l-.163-.01zm-14.876 0h-.153v.155h.153v-.155zm16.08-2.077v.155h.154v-.155h-.154zm-12.811.155c.044-.148 0-.184-.148-.15v.15h.148zm13.263-.47c-.041.149 0 .188.15.151v-.15h-.15zm-12.669 0 .016.17.163-.016-.02-.153h-.159zm-5.97.17.168-.016-.008-.153-.153.015-.008.153zm9.244 7.57v.155h.153v-.155h-.153zm8.204 0-.167.015v.164l.154-.016.013-.163zm-11.61-8.02-.016-.166h-.163l.015.153.164.013zm-6.28-.158v.166h.16v-.156l-.16-.01zm17.594-.45h-.17v.162h.16l.01-.161zm-7.293.167-.013-.166h-.16v.155l.173.01zm-.607-.161v.156h.153v-.156h-.153zm-6.106 9.683.166-.015-.013-.164-.153.016v.163zm15.493-10.43c-.041.147 0 .186.15.15v-.15h-.15zm-1.487-2.96c-.148-.045-.187 0-.15.148h.15v-.148zm0-.294-.016-.168-.163.015.015.153h.164zm-.167-1.794v.156h.154V13.1h-.154zm-1.633-.306c-.041.148 0 .187.151.15v-.15h-.15zm-12.796.158-.013-.168-.163.015.015.153h.161zm13.708-1.638-.016-.168-.16.015v.153h.176zm-1.36-.446h.155v-.153h-.156v.153zm-11.917-.15c-.145-.037-.19 0-.15.152h.15v-.153zm12.368-.286c.145.036.19 0 .15-.154h-.15v.154zm-8.785 0c.044-.148-.013-.187-.148-.15v.15h.148zm-2.38-3.427c-.17-.018-.17-.018-.149.148h.148v-.148zm5.506-.301c.166.015.166.015.145-.148h-.145v.148zm-10.14 11.75.015.166.16-.013-.012-.153h-.164z" fill="#90949C"/>
        <path d="M21.203 15.928V15.8l.158-.023.02-.156h.41c.016-.236.203-.098.305-.15 0-.12 0-.12-.076-.133-.08-.078-.127-.122-.171-.168-.044-.047-.039-.047-.034-.065a.217.217 0 0 1 .052-.065c.02-.021.063-.065.096-.096l-.03-.04h-.245c0-.08-.067-.165.073-.178.018 0 .034-.034.049-.052l.062-.078c.022.03.047.057.076.08a.499.499 0 0 1 .122.091l.288.312.034-.019v.286h-.14v.488c0 .037.062.068.093.101l.036-.036v-.558h.148c.08.083-.078.28.159.278v.41h.057c.038.06.064.125.078.195V18.3c0 .086.015.18-.133.154v.719c-.275.083-.07.304-.171.46l-.138.028v.402h-.057a.725.725 0 0 0-.078.195c0 .086 0 .179-.137.153v.247l-.307.228v.19c-.16.184-.392.26-.475.498l-.137.016v.236l-.398.369v-.019l-.142.198-.034-.018v.386c-.26.086-.057.317-.177.473h-.127v-.597l.171-.026v-.377l.133-.116-.122-.115v-.39l.036.022.112-.161-.156-.101c.036-.03.088-.052.104-.089a.177.177 0 0 0-.02-.127c0-.018-.055-.018-.09-.029v-.568l-.152-.031c-.042-.107.067-.26-.148-.26v-.158h.451c-.06-.146.055-.135.138-.156v-.234l.306-.233v-.26c.26-.018.065-.226.154-.311l.148-.026v-.237l.14-.044v-.436l.168-.031v-.4h.052c.033-.062.06-.127.08-.195.01-.086.01-.173 0-.26 0-.1 0-.191.128-.183v-1.299h-.413l-.044.128h-.285v.013zm.97 2.365-.051.041v.639c0 .034.06.067.093.099a3.38 3.38 0 0 0 .034-.675c.005-.034-.047-.07-.075-.104zm.52-1.039v-.485c0-.15-.05-.12-.143-.078v.275l-.197.02c.085.097.145.175.215.242.031.026.08.021.135.031l-.01-.005zm-.122.187c-.037.418-.032.436.116.41.04-.41.037-.41-.116-.41zm-1.945 3.515c.177.047.122-.078.133-.153.01-.075-.034-.127-.133-.09v.243zm1.654-3.543c-.26.038-.122.184-.158.288.23-.018.093-.174.158-.288zm.122.734v.156h.156v-.156h-.156zM20.175 30.043v-.115c.09-.09.298.091.316-.158h.55l.03-.166h.4l-.017-.055a.812.812 0 0 1 .198-.085h.413l.148.166.036-.016v.52c0 .043-.065.085-.133.111v.275h-.298v-.278l-.044-.033-.166.148h-.52l-.026.166h-.389l-.117.143-.13-.148-.15.106.02.036h-.259v.058a.94.94 0 0 1-.241.08h-.52v-.26h-.17v.403h-.551v-.735h.55l.026-.153.029.023c.054-.063.114-.121.179-.174l.158.122h.218l.044-.132c.107.02.26-.073.26.135h.158v.301c.156 0 .166-.041.112-.296l-.114.01zm-.738.176c-.036.415-.028.436.117.41.034-.392.031-.405-.117-.41zM12.187 30.23l.114-.182h.12l.015.163h.239c.077.333.041.561-.107.6v.413h-.381l-.14-.125c-.019-.018-.045-.044-.04-.06a.37.37 0 0 1 .047-.072c.018-.024.073-.086.11-.13l-.037-.036h-.42c-.014-.231-.188-.11-.276-.143l-.127-.135-.099.124c-.244.026-.244.026-.298-.124h-.398l-.03-.171h-.284v-.426l.174-.024v-.418h.26c-.016.115.112.26-.12.314v.419h.26a.86.86 0 0 1 .083-.162 1.21 1.21 0 0 1 .146-.13h.802c.02.221.207.084.322.149v.135l.065.02zM17.791 30.351v-.298h.286c.088.195-.084.452.148.618v.26c-.086.095-.299-.094-.31.155h-.487l-.219-.166c-.103-.052.081-.26-.166-.273v.437h-.734c-.016-.203-.164-.11-.283-.128l-.016.26-.125.023-.116.18-.052-.027v-.415l-.172-.031v-.348l-.163-.205.039-.039h.278l.02.156h.283l.029-.156h.26v.156h.288l.026-.159h1.186zM13.025 30.525l.161-.015v-.462h.574v.444c.18.08.13-.068.156-.138h.558l.122.18.052-.03v-.153h.26c.103-.085-.065-.29.166-.314v1.039h-.192c-.076.065-.115.12-.17.137-.054.018-.07-.065-.124-.124h-.63l-.128-.138-.109.13c-.122-.044-.322.114-.436-.135h-.26v-.42zm1.921.442c.032-.312.032-.312-.124-.291.041.093-.088.25.125.29zm-1.627-.75c0 .049.018.116.03.119.087.009.174.009.26 0 0 0 0-.073.014-.112l-.304-.008zm.885.464c-.148 0-.153 0-.114.278.13-.018.13-.018.114-.278zM11.997 1.366v-.16l-.159-.024V.907c-.225-.019-.132-.182-.14-.294-.008-.111 0-.15.133-.2V.187l.155-.026c.04-.049-.03-.212.143-.145v.26c-.236.12-.093.327-.124.485 0 .05.046.11.072.164l.052-.016v.457h-.132z" fill="#90949C"/>
        <path d="M11.992 1.36v.26l.057-.013c.036.061.062.127.078.195v.779c0 .088 0 .145-.13.101v-.721l-.169-.032v-.563h.166l-.002-.005zM20.494 14.6v-.131c.083-.068.15-.13.223-.182.073-.052.05-.224.21-.127l.016-.17h.26v.289h-.26c0 .135-.054.169-.171.138l-.018.168h-.26v.016zM14.523 31.683h.865l.015.159h-.688l-.15.158-.042-.02v-.297zM20.93 14.73c0-.062-.029-.134.086-.145.028 0 .049-.09.08-.158h.26l.03-.138h.294v.128l-.158.02-.018.156h-.28l-.035.138h-.26zM12.57 7.298h.135v.984c0 .029-.057.057-.088.086l-.042-.013V7.316l-.005-.018zM16.156 9.819h-.296v-.576h.161v.44h.14v.141l-.005-.005z" fill="#90949C"/>
        <path d="M21.68 14.29v-.14h.125l.023-.157h.423v.138c-.104.07-.301-.083-.317.156h-.26l.006.002z" fill="#90949C"/>
        <path d="M25.834 14.902h-.106l-.154.15-.036-.03v-.416l.036-.028.154.148h.109l-.003.176z" fill="#1A202C"/>
        <path d="M20.927 14.726v.306h-.116l-.156.145-.034-.03v-.224l.026.02.138-.173-.024-.04h.161l.005-.004zM22.127 14.637v-.34h.26v.096c-.076.075-.151.143-.26.244zM17.182 10.868v-.286h.155v.307l-.155-.021zM20.175 13.983h.298v.156h-.293v-.161l-.005.005zM21.683 14.15h-.298l-.016-.16h.31v.164l.004-.005zM15.704 31.673v.306h-.143v-.29l.143-.016zM21.2 15.177h.296v.156h-.304v-.16l.008.004zM20.183 15.785h-.299l-.013-.161h.306v.16h.006zM20.18 14.733v-.132h.314v.132h-.32.006zM14.832 4.035c.18-.042.12.088.127.16.008.074 0 .172-.127.118v-.278zM6.335 24.996v-.127h.26v.127H6.33h.005zM21.205 15.172h-.26v-.145h.26v.145zM27.177 23.96v-.148h.153v.158l-.153-.01zM4.533 23.672v-.161h.156v.15l-.156.01z" fill="#90949C"/>
        <path d="M13.012 11.766v-.436l.12-.013.228-.299h1.012v.408h.057c.04.059.068.125.083.195.013.192 0 .384 0 .547l.135.125-.132.112v.392l-.143.02v.452l-.163.024v1.744l.15.031.029.042-.182.137v.636l-.26.21-.26.294-.049-.028v-.289h-.163v1.478l.153.023v.867h-.426c0-.02-.023-.057 0-.067.073-.081.15-.156.223-.234.021-.02.05-.065.045-.073a2.233 2.233 0 0 0-.192-.192s-.052.023-.073.042a.662.662 0 0 1-.14.111c-.096.125.07.343-.166.468v.26l-.167.015v-.62l.156-.016v-.237c.28-.083.062-.319.171-.467h.133c.02-.085-.031-.223.14-.163v-.52l-.163-.176.026-.04-.159-.023v-.26h-.14v-.321h-.325v-.56h-.615l.35.396c.032.04.123.06.123.089 0 .114.085.083.148.083a.37.37 0 0 0 .033.135c.043.051.091.098.143.14l-.023.029h.148v.26l-.164.033v.283h-.426l-.036.176h-.205c-.054.06-.083.117-.125.135-.085.032-.1-.033-.106-.103 0 0-.062-.034-.07-.026a1.568 1.568 0 0 0-.094.13h-.389c0 .124-.073.147-.184.142h-.574v.164h.239l.296.296.041-.032v-.254h.156c.016.096.026.182.047.26.034.003.069.003.104 0v-.26h.75v.133h-.317v.314h-.114c-.08.08.08.277-.156.277v.283c-.088 0-.179.065-.184-.085a.195.195 0 0 0-.12 0c-.05.045-.096.094-.137.148l-.04-.024v.24l-.137.124.127.106v1.192l-.26-.223v-.424h.126c.041-.41.03-.444-.12-.415v.431h-.176v1.74l.158.036v.7c.278.102.06.317.158.452l-.052.037-.26-.2-.004-.112h-.234l.016-.026a.88.88 0 0 1-.159-.106c-.083-.086-.156-.182-.228-.26l-.273-.21v-.231l-.311-.262v-.198l-.14-.12-.136-.113v-.205l-.309-.229v-.241h-.049a.666.666 0 0 1-.083-.195v-.452h-.171v-.405h-.057a.566.566 0 0 1-.08-.194v-2.215a.621.621 0 0 1 .08-.195l.051.013v-.521l.146-.029c.104-.145-.11-.379.163-.462v-.26c.234-.015.094-.202.156-.319l.146-.016v-.28l.137-.034v-.179l.2-.244.114-.013v-.26h.117a.519.519 0 0 1 .26-.311c.096-.057.155-.174.241-.26.345-.35.693-.698 1.062-1.067h.2l.23-.303h.245l.047-.14h.233l.029-.167h.433v-.74l.172-.02v1.059h.143v1.184l.17.026v1.334c0 .101.022.158.133.088v-1.578l-.046.018a.591.591 0 0 1-.08-.2v-.867h-.185zm-1.02 4.154v-.127l-.18-.026v-.28h-.26v-.315h-.16l.028.042-.13.122c-.015.015-.041.041-.036.06.005.018.029.067.047.067.117 0 .075.086.086.143h-.128l-.026.163-.163-.015v-.286l-.26-.018v-.268h-.155l.028.034-.26.283-.052-.034v-.283l-.038.027-.224-.167h-.2l-.23.307h-.676c0 .127 0 .137.13.127.13-.01.182.015.185.148h.272v.293h-.234l-.158-.14-.041.031v.405c-.068.04-.224-.023-.146.156h.58v.135h-.427v.158h.431V16.5c.159-.042.369.12.48-.133h.52c.052-.22.205-.12.322-.124v.56h-.275l-.029-.049.184-.127v-.112h-.309v.333l-.29-.213v.35h.366c.072.065.117.13.148.125.03-.005.085-.068.163-.133h.2v-.475l.171.013v.447c.18.075.11-.091.154-.15h.579a.629.629 0 0 0 .194-.084l-.015-.065h.402v-.436h-.299v-.298l-.27-.008zm1.414 0 .044-.042v-1.137l-.046-.023c-.026.039-.075.078-.075.12v.983c0 .04.051.078.077.114v-.015z" fill="#1A202C"/>
        <path d="M18.54 13.261v.818l-.328.293.029.047h.42l.037.044-.192.26H17.8l-.016.304h-.275v.057a.651.651 0 0 1-.195.078h-.402l-.034.163h-.408c0-.085 0-.213-.163-.153l-.04.208-.222-.26-.04.21h-.145l-.026-.158h-.532l.016-.054a.714.714 0 0 0-.198-.083c-.145-.013-.293 0-.415 0l-.32-.385v-1.012c0-.05.063-.099.097-.148l.044.015v-.737h.26l-.003-.026.19-.088c0 .06-.027.14.088.145.028 0 .05.094.08.159h.841l.12.14.114-.13h.231l.078.13c.031-.037.054-.086.09-.104a.208.208 0 0 1 .13.016c.04.02.076.085.102.08.026-.005.067-.062.122-.12h.15c.06.053.102.117.143.12.042.003.083-.067.153-.127h.224l.026-.161h.563v.226l.18.202-.03.037.164.013-.003-.019zM21.198 15.922h.285l.045-.127h.415v1.298c-.135 0-.135.083-.127.184.01.087.01.174 0 .26-.021.067-.048.133-.08.195h-.053v.4l-.168.03v.44l-.14.044v.236l-.148.026c-.089.086.093.293-.154.311v.26l-.306.234v.233c-.083.021-.197 0-.138.156h-.454l.09-.179h.071l-.117-.164-.039.021v-.262l-.12-.016-.233-.306h-.26V18.9l-.057-.026c-.026.034-.07.068-.078.107a1.525 1.525 0 0 0 0 .218h-.285c-.083-.17.062-.12.135-.143v-.475l-.29.195v-.44h.046a.612.612 0 0 0 .078-.194V16.359h.34l-.203-.304h.605l.032.16h.285v.14h-.322c.07.219.216.1.322.13v-.134l.177-.086v-.047h.4l.033-.171h.426l-.013-.125zM12.568 27.52a.614.614 0 0 1-.127-.045.846.846 0 0 1-.117-.12l-.052.032v.293h-.216l-.29.26h-.343l-.125-.15-.049.025v.29h-.169c-.026-.072.04-.223-.145-.155v-.7c-.127 0-.127 0-.143.24H10.4l-.228-.22.03-.042h.242l.135-.205.042.021v-.418h-.19l-.205-.187c-.062.187-.22.309-.337.296 0-.14-.018-.278-.034-.418a.77.77 0 0 0-.112 0v.73c-.122.028-.122.028-.15-.26 0 0-.016-.016-.026-.016H9.44v.722l-.045-.015a1.61 1.61 0 0 1-.098.158.503.503 0 0 1-.127.07v-.73c.046-.038.106-.064.124-.108.031-.084-.03-.1-.101-.112-.023 0-.034-.073-.055-.122h-.283v-.483c0-.039-.051-.075-.077-.112l-.05.029v.415h-.311c0-.09-.047-.195.13-.16v-.624l.306.205v-.285h.26l.134.137.042-.03v-.26c.174-.084.127.062.148.135h.122l.099-.154c.085.076.14.12.187.17.046.049.03.064.023.072-.04.033-.083.064-.127.09v.26c.153.08.122-.049.13-.098l.205-.133-.021-.046h.288v-.302l.26-.018v-.285h.288c.088.072-.07.26.158.303v-.444h.275c.086-.272.315-.075.468-.168v-.535l.218-.145-.018-.047h.244l.015-.291h.138c.088.08-.07.26.163.296v-.748h.26l.187.185v2.183l-.037.031-.16-.158-.138.096.042.034h-.26l-.031-.133c-.11.044-.275-.099-.307.133h-.241l-.138-.146-.041.029v.26h-.442v.615h-.433v.44h.678l.142.162.05-.026v-.296c.132 0 .132 0 .16.145h.278v-.405c.133-.03.133-.03.156.221a.34.34 0 0 0 .32-.26h.423v.26l-.044-.02-.112.16h.067l.091.174-.454.457zm-3.406-1.04v-.155h-.15v.156h.15zM25.227 25.878h-.436v.294l-.044.033-.26-.28.029-.036h-.14l-.034.171h-.26l.026-.031-.26-.296-.046.029v.29h-.172v-.26c-.116-.02-.116-.02-.153.26-.16.068-.109-.078-.132-.148h-.595v.26l-.26.184-.158-.158-.041.031v.26c-.12.02-.12.02-.156-.276h-.42v-.576l-.31-.016v-.285l-.17-.018v.428c-.13 0-.13 0-.151-.26-.117-.018-.117-.018-.14.138h-.19v-.285h-.309l.171.181v.413l-.298-.216v-.24h-.301l-.016.15h-.426v-.39c-.072-.093-.109-.148-.153-.194-.044-.047-.062-.034-.07-.026a.802.802 0 0 0-.093.13h-.136v-.26h-.573v-.455c.137 0 .13-.083.13-.181v-.74h.166v.148l.046.026.133-.177h.696v.26c.06.052.104.083.14.122a.847.847 0 0 1 .067.117l.052-.018.031-.161h.135a.364.364 0 0 0 .312.293c0-.099.026-.197.044-.293h.107v.716c.119.023.119.023.153-.26h.109l.226.304h.233c.086.094-.057.275.166.314v-.446h.182v.26h.26l.026.153.028-.024c.056.063.116.12.182.172.013 0 .08-.06.15-.117.102.041.296-.11.424.122h.26l.033.137h.26l.036.166h.244l.023-.153h.265l.026.133c.146.109.38-.11.462.16h.234l.111-.132.128.13a.26.26 0 0 0 .106-.026c.037-.02.06-.067.091-.101l.083.13h.223l.138-.153.05.028v.301h-.307v.275l.013-.03zM19.562 26.047v.135h.334l-.218.309h.623v.43l.172.02v-.302h.26c0 .223.202.086.316.145l.016.143h.26l.116-.176.052.026.013.288h.836l.117-.128.101.091.26.26v-.52l.166-.017v.75h-.153v.124l.179.115-.026.052h-.26l-.101-.128c-.026.034-.044.078-.078.1-.064.03-.131.053-.2.072l.164.132.031-.026v.156h-.304v-.229l-.21-.21-.138.102.021.033h-.26v-.293h-.726l.018-.034-.208-.16v.518h.408c.023.148.023.148-.13.148h-.26v.299h-.275v.423l-.044.036-.26-.197v-.41a.578.578 0 0 0-.16.042.382.382 0 0 0-.091.1l-.086-.134h-.382l-.026-.148c-.101-.076-.29.08-.311-.156h-.26c0-.12-.05-.174-.135-.145l-.137-.203-.045.02v-.415h-.153c-.026.151-.026.151-.148.14v-1.038a.775.775 0 0 1 .127.047c.036.03.069.061.1.096l.121-.13h.21l.14.143.045-.029v-.26h.285l.05-.225.137.18-.023.03h.13v.008zM14.658 24.739c-.112-.094-.197-.159-.26-.234a.394.394 0 0 1 .104-.117c.068-.093-.067-.28.161-.304v-.412l.164-.034v-.584c-.063-.034-.216.026-.146-.146h.548l.138.148.039-.028v-.26h.277l.081.122a.393.393 0 0 1 .088-.106.613.613 0 0 1 .159-.04v.427c.179.085.122-.07.153-.14h.436l.018-.26h.26l.127-.198.05.026v2.225c-.12 0-.12 0-.146-.143h-.244l-.122.18-.055-.029v-.28l-.171-.018v.44h-.26l-.036.042a.892.892 0 0 1 .096.102c.026.044.044.093.075.16h-.467l-.028-.155h-.135c-.037.06.028.22-.151.145v-.558c-.114-.018-.114-.018-.156.278h-.423v.298h-.174v-.547zM11.688 21.138v-.164h.26l.114-.14c.034-.041.07-.08.12-.135h.24l.035-.171h.249l.031-.138h.26c.028-.223.192-.114.319-.137v.26h-.278l-.036.176h-.42v.14h-.242l-.21.208.176.226h.4v-.128h.296l.02-.166h.3v.636c0 .042.046.08.072.122l.052-.026V19.7l.314-.234V20.7a.558.558 0 0 0 .07.164l.057-.016v1.597c-.109.023-.109.023-.143-.26h-.36l-.146-.163-.041.026v.26l-.045-.03c-.09.1-.179.206-.277.297-.037.033-.1.036-.125.072l-.26.307-.039-.024v.28h-.311l-.02-.15h-.281c0-.213-.153-.122-.26-.15l-.044-.128h-.26v-.584l.408-.342v-.128h.304v-.303h-.133c-.03.062-.054.15-.083.153-.117 0-.078.085-.083.148h-.127v-.289l.034.016.093-.171h.296l.026-.057c-.036-.029-.067-.07-.106-.078a.995.995 0 0 0-.216-.008z" fill="#1A202C"/>
        <path d="M16.73 16.813h-.26v.428h-.31L16.146 17c-.117 0-.117 0-.137.244l-.151.02-.015.14a.133.133 0 0 1-.04.016h-.212l-.15-.21-.035.018v-.22l-.052.015a.685.685 0 0 1-.083-.197v-.45l-.16-.02v-.992h.163v.26c0 .086-.055.202.127.16v-.259l.04-.036.145.114-.024.02h.218l.174-.147.127.148.112-.13h.239c.02.099.039.197.065.296a.45.45 0 0 0 .088 0v-.298h.402l.138.14.039-.029v-.26h.475c.015.117.015.117-.197.149l.179.142c.106.063-.078.26.174.288v.54c.241.063.109.26.132.374 0 .047-.041.107-.067.164l-.06-.016v.236c-.239.019-.09.213-.158.32h-.224l-.194-.164v.016l-.125-.187-.044.02v-.41h-.138c-.057-.088-.127-.06-.187-.002zM15.852 27.511c-.236.029-.086.213-.179.312h-.571v.296h-.26v-.854l-.171-.034v-1.08l.298.195v-.286h.26l.26.283.039-.029v-.26l.124-.022.117-.18.052.026.018.156h.29v.26h.276l.101-.125c.026.034.044.08.078.096a.157.157 0 0 0 .127 0 .588.588 0 0 0 .122-.12l.107.167a.52.52 0 0 1 .088-.107.376.376 0 0 1 .125-.033v.875l-.034-.019c-.029.052-.062.1-.099.146a.78.78 0 0 1-.19.192c-.025.015-.1-.055-.155-.083l.016-.04h-.546v.582h-.311l.018-.314zM18.542 13.267v-.296l-.166-.024v-.26a.844.844 0 0 1-.138-.067.665.665 0 0 1-.08-.111l-.078.127h-.39c-.07-.122.016-.14.112-.135v-.987l.2-.19h.2l.135.146.044-.029v-.277l.174-.026a.71.71 0 0 1 0-.182c0-.036.06-.065.094-.096l.039.034v.246l.174.013v.14c.046.032.124.055.124.084 0 .116.088.075.145.088v.26l.208.135-.018.046h.247v.831l-.148.184.039.04h.244l.124-.18.05.029v.218l-.164.194.026.032-.156.02v.494l-.32.342.027.034h-.286v-.337l-.327.22v-.755h-.143l.008-.005zm.763-.156c-.033.283-.03.288.115.26.02-.268.02-.268-.115-.26zm-1.217-.764c.236-.023.106-.173.124-.26-.176.004-.088.144-.124.26zM16.735 20.395v.122l.156.016-.031.023.309.348v.493h.298l.024.172h.283v.29c-.114.021-.114.021-.138-.137h-.444l-.034.195-.368-.374-.044.034-.024-.154h-.994l-.031.156h-.35l-.26.205v.102h-.26v-.52c0-.039.063-.075.127-.148v-.355c.135-.047.135-.047.146-.32l.16-.033v-.237c.234-.018.104-.197.154-.309.22 0 .085-.197.138-.314h.594v.4c.125.031.125.031.153-.26h.143l-.023.034c.054.04.104.086.15.135.024.031.018.083.029.125a.47.47 0 0 0 0 .171c.03.042.093.091.137.14zM14.523 16.813l.093-.177h.042v-.233l-.13-.11.13-.116v-.218l-.135-.101.127-.112v-.26h-.26c0-.22.17-.096.26-.166l.029-.137h.142v1.627c0 .091-.044.218.138.177v.26l.13.03v.683l-.26.226v.694l-.153.015c-.055.143.013.177.143.164v.272h-.434v.914h-.474v-2.098l.293-.015v-.69l.176-.032v-.594h.138v.33c.22-.073.096-.219.135-.325l-.13-.008zM18.1 19.944a2.17 2.17 0 0 0 0 .29.83.83 0 0 0 .078.195l.05-.013v.4c-.229 0-.094.2-.148.314h-.138c-.029-.15-.029-.15-.135-.143-.07.086.073.26-.15.299v-.434l-.167-.036V17.96l.299.2v-.288h.3v-.727l.058.016a.684.684 0 0 0 .083-.198v-.493c0-.041.05-.078.078-.12l.055.027v.765c.058-.021.114-.047.168-.077a.723.723 0 0 0 .091-.104l.04.028v.42l-.043.03-.119-.14.026-.034h-.153v.3h.26c.02.12.02.12-.276.159v.722c-.15 0-.142.083-.142.181v1.325h-.14v-.312h-.156v.293l.181.01zm0-1.496h-.155v.15h.155v-.15zM17.488 26.94v-3.434l.163-.026v-.865h.26c.044.106.028.18-.114.171v.403c.111.028.111.028.142-.26h.15v2.189l-.16.033v1.192a.612.612 0 0 1-.078.195h-.054v.174l-.172.2.026.041h-.169l.006-.013zM13.636 25.627v.233c.223.024.1.19.132.291l-.244.18-.197-.206v-.208l-.138-.088c.034-.031.07-.057.101-.09.031-.035.037-.063.029-.068a.904.904 0 0 0-.133-.104v-.418a.651.651 0 0 1 .078-.195h.05v-.39l-.047.014a.598.598 0 0 1-.08-.195c-.013-.187 0-.374 0-.548l.168-.148-.018-.033h.286v-.291l.044-.034c.034.029.07.057.101.088.031.031.018.055.028.055.07 0 .136.02.104.106-.015.042-.075.07-.13.12v1.874l-.134.055zM25.831 25.889l.3-.016.03-.127h.234c.023-.096.05-.195.184-.132l.016-.154c.08-.08.28.08.275-.158h.283l.026-.153.031.031.45-.447-.035-.044h.26c.02-.228.192-.106.28-.14l.273-.327.039.031v.26l-.195.184h-.218l.029.042-.447.449-.207.26h-.213l-.229.306h-.26c0 .233-.202.096-.285.168-.083.073-.117.136-.177.2l-.19.21h-.235l-.029.151c-.148.088-.374-.098-.462.159h-.26c-.018.23-.207.093-.322.155l-.012.143h-.242c-.135-.182.195-.148.117-.301h.285c0-.218.172-.106.284-.15v-.102l.207-.15-.018-.037h.228c.024-.096.05-.194.192-.13v-.176l.013-.005zM12.568 27.52l.45-.45h.176v-.301h.132v.169h.296v.26l.143.116a.5.5 0 0 0-.101.078.677.677 0 0 0-.063.13h-.26v.26c-.155.113-.394-.092-.482.173h-.26l-.03.166h-.382c-.042.055-.07.099-.107.14-.04.046-.08.09-.124.13h-.247v-.26h.218l.234-.31h.213l.19-.206.004-.096zM14.962 12.654c0-.091 0-.184-.137-.138v-.706l-.187-.122.026-.052.155-.018v-.29h.146v.127h.41l-.02.036c.058.044.112.094.16.15.016.024 0 .086-.031.125-.031.039-.052.041-.078.06.03.022.055.048.078.078.033.052.064.105.09.16l.13.019v.75l-.207-.14.02-.042h-.557l.002.003zM20.18 20.081v.159c.215 0 .106.163.148.26l.153.03v.574c.034 0 .078 0 .088.029.023.038.03.083.02.127-.015.036-.067.06-.103.088l.156.101-.112.161-.036-.015v.39l.127.114-.132.116v.377l-.172.026v.605h-.135v-1.039l-.166-.023v-.26l.153-.031v-.112l-.179-.122.029-.049.15-.015v-1.166l-.15-.026v-.29l.16-.009zM14.235 27.566l-.16-.107a.874.874 0 0 0 .106-.088c.015-.018.033-.062.026-.07a1.258 1.258 0 0 0-.156-.112l.111-.122c.019-.02.05-.067.044-.072a1.47 1.47 0 0 0-.147-.11l.103-.155.044.02v-1.297l.175-.019v.927a.487.487 0 0 0 .067.164l.062-.016v.85h.057c.037.06.063.125.078.194v.919c0 .093-.018.145-.135.098v-.565c-.174-.083-.127.06-.148.132h-.148a.387.387 0 0 0-.026-.135c-.02-.029-.078-.031-.119-.047v-.192l.166-.197zM8.074 27.381h-.392c-.018-.233-.207-.09-.322-.158v-.145h-.296l-.03-.138h-.24l-.036-.171h-.415v-.623l.192.174h.2l.228.306c.08.047.26-.09.291.138h.231l.229.309h.26l.03.166h.234l.039.111c.093.086.278-.078.296.143-.327.073-.444.04-.499-.111zM11.683 18.752l.096.177h.068l-.117.163-.042-.02v.71a.642.642 0 0 1-.075.195h-.052v.374l.13.11-.15.137c.038.033.074.069.108.106.021.026.047.086.037.091-.08.073-.169.138-.26.205l-.039-.039v-.384l-.14-.12.13-.11v-.52l-.13-.112.135-.117v-.519l.169-.031v-.29h.14l-.008-.006zM6.161 26.94c.05-.006.1-.006.15 0 .067.023.132.05.195.08v.053h.226l.231.306h.26c0 .236.197.101.314.156l.02.148h.398c0 .213.15.122.21.137l.24.203v.12h-.416l-.034-.157c-.101-.067-.293.084-.311-.153h-.26c0-.236-.2-.098-.317-.153l-.018-.148h-.197l-.301-.26h-.193l-.026-.16-.158-.024v-.122l-.013-.026zM15.455 6.408l-.117-.13a.396.396 0 0 1-.072.086 1.219 1.219 0 0 1-.162.072v-.309c.086-.093.312.104.312-.155h.857c0 .23.2.093.314.148v.283h-.28c0-.19-.146-.12-.26-.125l-.044.13h-.548zM19.562 19.194v.433l.169.023v.712l.047-.016c.03.06.088.12.09.18v.918l-.303-.22V19.8h-.06a.717.717 0 0 1-.075-.195v-.426h.143l-.01.014zM15.574 8.324c-.049-.057 0-.198-.166-.138V7.87l.197.17h.52c.041-.123.041-.123.314-.133l.034-.159h.244c.028.102.049.192-.125.166v.442h-.376l-.135.156-.047-.026v-.291h-.171v.33l-.289-.2zM19.86 22.59c-.119 0-.425-.276-.448-.421h-.276l-.03-.138h-.237c-.02-.093-.047-.195-.184-.133v-.474h.096l.376.43-.026.037h.241l.24.28h.259l-.01.418z" fill="#1A202C"/>
        <path d="M18.85 11.153v-.875c.091-.03.138-.018.135.091v.49l.05.03.116-.138-.026-.034.156-.013v.75h-.163v-.283l-.04-.015h-.238l.01-.003zM19.082 19.936l-.229.19v-.335l.133-.032v-.285l.301.213v.828l-.16.015v-.563l-.045-.031zM12.381 9.079l.117-.145c.023.035.05.067.08.096.04.025.082.047.125.065v.57c-.122 0-.122 0-.137-.28h-.423V9.08h.238zM18.985 8.939v.26l.136.09a.878.878 0 0 0-.107.089c-.015.018-.034.062-.026.07.039.034.08.064.125.09a.301.301 0 0 1-.26.26v-.542l-.127-.021-.21-.296h.47zM13.02 26.496v-.163h.295l.019.153h.708c.031.13.031.13-.26.153v.041a.676.676 0 0 1-.176.084 2.009 2.009 0 0 1-.306 0l-.161-.26h-.15l.03-.008zM10.935 20.767c-.062-.073-.13-.114-.127-.156.002-.041.067-.083.122-.148.013-.2.013-.2.137-.19v1.428c-.104.047-.135 0-.132-.098.002-.294 0-.587 0-.836zM15.543 7.15v-.28l.166-.031v-.302c.236.016.08.206.169.296l.135.026v.283l-.47.008zM25.842 26.769c0-.063-.033-.14.084-.146.026 0 .049-.07.085-.127h.26l.026-.163h.288v.293h-.405c-.047.231-.22.112-.338.138v.005zM18.157 27.953l-.366-.312v-.29l.171.132-.02.034h.277v.238l.161.161-.03.037h-.193zM19.119 25.128v.467h-.26l-.02-.145c-.055-.034-.214.031-.144-.145l.15-.013v-.322c.06.028.133.047.133.067 0 .117.089.076.146.086l-.005.005zM28.973 26.32v.104l-.342.303.023.034h-.322l.135-.171.034.018v-.283h.477l-.005-.005zM18.983 21.28c.058-.012.14.027.146-.09 0-.024.088-.044.153-.073l.015.286.26.018v.335l-.158-.135.018-.031h-.26l-.166-.314-.008.005zM16.158 7.29v-.426h.296v.221l.19.205h-.486zM14.069 17.111h-.159v-.381c-.065-.057-.122-.086-.14-.127-.03-.084.057-.076.096-.112.04-.036.065-.182.203-.104v.724zM5.247 25.608h-.26v-.293c.102-.039.18-.036.164.12h.246l.026.119.219.158c-.312.06-.343.05-.395-.104zM23.316 27.984c.107-.065.28.067.28-.153h.286v.288h-.555l-.01-.135zM29.118 23.63v-.304l.28.208.12.171.034-.018v.26c-.169.073-.117-.075-.169-.117l-.265-.2zM26.273 18.44h-.286v-.428h.286v.429zM23.902 16.052v-.428h.291v.423l-.29.005zM16.73 16.813c.06-.057.119-.086.176 0v.734h-.176v-.734zM28.979 26.325v-.26l.26-.015.015-.156h.303v.117l-.168.153.018.031h-.26l.013.055-.176.08-.006-.005zM14.068 20.255h.143v.122l.161.018v.421h-.158v-.26l-.146-.033v-.268zM23.59 14.728h-.259v-.568h.304l-.172.19v.22h.045l.083.176v-.018zM12.27 18.62v-.296l.15-.024c0-.098.026-.194.047-.29h.099v.37l-.164.196.026.038h-.163l.005.006zM25.663 16.662c-.153-.018-.133.089-.13.182.003.093 0 .169-.13.12v-.421l.26-.216v.335zM2.89 24.684h-.296v-.26l.111-.017.125-.182.055.028v.436l.005-.005zM24.941 15.624h-.153v-.19l-.158-.205.039-.036h.28l-.008.43zM18.331 21.67l.203-.122v.333h-.428v-.154l.24-.013-.015-.044z" fill="#1A202C"/>
        <path d="M12.265 18.614v.696l-.037.034c-.034-.031-.093-.065-.093-.099v-.625h.14l-.01-.006zM5.956 26.047H5.72v-.158h.436v.283l-.036.03-.164-.155zM24.94 15.032h-.152v-.229l-.156-.168.031-.037h.278v.434zM24.785 21.143v-.15l.029.02c.05-.05.093-.104.143-.148.05-.044.078-.036.085-.028.073.083.14.171.21.26l-.036.043h-.436l.005.003zM25.087 14.29h.299v.295h-.294v-.3l-.005.004zM16.735 20.395c-.044-.049-.106-.088-.132-.145a.47.47 0 0 1 0-.171h.293v.303l-.161.013zM25.837 26.764v.306h-.444v-.132h.26l.023-.174h.163-.002zM18.677 20.434l.29-.207v.23l-.163.198.026.034h-.153v-.255zM25.392 27.07v.306h-.44v-.127h.259l.023-.174h.164l-.006-.005zM25.97 18.757v.28c-.164.079-.123-.062-.139-.14h-.155v-.24c.179-.151.148.173.293.1zM12.57 20.837h.286c.078.158-.049.13-.137.137v.169h-.312c.037-.075.057-.161.08-.161.117 0 .076-.088.089-.145h-.005zM19.738 12.249v-.307l.26-.218v.304l-.26.22zM5.273 28.576h.424v.288c-.154.078-.117-.055-.135-.143h-.283v-.145h-.006zM17.483 26.935v.434h-.286c-.075-.154.057-.117.146-.136v-.293h.145l-.005-.005zM16.987 5.813c-.029-.039-.078-.078-.08-.12v-.459c.093-.033.14-.023.137.086v.452l-.057.041zM12.132 17.426v-.161h.433v.158h-.441l.008.003zM24.946 22.174v.275a.277.277 0 0 1-.299-.275h.299zM19.716 9.507h-.154V9.08h.154v.428zM20.494 9.375v.436h-.156v-.418l.156-.018zM25.972 15.925h.163v.293h-.288c0-.062-.068-.148.075-.166.024 0 .037-.086.055-.132l-.005.005zM18.534 22.6h-.156v-.429h.156v.429zM19.126 29.012v-.29h.283a.277.277 0 0 1-.172.268.28.28 0 0 1-.111.022zM25.53 25.749v.298h-.303v-.16h.17c-.043-.14.045-.138.141-.128l-.008-.01zM23.586 14.733h.122l.215.296h-.332v-.3l-.005.004zM24.616 16.356l.218-.288h.112v.288h-.33zM26.149 20.388h-.34l.212-.296h.122v.3l.006-.004zM25.396 13.853v.288h-.12l-.22-.288h.34zM24.344 15.167v-.26h.283a.288.288 0 0 1-.283.26z" fill="#1A202C"/>
        <path d="M25.53 25.608h.302v.28h-.15l.017-.046-.174-.088v-.14l.006-.006zM25.406 15.18h.26v.26c-.118.038-.268-.115-.26-.26zM10.05 27.511h-.288a.285.285 0 0 1 .277-.26v.128c0 .041.01.078.01.132zM24.788 13.547v-.26a.304.304 0 0 1 .29.26h-.29zM6.903 18.293c-.124.054-.143-.021-.124-.107.018-.085-.086-.26.124-.337v.444zM16.156 9.687h-.14v-.45h.14v.45z" fill="#1A202C"/>
        <path d="M16.15 9.821v-.14h.359c.036 0 .07.052.106.08l-.026.055-.439.005zM6.781 16.662c-.023-.42-.023-.42.117-.415.05.343.029.415-.117.415zM25.216 17.677c-.125 0-.125 0-.127-.106 0-.306 0-.306.127-.304v.41zM6.476 19.183c-.151 0-.151 0-.122-.402.135-.042.137-.029.122.402zM24.962 16.506c.034 0 .083-.013.093 0 .065.089.12.182.187.291h-.28v-.29zM11.688 18.757v-.374a.29.29 0 0 1 0-.049c.148-.023.159 0 .117.418h-.127l.01.005zM24.648 17.545c-.148 0-.148 0-.125-.4.14-.036.14-.036.125.4zM7.049 17.26h.296v.155h-.288l-.008-.156zM20.478 10.691v.299l-.153.018v-.29l.153-.027zM29.7 24.113h.156v.29H29.7v-.29zM18.092 22.163v.296h-.155v-.288l.155-.008zM24.507 18.155v.278h-.163v-.278h.163zM25.231 22.036h.156v.283h-.156v-.283zM5.279 28.57h-.301v-.163h.311v.163h-.01zM7.649 16.662h-.28v-.16h.28v.16zM24.947 22.018h-.159v-.283h.159v.283zM25.237 21.595h.15v.285h-.15v-.285zM7.81 18.145h.15v.293h-.15v-.293zM24.791 21.577v-.156h.286v.156h-.286zM16.296 19.503v-.297h.156v.291l-.156.006zM26.135 19.497h-.15v-.29h.15v.29zM4.227 24.695h.153v.29h-.153v-.29zM24.35 16.374h.15v.288h-.15v-.288zM24.33 20.977v.156h-.29v-.156h.29zM23.453 20.09h.296v.155h-.29l-.006-.156zM14.82 25.749v.3l-.154.016v-.316h.153zM6.612 20.092h.156v.29h-.156v-.29zM15.107 7.61h.154v.293h-.154V7.61zM24.503 15.915h-.156v-.291h.155v.29zM11.82 17.87h.164v.26h-.159v-.266l-.005.005zM20.17 9.507h-.153v-.26h.153v.26zM16.74 18.145v-.26l.153-.013v.26l-.153.012zM21.956 11.89v-.259h.158v.26h-.158zM6.163 26.935h-.26l-.012-.158h.275v.158h-.003zM23.58 12.794v.156h-.259v-.156h.26z" fill="#1A202C"/>
        <path d="M11.688 21.138a.995.995 0 0 1 .216 0c.039 0 .07.05.106.078l-.026.057h-.296v-.135z" fill="#90949C"/>
        <path d="M18.24 15.047c.187-.039.12.096.13.172.01.075 0 .158-.13.106v-.278zM6.893 29.448c-.28.031-.283.031-.26-.112.273-.03.273-.03.26.112zM18.986 21.276h-.283c-.026-.154-.026-.154.28-.122v.122h.003zM19.422 8.923c-.187.04-.125-.096-.13-.171 0-.117 0-.117.13-.107v.278zM18.096 9.393h.116c.055.26.042.288-.111.294v-.312l-.005.018zM25.092 14.284h-.286c-.026-.15-.026-.15.28-.122v.127l.006-.005zM26.159 16.384c.142 0 .145 0 .111.26-.143.018-.145.018-.111-.26zM7.669 19.32c0-.14 0-.14.28-.114.019.146.019.146-.28.115zM21.075 9.393c.159-.044.125.068.125.143 0 .075.034.187-.125.143v-.286zM13.484 28.137h.26c.039.096 0 .13-.09.132-.17.003-.17.006-.17-.132zM7.044 13.99v.281c-.099.037-.132 0-.135-.09-.003-.188-.005-.19.135-.19zM16.023 19.048v-.278c.096-.039.133 0 .133.091.002.187.008.187-.133.187zM24.516 13.858c.14 0 .14 0 .124.26-.14.039-.14.039-.124-.26zM8.238 25.88v.284l-.034.036c-.034-.034-.096-.072-.093-.098.013-.078-.078-.229.127-.221zM21.385 9.507c.215.04.083.198.124.288-.153.024-.153.024-.124-.288zM24.951 27.377v.137c-.106-.034-.26.09-.327-.132h.33l-.003-.006zM7.531 26.047v-.283l.034-.034c.031.034.096.073.09.1-.012.077.087.228-.124.217zM10.816 22.927c-.034-.304-.034-.304.12-.317-.047.104.093.254-.12.317zM24.648 12.643h-.306v-.111c.086-.008.173-.008.26 0 0 0 .046.062.046.111zM14.505 23.204c-.143 0-.146 0-.112-.275.143-.008.145-.002.111.275zM23.61 15.473c-.04-.187.096-.12.17-.13.076-.01.16 0 .107.13h-.278zM13.329 23.342c-.013-.283-.013-.283.117-.278.039.27.039.283-.117.278zM8.43 26.753c0-.143 0-.145.26-.109.023.143.015.143-.26.11zM22.571 12.53c-.047.21-.2.082-.293.121-.016-.143-.016-.143.293-.122zM12.005 4.78c.14 0 .14 0 .114.28-.142.018-.142.018-.114-.28zM10.499 24.095v-.278c.096-.039.132 0 .132.09-.002.185-.002.188-.132.188zM23.913 16.797c0-.143 0-.143.26-.111.023.142.018.145-.26.111zM19.993 28.693c-.14 0-.143 0-.109-.26.143-.023.145-.016.11.26zM14.647 29.007c-.187.039-.12-.096-.13-.172-.01-.075 0-.158.13-.109v.28zM16.475 17.994c.21.047.086.2.125.296-.159.016-.159.016-.125-.296zM6.33 24.99h.278v.13h-.26l-.018-.13zM21.808 10.691c-.153.052-.127-.052-.13-.13-.002-.078 0-.16.13-.111v.241zM16.018 9.074a.898.898 0 0 1 0-.187c0-.039.052-.073.078-.109l.046.029v.26h-.13l.006.007zM21.496 10.008c.028.26.028.26-.112.237-.028-.25-.028-.25.112-.237zM13.31 10.265c-.218-.015-.08-.17-.127-.26.153-.012.153-.012.127.26zM23.57 13.524c-.26.028-.26.028-.236-.112.249-.029.249-.029.236.112zM23.316 13.838c0-.216.164-.094.242-.135.052.148.052.148-.242.135zM24.648 18.877v-.244c.098-.037.142 0 .132.09-.01.091.047.2-.133.154zM18.87 19.32c.015-.093-.107-.244.108-.26-.018.105.078.237-.109.26zM24.78 21.138v.13h-.26c-.03-.088 0-.135.091-.128h.172l-.003-.002zM4.83 28.132h.131v.275h-.13v-.26l-.002-.015zM12.706 26.2c0 .203-.156.083-.24.11-.02-.203.143-.081.24-.11zM19.567 26.052v-.163h.159v.168h-.174l.015-.005zM2.885 24.69h.163l.013.158H2.89v-.174l-.005.015zM28.802 23.051h.163v.161h-.171v-.168l.008.007zM24.193 23.212h-.153v-.156h.153v.156zM13.632 22.773h-.163v-.158h.16l.003.158zM9.001 22.612h.153v.156h-.153v-.156zM24.03 22.169h.164v.155h-.164v-.155zM9.154 22.171v.156h-.153v-.156h.153zM7.357 21.893v-.163h.159v.169h-.174l.015-.006zM25.234 20.09h.153v.155h-.153v-.156zM12.422 20.245h-.148v-.15c.138-.034.193.002.148.15zM25.686 19.778h.15v.15c-.15.044-.196.005-.15-.15zM13.012 19.778h.163l.016.153-.164.015-.015-.168zM7.054 19.951v-.174l.153-.015.015.163-.168.026zM16.299 27.522h.153v.155h-.153v-.155zM24.503 27.511v.164l-.153.015v-.163l.153-.016zM12.885 19.497h-.163l-.016-.153h.164l.015.153zM6.604 19.339h.161v.156h-.16v-.156zM24.198 18.89v.16h-.158v-.16h.158zM16.906 19.056h-.164V18.9h.161l.003.156zM16.299 18.895h.153v.156h-.153v-.156zM10.192 28.578v-.163l.154-.016.012.164-.166.015zM25.686 18.147h.15v.15c-.15.037-.196-.002-.15-.15zM24.194 15.188v.148h-.151c-.036-.138.003-.193.15-.148zM24.206 14.894h-.163l-.016-.153.164-.015.015.168zM9.609 13.705h-.164v-.158h.17v.174l-.006-.016zM24.04 13.1h.153v.156h-.153v-.155zM22.407 12.794h.164v.15c-.151.037-.206-.002-.164-.15zM9.61 12.952h-.163l-.015-.153.163-.015.016.168zM23.319 11.314h-.164v-.153l.161-.015.003.168zM21.958 10.868v-.153h.156v.153h-.156zM10.042 10.717v.153h-.15c-.042-.14.005-.179.15-.153zM22.402 10.432v-.153h.15c.04.132-.004.181-.15.153zM13.617 10.432h-.148v-.156c.135-.037.192.002.148.156zM11.236 7.005v.148h-.148c-.02-.166-.02-.166.149-.148zM16.742 6.704v-.148h.146c.02.163.02.163-.146.148zM6.603 18.454h.163l.013.153-.16.013-.016-.166zM22.174 18.293c.028.034.08.07.08.104.011.225 0 .451-.034.675-.033-.032-.093-.065-.093-.1v-.638l.047-.041zM22.703 17.26c-.054 0-.104 0-.124-.027-.07-.067-.13-.145-.216-.241l.198-.02v-.276c.093-.042.145-.036.142.078-.002.114 0 .304 0 .485zM22.392 15.34v.56l-.037.035c-.031-.033-.09-.065-.093-.1v-.489h.14l-.01-.005zM22.571 17.441c.148 0 .15 0 .117.41-.143.018-.148 0-.117-.41zM20.626 20.956v-.244c.099-.036.143 0 .132.091-.01.09.044.2-.132.153zM22.28 17.413c-.065.114.073.26-.158.288.036-.104-.096-.26.158-.288zM22.402 18.147h.156v.156h-.156v-.156zM19.437 30.22c.148 0 .15.017.117.41-.145.025-.153.005-.117-.41zM20.175 30.042h.117c.054.26.044.291-.112.296v-.3l-.005.004zM14.946 30.967c-.213-.042-.083-.198-.125-.291.156-.02.156-.02.125.29zM13.318 30.216h.307c0 .04 0 .112-.013.112a1.265 1.265 0 0 1-.26 0s-.02-.062-.034-.112zM14.203 30.681c.016.283.016.283-.114.278-.039-.278-.034-.296.114-.278z" fill="#1A202C"/>
        <path d="M9.608 16.504v-.135h-.592c-.077-.18.078-.117.146-.156v-.405l.041-.031.159.14h.228v-.293h-.26c0-.133-.075-.156-.184-.148-.109.008-.127 0-.13-.127h.68l.232-.307h.181l.2.167.04-.027v.284l.051.033.26-.283-.029-.034h.156v.289l.26.018v.285l.163.016.026-.163h.127v.142c.065.034.154.057.156.086 0 .117.088.073.145.083l.172.309h.143v-.325h.26v.299h.298v.441h-.38l.016.057a.63.63 0 0 1-.194.083h-.58c-.043.06.027.226-.152.151v-.439l-.172-.013v.475h-.187c-.078.065-.117.125-.163.133-.047.008-.076-.06-.148-.125h-.38v-.35l.291.213v-.333h.299v.112l-.184.127.028.05h.28v-.561c-.116 0-.259-.096-.321.124h-.52c-.111.26-.321.091-.48.133l.018.005zm2.077 0h-.306v.158h.293V16.5h.33c-.068-.223-.218-.099-.325-.133l.008.138zm-1.646-.454-.298.015v.15h.42v-.591H9.89v.153l.153.023-.003.25zm.59-.273.14.023c.07.086-.06.26.153.26v-.436h-.293v.153zm.446.156v.29h.156v-.29h-.156zM13.012 11.766h.174v.867a.59.59 0 0 0 .08.2l.047-.018v1.578c-.111.07-.132 0-.132-.088v-1.334l-.171-.026V11.76l.002.005zM12.575 15.92c-.062 0-.137.03-.147-.083 0-.029-.091-.05-.122-.089l-.35-.384h.614v.574l.005-.018z" fill="#90949C"/>
        <path d="M11.382 15.624c0-.057.03-.146-.086-.143-.018 0-.044-.041-.047-.067-.002-.026.021-.045.037-.06l.13-.122-.03-.042h.162v.302h.26v.288l.178.026v.127h-.298v-.31h-.312.006zM13.407 15.935c-.026-.036-.078-.075-.078-.114v-.984c0-.041.05-.08.075-.12l.047.024v1.142l-.044.052zM9.604 16.499v.163h-.431v-.158h.444l-.013-.005zM12.57 15.925h.301v.314h-.148l.024-.028a1.033 1.033 0 0 1-.143-.14.367.367 0 0 1-.034-.136v-.01zM10.803 19.518v-.43c.15-.03.161 0 .12.415h-.125l.005.015zM20.174 16.364v.135c-.106-.031-.26.088-.322-.13h.328l-.006-.005zM19.568 19.199h-.143a1.527 1.527 0 0 1 0-.218c0-.04.052-.073.078-.107l.057.026.008.299zM13.015 26.491h.15l.162.26h-.133v.3h-.176l-.091-.173h-.068l.112-.161.044.02v-.246zM9.162 26.486H9v-.156h.15l.01.156zM25.535 25.606v.143c-.096 0-.184 0-.14.127h-.171V25.6l.311.005zM12.576 20.831c0 .058.028.14-.088.146-.024 0-.045.086-.081.16h.299v.128H12.3l-.177-.226.21-.208h.242zM11.688 21.725c0-.063-.034-.14.083-.148.028 0 .052-.091.083-.154h.132v.296h-.303l.005.006zM18.846 11.148h.239l.038.016v.306c-.057-.013-.14.029-.145-.088 0-.029-.078-.052-.125-.083l-.007-.15zM19.305 13.11c.135 0 .135 0 .114.26-.145.029-.148.024-.114-.26zM18.088 12.348c.036-.117-.052-.26.124-.26-.018.086.112.236-.124.26zM14.523 16.813h.14c-.038.106.086.26-.134.324v-.33l-.006.006zM18.1 19.944h-.16v-.294h.155v.31l.005-.016zM18.09 18.448v.159h-.155v-.15l.155-.009z" fill="#90949C"/>
        <path d="M10.042 16.052v-.26l-.153-.023v-.145h.283v.594H9.75v-.15l.29-.016zM10.629 15.777v-.153h.293v.433c-.213 0-.083-.174-.153-.26l-.14-.02zM11.377 15.624h.311v.311c-.057 0-.137.034-.145-.083 0-.028-.09-.052-.156-.085l-.01-.143z" fill="#1A202C"/>
        <path d="M11.683 15.922h.314v.296h-.143l-.171-.296zM11.683 16.501v.161h-.293v-.158h.309l-.016-.003zM11.081 15.933h.156v.29h-.156v-.29z" fill="#1A202C"/>
        <path d="M11.688 16.506v-.137c.106.034.26-.091.324.132h-.33l.006.005z" fill="#1A202C"/>
    </g>
    <defs>
        <clipPath id="8slhgmxdla">
            <path fill="#fff" d="M0 0h32v32H0z"/>
        </clipPath>
    </defs>
</svg>
