<svg width="24" height="24" viewBox="0 0 24 24" fill="none" xmlns="http://www.w3.org/2000/svg">
    <g clip-path="url(#lzahxrof4a)">
        <path d="M15.055 3.973a1.309 1.309 0 0 0 0 1.8l4.753 4.95H1.225C.551 10.724 0 11.299 0 12s.551 1.276 1.225 1.276H19.82l-4.753 4.951a1.309 1.309 0 0 0 0 1.8c.478.497 1.25.497 1.727 0l6.848-7.134a1.309 1.309 0 0 0 0-1.8l-6.86-7.12a1.186 1.186 0 0 0-1.727 0z" fill="#90949C"/>
    </g>
    <defs>
        <clipPath id="lzahxrof4a">
            <path fill="#fff" transform="rotate(180 12 12)" d="M0 0h24v24H0z"/>
        </clipPath>
    </defs>
</svg>
