<svg xmlns="http://www.w3.org/2000/svg" width="26" height="26" fill="none" viewBox="0 0 26 26">
    <path stroke="#B5B5B5" stroke-miterlimit="10" stroke-width="1.197" d="M13 25c6.627 0 12-5.373 12-12S19.627 1 13 1 1 6.373 1 13s5.373 12 12 12z"/>
    <path fill="#B5B5B5" d="M4.852 13.56H2.584v-1.283h2.268V9.992h1.283v2.285h2.267v1.283H6.135v2.256H4.852V13.56zm9.029 3.586h-1.81v-4.957l.017-.815.03-.89c-.302.3-.51.498-.628.592l-.984.79-.873-1.09 2.76-2.196h1.488v8.566zm5.332-8.678c.82 0 1.48.188 1.98.563.504.37.756.873.756 1.506 0 .437-.12.828-.363 1.171-.242.34-.633.645-1.172.915.64.343 1.1.703 1.377 1.078.281.37.422.779.422 1.224 0 .703-.276 1.27-.826 1.7-.551.425-1.276.638-2.174.638-.938 0-1.674-.199-2.21-.598-.534-.398-.802-.962-.802-1.693 0-.488.13-.922.387-1.3.262-.38.68-.713 1.254-1.003-.488-.308-.84-.638-1.055-.99-.215-.351-.322-.736-.322-1.154 0-.613.254-1.11.762-1.488.507-.38 1.17-.569 1.986-.569zm-1.336 6.399c0 .336.117.597.352.785.234.187.554.281.96.281.45 0 .786-.096 1.008-.287.223-.195.334-.451.334-.768 0-.261-.111-.505-.334-.732-.218-.23-.576-.475-1.072-.732-.832.382-1.248.867-1.248 1.453zm1.324-5.075c-.308 0-.558.08-.75.24-.187.157-.281.368-.281.633 0 .235.074.446.223.633.152.184.425.373.82.569.383-.18.65-.364.803-.551.152-.188.228-.404.228-.65 0-.27-.098-.483-.293-.64-.195-.155-.445-.234-.75-.234z"/>
</svg>
