<svg width="64" height="64" viewBox="0 0 64 64" fill="none" xmlns="http://www.w3.org/2000/svg">
    <circle cx="32" cy="32" r="32" fill="#26324D"/>
    <path fill-rule="evenodd" clip-rule="evenodd" d="m40.984 16.487 7.4 3.021c.388.157.64.522.64.925v4.027c0 5.549-2.15 8.787-7.93 11.95a1.102 1.102 0 0 1-1.052 0c-5.78-3.171-7.93-6.41-7.93-11.95v-4.027c0-.403.252-.768.638-.925l7.4-3.02a1.11 1.11 0 0 1 .834 0zm-.646 12.631 4.228-5.034a.975.975 0 0 0-.167-1.414 1.098 1.098 0 0 0-1.487.157l-3.323 3.96-1.313-1.876c-.325-.465-.983-.586-1.465-.28a.977.977 0 0 0-.293 1.396l2.114 3.02c.188.269.498.434.835.448h.044c.32 0 .624-.139.827-.377zm-10.34-4.657v-2.014H17.314c-1.165 0-2.114.904-2.114 2.014v4.027h15.244c-.294-1.23-.446-2.555-.446-4.027zm18.94 8.055c-1.443 2.117-3.641 3.917-6.79 5.64a3.305 3.305 0 0 1-3.153.005c-3.15-1.728-5.348-3.53-6.792-5.645H15.2v10.07c0 1.11.95 2.013 2.114 2.013H46.91c1.167 0 2.114-.902 2.114-2.014v-10.07h-.087z" fill="#CAAB72"/>
    <path opacity=".1" fill-rule="evenodd" clip-rule="evenodd" d="M32 64c17.673 0 32-14.327 32-32C64 14.327 49.673 0 32 0v64z" fill="#222939"/>
</svg>
