<svg xmlns="http://www.w3.org/2000/svg" width="24" height="25" fill="none" viewBox="0 0 24 25">
    <path fill="#B5B5B5" d="M11.894.754c-2.896 0-5.675 1.15-7.723 3.2C2.123 6.001.972 8.78.972 11.675v.014c-.031 1.504.267 2.997.874 4.373.652 1.417 1.581 2.687 2.734 3.736l-.24.183.284.12-.007.308.272-.146.24.198.056-.305.302-.062-.204-.233.14-.275-.308.013-.128-.28-.181.25-.04-.01c-1.11-1.02-2.008-2.249-2.64-3.617-.546-1.266-.837-2.628-.855-4.008h.775c-.01.527.054 1.052.19 1.56l-.09.018.133.16-.098.182h.207l.082.19.12-.165.2.054-.051-.2.168-.12-.188-.086.008-.207-.185.095-.03-.027c-.124-.473-.18-.96-.171-1.449h1.646c-.01 1.632.54 3.218 1.56 4.492l-.12.079.183.098-.023.207.19-.082.146.146.056-.199.206-.023-.12-.168.11-.175-.207-.01-.069-.195-.12.13c-.97-1.224-1.497-2.739-1.497-4.3h11.011c-.066-.587-.273-1.15-.605-1.64-.331-.489-.777-.89-1.297-1.17l.031.128-.338-.095-.215.277-.136-.324h-.351l.168-.308-.224-.271.347-.06.074-.345.262.233.315-.156-.018.35.32.148-.17.12c.584.304 1.083.746 1.455 1.288.373.542.605 1.167.68 1.82h1.99c-.031-.886-.274-1.752-.71-2.524-.434-.773-1.048-1.43-1.79-1.916l.066.233-.519-.12-.31.434-.225-.48-.533.028.24-.48-.354-.399.523-.112.09-.525.414.337.466-.256v.533l.492.207-.348.27c.826.504 1.514 1.204 2.003 2.038.49.835.765 1.777.802 2.743h1.421c-.095-1.652-.698-3.234-1.726-4.53-.669-.777-1.5-1.397-2.436-1.815-.936-.419-1.952-.626-2.976-.608l.17.464-.6-.098-.316.523-.3-.532-.6.08.229-.567-.44-.424.586-.174.057-.609.501.35.512-.334.04.609.579.192-.252.229c1.044-.001 2.076.225 3.024.662.949.437 1.79 1.075 2.468 1.87 1.077 1.344 1.706 2.992 1.8 4.712h.593c-.027-1.658-.564-3.268-1.537-4.611-1.025-1.386-2.448-2.427-4.08-2.984v.227l-.257-.141-.227.186-.05-.29-.287-.061.195-.22-.13-.262.292.015.12-.265.17.24.286-.07-.08.282.13.101c1.668.575 3.122 1.648 4.163 3.074 1.001 1.396 1.555 3.063 1.586 4.78h2.316v-.26c.001-1.436-.28-2.86-.83-4.187-.55-1.327-1.354-2.533-2.37-3.549-1.017-1.015-2.223-1.82-3.55-2.369-1.328-.548-2.751-.83-4.188-.828z"/>
    <path fill="#B5B5B5" d="M7.743 15.046v2.019c0 .14-.033.245-.1.317-.066.071-.15.107-.253.107-.102 0-.186-.036-.25-.11-.064-.073-.095-.178-.095-.314v-1.998c0-.138.031-.242.094-.312.065-.07.149-.105.251-.105.102 0 .187.035.253.105.067.07.1.167.1.291zm-.345-.721c-.098 0-.181-.03-.251-.09-.068-.06-.102-.144-.102-.253 0-.099.035-.18.105-.243.071-.065.154-.097.248-.097.09 0 .17.029.24.087.07.058.105.142.105.253 0 .107-.034.192-.102.253-.069.06-.15.09-.243.09zm3.553-.023h-.829v2.724c0 .157-.035.274-.105.35-.07.076-.16.113-.271.113-.113 0-.205-.038-.276-.115-.07-.077-.105-.193-.105-.348v-2.724h-.829c-.13 0-.226-.028-.289-.085-.063-.058-.095-.133-.095-.227 0-.098.033-.174.098-.23.066-.057.162-.085.286-.085h2.415c.131 0 .228.03.291.087.065.058.098.134.098.228s-.033.17-.098.227c-.064.057-.162.085-.291.085zm2.407 1.939h-1.366c.002.159.033.298.095.42.063.12.146.212.248.273.104.061.218.092.343.092.083 0 .16-.01.227-.028.07-.02.138-.051.202-.092.065-.043.125-.088.18-.136.054-.047.125-.112.212-.194.036-.03.087-.046.153-.046.072 0 .13.02.174.059.044.039.067.094.067.166 0 .063-.025.137-.075.223-.049.083-.124.164-.225.243-.098.076-.224.14-.376.192-.15.05-.323.076-.519.076-.449 0-.797-.128-1.046-.384-.25-.255-.374-.602-.374-1.04 0-.207.031-.398.092-.574.062-.177.151-.329.269-.455.118-.126.263-.223.435-.289.172-.068.363-.102.573-.102.273 0 .506.058.7.174.197.114.344.262.44.445.098.182.147.368.147.557 0 .176-.05.29-.151.343-.1.051-.242.077-.425.077zm-1.366-.397h1.266c-.017-.238-.082-.417-.194-.534-.111-.12-.258-.18-.44-.18-.174 0-.317.061-.43.182-.11.12-.178.297-.202.532zm5.037.78c0 .088-.026.18-.08.28-.05.098-.13.193-.237.283-.106.09-.24.16-.402.215-.162.055-.344.082-.547.082-.432 0-.769-.125-1.01-.376-.243-.252-.364-.59-.364-1.013 0-.286.055-.54.166-.76.111-.22.271-.39.481-.509.21-.12.46-.181.752-.181.181 0 .346.026.497.079.151.053.28.121.383.205.106.083.186.173.24.268.057.094.085.182.085.264 0 .083-.031.154-.095.212-.06.058-.136.087-.225.087-.058 0-.106-.014-.145-.043-.038-.031-.08-.08-.128-.146-.086-.13-.175-.227-.269-.292-.092-.065-.21-.097-.353-.097-.206 0-.373.08-.499.243-.126.16-.19.38-.19.66 0 .131.017.252.05.363.032.11.079.203.14.282.062.076.136.135.223.176.087.04.182.059.286.059.14 0 .26-.033.358-.097.101-.065.19-.164.266-.297.043-.079.09-.14.139-.184.049-.045.11-.067.181-.067.085 0 .156.033.213.097.056.065.084.134.084.208zm1.161-2.588v1.036c.089-.102.175-.183.259-.243.085-.06.179-.104.281-.133.102-.03.212-.046.33-.046.177 0 .334.037.47.112.139.075.247.184.326.328.05.083.082.177.1.281.017.102.025.221.025.356v1.338c0 .14-.032.245-.097.317-.063.071-.148.107-.253.107-.23 0-.346-.141-.346-.424v-1.18c0-.223-.033-.394-.1-.514-.066-.12-.192-.181-.378-.181-.125 0-.237.035-.338.107-.099.07-.173.166-.222.289-.038.104-.057.29-.057.555v.924c0 .138-.031.243-.094.317-.062.071-.148.107-.259.107-.23 0-.345-.141-.345-.424v-3.03c0-.14.03-.246.09-.316.06-.072.146-.108.255-.108.111 0 .197.036.259.108.063.071.094.177.094.317zM7.663 19.362v2.153h1.215c.096 0 .17.024.222.07.052.048.078.107.078.178 0 .073-.025.132-.076.178-.052.044-.126.067-.224.067H7.43c-.13 0-.225-.03-.283-.087-.056-.058-.085-.151-.085-.28v-2.28c0-.12.027-.211.081-.271.055-.061.127-.091.216-.091.09 0 .163.03.218.09.056.06.085.15.085.273zm3.265 2.385c-.133.104-.262.182-.388.234-.123.051-.262.077-.417.077-.142 0-.266-.027-.374-.083-.106-.056-.188-.132-.246-.228-.058-.095-.087-.199-.087-.31 0-.151.048-.28.144-.386.095-.106.226-.178.393-.214l.26-.054c.14-.029.258-.054.356-.077.1-.024.207-.053.323-.087-.007-.145-.037-.251-.09-.319-.05-.068-.157-.103-.32-.103-.14 0-.246.02-.317.059-.07.039-.13.098-.182.175-.05.078-.085.13-.106.156-.02.024-.065.036-.134.036-.062 0-.115-.02-.161-.058-.045-.04-.067-.092-.067-.154 0-.097.035-.19.103-.282.069-.092.176-.167.321-.226.145-.06.326-.089.543-.089.242 0 .433.029.571.087.139.056.236.146.293.27.057.124.086.288.086.493 0 .129 0 .238-.002.328 0 .09 0 .19-.002.301 0 .104.017.212.05.325.036.112.053.184.053.216 0 .057-.027.108-.08.155-.053.046-.113.07-.18.07-.057 0-.112-.027-.168-.08-.055-.053-.113-.13-.175-.232zm-.036-.797c-.081.03-.199.061-.353.095-.154.032-.26.056-.32.073-.059.014-.115.045-.169.09-.054.045-.08.107-.08.188 0 .084.031.155.094.214.063.058.146.087.248.087.11 0 .21-.024.301-.07.093-.05.16-.111.204-.186.05-.084.075-.221.075-.412v-.079zm1.553-1.636v.841c.104-.108.21-.19.317-.246.108-.058.241-.087.4-.087.183 0 .343.044.48.131.139.086.246.212.321.378.077.164.115.359.115.585 0 .167-.021.32-.064.46-.042.139-.103.259-.184.361-.08.102-.179.182-.295.238-.114.055-.24.083-.38.083-.084 0-.164-.01-.24-.03-.073-.02-.136-.047-.189-.079-.052-.034-.098-.068-.135-.103-.036-.035-.085-.087-.146-.157v.054c0 .104-.024.183-.074.236-.05.053-.113.08-.19.08-.078 0-.14-.027-.188-.08-.045-.053-.068-.132-.068-.236v-2.405c0-.112.022-.196.066-.253.046-.057.11-.086.19-.086.085 0 .15.027.196.082.046.054.068.132.068.233zm.027 1.636c0 .22.05.388.15.507.1.117.232.175.395.175.138 0 .257-.06.357-.18.1-.12.151-.293.151-.518 0-.145-.02-.27-.062-.375-.042-.105-.101-.186-.178-.242-.077-.058-.166-.087-.268-.087-.105 0-.199.029-.28.087-.083.056-.148.139-.195.248-.047.107-.07.236-.07.385zm3.822.388c0 .152-.037.282-.111.391-.074.108-.184.19-.329.246-.144.055-.32.083-.527.083-.197 0-.367-.03-.508-.09-.142-.061-.246-.137-.313-.227-.067-.091-.1-.183-.1-.274 0-.06.02-.113.064-.156.043-.043.097-.064.163-.064.058 0 .102.014.133.042.031.028.06.068.09.12.056.097.123.17.2.22.08.048.188.072.324.072.11 0 .2-.024.27-.073.072-.05.107-.106.107-.17 0-.096-.037-.167-.11-.211-.074-.045-.194-.087-.362-.127-.19-.047-.345-.097-.464-.148-.119-.052-.213-.12-.285-.206-.071-.084-.107-.188-.107-.312 0-.11.033-.215.1-.313.065-.098.162-.176.29-.234.129-.06.284-.089.466-.089.143 0 .27.015.383.044.115.03.21.07.285.12.077.05.134.104.174.165.04.06.06.12.06.178 0 .063-.021.115-.065.155-.041.04-.101.06-.18.06-.056 0-.104-.016-.145-.048-.039-.032-.084-.08-.135-.145-.041-.054-.09-.097-.147-.13-.056-.032-.133-.048-.23-.048-.1 0-.182.022-.248.065-.066.041-.1.094-.1.157 0 .058.025.106.074.143.048.037.113.067.195.091.082.024.195.054.34.089.17.042.31.091.417.15.109.057.191.126.246.205.057.078.085.168.085.269z"/>
</svg>
