<svg xmlns="http://www.w3.org/2000/svg" width="107" height="150" fill="none" viewBox="0 0 107 150">
    <g clip-path="url(#clip0)">
        <path fill="#fff" d="M52.041 36.44c-9.7 0-17.6 7.9-17.6 17.6 0 9.7 7.9 17.6 17.6 17.6 9.7 0 17.6-7.9 17.6-17.6.1-9.7-7.8-17.6-17.6-17.6z"/>
        <path fill="#92278F" d="M14.841 22.94c-.1.2-.1.4 0 .6.1.1.1.2.2.2l18.7 10.9c.2.1.4.1.6 0 .1 0 .1-.1.2-.2v-.1c1.7-3.1 4.1-5.8 7.2-7.9 3.1-2.2 6.4-3.5 9.9-4.1h.1c.1 0 .1 0 .2-.1.2-.1.3-.4.2-.6l-4-21.2c0-.1-.1-.2-.1-.2-.1-.2-.3-.3-.6-.2h-.1c-6.6 1.2-13.1 3.8-19 8-5.6 3.8-10.2 9-13.5 14.9z"/>
        <path fill="#005BAA" d="M4.141 63.94c.1.2.3.3.5.4.1 0 .2 0 .3-.1l20.2-7.8c.2-.1.4-.3.4-.5V55.64c-1.3-3.3-1.9-6.8-1.7-10.6.2-3.7 1.3-7.2 3-10.3v-.1c0-.1.1-.1.1-.2 0-.2-.1-.5-.3-.6l-19-10.2c-.1 0-.2-.1-.3-.1-.2 0-.4.1-.5.3-3.2 5.9-5.2 12.6-5.7 19.8-.6 7.2.5 14.1 3 20.3z"/>
        <path fill="#009BDF" d="M29.741 97.64c.2.1.4 0 .6-.2.1-.1.1-.2.1-.3l6.4-20.6c.1-.2 0-.5-.2-.6-.1-.1-.1-.1-.2-.1h-.1c-3.4-1-6.6-2.7-9.3-5.2-2.8-2.5-4.9-5.5-6.2-8.7v-.1c0-.1-.1-.1-.1-.2-.2-.2-.4-.2-.6-.1l-19.8 8.6c-.1 0-.2.1-.2.2-.1.2-.2.4-.1.6 2.6 6.2 6.7 11.9 12 16.7 5.2 4.7 11.3 8.1 17.7 10z"/>
        <path fill="#00A651" d="M71.841 98.64c.2-.1.3-.3.2-.6 0-.1-.1-.2-.1-.3l-12-17.9c-.1-.2-.4-.3-.6-.2-.1 0-.1 0-.2.1 0 0-.1 0-.1.1-2.9 2-6.2 3.4-9.9 4-3.7.6-7.3.3-10.7-.6H38.141c-.2 0-.4.2-.5.4l-5.7 20.799v.3c0 .2.2.4.4.5h.1c6.5 1.8 13.5 2.3 20.5 1.1 7-1.2 13.4-3.9 18.9-7.7z"/>
        <path fill="#FFF200" d="M99.341 66.54c0-.2-.1-.4-.3-.5-.1-.1-.2-.1-.3-.1l-21.5-1.7c-.2 0-.4.1-.6.3 0 .1-.1.1-.1.2v.1c-.2 3.5-1.2 7-3 10.3-1.8 3.3-4.3 6-7.1 8h-.1c-.1 0-.1.1-.2.2-.1.2-.1.5 0 .6l12.8 17.399.2.2c.2.1.4.1.6 0 5.4-3.9 10.2-9.1 13.6-15.4 3.6-6.2 5.5-12.9 6-19.6z"/>
        <path fill="#F68B1F" d="M91.141 24.94c-.2-.1-.4-.2-.6-.1-.1 0-.2.1-.2.2l-14.9 15.7c-.1.2-.2.4-.1.6 0 .1.1.1.1.2l.1.1c2.6 2.4 4.7 5.3 6.1 8.8 1.4 3.5 1.9 7.1 1.7 10.6V61.34c.1.2.3.4.5.4l21.6 1c.1 0 .2 0 .3-.1.2-.1.3-.3.4-.5v-.1c.4-6.7-.7-13.7-3.4-20.3-2.6-6.5-6.7-12.2-11.6-16.8z"/>
        <path fill="#ED1C24" d="M53.441 5.64c-.2 0-.4.2-.5.4v.3l3.2 21.4c0 .2.2.4.4.5H56.841c3.5-.6 7.1-.4 10.7.7 3.6 1 6.8 2.8 9.4 5.2h.1c.1 0 .1.1.2.1.2.1.5 0 .6-.2l14.1-16.3c.1-.1.1-.1.1-.2.1-.2 0-.4-.2-.6-5-4.4-11.2-7.9-18.1-9.9-6.7-2.1-13.7-2.5-20.3-1.4z"/>
        <path fill="#000" d="M52.041 36.14c-9.9 0-17.9 8-17.9 17.9 0 9.9 8 17.9 17.9 17.9 9.9 0 17.9-8 17.9-17.9 0-9.9-8-17.9-17.9-17.9zm13 28c.3-.7.4-1.6.4-2.2-.4.3-.7.7-1.2 1-1.2.9-2.6 1.5-3.8 1.7l-3.4-3.8 2.5 4.4c-.7 1.1-1.6 2.2-2.9 3.2-.4.3-.8.6-1.3.8.6.1 1.5.3 2.2.3-1.7.6-3.6 1-5.5 1s-3.8-.3-5.5-1c.8 0 1.6-.1 2.3-.3-.4-.2-.9-.5-1.3-.8-1.2-.9-2.2-2-2.9-3.1l2.5-4.4-3.5 3.8c-1.3-.3-2.6-.9-3.8-1.7-.4-.3-.8-.6-1.2-1 .1.7.2 1.5.4 2.2-2.2-2.8-3.5-6.3-3.5-10.1v-.5c.2.8.6 1.5 1 2.1.1-.5.2-1 .4-1.5.5-1.5 1.2-2.7 2.1-3.7l4.9 1v-.1l-4.6-2.1c-.1-1.3 0-2.7.5-4.2.2-.5.3-1 .6-1.4-.6.3-1.5.7-2.1 1.2 2.2-3.2 5.4-5.6 9.2-6.7-.7.4-1.3 1.1-1.8 1.6.5-.1 1-.1 1.5-.1 1.5 0 3 .3 4.2.9l.6 5h.1l.6-5c1.2-.5 2.6-.9 4.2-.9.5 0 1 0 1.5.1-.5-.5-1.1-1.2-1.8-1.6 3.8 1.1 7.1 3.5 9.2 6.7-.6-.5-1.5-.9-2.1-1.2.2.4.4.9.6 1.4.5 1.4.6 2.9.5 4.2l-4.6 2.1v.1l4.9-1c.9 1 1.6 2.2 2.1 3.7.2.5.3 1 .4 1.5.3-.6.8-1.4 1-2.1v.5c-.1 3.7-1.4 7.2-3.6 10z"/>
        <path fill="#000" d="M44.841 51.64l2.8 8.5h8.9l2.8-8.5-7.3-5.2-7.2 5.2z"/>
        <path fill="#fff" d="M.241 118.839v24h13.7v-5.4h-7.5v-18.6h-6.2zM25.441 128.639c-2.8 0-4.5 2.1-4.5 4.6 0 2.7 1.7 4.9 4.4 4.9 2.6 0 4.7-1.9 4.7-4.7-.1-2.9-2.1-4.8-4.6-4.8zm-10.4 4.7c0-5.4 4-10.1 9.3-10.1 2.3 0 3.8.8 5.5 2.3v-2h5.7v19.3h-5.8v-1.9s-2.1 2.3-5.7 2.3c-5.4.1-9-3.7-9-9.9zM52.741 142.839h-13.8v-24h6.2v18.6h7.6v5.4zM61.141 142.839h-5.8v-19.2h5.8v19.2zm-6.4-24.1c0-1.9 1.6-3.5 3.5-3.5s3.5 1.5 3.5 3.5-1.6 3.6-3.6 3.6c-1.9-.1-3.4-1.6-3.4-3.6zM73.241 128.239c-2.7 0-4 2.2-4 4.6 0 2.5 1.5 4.5 4 4.5 2.9 0 4.5-2.3 4.5-4.5-.1-2.5-1.5-4.6-4.5-4.6zm-9.7 4.6c0-5.2 3.3-9.6 8.3-9.6 2.4 0 4.1.8 5.7 2.5v-2.2h5.5v16.9c0 5.9-4.5 9-9.8 9-4.7 0-8.8-2.4-9.4-6.7h6.5c.8 1.3 1.6 1.6 3.1 1.6 2 0 3.9-.9 3.9-3v-1.4c-1.1 1-3.2 2.2-5.5 2.2-4.9.1-8.3-4-8.3-9.3zM96.141 128.639c-2.8 0-4.5 2.1-4.5 4.6 0 2.7 1.7 4.9 4.4 4.9 2.6 0 4.7-1.9 4.7-4.7-.1-2.9-2.1-4.8-4.6-4.8zm-10.4 4.7c0-5.4 4-10.1 9.3-10.1 2.3 0 3.8.8 5.5 2.3v-2h5.7v19.3h-5.8v-1.9s-2.1 2.3-5.7 2.3c-5.4.1-9-3.7-9-9.9z"/>
    </g>
    <defs>
        <clipPath id="clip0">
            <path fill="#fff" d="M0 0H106.241V149.439H0z"/>
        </clipPath>
    </defs>
</svg>
