<svg xmlns="http://www.w3.org/2000/svg" width="36" height="25" fill="none" viewBox="0 0 36 25">
    <path fill="#B5B5B5" d="M3.84 10.754c.497 0 .9-.128.9-.285 0-.157-.403-.284-.9-.284s-.9.127-.9.284c0 .157.403.285.9.285zM2.54 12.149c.498 0 .9-.13.9-.29 0-.16-.402-.29-.9-.29-.496 0-.9.13-.9.29 0 .16.404.29.9.29zM2.54 13.81c.608 0 1.101-.158 1.101-.352 0-.194-.493-.351-1.1-.351-.608 0-1.1.157-1.1.351 0 .194.492.352 1.1.352zM4.01 15.652c.702 0 1.271-.179 1.271-.4 0-.22-.569-.4-1.27-.4-.702 0-1.271.18-1.271.4 0 .221.569.4 1.27.4zM25.628 17.146c.69 0 1.25-.125 1.25-.28 0-.154-.56-.28-1.25-.28s-1.25.126-1.25.28c0 .155.56.28 1.25.28zM7.12 16.985c.762 0 1.38-.179 1.38-.4 0-.22-.618-.4-1.38-.4-.762 0-1.38.18-1.38.4 0 .221.618.4 1.38.4zM21.058 17.945c.762 0 1.38-.179 1.38-.4 0-.22-.618-.4-1.38-.4-.762 0-1.38.18-1.38.4 0 .221.618.4 1.38.4zM33.259 15.178c-.202.052-.41.077-.619.074-.496 0-.9-.12-.9-.268 0-.15.404-.27.9-.27.176 0 .352.016.525.051-.036-.295-.052-.591-.05-.888V9.335c-.006-.521-.105-1.038-.29-1.525-.155-.473-.428-.898-.794-1.235-.51-.435-1.13-.721-1.792-.828-.941-.15-1.894-.216-2.847-.2-.688-.003-1.375.052-2.053.165-.52.074-1.023.231-1.492.466-.455.236-.85.572-1.157.983-.307.473-.517 1.004-.616 1.56l3.768.397c.097-.363.312-.683.61-.91.447-.236.95-.343 1.453-.31.377-.04.753.065 1.056.291.23.286.339.651.3 1.016-.456.182-.921.339-1.394.47-.441.12-1.4.328-2.88.625-.94.107-1.826.499-2.538 1.123-.469.53-.715 1.221-.688 1.929-.005.398.077.793.242 1.157.165.363.408.685.712.944.794.62 1.79.923 2.794.852.83.016 1.656-.128 2.431-.426.12-.048.228-.106.341-.167.027-.02.056-.035.086-.047.405-.237.778-.523 1.113-.852.029.221.074.44.135.654 0 .013.016.035.02.05.614.017 1.089.134 1.089.275 0 .12-.347.223-.827.262l.009.018h3.7c-.142-.287-.258-.586-.347-.894zm-3.998-3.36c.017.413-.066.825-.24 1.2-.185.333-.465.605-.804.78-.373.211-.796.322-1.225.32-.344.024-.684-.081-.954-.296-.103-.095-.185-.21-.241-.337-.057-.128-.086-.267-.086-.406 0-.14.03-.279.086-.407.056-.128.138-.242.241-.337.457-.315.975-.53 1.52-.63.589-.149 1.154-.32 1.696-.514l.007.627zM19.75 15.102V5.734h-3.557V7.2c-.362-.536-.843-.98-1.407-1.298-.596-.282-1.251-.417-1.91-.393-.547-.02-1.092.078-1.598.287-.506.21-.961.526-1.334.928-.81.99-1.21 2.254-1.122 3.53-.055 1.151.249 2.29.87 3.26.344.54.82.981 1.381 1.285.563.304 1.193.46 1.832.452.58.015 1.155-.107 1.679-.355s.982-.616 1.338-1.074v1.503c.054.544-.09 1.088-.407 1.533-.162.156-.355.275-.567.35-.211.077-.437.107-.66.09-.374.013-.743-.088-1.056-.291-.223-.178-.376-.43-.43-.71l-3.69-.42c-.012.212-.017.38-.017.504-.017.46.076.917.27 1.334.194.417.483.782.845 1.066 1.24.723 2.676 1.037 4.105.897.78.01 1.558-.069 2.32-.233.608-.124 1.179-.383 1.672-.757.454-.368.816-.836 1.056-1.368.263-.556.398-1.164.396-1.779l-.01-.439zm-8.532 2.685c-.9 0-1.628-.18-1.628-.401 0-.22.729-.4 1.628-.4.898 0 1.627.18 1.627.4 0 .22-.726.4-1.627.4zm4.251-5.67c-.15.17-.335.304-.54.397-.207.093-.43.142-.656.144-.226.001-.45-.044-.657-.134-.207-.09-.393-.222-.547-.388-.34-.458-.502-1.023-.457-1.591-.055-.616.098-1.233.433-1.752.14-.172.319-.309.52-.4.202-.092.423-.136.644-.128.236-.002.468.048.681.148.213.1.402.245.552.427.365.472.544 1.061.503 1.657.047.58-.123 1.158-.476 1.62zm.5 6.148c-.9 0-1.629-.196-1.629-.439 0-.242.73-.44 1.628-.44.9 0 1.628.197 1.628.44 0 .244-.729.44-1.628.44z"/>
</svg>
