<svg width="64" height="64" viewBox="0 0 64 64" fill="none" xmlns="http://www.w3.org/2000/svg">
    <circle cx="32" cy="32" r="32" fill="#26324D"/>
    <path d="M32 13.6c-10.162 0-18.4 8.238-18.4 18.4 0 10.162 8.238 18.4 18.4 18.4 10.162 0 18.4-8.238 18.4-18.4 0-10.162-8.238-18.4-18.4-18.4zm6.36 19.375-9.2 5.75a1.151 1.151 0 0 1-1.76-.975v-11.5a1.15 1.15 0 0 1 1.76-.976l9.2 5.75a1.151 1.151 0 0 1 0 1.951z" fill="#CAAB72"/>
    <path opacity=".1" fill-rule="evenodd" clip-rule="evenodd" d="M32 64c17.673 0 32-14.327 32-32C64 14.327 49.673 0 32 0v64z" fill="#222939"/>
</svg>
