<svg xmlns="http://www.w3.org/2000/svg" width="129" height="25" fill="none" viewBox="0 0 129 25">
    <g clip-path="url(#prefix__clip0)">
        <path fill="#B5B5B5" d="M34.898 5.976h.826V18h-.826V5.976zm14.917 9.117L46.91 7.5h-.047c.055.601.082 1.316.082 2.144v5.45h-.92V6.526h1.5l2.713 7.066h.047l2.736-7.066h1.489v8.566h-.996v-5.52c0-.632.027-1.32.082-2.062h-.047l-2.93 7.582h-.803zm9.293-8.69c.782 0 1.4.182 1.858.546.457.363.685.865.685 1.506 0 .421-.13.806-.392 1.154-.262.348-.68.664-1.254.95.695.331 1.19.68 1.482 1.048.293.363.44.785.44 1.266 0 .71-.248 1.279-.744 1.705-.496.421-1.176.632-2.04.632-.913 0-1.617-.199-2.109-.597-.492-.403-.738-.97-.738-1.705 0-.98.598-1.744 1.793-2.291-.54-.305-.926-.633-1.16-.985-.235-.355-.352-.752-.352-1.19 0-.62.229-1.114.686-1.482.46-.37 1.076-.556 1.845-.556zm-1.851 6.528c0 .469.162.834.486 1.096.328.262.787.392 1.377.392.582 0 1.035-.136 1.36-.41.324-.273.486-.648.486-1.125 0-.379-.153-.715-.457-1.008-.305-.296-.836-.583-1.594-.86-.582.25-1.004.527-1.266.831-.261.3-.392.662-.392 1.084zm1.84-5.736c-.489 0-.871.117-1.149.351-.277.235-.416.547-.416.938 0 .36.116.668.346.926.23.257.656.515 1.277.773.559-.234.953-.486 1.184-.756.234-.27.351-.584.351-.943 0-.395-.142-.707-.427-.938-.282-.234-.67-.351-1.166-.351zm6.879-.791c.78 0 1.4.181 1.857.545.457.363.686.865.686 1.506 0 .421-.131.806-.393 1.154-.262.348-.68.664-1.254.95.695.331 1.19.68 1.483 1.048.292.363.439.785.439 1.266 0 .71-.248 1.279-.744 1.705-.496.421-1.176.632-2.04.632-.913 0-1.616-.199-2.109-.597-.492-.403-.738-.97-.738-1.705 0-.98.598-1.744 1.793-2.291-.539-.305-.926-.633-1.16-.985-.234-.355-.352-.752-.352-1.19 0-.62.229-1.114.686-1.482.46-.37 1.076-.556 1.846-.556zm-1.852 6.527c0 .469.162.834.486 1.096.329.262.787.392 1.377.392.582 0 1.035-.136 1.36-.41.324-.273.486-.648.486-1.125 0-.379-.152-.715-.457-1.008-.305-.296-.836-.583-1.594-.86-.582.25-1.004.527-1.265.831-.262.3-.393.662-.393 1.084zm1.84-5.736c-.488 0-.871.117-1.149.351-.277.235-.416.547-.416.938 0 .36.116.668.346.926.23.257.656.515 1.277.773.56-.234.954-.486 1.184-.756.234-.27.352-.584.352-.943 0-.395-.143-.707-.428-.938-.281-.234-.67-.351-1.166-.351zm4.347 7.277c0-.262.06-.459.176-.592.121-.136.293-.205.516-.205.227 0 .402.069.527.205.13.133.194.33.194.592 0 .254-.065.45-.194.586-.129.137-.304.205-.527.205-.2 0-.365-.06-.498-.181-.129-.126-.194-.329-.194-.61zm5.907.738c-.93 0-1.65-.285-2.162-.855-.508-.574-.762-1.385-.762-2.432 0-1.074.258-1.904.773-2.49.52-.586 1.258-.879 2.215-.879.309 0 .617.033.926.1.309.066.55.144.727.234l-.3.826c-.214-.086-.449-.156-.702-.21-.254-.06-.479-.088-.674-.088-1.305 0-1.957.832-1.957 2.496 0 .789.158 1.394.474 1.816.32.422.793.633 1.418.633.535 0 1.084-.115 1.647-.346v.861c-.43.223-.97.334-1.623.334zm8.695-3.334c0 1.047-.264 1.866-.79 2.456-.528.585-1.257.878-2.187.878-.574 0-1.084-.134-1.529-.404-.445-.27-.789-.656-1.031-1.16-.242-.504-.363-1.094-.363-1.77 0-1.046.261-1.86.785-2.443.523-.586 1.25-.879 2.18-.879.898 0 1.61.299 2.138.897.531.597.797 1.406.797 2.425zm-4.892 0c0 .82.164 1.446.492 1.876.328.43.81.644 1.447.644s1.12-.213 1.447-.639c.332-.43.498-1.056.498-1.88 0-.817-.166-1.436-.498-1.858-.328-.426-.814-.639-1.459-.639-.636 0-1.117.21-1.441.627-.324.418-.487 1.041-.487 1.87zm14.789 3.217v-4.178c0-.511-.11-.894-.329-1.148-.218-.258-.558-.387-1.02-.387-.605 0-1.052.174-1.34.522-.29.348-.434.883-.434 1.605v3.586h-.973v-4.178c0-.511-.11-.894-.328-1.148-.219-.258-.56-.387-1.026-.387-.609 0-1.056.184-1.341.551-.282.363-.422.961-.422 1.793v3.37h-.973V8.67h.791l.158.88h.047c.184-.313.441-.557.774-.733.335-.176.71-.264 1.125-.264 1.003 0 1.66.363 1.968 1.09h.047c.192-.336.469-.602.832-.797.364-.195.778-.293 1.242-.293.727 0 1.27.188 1.63.563.363.37.544.966.544 1.787v4.19h-.972zm11.285 0h-5.631v-.838l2.256-2.267c.687-.695 1.14-1.192 1.359-1.489.219-.296.383-.585.492-.867.11-.28.164-.584.164-.908 0-.457-.138-.818-.416-1.084-.277-.27-.662-.404-1.154-.404-.355 0-.693.058-1.014.176-.316.117-.67.33-1.06.638l-.516-.662c.789-.656 1.649-.984 2.578-.984.805 0 1.436.207 1.893.62.457.411.685.964.685 1.66 0 .542-.152 1.08-.457 1.61-.304.532-.875 1.204-1.711 2.016l-1.875 1.834v.047h4.407v.902zm6.914-4.295c0 1.48-.235 2.586-.703 3.317-.465.73-1.178 1.095-2.139 1.095-.922 0-1.623-.373-2.104-1.119-.48-.75-.72-1.847-.72-3.293 0-1.492.232-2.6.697-3.322.465-.723 1.174-1.084 2.127-1.084.93 0 1.635.377 2.115 1.13.485.755.727 1.847.727 3.276zm-4.682 0c0 1.246.147 2.155.44 2.725.293.566.759.85 1.4.85.648 0 1.117-.288 1.406-.862.293-.578.44-1.482.44-2.713 0-1.23-.147-2.13-.44-2.7-.289-.575-.758-.862-1.406-.862-.641 0-1.107.283-1.4.85-.293.562-.44 1.466-.44 2.712zm11.502 4.295h-5.631v-.838l2.256-2.267c.688-.695 1.141-1.192 1.359-1.489.219-.296.383-.585.493-.867.109-.28.164-.584.164-.908 0-.457-.139-.818-.416-1.084-.278-.27-.662-.404-1.155-.404-.355 0-.693.058-1.013.176-.317.117-.67.33-1.061.638l-.515-.662c.789-.656 1.648-.984 2.578-.984.804 0 1.435.207 1.892.62.457.411.686.964.686 1.66 0 .542-.153 1.08-.457 1.61-.305.532-.875 1.204-1.711 2.016l-1.875 1.834v.047h4.406v.902zm6.914-4.295c0 1.48-.234 2.586-.703 3.317-.465.73-1.178 1.095-2.139 1.095-.922 0-1.623-.373-2.103-1.119-.481-.75-.721-1.847-.721-3.293 0-1.492.233-2.6.697-3.322.465-.723 1.174-1.084 2.127-1.084.93 0 1.635.377 2.116 1.13.484.755.726 1.847.726 3.276zm-4.681 0c0 1.246.146 2.155.439 2.725.293.566.76.85 1.4.85.649 0 1.118-.288 1.407-.862.293-.578.439-1.482.439-2.713 0-1.23-.146-2.13-.439-2.7-.289-.575-.758-.862-1.407-.862-.64 0-1.107.283-1.4.85-.293.562-.439 1.466-.439 2.712zM3.854 12.693H1.587V11.41h2.267V9.125h1.284v2.285h2.267v1.283H5.138v2.256H3.854v-2.256zm9.03 3.586h-1.81v-4.957l.017-.814.03-.89c-.302.3-.51.497-.628.591L9.51 11l-.873-1.09 2.76-2.197h1.488v8.566zm5.332-8.677c.82 0 1.48.187 1.98.562.504.371.756.873.756 1.506 0 .437-.12.828-.363 1.172-.242.34-.633.644-1.172.914.64.344 1.1.703 1.377 1.078.281.371.422.78.422 1.225 0 .703-.276 1.27-.826 1.699-.551.426-1.276.639-2.174.639-.938 0-1.674-.2-2.21-.598-.534-.399-.802-.963-.802-1.694 0-.488.129-.921.387-1.3.261-.38.68-.713 1.254-1.002-.489-.309-.84-.639-1.055-.99-.215-.352-.322-.737-.322-1.155 0-.613.254-1.11.762-1.488.507-.379 1.17-.568 1.986-.568zM16.88 14c0 .336.117.598.351.785.235.188.555.281.961.281.45 0 .785-.095 1.008-.287.223-.195.334-.45.334-.767 0-.262-.111-.506-.334-.733-.219-.23-.576-.474-1.072-.732-.832.383-1.248.867-1.248 1.453zm1.324-5.074c-.309 0-.559.08-.75.24-.187.156-.281.367-.281.633 0 .234.074.445.223.633.152.183.425.373.82.568.383-.18.65-.363.803-.55.152-.188.228-.405.228-.651 0-.27-.098-.483-.293-.639-.195-.156-.445-.234-.75-.234z"/>
        <path stroke="#B5B5B5" stroke-miterlimit="10" stroke-width="1.197" d="M12.003 24.133c6.627 0 12-5.372 12-12 0-6.627-5.373-12-12-12s-12 5.373-12 12c0 6.628 5.373 12 12 12z"/>
    </g>
    <defs>
        <clipPath id="prefix__clip0">
            <path fill="#fff" d="M.003.133h128v24h-128v-24z"/>
        </clipPath>
    </defs>
</svg>
