<svg xmlns="http://www.w3.org/2000/svg" width="49" height="49" fill="none" viewBox="0 0 49 49">
    <path fill="url(#prefix__paint0_linear)" fill-rule="evenodd" d="M26.969 7.746c.6 0 .96-.48.96-.96v-3c0-.6-.48-.96-.96-.96-.6 0-.96.48-.96.96v2.88c-.12.6.36 1.08.96 1.08z" clip-rule="evenodd"/>
    <path fill="url(#prefix__paint1_linear)" fill-rule="evenodd" d="M22.889 10.386c.6 0 .96-.48.96-.96v-3c0-.6-.48-.96-.96-.96-.6 0-.96.48-.96.96v2.88c0 .6.36 1.08.96 1.08z" clip-rule="evenodd"/>
    <path fill="url(#prefix__paint2_linear)" fill-rule="evenodd" d="M22.889 3.666c.6 0 .96-.48.96-.96 0-.6-.48-.96-.96-.96-.6 0-.96.48-.96.96s.36.96.96.96z" clip-rule="evenodd"/>
    <path fill="url(#prefix__paint3_linear)" fill-rule="evenodd" d="M30.929 11.105c.6 0 .96-.48.96-.96 0-.6-.48-.96-.96-.96-.6 0-.96.48-.96.96 0 .6.48.96.96.96z" clip-rule="evenodd"/>
    <path fill="url(#prefix__paint4_linear)" fill-rule="evenodd" d="M39.089 18.665c-.6 0-.96.48-.96.96v.6c0 .48-.48.96-.96.96-.6 0-.96-.48-.96-.96v-2.52c0-.6-.48-.96-.96-.96-.6 0-.96.48-.96.96 0 .6-.48.96-.96.96-.6 0-.96-.48-.96-.96v-4.2c0-.6-.48-.96-.96-.96-.6 0-.96.48-.96.96v1.56c0 .6-.48.96-.96.96-.6 0-.96-.48-.96-.96v-4.56c0-.6-.48-.96-.96-.96-.6 0-.96.48-.96.96v3.84c0 .6-.48.96-.96.96-.6 0-.96-.48-.96-.96v-1.44c0-.6-.48-.96-.96-.96-.6 0-.96.48-.96.96v3c0 .6-.48.96-.96.96-.6 0-.96-.48-.96-.96v-4.08c0-.6-.48-.96-.96-.96-.6 0-.96.48-.96.96V18.305c0 .6-.48.96-.96.96-.6 0-.96-.48-.96-.96v-1.68c0-.6-.48-.96-.96-.96-.6 0-.96.48-.96.96v4.8c0 .6-.48.96-.96.96-.6 0-.96-.48-.96-.96v-1.56c0-.6-.48-.96-.96-.96-.6 0-.96.48-.96.96v19.08l13.68 8.64 15.12-8.76v-19.08c0-.6-.48-1.08-.96-1.08zm-7.08 17.16h-4.8v-3.6h-4.8v3.6h-4.8v-11.4h4.8v3.84h4.8v-3.84h4.8v11.4z" clip-rule="evenodd"/>
    <defs>
        <linearGradient id="prefix__paint0_linear" x1="10.205" x2="40.161" y1="5.215" y2="5.215" gradientUnits="userSpaceOnUse">
            <stop stop-color="#ED334D"/>
            <stop offset="1" stop-color="#F79826"/>
        </linearGradient>
        <linearGradient id="prefix__paint1_linear" x1="11.292" x2="40.986" y1="7.898" y2="7.898" gradientUnits="userSpaceOnUse">
            <stop stop-color="#ED334D"/>
            <stop offset="1" stop-color="#F79826"/>
        </linearGradient>
        <linearGradient id="prefix__paint2_linear" x1="10.62" x2="40.436" y1="2.612" y2="2.612" gradientUnits="userSpaceOnUse">
            <stop stop-color="#ED334D"/>
            <stop offset="1" stop-color="#F79826"/>
        </linearGradient>
        <linearGradient id="prefix__paint3_linear" x1="10.462" x2="40.008" y1="10.143" y2="10.143" gradientUnits="userSpaceOnUse">
            <stop stop-color="#ED334D"/>
            <stop offset="1" stop-color="#F79826"/>
        </linearGradient>
        <linearGradient id="prefix__paint4_linear" x1="9.747" x2="40.075" y1="28.517" y2="28.517" gradientUnits="userSpaceOnUse">
            <stop stop-color="#ED334D"/>
            <stop offset="1" stop-color="#F79826"/>
        </linearGradient>
    </defs>
</svg>
