<svg xmlns="http://www.w3.org/2000/svg" width="73" height="25" fill="none" viewBox="0 0 73 25">
    <path fill="#1A2332" d="M65.285 6.384c.287.166.629.211.95.126.32-.086.593-.295.76-.582.109-.19.166-.405.166-.623 0-.219-.059-.434-.168-.623-.11-.19-.266-.347-.455-.457-.19-.11-.404-.168-.623-.169-.219 0-.433.058-.623.167-.19.11-.347.267-.457.456-.082.142-.136.299-.158.461-.022.163-.01.328.031.487.043.158.116.307.216.437.1.13.225.239.367.32h-.006zm-.109-1.815c.17-.17.394-.277.634-.3.24-.024.481.036.681.17.201.134.348.333.418.564.07.23.058.478-.034.7-.093.223-.259.407-.471.52-.213.114-.458.15-.695.103-.236-.047-.45-.174-.602-.36-.153-.187-.236-.42-.236-.662-.002-.137.025-.273.078-.4.053-.126.13-.24.23-.335h-.003z"/>
    <path fill="#1A2332" d="M65.632 5.404h.128c.073-.004.144.02.2.067.08.088.148.187.201.294l.12.21h.265l-.162-.262c-.049-.085-.106-.165-.17-.24-.027 0-.053-.006-.076-.02-.023-.013-.043-.033-.056-.056-.013-.023-.02-.05-.02-.077 0-.026.008-.053.022-.076.014-.023.033-.041.057-.054.023-.013.05-.02.076-.019.027 0 .053.009.076.023s.041.034.054.057c.035-.033.063-.074.081-.118.019-.045.028-.093.027-.142-.002-.07-.024-.138-.064-.195-.04-.058-.095-.103-.16-.129-.113-.031-.23-.044-.348-.038h-.466V5.97h.217l-.002-.567zm0-.59h.253c.09-.007.182.009.266.045.025.017.046.04.06.067.013.028.018.059.015.09.002.03-.004.06-.018.087-.014.027-.034.05-.06.067-.076.038-.16.055-.246.05h-.265l-.005-.405zM64.096 7.614c.038.606-.034 1.214-.213 1.794l-2.188 7.247c-.11.33-.245.651-.405.96h2.172c.85-.029 1.674-.308 2.366-.802.692-.495 1.223-1.183 1.526-1.978l1.2-3.938c.116-.395.138-.812.064-1.217-.073-.405-.24-.788-.489-1.117-.246-.305-.558-.55-.913-.717-.356-.167-.744-.25-1.136-.242l-1.984.01z"/>
    <path fill="#1A2332" d="M64.357 7.696c-.028-.852-.308-1.676-.806-2.368-.457-.556-1.036-1-1.692-1.298-.655-.299-1.37-.444-2.09-.424H44.19c-1.296.062-2.551.475-3.63 1.196-1.08.72-1.943 1.72-2.498 2.894-.118.247-.219.501-.302.762l-2.25 7.32c-.186.586-.267 1.2-.24 1.814.028.834.304 1.641.792 2.319.414.542.952.979 1.568 1.273.617.294 1.294.438 1.977.419h14.655l.96-.013c1.315-.058 2.591-.457 3.704-1.158 1.114-.701 2.025-1.68 2.645-2.84.158-.308.29-.63.396-.96l2.146-7.092c.188-.595.27-1.22.243-1.844zM43.344 19.97h-3.72c-.452.024-.903-.069-1.309-.27-.406-.2-.754-.5-1.01-.874s-.412-.807-.452-1.259c-.04-.45.037-.904.223-1.317l2.336-7.432c.355-1.013 1.007-1.896 1.871-2.533.865-.637 1.9-.999 2.974-1.038h7.132c.01 0 .02.002.03.007.009.005.016.011.022.02.006.008.01.017.011.027.002.01.002.02-.001.03l-1.13 3.536c-.004.013-.012.024-.023.032s-.024.013-.038.013h-7.127c-.013 0-.027.004-.038.012-.01.008-.02.019-.023.032l-2.268 7.252c-.003.01-.003.02-.002.029.002.01.006.019.012.027s.014.015.023.02c.008.004.018.006.028.006h3.399c.013 0 .027-.004.038-.012.01-.008.019-.02.023-.032l.622-2.048c.003-.01.004-.02.003-.03-.002-.01-.006-.02-.012-.028s-.013-.015-.022-.02c-.01-.004-.02-.006-.03-.006h-1.498c-.01 0-.02-.003-.03-.007-.008-.005-.016-.011-.022-.02-.006-.007-.01-.017-.012-.027-.001-.01 0-.02.003-.03l.924-2.862c.004-.013.012-.025.023-.033.01-.008.024-.012.038-.012h5.215c.01 0 .02.002.029.007.009.004.017.01.023.019.006.008.01.017.011.027.002.01.001.02-.002.03l-1.55 5.04c-.315 1.022-.932 1.924-1.77 2.588-.838.665-1.857 1.06-2.924 1.136zM62.65 8.915l-2.196 7.206c-.378 1.067-1.06 2-1.964 2.683-.903.682-1.987 1.085-3.117 1.157h-3.42c-2.103 0-3.24-1.72-2.575-3.823l2.225-7.235c.364-1.04 1.034-1.945 1.922-2.598.888-.652 1.953-1.02 3.054-1.056h3.417c.456-.043.915.033 1.331.221.417.189.776.483 1.044.853s.434.805.483 1.26c.048.454-.024.914-.208 1.332h.004z"/>
    <path fill="#1A2332" d="M58.86 8.908h-3.47c-.013 0-.026.004-.038.013-.01.008-.018.02-.022.032l-2.273 7.268c-.003.01-.004.02-.003.029.002.01.006.02.012.027.005.008.013.015.022.02.009.004.019.006.029.006h3.497c.013 0 .027-.004.038-.012.01-.008.019-.02.023-.032l2.246-7.267c.003-.01.004-.02.003-.03-.002-.01-.006-.02-.012-.028s-.014-.015-.023-.02c-.009-.004-.019-.006-.03-.006zM7.79 7.614c-.783.03-1.536.307-2.152.79-.616.483-1.064 1.148-1.28 1.9l-1.264 4.12c-.113.389-.134.798-.061 1.195.072.398.237.773.48 1.096.243.295.551.53.9.687.348.157.728.232 1.11.22h29.824c-.027-.621.055-1.242.24-1.835l2.28-7.41c.084-.261.185-.516.303-.763H7.79zm2.048 6.487h-1.44c-.014 0-.027.005-.038.013-.01.009-.02.02-.023.033l-.44 1.404c-.005.013-.013.025-.024.033-.012.008-.025.013-.04.013H6.478c-.01 0-.02-.003-.03-.007-.008-.005-.016-.012-.022-.02-.006-.008-.01-.018-.011-.027-.002-.01-.002-.02.001-.03l1.8-5.843c.005-.013.013-.024.024-.032.01-.008.024-.013.038-.012h2.978c.182-.01.362.027.525.108.163.08.303.201.405.35.103.15.166.325.182.506.016.18-.015.363-.09.528l-.467 1.492c-.145.416-.409.78-.76 1.045-.35.266-.773.421-1.212.447zm6.206 1.514h-4.422l1.846-5.947c.004-.014.012-.025.023-.033s.024-.013.038-.013h1.363c.01 0 .02.002.03.007.008.004.016.01.022.019.006.008.01.017.012.027.002.01.002.02-.001.03l-1.32 4.32c-.003.01-.004.02-.002.03.002.01.006.02.012.028s.013.014.023.019c.009.005.019.007.029.007h1.31c.014 0 .028-.005.04-.013.01-.008.018-.02.023-.033l.446-1.4c.004-.014.013-.025.024-.033.011-.009.025-.013.039-.013h1.362c.01 0 .02.002.029.007.009.005.017.011.023.02.006.008.01.017.012.027.002.01.001.02-.002.03l-.9 2.868c-.005.013-.013.024-.023.032s-.023.013-.036.014zm6.786-4.497l-1.363 4.44c-.004.013-.012.025-.023.033-.01.008-.024.012-.038.012h-1.37c-.01 0-.02-.003-.028-.007-.009-.005-.016-.011-.022-.02-.006-.008-.01-.017-.012-.027-.002-.01-.001-.02.002-.03l.524-1.667c.003-.01.003-.02 0-.03-.001-.009-.005-.018-.011-.026-.006-.008-.014-.014-.023-.018-.009-.005-.019-.007-.029-.006h-1.384c-.013 0-.026.004-.037.011-.01.008-.02.02-.023.032l-.556 1.743c-.004.013-.012.024-.023.032s-.024.013-.038.013h-1.36c-.01 0-.02-.003-.028-.007-.01-.005-.017-.012-.023-.02-.006-.008-.01-.018-.012-.027-.002-.01 0-.02.002-.03l1.346-4.395c.143-.414.406-.777.755-1.042.349-.266.769-.422 1.206-.45h1.545c.18-.01.36.028.523.108.162.08.3.2.403.35.103.149.165.321.182.501.017.18-.012.362-.085.527zm4.85 1.492c-.135.406-.386.764-.722 1.03-.335.265-.741.427-1.167.465-.014 0-.027.005-.037.013-.011.008-.02.019-.023.032l-.43 1.41c-.005.013-.014.024-.025.032-.011.008-.025.013-.038.013H23.87c-.01 0-.02-.002-.03-.007-.008-.004-.016-.01-.022-.019-.006-.008-.01-.017-.012-.027-.002-.01 0-.02.003-.03l.407-1.32c.003-.01.004-.02.003-.029-.002-.01-.006-.02-.011-.027-.006-.008-.014-.015-.023-.02-.009-.004-.018-.006-.028-.006-.176-.007-.347-.056-.5-.143-.152-.087-.28-.21-.375-.359-.094-.148-.15-.317-.164-.492-.014-.175.015-.351.085-.512l.898-2.94c.005-.012.012-.024.023-.032s.025-.013.038-.013h1.357c.01 0 .02.002.03.007.009.004.017.01.023.019.006.008.01.017.01.027.002.01.002.02-.001.03-.12.398-.795 2.584-.887 2.918h1.509c.097-.325.81-2.64.909-2.955.004-.013.013-.025.024-.033.011-.008.025-.013.039-.013h1.336c.01 0 .02.002.03.007.009.004.017.011.023.02.006.007.01.017.012.027.001.01.001.02-.002.03l-.894 2.897zm1.772-2.977h1.726l-.54 1.745h-1.713l.527-1.745zm5.691 2.967l-.902 2.97c-.004.012-.012.024-.023.032-.01.008-.024.012-.038.011h-1.39c-.01 0-.02-.001-.029-.006-.009-.004-.016-.01-.022-.018-.006-.008-.01-.018-.012-.027-.002-.01 0-.02.002-.03.12-.399.69-2.273.888-2.904h-1.476c-.162.498-.817 2.624-.915 2.939-.005.012-.013.023-.024.031-.011.008-.024.012-.038.012h-1.36c-.01 0-.02-.002-.028-.007-.01-.004-.017-.01-.023-.019-.006-.008-.01-.017-.011-.027-.002-.01-.002-.02.001-.03l.89-2.93c.143-.415.405-.778.754-1.043.349-.266.769-.423 1.206-.45h1.612c.175.004.347.051.499.138.152.086.28.209.374.357.093.149.148.318.16.492.01.175-.022.35-.095.51z"/>
    <path fill="#1A2332" d="M19.36 12.626h1.5l.471-1.527h-1.509l-.463 1.527zM8.814 12.63h1.5l.472-1.526H9.278l-.464 1.526z"/>
</svg>
