<svg xmlns="http://www.w3.org/2000/svg" width="72" height="25" fill="none" viewBox="0 0 72 25">
    <path fill="#000" d="M65.173 5.807c.183.091.412.183.641.183.23 0 .413-.046.642-.183.183-.092.367-.275.458-.458.092-.184.184-.413.184-.642 0-.23-.046-.412-.184-.642-.091-.183-.275-.366-.458-.458-.183-.092-.413-.183-.642-.183-.229 0-.412.046-.641.183-.183.092-.367.275-.458.458-.092.184-.184.413-.184.642 0 .23.046.412.184.642.137.183.275.32.458.458zm-.092-1.833c.183-.184.458-.321.733-.321.275 0 .55.092.734.32.183.184.32.459.32.734 0 .275-.091.55-.32.733-.184.184-.459.321-.734.321-.275 0-.55-.092-.733-.32-.183-.184-.32-.46-.32-.734 0-.275.091-.55.32-.733z"/>
    <path fill="#000" d="M65.54 4.799h.137c.092 0 .138 0 .183.045.046.046.138.138.184.275l.137.23h.275l-.183-.276c-.046-.091-.138-.183-.183-.229-.046-.045-.092-.091-.138-.091.092 0 .183-.046.275-.138.092-.091.092-.137.092-.275 0-.046 0-.137-.046-.183-.046-.046-.092-.092-.183-.138-.046-.045-.184-.045-.367-.045h-.458v1.329h.229v-.504h.046zm0-.596h.229c.137 0 .229 0 .275.046.046.045.091.091.091.137 0 .092-.046.138-.091.138-.046.045-.138.045-.23.045h-.274v-.366z"/>
    <path fill="#0082C2" d="M7.706 6.998c-1.512 0-3.025 1.192-3.437 2.704l-1.283 4.124c-.23.825-.046 1.65.412 2.292.459.595 1.192.916 2.017.916h29.833c-.046-.596.046-1.237.23-1.833l2.29-7.424c.092-.275.184-.504.321-.779H7.706zM63.981 6.998c.046.596 0 1.191-.229 1.787l-2.2 7.24c-.091.322-.229.643-.412.963h2.154c1.558 0 3.483-1.237 3.895-2.795l1.192-3.941c.229-.871.091-1.696-.413-2.337-.458-.596-1.237-.963-2.062-.963h-1.925v.046z"/>
    <path fill="#000" d="M64.256 7.09c-.046-.871-.32-1.696-.825-2.383-.825-1.1-2.291-1.742-3.803-1.742H44.047c-2.475 0-5.041 1.742-6.141 4.079-.138.23-.23.504-.321.779l-2.246 7.332c-.183.596-.274 1.238-.229 1.833.046.871.321 1.65.78 2.338.778 1.054 2.062 1.695 3.528 1.695H55.045c2.475 0 5.178-1.695 6.37-3.987l.412-.962 2.154-7.103c.23-.642.275-1.283.275-1.88z"/>
    <path fill="#FF1323" d="M50.142 8.327h-7.103c-.046 0-.046 0-.046.046l-2.246 7.24c0 .047 0 .092.046.092h3.391c.046 0 .046 0 .046-.045l.642-2.063c0-.045 0-.091-.046-.091h-1.512c-.046 0-.092-.046-.046-.092l.916-2.841c0-.046.046-.046.046-.046h5.225c.045 0 .091.046.045.092l-1.558 5.04c-.641 2.063-2.658 3.713-4.72 3.713H39.51c-2.062 0-3.208-1.65-2.566-3.712l2.337-7.424c.642-2.063 2.795-3.575 4.858-3.575h7.149c.045 0 .091.046.045.092L50.188 8.28s0 .046-.046.046zM59.903 4.661h-3.437c-2.108 0-4.308 1.558-4.995 3.666l-2.245 7.24c-.642 2.109.458 3.805 2.566 3.805h3.437c2.108 0 4.4-1.742 5.087-3.85l2.2-7.195c.687-2.108-.505-3.666-2.613-3.666zm-3.39 11.044h-3.484c-.046 0-.091-.045-.046-.091l2.292-7.287c0-.046.046-.046.046-.046h3.482c.046 0 .092.046.046.092l-2.245 7.287c-.046.045-.092.045-.092.045z"/>
    <path fill="#fff" d="M25.212 14.972c0 .046-.046.046-.046.046H23.79c-.046 0-.092-.046-.046-.092l.413-1.329c0-.045 0-.091-.046-.091-.78-.046-1.192-.733-.962-1.513l.916-2.933c0-.045.046-.045.046-.045h1.375c.046 0 .091.045.046.091-.138.413-.78 2.567-.871 2.933h1.512c.092-.32.825-2.658.917-2.933 0-.046.045-.046.045-.046h1.33c.045 0 .091.046.045.092l-.916 2.887c-.275.825-1.1 1.467-1.88 1.513-.045 0-.045 0-.045.045l-.458 1.375zM32.498 10.527c-.825 0-1.696.687-1.97 1.512l-.871 2.887c0 .046 0 .092.046.092h1.374c.046 0 .046 0 .046-.046.092-.32.733-2.429.917-2.933h1.466c-.183.642-.779 2.52-.87 2.887 0 .046 0 .092.045.092h1.375c.046 0 .046 0 .046-.046l.917-2.979c.229-.779-.184-1.466-.917-1.512-.046.046-1.604.046-1.604.046zM21.683 9.015h-1.558c-.825 0-1.696.687-1.97 1.512l-1.284 4.4c0 .045 0 .091.046.091h1.375c.046 0 .046 0 .046-.046l.55-1.741c0-.046.045-.046.045-.046h1.375c.046 0 .092.046.046.092l-.504 1.65c0 .045 0 .091.046.091h1.374c.046 0 .046 0 .046-.046l1.375-4.445c.275-.825-.183-1.512-1.008-1.512zm-.917 3.024h-1.512l.458-1.512h1.513l-.459 1.512zM11.143 9.015H8.164c-.046 0-.046 0-.046.045l-1.787 5.866c0 .046 0 .092.046.092h1.375c.046 0 .046 0 .046-.046l.458-1.42c0-.046.046-.046.046-.046h1.466c.825 0 1.696-.688 1.97-1.513l.459-1.512c.229-.779-.23-1.466-1.054-1.466zm-.917 3.024H8.714l.458-1.512h1.513l-.459 1.512zM30.528 10.802h-1.696l.504-1.787h1.742l-.55 1.787zM11.51 15.018l1.832-5.958c0-.045.046-.045.046-.045h1.375c.046 0 .092.045.046.091l-1.33 4.308c0 .046 0 .092.047.092h1.329c.045 0 .045 0 .045-.046l.459-1.42c0-.047.046-.047.046-.047h1.374c.046 0 .092.046.046.092l-.916 2.887c0 .046-.046.046-.046.046h-4.354z"/>
</svg>
