<svg xmlns="http://www.w3.org/2000/svg" width="89" height="25" fill="none" viewBox="0 0 89 25">
    <path fill="#1A2332" d="M12.758 8.47c4.242-1.258 7.53 1.88 7.793 6.688.328-1.641.24-3.339-.257-4.937-.498-1.598-1.388-3.046-2.59-4.211-.884-.083-1.949-.12-2.846-.208-.48.567-1.617 2.115-2.1 2.668z"/>
    <path fill="#1A2332" d="M20.067 9.616c-1.934-3.854-5.472-2.113-7.281-.925-3.925 2.57-5.97-3.082-1.341-4.546 2.76-.87 7.627 1.575 8.622 5.471zM14.527 15.088c-.94 4.27-5.32 5.596-9.7 3.48 3.496 2.611 7.17 2.846 9.48 1.975.51-.72 1.05-1.63 1.56-2.348-.262-.691-1.08-2.418-1.34-3.11"/>
    <path fill="#1A2332" d="M9.967 20.864c4.352.193 4.518-3.704 4.352-5.831-.388-4.643 5.623-3.661 4.67 1.05-.553 2.778-5.085 5.803-9.022 4.78zM7.7 13.416c-3.177-3.054-1.989-7.42 2.16-9.976-4.103 1.533-6.24 4.504-6.72 6.895.345.815.84 1.741 1.188 2.556.72.138 2.64.373 3.371.525"/>
    <path fill="#1A2332" d="M5.158 6.549c-2.473 3.538.788 5.748 2.709 6.73 4.186 2.14.165 6.645-3.387 3.36-2.1-1.95-2.293-7.339.678-10.088M49.087 16.083h2.267c.032.003.066-.002.096-.013h.18c.539 0 .871.096 1.01.303.143.282.21.596.192.912 0 .539-.138.87-.428.995-.453.132-.925.188-1.396.166h-1.92v-2.363zm0 5.182v-2.253h2.446c.296-.002.592-.025.884-.068.288-.04.56-.155.788-.333.136-.107.245-.244.319-.4.066-.15.113-.308.138-.47 0-.07.013-.152.013-.22v-.57c-.023-.217-.073-.43-.151-.635-.09-.217-.245-.4-.443-.526-.138-.096-.293-.166-.456-.206-.173-.038-.348-.061-.525-.07-.082 0-.152-.013-.24-.013h-3.565v5.76l.792.004zm-2.265-1.727c0 .524-.12.856-.373.994-.426.17-.884.24-1.341.208h-.787c-.424.037-.85-.046-1.23-.24-.128-.123-.225-.275-.283-.443-.058-.169-.075-.348-.049-.524v-4.035h-.815v4.035c0 .83.25 1.34.76 1.506.679.187 1.383.271 2.086.248h.401c.138 0 .263-.013.4-.013.58.046 1.156-.11 1.631-.443.154-.177.271-.383.345-.606.074-.223.102-.458.084-.692v-4.035h-.815l-.014 4.035v.005zm-10.308-2.142c.014-.622.138-1.023.36-1.175.394-.193.833-.276 1.27-.24h.263c.55-.03 1.1.03 1.63.179.318.12.47.538.47 1.244v.953c0 .165 0 .318-.014.48-.014.162-.014.318-.014.47-.014.705-.192 1.119-.538 1.257-.56.169-1.144.239-1.728.207-.482.053-.97-.043-1.396-.276-.252-.315-.371-.717-.33-1.12l-.014-.925.04-1.054zm-.83 1.658c0 .193 0 .373.015.567.055.732.29 1.2.704 1.395.588.236 1.22.34 1.852.304h.152c.056-.002.112.003.166.014h.331c.65.063 1.304-.083 1.866-.415.192-.193.34-.425.436-.68.095-.255.135-.527.116-.799.014-.345.015-.676.015-1.022v-1.022c0-.898-.249-1.451-.747-1.644-.71-.225-1.453-.323-2.197-.29h-.36c-1.175 0-1.852.248-2.04.759-.211.622-.31 1.277-.29 1.934v.899h-.019zm-5.346-2.984h2.625c.6 0 .953.11 1.08.317.145.29.212.614.193.939.025.165.002.334-.063.488-.066.154-.173.287-.31.383-.373.164-.781.235-1.188.208h-2.349V16.07h.011zm0 5.195v-2.321h2.445c.36-.029.72.048 1.037.22.12.091.212.212.27.35.059.138.08.289.06.438v1.327h.83v-1.465c.01-.284-.088-.561-.276-.774-.248-.22-.568-.338-.899-.331.622-.098.995-.277 1.106-.54.12-.312.176-.646.166-.981.026-.24-.005-.484-.091-.71-.087-.225-.226-.427-.407-.588-.487-.29-1.051-.42-1.616-.374H29.55v5.76h.787v-.011zm-4.533-2.294h2.294v.511c0 .54-.11.885-.318 1.036-.423.193-.89.27-1.353.222h-.706c-.097.003-.193-.002-.29-.014-.096.002-.193-.002-.29-.014-.097-.002-.194-.012-.29-.028-.526-.069-.83-.249-.926-.54-.097-.312-.143-.639-.138-.966l-.014-.815.014-.747c-.042-.454.065-.91.305-1.298.193-.193.662-.276 1.44-.276h.746c.248 0 .497.013.732.028.48.013.787.12.898.317.124.253.18.534.166.816h.788v-.221c.024-.4-.11-.792-.373-1.092-.373-.293-.841-.435-1.314-.401h-.856c-.138 0-.29-.014-.428-.014h-.428c-.693-.076-1.39.1-1.963.497-.197.218-.347.474-.44.752-.092.278-.126.573-.099.865v.788c0 .138-.013.262-.013.4v.4c-.048.32-.015.648.097.952.11.304.296.576.54.79.737.343 1.551.487 2.362.415.248 0 .497 0 .745-.014.245 0 .49-.014.733-.041.677-.055 1.09-.263 1.256-.623.16-.38.242-.788.24-1.2v-.72c-.001-.102-.01-.203-.027-.304h-3.081v.54h-.01zM77.66 4.808h3.508c.554-.015 1.107.07 1.63.25.231.1.43.263.571.47.142.208.222.452.231.703.053.31.085.625.097.94.014.317.014.635.014.953v.774c0 .12-.014.249-.014.372-.028.271-.079.54-.152.802-.072.25-.206.478-.388.664-.172.172-.385.296-.62.36-.258.066-.522.107-.788.12-.138.016-.277.025-.415.027h-3.675V4.808zm3.813 7.213c1.574 0 2.528-.388 2.88-1.16.355-.84.53-1.743.511-2.654v-.774c.063-.907-.186-1.81-.706-2.556-.403-.345-.875-.602-1.385-.752-.51-.15-1.045-.19-1.571-.119h-4.635v8.015h4.906zm-6.95-8.028v7.32l-5.64-7.32h-1.825v8.013h1.092v-7.24l5.64 7.255h1.825V4.006l-1.091-.013h-.002zm-9.59 8.028h1.146V4.006h-1.146v8.015zM63 3.993l-2.819 7.32-2.695-7.32h-1.657l-2.709 7.32-2.75-7.32h-1.16l3.081 8.013h1.68l2.694-7.212 2.626 7.212h1.712l3.151-8.013H63zm-15.573 0l-2.97 3.744-2.985-3.744h-1.313l3.689 4.67v3.36h1.12v-3.36l3.785-4.67h-1.326zm-15.96 0v8.013h1.148v-3.72h.994l4.588 3.72h1.534l-5.14-4.131 4.586-3.882h-1.488l-4.09 3.495h-.995V3.992h-1.136zm-1.05 2.1c0-1.023-.345-1.644-1.022-1.837-.843-.22-1.712-.322-2.583-.305h-.277c-.848-.027-1.694.094-2.5.36-.623.234-.927.84-.927 1.81 0 1.064.387 1.699 1.16 1.893.896.22 1.814.336 2.737.344h.455c.153 0 .305.015.457.015.445-.031.888.075 1.27.303.117.15.202.321.252.504.05.182.063.373.039.56 0 .678-.166 1.106-.48 1.258-.552.205-1.14.29-1.727.249h-.954c-.605.072-1.217-.043-1.754-.331-.307-.413-.441-.93-.373-1.44h-1.08c.001.033-.003.066-.014.097-.011.03-.017.063-.014.096-.01.031-.015.064-.013.097v.097c0 1.008.344 1.63 1.022 1.837.84.238 1.711.345 2.584.319h.48c.165 0 .317 0 .48-.015.162-.014.303-.013.469-.013.165 0 .318-.014.48-.014.912-.069 1.478-.332 1.714-.76.233-.492.346-1.032.33-1.576 0-1.05-.36-1.671-1.062-1.851-.832-.206-1.686-.308-2.543-.304h-.635c-.207 0-.428-.013-.65-.028-.445.037-.886-.101-1.23-.386-.196-.293-.288-.643-.262-.995v-.18c0-.07.013-.12.013-.193.026-.146.078-.287.153-.415.081-.143.208-.255.36-.318.156-.076.325-.122.498-.138.193-.028.4-.055.607-.069.18-.014.36-.014.525-.014h.982c.524-.055 1.052.046 1.519.29.145.16.256.348.328.552.07.205.101.42.087.636h1.105l-.014-.138.009.003z"/>
</svg>
