<svg xmlns="http://www.w3.org/2000/svg" width="62" height="26" fill="none" viewBox="0 0 62 26">
    <path fill="#1A2332" d="M55.288 8.27c-.994-2.86-3.646-4.943-6.772-4.943-3.931 0-7.104 3.246-7.104 7.268s3.173 7.27 7.104 7.27c1.516 0 2.936-.485 4.073-1.31-.284.534-.663 1.018-1.09 1.454-1.325 1.309-3.172 1.987-5.398 1.89-1.28-.048-2.51-.387-3.553-.969l-3.978-2.326-.236-.097c.473-1.114.757-2.374.757-3.683 0-5.088-4.025-9.207-8.998-9.207-4.973 0-8.999 4.12-8.999 9.207 0 1.163.237 2.326.616 3.344l.047.097-3.789 2.277c-1.041.679-2.32 1.115-3.646 1.115-3.694 0-6.725-3.101-6.725-6.881 0-3.78 3.03-6.93 6.725-6.93 1.894 0 3.6.824 4.83 2.084l1.563-1.793c-1.657-1.647-3.93-2.714-6.393-2.714-5.02 0-9.093 4.168-9.093 9.353 0 5.137 4.073 9.304 9.093 9.304 1.705 0 3.268-.485 4.641-1.308l3.978-2.375c1.658 2.23 4.215 3.635 7.152 3.635 2.794 0 5.304-1.309 6.962-3.393l.047-.096.237.096 3.694 2.133c.142.097.237.145.379.242 1.373.775 2.984 1.211 4.641 1.26h.38c2.699 0 5.02-.873 6.724-2.617 1.847-1.841 2.89-4.555 2.89-7.608 0-1.26-.285-2.568-.758-3.78zM30.093 19.656c-3.647 0-6.63-3.053-6.63-6.784s2.983-6.784 6.63-6.784c3.646 0 6.63 3.053 6.63 6.784 0 .92-.19 1.793-.52 2.617-1.848-1.066-3.884-1.6-5.968-1.6-1.705 0-3.363.291-4.83.776.283.824.71 1.55 1.325 2.132 1.137-.34 2.32-.485 3.552-.485 1.563 0 3.173.437 4.641 1.212l-.047.097c-1.279 1.26-2.936 2.035-4.783 2.035zm18.423-4.167c-2.605 0-4.736-2.181-4.736-4.846s2.131-4.846 4.736-4.846 4.736 2.18 4.736 4.846c.047 2.665-2.084 4.846-4.736 4.846z"/>
    <path fill="#1A2332" d="M10.249 16.846c-.095-.048-.19-.145-.284-.193-.095-.097-.142-.194-.237-.291-.047-.097-.095-.194-.142-.34-.048-.096-.048-.242 0-.338 0-.097.047-.194.142-.291.047-.097.142-.194.237-.243.094-.048.19-.097.331-.145h.332c.095 0 .19.048.284.145.095.049.19.146.237.243.047.097.142.194.142.339.047.097.047.194.047.34l-.379-.05v-.193c0-.049-.047-.146-.095-.194l-.142-.145c-.047-.049-.094-.049-.189-.049h-.19c-.047 0-.142.049-.189.097l-.142.146c-.047 0-.047.048-.047.096v.194c0 .049.047.146.094.194l.143.146c.047.048.094.048.094.096l.19-.145-.142-.242.284-.194.331.533-.71.485zM11.954 16.313l.237.194-.38 1.696-.33-.242.094-.34-.52-.387-.285.194-.332-.242 1.516-.873zm-.19.437l-.426.29.332.243.095-.533zM12.617 16.846l.52.146.095 1.114.616-.92.521.145-.379 1.502-.331-.097.284-1.211-.71 1.115-.237-.049-.095-1.308-.284 1.211-.332-.097.332-1.55zM14.7 17.283l.332-.049.237 1.6-.332.048-.236-1.6zM15.411 17.089l.426-.194 1.042.775-.426-1.017.332-.146.615 1.502-.426.194-1.042-.823.426 1.066-.331.145-.616-1.502zM19.105 16.943c-.047.097-.142.194-.236.243-.095.048-.19.145-.285.194-.094.048-.236.096-.331.096-.095 0-.237 0-.332-.048l-.284-.145c-.095-.097-.142-.194-.19-.291-.047-.097-.094-.242-.094-.34 0-.096 0-.242.047-.339.048-.096.095-.193.19-.29.095-.097.19-.146.284-.194.095-.049.237-.097.332-.097h.331l-.095.34c-.047 0-.142-.05-.19-.05-.046 0-.141.05-.236.05-.047.048-.142.096-.142.145-.047.048-.095.096-.095.145 0 .048-.047.145 0 .194 0 .048.048.145.048.194.047.048.094.145.142.193.047.049.094.097.142.097.047 0 .142.049.19.049.047 0 .141 0 .189-.049.047-.048.142-.048.142-.097l.095-.097-.095-.242-.237.146-.142-.291.568-.29.284.774z"/>
</svg>
