<svg width="80" height="24" viewBox="0 0 80 24" fill="none" xmlns="http://www.w3.org/2000/svg">
<path d="M4.89645 6.24646H2.49951V17.8143H4.89645V6.24646Z" fill="#B5B5B5"/>
<path d="M29.1091 13.75L21.432 6.24653H19.5908V17.7796H22.0225V10.2414L29.6997 17.7796H31.5408V6.21179H29.1091V13.75Z" fill="#B5B5B5"/>
<path d="M41.3371 6.21179H34.6326H33.0693V13.3679V17.7796H34.6673V13.3679H41.3718C42.1013 13.3679 42.6918 13.1247 43.2129 12.6036C43.734 12.0826 43.9772 11.492 43.9772 10.7625V8.81716C43.9772 8.08766 43.734 7.49711 43.2129 6.97603C42.6918 6.4897 42.0666 6.21179 41.3371 6.21179ZM42.3792 10.5541C42.3792 10.9362 42.2402 11.2836 41.9971 11.5268C41.7192 11.8047 41.4065 11.9089 40.9897 11.9089H34.6326V7.63606H40.9897C41.4065 7.63606 41.7192 7.77502 41.9971 8.05292C42.275 8.33083 42.3792 8.64347 42.3792 9.06033V10.5541Z" fill="#B5B5B5"/>
<path d="M46.8951 15.9733C46.6172 15.6953 46.513 15.3827 46.513 14.9658V6.21179H44.915V15.1743C44.915 15.9038 45.1582 16.4943 45.6793 17.0154C46.2004 17.5365 46.7909 17.7796 47.5204 17.7796H55.9618V16.3554H47.9025C47.4857 16.3554 47.173 16.2164 46.8951 15.9733Z" fill="#B5B5B5"/>
<path d="M75.3455 6.21179L71.1769 11.3183L67.0083 6.21179H64.8545L70.3779 12.8121V17.7796H71.9758V12.8121L77.4992 6.21179H75.3455Z" fill="#B5B5B5"/>
<path d="M66.6264 11.214L65.9663 10.8319L59.0187 6.80227L58.1502 6.31594C57.8723 6.14225 57.5249 6.14225 57.247 6.31594C56.9691 6.48963 56.7954 6.76754 56.7954 7.11492V7.87916V15.9037V16.9111C56.7954 17.3975 57.2123 17.8143 57.6986 17.8143C57.8723 17.8143 58.046 17.7448 58.2197 17.6754L58.7408 17.3627L65.7232 13.3331L66.6264 12.812C66.9043 12.6383 67.0779 12.3604 67.0779 12.013C67.0779 11.7004 66.9043 11.3877 66.6264 11.214ZM64.8894 12.1172L58.2544 15.9384C58.2544 15.9037 58.2544 15.869 58.2544 15.869V15.7648V8.05285L58.4281 8.15707L65.0631 11.9783L64.8894 12.1172Z" fill="#B5B5B5"/>
<path d="M15.4917 6.24646H5.83447V8.53919H6.42502V15.5216V17.8143H15.457C16.256 17.8143 16.916 17.5364 17.5065 16.9806C18.0624 16.4248 18.3403 15.73 18.3403 14.9658V9.095C18.3403 8.29602 18.0624 7.63599 17.5065 7.08018C16.9507 6.52437 16.256 6.24646 15.4917 6.24646ZM15.9433 14.7226C15.9433 14.9658 15.8738 15.1395 15.7349 15.2784C15.5959 15.4174 15.3875 15.4868 15.1443 15.4868H8.8567V8.50445H15.1443C15.3875 8.50445 15.5612 8.57393 15.7349 8.71288C15.8738 8.85183 15.9433 9.06026 15.9433 9.30343V14.7226Z" fill="#B5B5B5"/>
<path d="M4.89756 6.24695H2.49951V17.8138H4.89756V6.24695Z" fill="url(#paint0_linear)"/>
<path d="M19.5981 17.7787V6.24653H21.4401L29.1208 13.7494V6.21179H31.5536V17.7787H29.7116L22.0309 10.2411V17.7787H19.5981Z" fill="url(#paint1_linear)"/>
<path d="M34.6474 6.21179H41.355C42.0849 6.21179 42.6757 6.45494 43.197 6.97597C43.7183 7.497 43.9616 8.0875 43.9616 8.81694V10.7621C43.9616 11.4916 43.7183 12.0821 43.197 12.6031C42.6757 13.1241 42.0849 13.3673 41.355 13.3673H34.6474V17.7787H33.0835V13.3673V6.21179H34.6474ZM34.6474 11.9431H41.0075C41.4245 11.9431 41.7373 11.8042 42.0154 11.561C42.2934 11.2831 42.3977 10.9705 42.3977 10.5884V9.02535C42.3977 8.64326 42.2586 8.29591 42.0154 8.01803C41.7373 7.74015 41.4245 7.6012 41.0075 7.6012H34.6474V11.9431Z" fill="url(#paint2_linear)"/>
<path d="M47.5411 17.7787C46.8113 17.7787 46.2205 17.5355 45.6992 17.0145C45.1779 16.4934 44.9346 15.9029 44.9346 15.1735V6.21179H46.5333V14.9651C46.5333 15.3819 46.6723 15.6945 46.9156 15.9724C47.1936 16.2503 47.5064 16.3545 47.9234 16.3545H55.9864V17.7787H47.5411Z" fill="url(#paint3_linear)"/>
<path d="M67.0381 6.21179L71.2086 11.3179L75.3791 6.21179H77.4991L72.0079 12.8115V17.7787H70.4092V12.8115L64.8833 6.21179H67.0381Z" fill="url(#paint4_linear)"/>
<path d="M66.0312 10.9009L65.9964 10.8662L59.0456 6.83689L58.1767 6.35059C57.8987 6.17692 57.5511 6.17692 57.2731 6.35059C56.9951 6.52427 56.8213 6.80215 56.8213 7.14951V7.91368C56.8213 7.91368 56.8213 7.91368 56.8213 7.87895C56.9603 7.46212 57.8639 7.87895 58.281 8.08736L58.4547 8.19157L65.0928 12.0125C65.5099 11.7693 66.3092 11.2483 66.0312 10.9009Z" fill="url(#paint5_linear)"/>
<path d="M66.6557 11.2135L65.9953 10.8314L66.0301 10.8662C66.3081 11.2135 65.5088 11.7345 65.0917 11.9777L64.8832 12.0819L58.2451 15.9028C58.2451 16.3196 58.3146 17.3269 58.7317 17.2922L65.7173 13.2629L66.6209 12.7419C66.8989 12.5682 67.0727 12.2903 67.0727 11.943C67.1075 11.6998 66.9337 11.3872 66.6557 11.2135Z" fill="url(#paint6_linear)"/>
<path d="M58.2453 15.9377C58.2453 15.903 58.2453 15.8682 58.2453 15.8335V15.7293V8.05278C57.8283 7.84437 56.9247 7.42754 56.7856 7.84437C56.7856 7.84437 56.7856 7.84437 56.7856 7.8791V15.903V16.9103C56.7856 17.3966 57.2027 17.8134 57.6893 17.8134C57.863 17.8134 58.0368 17.7439 58.2106 17.6745L58.7319 17.3618C58.3148 17.3966 58.2453 16.3893 58.2453 15.9377Z" fill="url(#paint7_linear)"/>
<path d="M17.5135 7.08011C16.9574 6.52434 16.2623 6.24646 15.463 6.24646H5.80127V8.53899H6.39209V15.5208V17.8133H15.4282C16.2276 17.8133 16.8879 17.5354 17.4787 16.9797C18.0348 16.4239 18.3128 15.7292 18.3128 14.965V9.09476C18.3823 8.29584 18.0695 7.63587 17.5135 7.08011ZM15.9495 14.7219C15.9495 14.965 15.88 15.1387 15.741 15.2776C15.602 15.4166 15.3935 15.4861 15.1502 15.4861H8.85965V8.50426H15.1502C15.3935 8.50426 15.5672 8.57373 15.741 8.71267C15.88 8.85161 15.9495 9.06002 15.9495 9.30317V14.7219Z" fill="url(#paint8_linear)"/>
<defs>
<linearGradient id="paint0_linear" x1="3.70601" y1="7.63914" x2="3.70601" y2="16.5821" gradientUnits="userSpaceOnUse">
<stop stop-color="#7F8184"/>
<stop offset="1" stop-color="white"/>
</linearGradient>
<linearGradient id="paint1_linear" x1="25.5726" y1="7.63865" x2="25.5726" y2="16.5817" gradientUnits="userSpaceOnUse">
<stop stop-color="#7F8184"/>
<stop offset="1" stop-color="white"/>
</linearGradient>
<linearGradient id="paint2_linear" x1="38.524" y1="6.84015" x2="38.524" y2="18.0935" gradientUnits="userSpaceOnUse">
<stop stop-color="#00C3D8"/>
<stop offset="1" stop-color="#005678"/>
</linearGradient>
<linearGradient id="paint3_linear" x1="50.4613" y1="6.84015" x2="50.4613" y2="18.0935" gradientUnits="userSpaceOnUse">
<stop stop-color="#00C3D8"/>
<stop offset="1" stop-color="#005678"/>
</linearGradient>
<linearGradient id="paint4_linear" x1="71.2075" y1="6.84015" x2="71.2075" y2="18.0935" gradientUnits="userSpaceOnUse">
<stop stop-color="#00C3D8"/>
<stop offset="1" stop-color="#005678"/>
</linearGradient>
<linearGradient id="paint5_linear" x1="58.8564" y1="7.79635" x2="65.086" y2="11.632" gradientUnits="userSpaceOnUse">
<stop stop-color="#15B586"/>
<stop offset="1" stop-color="#009FD1"/>
</linearGradient>
<linearGradient id="paint6_linear" x1="66.9832" y1="11.5767" x2="51.8044" y2="19.8722" gradientUnits="userSpaceOnUse">
<stop stop-color="#894B92"/>
<stop offset="1" stop-color="#0367DC"/>
</linearGradient>
<linearGradient id="paint7_linear" x1="57.7723" y1="8.76367" x2="57.7723" y2="17.9008" gradientUnits="userSpaceOnUse">
<stop stop-color="#0C4B92"/>
<stop offset="1" stop-color="#0395DE"/>
</linearGradient>
<linearGradient id="paint8_linear" x1="12.1004" y1="7.63865" x2="12.1004" y2="16.5816" gradientUnits="userSpaceOnUse">
<stop stop-color="#7F8184"/>
<stop offset="1" stop-color="white"/>
</linearGradient>
</defs>
</svg>
