<svg xmlns="http://www.w3.org/2000/svg" width="72" height="25" fill="none" viewBox="0 0 72 25">
    <path fill="#B5B5B5" d="M65.182 5.758c.287.166.629.211.95.126.32-.086.593-.295.76-.582.109-.19.166-.405.166-.623 0-.22-.059-.434-.168-.623-.11-.19-.266-.347-.455-.457-.19-.11-.404-.168-.623-.169-.219 0-.433.058-.623.167-.19.11-.347.267-.457.456-.082.142-.136.298-.158.461-.022.163-.01.328.032.486.042.159.115.307.215.437.1.13.225.24.367.321h-.006zm-.109-1.815c.17-.17.394-.277.634-.3.24-.024.481.036.681.17.2.134.348.333.418.563.07.231.058.479-.034.702-.093.222-.259.406-.471.52-.213.113-.458.15-.695.102-.236-.047-.45-.174-.602-.36-.153-.187-.236-.42-.236-.662-.002-.137.025-.273.078-.4.053-.126.13-.24.23-.335h-.003z"/>
    <path fill="#B5B5B5" d="M65.529 4.777h.128c.073-.003.144.021.2.068.08.088.148.187.201.294l.12.21h.265l-.162-.262c-.049-.085-.106-.165-.17-.24-.027 0-.053-.007-.076-.02-.023-.014-.043-.033-.056-.056-.013-.024-.02-.05-.02-.077 0-.027.008-.053.022-.076.014-.023.033-.042.057-.055.023-.013.05-.019.076-.018.027 0 .053.008.076.022.023.015.041.034.054.058.035-.033.063-.074.081-.119.019-.045.028-.093.027-.141-.002-.07-.024-.138-.064-.196-.04-.057-.095-.102-.16-.128-.113-.031-.23-.044-.348-.039h-.466v1.343h.217l-.002-.568zm0-.589h.253c.09-.007.182.008.266.045.025.016.046.04.06.067.013.028.018.058.015.089.002.03-.004.06-.018.088-.014.027-.034.05-.06.066-.076.038-.161.055-.246.05h-.265l-.005-.405zM63.993 6.988c.039.606-.033 1.214-.212 1.794l-2.188 7.247c-.11.33-.246.651-.406.96h2.173c.85-.029 1.673-.308 2.366-.802.692-.495 1.223-1.183 1.525-1.978l1.2-3.938c.117-.395.139-.812.065-1.217-.074-.405-.241-.788-.49-1.117-.245-.305-.558-.55-.913-.717-.355-.167-.744-.25-1.136-.243l-1.984.011z"/>
    <path fill="#B5B5B5" d="M64.254 7.07c-.028-.852-.308-1.676-.806-2.368-.457-.556-1.036-1-1.692-1.298-.655-.299-1.37-.444-2.09-.424H44.089c-1.297.062-2.552.475-3.632 1.196-1.08.72-1.942 1.72-2.497 2.894-.118.247-.219.501-.302.762l-2.25 7.32c-.186.586-.267 1.2-.24 1.814.028.834.304 1.641.792 2.319.414.542.952.979 1.568 1.273.617.294 1.294.438 1.977.419H54.16l.96-.013c1.315-.058 2.591-.457 3.704-1.158 1.114-.701 2.025-1.68 2.645-2.84.158-.309.29-.63.396-.96l2.146-7.092c.188-.595.27-1.22.243-1.844zM43.24 19.343h-3.72c-.452.025-.903-.068-1.309-.268-.406-.2-.754-.502-1.01-.875-.256-.374-.412-.807-.452-1.258-.04-.452.037-.905.223-1.319l2.336-7.431c.355-1.013 1.007-1.896 1.872-2.533.864-.637 1.9-.999 2.973-1.038h7.132c.01 0 .02.002.03.007.008.005.016.011.022.02.006.008.01.017.011.027.002.01.002.02-.001.03l-1.13 3.536c-.004.013-.013.024-.023.032-.011.008-.024.012-.038.013H43.03c-.013 0-.027.004-.038.012-.01.008-.02.019-.023.032L40.7 15.582c-.003.01-.003.02-.002.029.002.01.006.019.012.027s.014.015.022.02c.01.004.02.006.03.006h3.398c.013 0 .027-.004.038-.012.01-.008.019-.02.023-.032l.622-2.048c.003-.01.004-.02.003-.03-.002-.01-.006-.02-.012-.028s-.013-.015-.022-.02c-.01-.004-.02-.006-.03-.006h-1.498c-.01 0-.02-.003-.03-.007-.008-.005-.016-.011-.022-.02-.006-.007-.01-.017-.012-.027-.001-.01 0-.02.003-.03l.924-2.862c.004-.014.011-.025.022-.033.012-.008.025-.012.039-.012h5.215c.01 0 .02.002.029.007.009.004.017.01.023.019.006.008.01.017.011.027.002.01.001.02-.002.03l-1.55 5.04c-.315 1.022-.932 1.924-1.77 2.588-.838.665-1.857 1.06-2.924 1.136zM62.546 8.29l-2.196 7.206c-.378 1.067-1.06 2-1.964 2.683-.903.682-1.987 1.085-3.117 1.157h-3.42c-2.103 0-3.24-1.72-2.575-3.823l2.225-7.235c.364-1.04 1.034-1.945 1.922-2.598.888-.652 1.953-1.02 3.054-1.056h3.417c.455-.043.914.033 1.331.221.417.189.776.483 1.044.853s.434.805.482 1.26c.049.454-.023.914-.207 1.332h.004z"/>
    <path fill="#B5B5B5" d="M58.757 8.282h-3.47c-.013 0-.026.004-.038.013-.01.008-.018.02-.022.032l-2.273 7.268c-.003.01-.004.02-.003.029.002.01.006.019.012.027.005.008.013.015.022.02.009.004.019.006.029.006h3.496c.014 0 .028-.004.038-.012.011-.008.02-.02.024-.032l2.246-7.267c.003-.01.004-.02.003-.03-.002-.01-.006-.02-.012-.028s-.014-.015-.023-.02c-.009-.004-.019-.006-.03-.006zM7.686 6.988c-.782.03-1.535.307-2.151.79-.616.483-1.064 1.148-1.28 1.9l-1.264 4.12c-.113.388-.134.797-.061 1.195.072.398.237.773.48 1.096.243.295.551.53.9.687.348.157.728.232 1.11.22h29.824c-.027-.621.055-1.242.24-1.834l2.28-7.412c.084-.26.185-.515.303-.762H7.687zm2.049 6.487h-1.44c-.014 0-.027.005-.038.013-.01.008-.02.02-.023.033l-.441 1.404c-.004.013-.012.025-.023.033-.012.008-.025.013-.04.013H6.375c-.01 0-.02-.003-.03-.008-.008-.004-.016-.01-.022-.019-.006-.008-.01-.018-.011-.028-.002-.01-.002-.02.001-.03l1.8-5.842c.004-.013.013-.024.024-.032.01-.008.024-.013.038-.013h2.978c.182-.01.362.028.525.108.163.08.302.202.405.352.103.15.166.323.182.504.016.181-.015.364-.09.53l-.467 1.49c-.145.417-.409.78-.76 1.046-.35.266-.773.421-1.212.446zm6.206 1.514H11.52l1.846-5.948c.004-.013.012-.024.023-.032.011-.009.024-.013.038-.013h1.363c.01 0 .02.002.03.007.008.004.016.01.022.019.006.008.01.017.012.027.002.01.002.02-.001.03l-1.32 4.32c-.003.01-.004.02-.002.03.002.01.006.02.012.027.006.009.013.015.023.02.009.004.019.007.029.007h1.31c.014 0 .028-.005.04-.013.01-.008.018-.02.023-.033l.446-1.4c.004-.014.013-.025.024-.034.011-.008.025-.012.039-.012h1.362c.01 0 .02.002.029.007.009.004.017.011.023.02.006.007.01.017.012.027.002.01.001.02-.002.03l-.9 2.868c-.005.013-.013.024-.023.032s-.023.013-.036.014zm6.786-4.497l-1.363 4.44c-.004.013-.012.024-.023.032-.01.008-.024.013-.038.013h-1.37c-.01 0-.02-.003-.028-.008-.009-.004-.016-.01-.022-.019-.006-.008-.01-.017-.012-.027-.002-.01-.001-.02.002-.03l.524-1.667c.003-.01.003-.02 0-.03-.001-.009-.005-.018-.011-.026-.006-.008-.014-.014-.023-.018-.009-.005-.019-.007-.029-.006H18.95c-.013 0-.026.004-.037.011-.01.008-.02.02-.023.032l-.556 1.743c-.004.013-.012.024-.023.032s-.024.013-.038.013h-1.36c-.01 0-.02-.003-.029-.008-.009-.004-.017-.01-.022-.019-.006-.008-.01-.018-.012-.027-.002-.01 0-.02.002-.03l1.346-4.395c.143-.414.406-.777.755-1.042.349-.266.769-.423 1.206-.45h1.545c.18-.01.36.028.522.108.163.08.302.2.404.35.103.148.165.321.182.501.017.18-.012.362-.085.527zm4.85 1.492c-.135.406-.386.763-.722 1.029-.335.265-.741.428-1.167.466-.014 0-.027.005-.037.013-.011.007-.02.019-.023.031l-.43 1.41c-.005.014-.014.025-.025.033-.011.008-.025.013-.039.013h-1.367c-.01 0-.02-.002-.028-.007-.01-.004-.017-.01-.023-.019-.006-.008-.01-.017-.012-.027-.002-.01 0-.02.002-.03l.408-1.32c.003-.01.004-.02.003-.03-.002-.009-.006-.018-.012-.026-.005-.008-.013-.015-.022-.02-.009-.004-.018-.007-.028-.007-.176-.006-.347-.055-.5-.142-.152-.087-.28-.21-.375-.359-.094-.148-.15-.317-.164-.492-.014-.175.015-.351.085-.513L24 9.05c.003-.013.011-.025.022-.033s.025-.013.038-.013h1.357c.01 0 .02.002.03.007.009.004.017.01.023.019.006.008.01.017.01.027.002.01.002.02-.001.03-.12.398-.795 2.583-.887 2.918H26.1c.097-.325.81-2.64.909-2.955.004-.014.013-.025.024-.033.011-.008.025-.013.039-.013h1.336c.01 0 .02.002.03.007.009.004.017.011.023.02.006.007.01.017.012.027.001.01.001.02-.002.03l-.894 2.897zm1.772-2.977h1.726l-.54 1.745h-1.713l.527-1.745zm5.691 2.967l-.902 2.969c-.004.013-.012.024-.023.033-.011.008-.024.012-.038.011h-1.39c-.01 0-.02-.001-.029-.006-.008-.004-.016-.01-.022-.018-.006-.008-.01-.018-.012-.028-.002-.01 0-.02.002-.03.12-.398.69-2.272.888-2.903h-1.476c-.162.498-.817 2.624-.915 2.939-.005.012-.013.023-.024.031-.011.008-.024.012-.038.012h-1.36c-.01 0-.02-.002-.029-.007-.009-.004-.016-.01-.022-.019-.006-.008-.01-.017-.011-.027-.002-.01-.002-.02.001-.03l.89-2.93c.143-.415.405-.778.754-1.044.349-.265.769-.422 1.206-.45h1.612c.175.005.347.052.499.138.152.087.28.21.374.358.093.148.148.318.159.492.011.175-.02.35-.094.51z"/>
    <path fill="#B5B5B5" d="M19.256 12h1.5l.471-1.527H19.72L19.256 12zM8.711 12.005h1.5l.472-1.527H9.175l-.464 1.527z"/>
</svg>
