<svg width="80" height="24" viewBox="0 0 80 24" fill="none" xmlns="http://www.w3.org/2000/svg">
<path d="M4.89645 6.24646H2.49951V17.8143H4.89645V6.24646Z" fill="#B5B5B5"/>
<path d="M29.1091 13.75L21.432 6.24653H19.5908V17.7796H22.0225V10.2414L29.6997 17.7796H31.5408V6.21179H29.1091V13.75Z" fill="#B5B5B5"/>
<path d="M41.3371 6.21179H34.6326H33.0693V13.3679V17.7796H34.6673V13.3679H41.3718C42.1013 13.3679 42.6918 13.1247 43.2129 12.6036C43.734 12.0826 43.9772 11.492 43.9772 10.7625V8.81716C43.9772 8.08766 43.734 7.49711 43.2129 6.97603C42.6918 6.4897 42.0666 6.21179 41.3371 6.21179ZM42.3792 10.5541C42.3792 10.9362 42.2402 11.2836 41.9971 11.5268C41.7192 11.8047 41.4065 11.9089 40.9897 11.9089H34.6326V7.63606H40.9897C41.4065 7.63606 41.7192 7.77502 41.9971 8.05292C42.275 8.33083 42.3792 8.64347 42.3792 9.06033V10.5541Z" fill="#B5B5B5"/>
<path d="M46.8951 15.9733C46.6172 15.6953 46.513 15.3827 46.513 14.9658V6.21179H44.915V15.1743C44.915 15.9038 45.1582 16.4943 45.6793 17.0154C46.2004 17.5365 46.7909 17.7796 47.5204 17.7796H55.9618V16.3554H47.9025C47.4857 16.3554 47.173 16.2164 46.8951 15.9733Z" fill="#B5B5B5"/>
<path d="M75.3455 6.21179L71.1769 11.3183L67.0083 6.21179H64.8545L70.3779 12.8121V17.7796H71.9758V12.8121L77.4992 6.21179H75.3455Z" fill="#B5B5B5"/>
<path d="M66.6264 11.214L65.9663 10.8319L59.0187 6.80227L58.1502 6.31594C57.8723 6.14225 57.5249 6.14225 57.247 6.31594C56.9691 6.48963 56.7954 6.76754 56.7954 7.11492V7.87916V15.9037V16.9111C56.7954 17.3975 57.2123 17.8143 57.6986 17.8143C57.8723 17.8143 58.046 17.7448 58.2197 17.6754L58.7408 17.3627L65.7232 13.3331L66.6264 12.812C66.9043 12.6383 67.0779 12.3604 67.0779 12.013C67.0779 11.7004 66.9043 11.3877 66.6264 11.214ZM64.8894 12.1172L58.2544 15.9384C58.2544 15.9037 58.2544 15.869 58.2544 15.869V15.7648V8.05285L58.4281 8.15707L65.0631 11.9783L64.8894 12.1172Z" fill="#B5B5B5"/>
<path d="M15.4917 6.24646H5.83447V8.53919H6.42502V15.5216V17.8143H15.457C16.256 17.8143 16.916 17.5364 17.5065 16.9806C18.0624 16.4248 18.3403 15.73 18.3403 14.9658V9.095C18.3403 8.29602 18.0624 7.63599 17.5065 7.08018C16.9507 6.52437 16.256 6.24646 15.4917 6.24646ZM15.9433 14.7226C15.9433 14.9658 15.8738 15.1395 15.7349 15.2784C15.5959 15.4174 15.3875 15.4868 15.1443 15.4868H8.8567V8.50445H15.1443C15.3875 8.50445 15.5612 8.57393 15.7349 8.71288C15.8738 8.85183 15.9433 9.06026 15.9433 9.30343V14.7226Z" fill="#B5B5B5"/>
</svg>
