<svg xmlns="http://www.w3.org/2000/svg" width="64" height="25" fill="none" viewBox="0 0 64 25">
    <path fill="#1A2332" fill-rule="evenodd" d="M56.67 5.19h-2.134v9.423h-1.114V5.187h-2.134v-.96h5.382v.964zm-6.528 0H46.52v3.543h2.682v.948H46.52v3.995h3.798v.947h-4.914V4.232h4.744l-.006.958zm-8.27.36c-.416-.28-.917-.408-1.417-.36H39.33v3.507h.639c.618.054 1.237-.096 1.763-.427.204-.184.362-.414.459-.67.097-.257.13-.534.098-.806.026-.226.002-.454-.07-.67-.072-.215-.19-.412-.347-.576v.003zm-.898-1.32c.333-.013.665.043.974.165.31.122.591.307.826.544.362.457.58 1.012.629 1.593.048.582-.077 1.164-.359 1.675-.28.438-.714.754-1.217.886v.03c.562.13 1.054.468 1.376.947.304.5.456 1.079.439 1.664.03.398-.028.798-.17 1.171-.141.373-.363.71-.649.99-.726.535-1.62.79-2.52.72h-2.094V4.232l2.765-.002zm-.519 5.413H39.33v4.024h1.125c.552.041 1.1-.126 1.535-.468.19-.19.335-.42.426-.674.092-.253.127-.523.103-.79.047-.563-.125-1.122-.48-1.56-.213-.194-.464-.34-.736-.432-.273-.091-.561-.125-.848-.098v-.002zM7.531 5.203c-.17.177-.266.413-.266.66 0 .246.095.482.266.66.174.157.402.243.637.24.239.001.469-.084.649-.24.089-.085.159-.187.205-.3.047-.114.068-.237.063-.36.007-.123-.013-.247-.06-.363-.046-.115-.118-.219-.208-.303-.18-.157-.41-.243-.649-.24-.237 0-.465.09-.637.253v-.007zm.637-1.107c.453-.005.891.163 1.226.468.156.136.28.302.368.49.118.256.18.534.18.816 0 .282-.062.56-.18.817-.092.186-.22.352-.378.488-.336.296-.768.459-1.216.459-.447-.003-.879-.166-1.217-.459-.151-.138-.276-.304-.368-.488-.13-.253-.193-.534-.188-.817-.004-.287.06-.57.188-.827.092-.186.22-.352.378-.488.335-.292.764-.452 1.207-.452v-.007zm.518 4.345v6.189h-1.08V8.44h.01c.175.054.356.081.538.08.18.002.36-.022.532-.072V8.44zM36.999 5.19h-2.118v9.423h-1.127V5.187h-2.122v-.96h5.372l-.005.963zm-6.737 0h-3.338v3.543h2.5v.948h-2.5v4.932h-1.116V4.233h4.454v.957zm2.76 13.022c.02.01.04.021.058.036.013.011.022.026.028.043.004.01.008.019.01.029l-1.002 1.537v1.051c.002.018 0 .035-.007.052-.006.017-.015.032-.027.044-.013.013-.028.022-.045.028-.016.006-.034.009-.052.007h-.043c-.081 0-.12-.045-.12-.13v-1.052L30.82 18.32c.002-.01.004-.02.008-.03.006-.016.015-.03.028-.042.016-.016.036-.029.058-.036.027-.015.057-.023.088-.022.032.002.061.012.087.03.025.018.045.042.058.07l.825 1.292.82-1.284c.05-.072.1-.108.154-.108.028-.001.056.007.08.023l-.004-.001zm4.068.847c.009.121-.012.242-.058.354-.047.113-.119.212-.21.291-.232.166-.515.246-.799.225h-.557v.98c.001.033-.01.066-.03.093-.013.013-.029.022-.047.029-.017.006-.036.009-.055.008H35.3c-.018.001-.035-.001-.052-.007-.016-.006-.032-.016-.044-.028-.012-.013-.022-.028-.027-.044-.006-.017-.009-.034-.007-.052v-2.53c0-.023.003-.046.011-.066.009-.02.022-.04.038-.055.015-.017.033-.03.054-.038.021-.009.044-.012.066-.01h.72c.271-.018.54.058.762.216.092.078.164.175.211.285.048.11.07.23.063.349h-.004zm-1.624-.587v1.2h.587c.196.015.39-.04.551-.152.063-.054.114-.122.146-.2.032-.076.047-.159.042-.242 0-.4-.245-.6-.733-.6l-.593-.006zm-6.93-.282c.087 0 .132.046.132.138v2.42h1.354c.093 0 .138.041.138.12v.03c0 .082-.045.12-.138.12h-1.486c-.022.002-.045-.001-.065-.01-.021-.008-.04-.022-.054-.039-.017-.015-.031-.033-.04-.054-.009-.02-.013-.043-.012-.066v-2.516c0-.092.045-.138.132-.138l.04-.005zm-1.113.869c.009.121-.011.242-.058.354-.047.113-.119.212-.21.291-.232.167-.514.246-.798.225h-.559v.98c.002.033-.007.066-.027.093-.014.013-.03.023-.047.029-.017.006-.036.01-.054.008h-.038c-.017.002-.035 0-.051-.007-.017-.006-.032-.015-.045-.028-.012-.012-.022-.027-.028-.044-.006-.017-.008-.034-.006-.052v-2.53c.002-.044.02-.086.051-.117.031-.03.073-.048.117-.05h.72c.27-.017.539.06.76.218.09.077.164.173.212.283.048.109.07.228.065.347h-.004zm-.298.015c0-.4-.243-.6-.73-.6h-.6v1.2h.587c.196.015.39-.039.551-.152.066-.054.118-.122.152-.2.034-.078.05-.163.044-.247h-.004zm16.5-.826c.017-.017.036-.029.058-.036.026-.015.056-.023.087-.022.03.002.061.012.087.03.026.018.046.042.059.07l.826 1.292.818-1.284c.014-.03.036-.054.062-.073.027-.019.058-.03.09-.035.028-.002.057.005.08.022.02.01.04.021.058.036.013.012.023.027.03.043.003.01.005.019.006.029l-1 1.537v1.051c0 .018-.001.035-.007.052-.006.017-.016.032-.028.044-.013.013-.028.022-.044.028-.017.006-.035.009-.053.007h-.043c-.081 0-.12-.045-.12-.13v-1.052l-1-1.537c.003-.028.016-.054.037-.072h-.003zm-5.455-.058c.088 0 .131.046.131.138v2.42h1.356c.091 0 .137.04.137.12v.03c0 .08-.046.12-.137.12H38.17c-.022.002-.045-.001-.066-.01-.02-.008-.039-.022-.054-.039-.017-.015-.03-.033-.04-.054-.009-.02-.012-.043-.011-.066v-2.516c0-.092.044-.138.131-.138l.04-.005zm3.785.1l1.03 2.661c.009.015 0 .035-.043.058-.035.018-.073.028-.112.03-.04.001-.078-.006-.114-.022-.036-.028-.064-.066-.08-.109l-.303-.805H41.12l-.306.805c-.015.043-.043.081-.08.11-.026.013-.056.02-.086.02-.042.002-.083-.008-.12-.03-.04-.022-.054-.042-.045-.057l1.03-2.66c.014-.032.036-.06.065-.08.05-.023.104-.033.158-.03.051-.004.102.007.147.03.034.017.061.045.077.08h-.006zm-.224.225l-.508 1.328h1.008l-.5-1.328zM22.027 5.4c-.12-.117-.262-.209-.418-.27-.155-.063-.322-.093-.49-.09-.169-.005-.338.024-.496.086-.157.062-.301.155-.421.274-.338.37-.565.828-.657 1.32-.184.888-.264 1.795-.24 2.702-.026.906.058 1.813.248 2.7.088.496.312.958.647 1.334.121.118.265.21.423.27.158.06.327.088.495.08.17.007.337-.021.494-.082.158-.06.302-.151.423-.268.336-.376.56-.838.647-1.335.32-1.785.32-3.614 0-5.4-.09-.492-.316-.95-.652-1.32h-.003zm1.653.928c.492 2.037.492 4.161 0 6.198-.169.658-.525 1.253-1.026 1.713-.443.336-.983.518-1.539.518-.556 0-1.097-.182-1.54-.518-.501-.46-.858-1.054-1.027-1.713-.491-2.037-.491-4.161 0-6.198.167-.658.524-1.251 1.027-1.706.44-.342.983-.527 1.54-.527.558 0 1.099.185 1.54.527.504.456.862 1.052 1.029 1.712l-.004-.006zm-7.096 5.787c.037.358-.006.72-.127 1.058-.121.338-.316.645-.571.898-.256.253-.564.446-.903.565-.34.118-.701.159-1.059.12-.49.014-.976-.114-1.395-.369-.39-.25-.701-.607-.897-1.027-.222-.48-.338-1.004-.34-1.534h1.038c-.018.521.14 1.033.447 1.455.157.178.353.318.573.41.219.091.456.132.693.119.207.01.413-.023.606-.099.193-.076.367-.192.511-.34.294-.355.443-.807.418-1.266-.005-.437-.155-.86-.428-1.2-.3-.36-.65-.675-1.037-.938-.412-.278-.824-.574-1.236-.888-.404-.298-.754-.663-1.034-1.08-.286-.446-.435-.965-.43-1.495-.01-.324.046-.646.164-.948.118-.302.296-.576.523-.807.495-.448 1.147-.684 1.814-.657.334-.013.666.044.977.168.31.124.59.312.823.552.491.587.76 1.329.758 2.094h-1.037c-.017-.476-.166-.938-.428-1.335-.136-.178-.313-.32-.517-.414-.203-.093-.426-.136-.65-.124-.19-.007-.379.024-.557.09-.178.068-.34.169-.48.299-.126.129-.225.281-.292.449-.067.168-.099.347-.095.528.003.429.154.844.427 1.174.305.341.654.64 1.038.887.41.272.823.562 1.236.868.41.311.76.692 1.037 1.126.29.505.441 1.079.435 1.662h-.005zm7.519 6.076h.057c.028-.001.057.003.083.013.026.01.05.025.07.045.019.016.034.036.043.058.01.022.015.047.015.071v2.531c0 .086-.041.13-.12.13h-.036c-.083 0-.12-.044-.12-.13V18.53l-.733 1.61c-.024.05-.055.096-.093.137-.05.031-.108.047-.167.043-.059.004-.118-.011-.167-.043-.037-.04-.066-.086-.086-.137l-.74-1.61v2.378c0 .086-.039.13-.12.13h-.05c-.078 0-.12-.044-.12-.13v-2.53c0-.025.005-.05.015-.072.01-.023.025-.043.044-.058.021-.02.046-.035.073-.045.027-.01.056-.014.085-.013h.065c.03-.003.061 0 .09.01.03.01.056.027.078.048.039.05.07.107.092.166l.74 1.64.74-1.64c.023-.06.055-.116.095-.166.022-.022.05-.038.079-.048.03-.01.06-.014.091-.01h-.003zm-5.373.022c.105.023.205.064.297.12.068.04.13.092.18.153.04.044.063.1.067.159 0 .03-.01.058-.03.08-.016.022-.036.041-.058.058l-.057.036H19.1c-.073-.12-.175-.22-.296-.29-.14-.081-.298-.123-.459-.12-.17-.01-.34.038-.48.136-.058.043-.105.099-.136.163-.032.065-.047.136-.045.208-.004.078.014.155.05.223.035.06.085.11.146.146.074.039.152.07.232.095.087.023.183.047.29.071.115.025.229.057.34.095.104.037.201.088.29.152.088.06.16.14.21.233.057.106.085.226.08.347.005.11-.016.218-.06.318-.046.1-.115.188-.2.256-.093.073-.199.128-.312.16-.132.039-.27.059-.407.057-.142.001-.284-.018-.42-.058-.116-.029-.226-.075-.326-.138-.077-.05-.145-.11-.203-.181-.046-.047-.074-.109-.08-.174-.001-.03.009-.058.028-.08.017-.02.037-.04.059-.057.015-.017.035-.03.057-.037.02-.006.03-.006.03 0 .085.132.196.246.327.334.16.095.342.143.528.137.18.011.358-.037.507-.137.06-.045.108-.103.14-.17.032-.068.046-.142.043-.216.003-.082-.02-.163-.066-.231-.04-.065-.098-.117-.166-.151-.078-.047-.16-.083-.247-.11l-.29-.073-.32-.086c-.098-.034-.19-.082-.274-.144-.082-.06-.15-.136-.196-.226-.057-.107-.085-.228-.08-.35 0-.105.025-.209.073-.303.05-.093.115-.177.195-.247.091-.07.195-.123.304-.158.119-.044.244-.066.37-.065.136 0 .27.022.398.066l-.004-.001zm1.912.12v2.58c.002.017 0 .035-.006.051-.006.017-.016.032-.028.044-.013.013-.027.022-.044.028-.016.007-.034.009-.052.008h-.043c-.082 0-.12-.045-.12-.131v-2.58c0-.091.042-.137.12-.137h.043c.088-.005.134.04.134.138l-.004-.001z" clip-rule="evenodd"/>
</svg>
