<svg xmlns="http://www.w3.org/2000/svg" width="57" height="25" fill="none" viewBox="0 0 57 25">
    <path fill="#4C4949" d="M10.864 7.397c-.169-1.68.629-2.03 1.836-2.332.632-.126 1.276-.19 1.92-.188 0 0-2.58.348-2.93 1.783-.323 1.32 1.14 4.44 1.14 4.44-.937-1.063-1.61-2.332-1.966-3.703z"/>
    <path fill="#D13F29" d="M5.69 17.112c-.432-.378-.648-.702-.594-1.025l.054-.432c.054-.323.27-.54.593-.54.162 0 .27.055.378.109.054.054.054.108.054.215l-.27 1.133h1.726l.27-1.133c.054-.27 0-.485-.108-.647-.27-.323-.809-.485-1.726-.485-1.618 0-2.535.431-2.697 1.294l-.216.863c-.054.216 0 .432.162.594.162.215.647.647 1.402 1.294.432.378.648.702.54 1.025l-.162.863c-.054.162-.162.324-.593.324-.216 0-.378-.054-.432-.162-.054-.054-.054-.108-.054-.27l.324-1.456H2.669l-.324 1.51c-.054.27 0 .486.108.648.216.323.863.485 1.888.485 1.618 0 2.535-.431 2.697-1.294l.216-.917c.054-.27 0-.54-.162-.756-.162-.215-.647-.647-1.403-1.24zM12.648 16.195c-.216-.324-.81-.432-1.726-.432-1.51 0-2.32.378-2.482 1.079l-.215.971h1.618c0-.054 0-.162.054-.27 0-.162.054-.27.054-.377.108-.54.323-.756.647-.756.162 0 .27.054.324.108.054.054.054.162.054.324l-.216.863c-.054.108-.162.27-.863.486-.863.27-1.403.539-1.726.7-.27.163-.432.379-.486.594l-.27 1.133c-.054.162 0 .324.054.432.162.215.594.323 1.241.323.81 0 1.133-.162 1.24-.27l.324-.323-.107.485h1.51l.97-4.477c.163-.27.109-.431 0-.593zm-2.428 4.153c-.054.108-.107.378-.485.378-.162 0-.27-.054-.378-.108-.054-.108-.054-.216-.054-.324l.216-1.024c.054-.27.324-.432.863-.54l.162-.054-.324 1.672zM17.503 15.925c-.27-.108-.54-.216-.863-.216-.54 0-.971.054-1.241.216l-.216.108.378-1.618h-1.726l-1.51 6.796h1.294l.216-.215.054.053c.323.162.647.27 1.025.27.485 0 .917-.108 1.294-.215.378-.162.54-.324.594-.594l.916-4.1c.108-.215 0-.377-.215-.485zm-1.565.863l-.809 3.56c-.054.108-.162.378-.54.378-.161 0-.269-.054-.377-.108-.054-.054-.108-.162-.054-.27l.81-3.56c.053-.162.161-.324.539-.324.162 0 .27.054.324.108.107 0 .161.108.107.216zM22.52 16.195c-.216-.324-.81-.432-1.727-.432-1.51 0-2.32.378-2.481 1.079l-.216.971h1.672c0-.054 0-.162.054-.27 0-.162.054-.27.054-.377.108-.54.324-.756.648-.756.161 0 .27.054.323.108.054.054.054.162.054.324l-.216.863c-.053.108-.161.27-.863.486-.863.27-1.402.539-1.726.7-.27.163-.431.379-.485.594l-.216 1.08c-.054.16 0 .323.054.43.162.216.593.324 1.24.324.81 0 1.133-.162 1.241-.27l.324-.323-.162.54h1.51l.971-4.478c.108-.27.054-.431-.053-.593zm-2.428 4.153c-.054.108-.108.378-.485.378-.162 0-.27-.054-.378-.108-.054-.054-.108-.162-.054-.27l.216-1.025c.054-.27.323-.431.863-.539l.162-.054-.324 1.618z"/>
    <path fill="#4C4949" d="M26.673 18.676l-.054.27h-.593l.054-.27v-.054h-2.05s-.054 0-.054.054l-.108.647v.054h2.05c.162 0 .324.054.431.162.108.108.162.27.108.431l-.108.648c-.053.162-.107.324-.27.431-.161.108-.323.162-.485.162h-2.05c-.161 0-.323-.054-.431-.162-.108-.107-.162-.27-.108-.431l.054-.27h.593l-.054.27s0 .054.054.054h2.05s.054 0 .054-.054l.108-.647v-.054h-2.05c-.162 0-.323-.054-.431-.162-.108-.108-.162-.27-.108-.432l.108-.647c.054-.162.108-.324.27-.432.161-.107.323-.162.485-.162h2.05c.162 0 .323.055.431.162.054.108.108.216.054.432zM29.262 18.676c.162 0 .324.054.432.162.108.107.162.27.108.431l-.27 1.403c-.054.162-.108.323-.27.431-.162.108-.323.162-.485.162H27.32l-.215 1.079h-.594l.648-3.668h2.103zm-.323 1.996l.27-1.403v-.054h-1.457s-.054 0-.054.054l-.27 1.403v.054l1.51-.054c-.053 0-.053 0 0 0zM30.827 18.676h1.456c.162 0 .324.054.432.162.108.107.162.27.108.431l-.27 1.403c-.054.162-.108.323-.27.431-.162.108-.323.162-.485.162H30.34c-.162 0-.323-.054-.431-.162-.108-.108-.162-.27-.108-.431l.27-1.403c.054-.162.108-.323.27-.431.161-.108.323-.162.485-.162zm1.348.593H30.72s-.054 0-.054.054l-.27 1.403v.053h1.457s.054 0 .054-.053l.27-1.457c.053 0 0 0 0 0zM33.956 18.676h1.51l-.108.593h-1.51s-.054 0-.054.054l-.378 1.996h-.593l.377-1.996c.054-.162.108-.324.27-.431.162-.162.324-.216.486-.216zM37.3 19.27h-1.025l-.27 1.402v.054h1.025l-.108.593h-1.024c-.162 0-.324-.054-.432-.162-.108-.108-.162-.27-.108-.431l.486-2.86h.593l-.162.864H37.3v.54zM40.374 19.27v.107h-.593v-.162h-1.456s-.054 0-.054.054l-.054.378s0 .054.054.054h1.456c.162 0 .324.054.432.162.108.107.162.27.108.431l-.054.378c-.054.162-.108.323-.27.431-.162.108-.324.162-.485.162H38c-.162 0-.324-.054-.431-.162-.108-.108-.162-.27-.108-.431v-.108h.593v.162h1.456s.054 0 .054-.054l.054-.378s0-.054-.054-.054H38.11c-.162 0-.324-.054-.432-.162-.108-.108-.161-.27-.108-.431l.054-.378c.054-.162.108-.323.27-.431.162-.108.324-.162.486-.162h1.456c.162 0 .324.054.432.162.107.107.107.27.107.431z"/>
    <path fill="#fff" d="M54.562 13.282c-.486-1.834-1.726-3.345-3.345-4.316-1.079-.593-2.265-.917-3.506-.917h-.162c-2.481.054-4.8 1.457-6.041 3.615-1.942 3.398-.702 7.767 2.697 9.71 1.133.646 2.373.97 3.668.916 2.481-.054 4.8-1.456 6.041-3.614.917-1.672 1.187-3.56.648-5.394z"/>
    <path fill="#4C4949" d="M54.832 13.174c-.54-1.888-1.78-3.453-3.453-4.423-.323-.216-.701-.324-1.025-.486 0 0-.054-.054-.215-.054-.054 0-.054-.054-.108-.054-2.266-.809-15.212-5.232-21.793-6.203C19.768.713 10.76 1.36 9.358 4.65c-1.403 3.075 3.722 7.39 3.722 7.39s-3.884-4.046-2.428-6.42c1.295-2.103 7.93-1.348 16.4 1.62 6.58 2.319 12.352 9.061 14.024 11.165.648 1.295 1.672 2.428 2.967 3.183 1.079.647 2.373.97 3.614.97h.162c2.59-.053 4.963-1.51 6.257-3.721 1.025-1.78 1.241-3.722.756-5.664zm-10.088 8.469c-.108-.108-.323-.27-.54-.432-.215-.162-.43-.377-.539-.485.054-.108.216-.324.378-.648.162-.27.378-.593.486-.755.215 0 .809.054 1.402.108.593.054 1.133-.054 1.295-.054.162.216.54.648 1.078.971.432.27.81.486 1.025.648-.053.107-.108.431-.323.809-.108.215-.216.377-.324.54-.27.053-.485.053-.755.053-1.133-.054-2.212-.324-3.183-.755zm6.473-12.677c.702.432 1.349.917 1.888 1.51 0 .162.054.378.054.594.054.593.054 1.025.054 1.24l-2.104.27c-.323-.27-.863-.755-1.294-1.132-.486-.378-.971-.648-1.24-.755l-.217-1.835c.324-.054.756-.161 1.133-.215.324-.054.594-.054.81-.054.323.108.647.215.916.377zm2.104 2.104c0-.108-.054-.216-.054-.324.594.756 1.025 1.565 1.295 2.482.162.647.27 1.24.27 1.888-.162-.108-.378-.216-.54-.27-.054-.27-.108-.81-.324-1.24-.215-.432-.485-.972-.647-1.241.054-.108.108-.594 0-1.295zm-7.875 3.884c-.162.108-.594.431-1.08.81-.43.323-.7.538-.862.646-.27-.108-.702-.323-1.08-.593-.539-.378-.862-.701-.97-.81 0-.269 0-.916.054-1.51.054-.539.161-.916.27-1.078.053-.108.323-.378 1.024-.917.594-.432 1.08-.648 1.403-.81l1.564 1.241c-.108.216-.216.701-.27 1.349-.053.593-.053 1.24-.053 1.672zm-1.403-4.37c-.324.162-.81.378-1.349.756-.539.377-.809.647-.97.809l-.324-.27c.054-.108.108-.162.108-.27.863-1.51 2.265-2.643 3.83-3.236.054.108.054.216.108.27-.162.108-.432.431-.702.755-.323.485-.701 1.187-.701 1.187zm1.618 2.698c.054-.701.216-1.133.27-1.349.27-.162.917-.54 1.403-.647.539-.162 1.024-.324 1.186-.378.27.108.701.378 1.133.702.486.377 1.025.863 1.349 1.132 0 .216 0 .648-.054 1.349-.108.755-.162 1.187-.216 1.348-.27.162-.755.432-1.51.702-.756.323-1.133.485-1.349.54-.162-.109-.755-.486-1.349-.918-.485-.324-.755-.593-.917-.755 0-.432 0-1.133.054-1.726zm1.942 4.693c.162-.594.216-.917.27-1.133.216-.054.647-.216 1.403-.54.7-.323 1.186-.539 1.51-.755.162.108.431.324.863.594.486.323.863.647 1.025.809-.054.323-.108.917-.27 1.51-.108.54-.324.971-.431 1.24-.162.163-.486.486-1.08.702-.485.216-1.078.324-1.348.378-.216-.162-.647-.378-1.187-.702-.539-.323-.917-.755-1.078-.97.053-.108.161-.486.323-1.133zm1.888-9.548c-.54.054-1.079.216-1.348.27-.27-.054-.755-.108-1.08-.162-.43 0-1.186.054-1.402.108 0-.054-.054-.162-.054-.27.648-.216 1.295-.324 1.996-.324H48.466c.108 0 .27 0 .378.054.054 0 .108 0 .162.054.108 0 .27.054.377.054.054 0 .108 0 .162.054l.486.162h-.54zM41.4 18.514c-.162-.323-.27-.593-.378-.863v-.054c-.054-.108-.108-.27-.108-.378v-.053c-.054-.27-.162-.54-.215-.81.108-.161.215-.431.323-.647.162-.27.324-.431.378-.485.162.162.431.431.917.755.377.216.755.431 1.079.54.054.161.161.808.431 1.51.27.647.486 1.025.594 1.186-.108.216-.324.486-.486.756-.162.27-.27.485-.324.593-.053 0-.215-.054-.323-.108-.162-.054-.432-.27-.432-.27l.054.108c-.431-.431-.809-.917-1.133-1.402-.215-.108-.27-.216-.377-.378zm.431.863c-.054-.108-.161-.215-.215-.323.054.108.108.27.215.323zm1.51 1.565c-.053-.054-.161-.108-.215-.162.054.054.108.108.216.162zm-.323-.27c-.108-.108-.216-.162-.324-.27.108.108.216.216.324.27zm.647.54c-.108-.055-.161-.109-.27-.163.109.054.216.108.27.162zm8.955-1.08c-.162-.107-.378-.215-.485-.323.161-.324.323-.755.431-1.24.162-.648.216-1.242.27-1.565.215-.162.647-.594.917-1.025.377-.54.54-.863.54-.863.161.054.377.162.485.216h.054c-.054 1.132-.324 2.265-.917 3.344-.324.593-.702 1.079-1.187 1.564l-.108-.107zm-10.195 0l.323.324c-.161-.162-.27-.216-.323-.323zm-.54-.647c.054.108.162.162.216.27-.108-.108-.162-.216-.216-.27zm.27.324c.054.108.162.162.216.27-.108-.108-.162-.162-.216-.27zm1.618 1.456c.108.054.216.162.378.216-.108-.054-.27-.162-.378-.216z"/>
</svg>
