<svg xmlns="http://www.w3.org/2000/svg" width="64" height="25" fill="none" viewBox="0 0 64 25">
    <path fill="#B5B5B5" d="M32.776 2.473h-.54v19.08h.54v-3.66h6.96v-2.22h-5.34v-2.58h4.56v-2.22h-4.56v-2.46h5.34v-2.28h-6.96v-3.66zM11.117 13.333l-1.92-3.18-2.58-3.96v-.06h-2.1v11.76h2.34v-7.2l1.74 2.76 2.76 4.44h2.1V6.133h-2.34v7.2zM14.776 17.893h7.68v-2.22h-5.34v-2.58h4.62v-2.22h-4.62v-2.46h5.34v-2.28h-7.68v11.76zM23.416 8.413h2.7v9.48h2.34v-9.48h2.7v-2.28h-7.74v2.28zM47.536 13.333l-1.98-3.18-2.52-3.96h-2.16v11.7h2.34v-7.2l1.74 2.82 2.76 4.38h2.16v-11.7h-2.34v7.14zM50.836 6.193v2.22h2.64v9.48h2.34v-9.48h2.7v-2.22h-7.68z"/>
</svg>
