<svg xmlns="http://www.w3.org/2000/svg" width="100" height="25" fill="none" viewBox="0 0 100 25">
    <path fill="#1A2332" d="M90.27 10.638h-.502v-1.44h-.48v-.433h1.483v.433h-.507l.006 1.44zM93.378 10.639h-.494l.037-1.44h-.014l-.467 1.44h-.432l-.48-1.44h-.017l.043 1.44h-.495V8.764h.793l.36 1.177h.02l.337-1.177h.812l-.003 1.875zM31.7 16.599h-2.14v-3.13H26.79v3.13h-2.14v-7.97h2.14v3.01h2.772V8.63h2.138v7.97zM35.106 15.225l-.383 1.374h-2.222l2.389-7.97h3.24l2.425 7.97h-2.174l-.42-1.374h-2.855zm1.434-5.008l-.98 3.466h1.984l-1.004-3.466zM41.355 8.629h4.338c.604-.023 1.203.12 1.732.411.24.193.425.445.538.731.113.286.15.596.108.901.008.408-.055.814-.185 1.2-.12.34-.48.556-1.059.652v.06c.21-.002.416.043.606.132.19.089.357.22.49.381.206.372.304.795.28 1.22.039.322.012.649-.08.96-.092.311-.245.6-.453.85-.574.376-1.26.543-1.942.472h-4.373v-7.97zm3.5 3.19c.032.008.065.012.097.012h.084c.22-.002.44-.037.65-.102.18-.06.27-.253.27-.58.021-.208-.032-.418-.15-.59-.164-.13-.372-.187-.58-.162h-1.732v1.422h1.362zm.06 3.023c.28.014.561-.015.831-.089.22-.069.33-.298.33-.687 0-.375-.086-.596-.257-.664-.245-.078-.503-.112-.76-.1H43.5v1.54h1.416zM51.047 15.225l-.383 1.374h-2.222l2.39-7.97h3.24l2.426 7.97h-2.176l-.418-1.374h-2.857zm1.434-5.008l-.98 3.466h1.983l-1.003-3.466zM65.016 16.599h-3.621l-2.247-6.13h-.096l.096 6.13h-2.091v-7.97h3.6l2.246 6.058h.084l-.084-6.058h2.116l-.003 7.97zM68.206 11.82H71.6v1.478h-3.394v1.54h3.705v1.757h-5.844v-7.97h5.772v1.757h-3.633v1.437zM72.914 8.629h4.016c.765-.06 1.529.122 2.186.52.258.28.45.616.564.98.114.365.146.75.094 1.129.015.491-.052.982-.197 1.452-.132.37-.568.634-1.31.794v.072c.204-.002.405.036.593.113.187.077.357.19.5.335.254.32.38.722.353 1.129v1.446H77.54v-1.063c.013-.266-.051-.53-.186-.76-.085-.103-.195-.183-.32-.232-.123-.049-.258-.066-.39-.049h-1.59V16.6h-2.139v-7.97zm3.84 4.039c.39.009.626-.08.71-.263.094-.252.135-.52.12-.788.017-.294-.028-.587-.131-.862-.088-.183-.36-.275-.813-.275l-1.59-.01v2.198h1.704zM80.61 12.195c0-.163 0-.324.013-.48.012-.156.019-.32.035-.48.017-.16.037-.325.06-.48.027-.372.154-.73.369-1.036.214-.305.508-.547.85-.698.681-.267 1.407-.408 2.14-.418h.239c1.015-.098 2.034.149 2.892.7.327.394.57.852.711 1.345.142.492.18 1.009.113 1.517.054 1.14-.109 2.28-.48 3.36-.32.765-1.377 1.147-3.172 1.147-.129 0-.26 0-.395-.006-.136-.006-.271-.01-.406-.018-.587-.02-1.166-.145-1.708-.37-.274-.123-.515-.307-.704-.54-.19-.232-.321-.506-.385-.799-.079-.268-.127-.545-.143-.824-.017-.28-.024-.558-.024-.84v-1.07l-.005-.01zm2.187.437v.48c-.02.438.041.875.18 1.29.12.295.51.442 1.171.443.732 0 1.196-.118 1.392-.352.24-.414.342-.893.293-1.37v-.286c0-.095 0-.194.012-.299v-.574c.028-.403-.051-.807-.228-1.17-.152-.247-.514-.37-1.087-.37-.828 0-1.32.11-1.476.333-.218.588-.306 1.216-.257 1.841v.036-.002z"/>
    <path fill="#1A2332" fill-rule="evenodd" d="M12.76 4.326c.106 0 .207-.042.282-.117.074-.075.116-.176.116-.282V2.775c0-.106-.042-.207-.116-.282-.075-.075-.177-.117-.282-.117-.106 0-.207.042-.282.117-.075.075-.117.176-.117.282v1.152c0 .106.042.207.117.282.075.075.176.117.282.117zM11.166 5.378c.106 0 .207-.042.282-.117.075-.075.117-.176.117-.282V3.827c0-.052-.01-.104-.03-.152-.02-.048-.05-.092-.087-.13-.037-.036-.08-.066-.129-.086-.048-.02-.1-.03-.153-.03-.052 0-.104.01-.152.03-.048.02-.092.05-.129.087-.037.037-.066.08-.087.129-.02.048-.03.1-.03.152V4.98c0 .106.042.207.117.282.075.075.176.117.281.117zM11.166 2.72c.106 0 .207-.042.282-.117.075-.075.117-.176.117-.282v.009c0-.053-.01-.105-.03-.153-.02-.048-.05-.092-.087-.129-.037-.037-.08-.066-.129-.086-.048-.02-.1-.03-.153-.03-.052 0-.104.01-.152.03-.048.02-.092.049-.129.086-.037.037-.066.08-.087.13-.02.047-.03.1-.03.152V2.32c0 .106.042.207.117.282.075.075.176.117.281.117zM14.354 5.688c.105 0 .207-.042.281-.116.075-.075.117-.176.117-.282v.01c0-.106-.042-.207-.117-.282-.074-.075-.176-.117-.281-.117-.106 0-.208.042-.282.117-.075.075-.117.176-.117.282v-.01c0 .052.01.104.03.153.02.048.05.092.087.13.037.036.08.065.129.085.048.02.1.03.152.03z" clip-rule="evenodd"/>
    <path fill="#1A2332" fill-rule="evenodd" d="M17.54 8.643c-.105 0-.206.042-.28.116-.075.075-.117.177-.117.282v.202c-.008.102-.056.197-.132.266-.076.068-.176.105-.279.101-.103-.003-.2-.046-.272-.12-.072-.073-.112-.171-.113-.274v-.994c0-.106-.042-.207-.117-.282-.074-.075-.176-.117-.281-.117-.106 0-.207.042-.282.117-.075.075-.117.176-.117.282v.022c0 .106-.042.207-.116.282-.075.075-.177.117-.282.117-.106 0-.207-.042-.282-.117-.075-.075-.117-.176-.117-.282V6.578c.003-.055-.005-.109-.024-.16-.018-.05-.047-.097-.084-.136-.037-.04-.082-.07-.132-.092-.05-.022-.103-.033-.158-.033-.054 0-.107.011-.157.033-.05.021-.095.053-.132.092-.037.04-.066.086-.084.137-.019.05-.027.104-.024.159v.636c-.003.104-.046.204-.12.278-.075.074-.175.117-.28.12-.106 0-.207-.042-.282-.117-.075-.074-.116-.176-.116-.281V5.42c0-.106-.042-.207-.117-.282-.075-.075-.176-.117-.282-.117-.105 0-.207.042-.282.117-.074.075-.116.176-.116.282v1.56c0 .052-.01.104-.03.152-.02.049-.05.093-.087.13-.037.036-.08.066-.129.086-.048.02-.1.03-.153.03-.052 0-.104-.01-.152-.03-.048-.02-.092-.05-.129-.087-.037-.036-.067-.08-.087-.129-.02-.048-.03-.1-.03-.152v-.56c0-.105-.042-.206-.117-.281-.075-.075-.175-.117-.281-.117-.106 0-.207.042-.282.117-.075.075-.116.176-.116.282v1.2c0 .052-.01.104-.03.152-.021.048-.05.092-.088.13-.037.036-.08.066-.129.086-.048.02-.1.03-.152.03-.052 0-.104-.01-.153-.03-.048-.02-.092-.05-.129-.087-.037-.037-.066-.08-.087-.129-.02-.048-.03-.1-.03-.152V5.956c0-.106-.041-.207-.116-.282-.075-.074-.176-.116-.282-.116-.105 0-.207.042-.282.116-.074.075-.116.176-.116.282v2.542c0 .105-.042.207-.117.281-.075.075-.176.117-.282.117-.105 0-.207-.042-.281-.117-.075-.074-.117-.176-.117-.281v-.674c0-.105-.042-.207-.117-.281-.074-.075-.176-.117-.282-.117-.105 0-.207.042-.281.117-.075.074-.117.176-.117.281V9.7c0 .106-.042.207-.117.282-.074.074-.176.116-.281.116-.106 0-.208-.042-.282-.116-.075-.075-.117-.176-.117-.282v-.616c0-.105-.042-.207-.116-.281-.075-.075-.177-.117-.282-.117-.106 0-.207.042-.282.117-.074.074-.117.176-.117.281v7.518l5.977 3.452 5.98-3.452V9.038c-.001-.053-.012-.105-.033-.153-.02-.048-.05-.092-.088-.129-.037-.036-.081-.065-.13-.085-.049-.02-.101-.029-.153-.028zm-2.76 6.77h-1.877v-1.43h-1.877v1.43H9.148v-4.476h1.878v1.505h1.877v-1.505h1.878v4.476z" clip-rule="evenodd"/>
</svg>
