<svg xmlns="http://www.w3.org/2000/svg" width="88" height="25" fill="none" viewBox="0 0 88 25">
    <path fill="#1A2332" d="M16.763 3.612c-1.388 0-2.757.325-3.996.949-1.24.624-2.316 1.53-3.142 2.645-.826 1.115-1.38 2.408-1.616 3.776-.236 1.367-.148 2.771.256 4.099l.48-.694c.622-.911 1.23-1.831 1.823-2.76l.438-.698c.148-.233.291-.467.432-.702.288-.468.564-.943.84-1.417.137-.24.265-.48.398-.72s.266-.48.39-.72c.123-.24.257-.48.371-.72l.353-.731.025-.052c.096-.191.262-.337.465-.406.202-.07.423-.056.615.037.146.078.266.195.347.338.081.144.12.307.113.472 0 .42-.084.859-.11 1.29-.027.433-.057.868-.075 1.303-.034.867-.055 1.735-.043 2.597.012.861.047 1.72.14 2.557.042.41.106.818.19 1.221.07.363.185.716.343 1.05.048.103.115.197.198.276.052.036.017.02.043.022 0 0 .02-.007.033 0l.027-.01h.015c.017-.006.033-.014.049-.022l.069-.046c.13-.1.251-.213.36-.337.262-.302.503-.623.72-.96.227-.35.445-.72.654-1.086.42-.744.811-1.516 1.186-2.298.186-.392.368-.785.547-1.181.177-.394.354-.797.517-1.187.067-.16.185-.294.334-.382.15-.088.325-.124.497-.104.173.02.334.096.46.216.125.12.208.278.236.449 0 .103.017.24.027.353l.042.367c.03.246.065.492.106.737.083.49.186.978.317 1.457.127.478.29.946.487 1.4.193.452.445.877.749 1.264.018.021.03.046.039.073.007.027.01.055.007.083-.003.027-.012.054-.025.079-.014.024-.032.046-.053.063-.039.032-.087.049-.136.049-.05 0-.098-.017-.136-.049-.412-.354-.775-.761-1.08-1.212-.302-.443-.572-.91-.806-1.393-.157-.32-.298-.647-.432-.977-.089.194-.176.387-.269.579-.385.805-.79 1.604-1.232 2.393-.224.394-.456.786-.71 1.174-.258.405-.546.79-.861 1.152-.182.21-.386.399-.607.566-.062.045-.133.09-.207.135l-.15.078-.085.037h-.01l-.046.018-.033.011-.065.02c-.043.015-.085.028-.13.039-.095.023-.193.038-.292.044-.217.017-.434-.01-.64-.079-.196-.069-.378-.172-.537-.305-.25-.213-.454-.473-.6-.766-.225-.46-.39-.947-.488-1.449-.098-.458-.171-.92-.22-1.386-.1-.913-.138-1.814-.15-2.712v-1.286l-.48.912c-.133.248-.269.497-.408.74l-.413.737c-.557.978-1.133 1.943-1.72 2.9-.38.62-.764 1.232-1.157 1.844.843 1.284 2.006 2.328 3.374 3.029 1.368.7 2.895 1.034 4.43.968 1.537-.066 3.028-.53 4.331-1.346 1.303-.816 2.372-1.956 3.102-3.308.73-1.353 1.096-2.872 1.063-4.409-.033-1.537-.464-3.038-1.252-4.358-.787-1.32-1.904-2.414-3.24-3.173-1.337-.759-2.848-1.158-4.385-1.158l-.001.001zM33.322 15.704V9.8h-.143l-1.89 5.904h-.465L28.938 9.8h-.145v5.904h-.78V9.179h1.391l1.653 5.18 1.653-5.18H34.1v6.525h-.779zM35.253 10.024v-.84h.852v.84h-.852zm.012 5.68v-5.032h.827v5.032h-.827zM41.135 14.058c0 .986-.375 1.73-2 1.73-2.053 0-2.17-1.166-2.17-2.6 0-1.434.121-2.601 2.17-2.601 1.625 0 2 .746 2 1.729h-.774c0-.796-.277-1.186-1.227-1.186-1.27 0-1.343.69-1.343 2.058 0 1.37.073 2.057 1.343 2.057.95 0 1.222-.39 1.227-1.187h.774zM42.734 11.196c.403-.306.874-.51 1.373-.592.1-.01.196-.014.295-.014.12 0 .252 0 .386.017l-.057.594c-.127-.01-.24-.015-.36-.015-.102-.001-.203.005-.303.019-.455.08-.885.268-1.255.546v3.953h-.827V10.67h.658l.09.525zM49.446 13.188c0 1.44-.12 2.6-2.195 2.6-2.075 0-2.196-1.166-2.196-2.6 0-1.434.12-2.601 2.196-2.601s2.195 1.167 2.195 2.601zm-3.564 0c0 1.378.073 2.056 1.364 2.056 1.291 0 1.373-.667 1.373-2.056 0-1.388-.073-2.058-1.368-2.058-1.295 0-1.369.68-1.369 2.058zM50.962 16.872c.303.028.72.057 1.174.057 1.273 0 1.44-.336 1.44-1.687-.432.267-.922.427-1.43.465-1.841.037-1.946-.96-1.946-2.52s.103-2.607 1.883-2.607c.572.03 1.123.223 1.588.556l.074-.463h.658v4.473c0 1.807-.408 2.358-2.069 2.358-.487-.004-.973-.041-1.455-.113l.084-.519zm2.615-5.28c-.368-.261-.798-.42-1.248-.46-1.224 0-1.3.682-1.3 2.055 0 1.343.075 1.97 1.3 1.97.444-.041.872-.188 1.248-.428v-3.137zM58.915 15.704l-.074-.462c-.445.326-.974.518-1.524.554-1.842.029-1.947-1.012-1.947-2.606 0-1.595.103-2.612 1.92-2.612.555.034 1.09.217 1.55.528l.075-.435h.657v5.033h-.657zm-.17-4.143c-.375-.24-.803-.387-1.247-.428-1.225 0-1.301.684-1.301 2.058 0 1.374.075 2.055 1.3 2.055.45-.04.881-.199 1.249-.46V11.56zM61.314 11.101c.418-.294.906-.474 1.415-.522.849-.025 1.28.192 1.5.56.433-.314.943-.507 1.477-.56 1.734-.055 1.833.83 1.833 2.056v3.069h-.826v-3.019c0-1.045-.07-1.56-1.189-1.56-.421.047-.823.201-1.167.45.085.362.12.734.103 1.106v3.018h-.72V12.68c0-1.045-.069-1.56-1.188-1.56-.41.043-.8.192-1.136.43v4.143h-.827V10.66h.657l.068.44zM68.581 10.024v-.84h.852v.84h-.852zm.013 5.68v-5.032h.826v5.032h-.826zM71.174 11.105c.457-.3.982-.48 1.526-.526 1.841-.055 1.947.83 1.947 2.056v3.069h-.827v-3.019c0-1.045-.074-1.56-1.3-1.56-.446.042-.874.19-1.249.432V15.7h-.827v-5.033h.658l.072.44zM76.271 16.872c.303.028.72.057 1.174.057 1.273 0 1.44-.336 1.44-1.687-.432.267-.922.427-1.429.465-1.842.037-1.945-.96-1.945-2.52s.1-2.607 1.881-2.607c.572.03 1.124.223 1.59.556l.072-.463h.658v4.473c0 1.807-.408 2.358-2.068 2.358-.487-.004-.973-.041-1.455-.113l.082-.519zm2.615-5.28c-.367-.262-.798-.42-1.248-.46-1.224 0-1.3.682-1.3 2.055 0 1.343.075 1.97 1.3 1.97.444-.041.872-.188 1.248-.428v-3.137z"/>
</svg>
