<svg xmlns="http://www.w3.org/2000/svg" width="57" height="25" fill="none" viewBox="0 0 57 25">
    <path fill="#B5B5B5" d="M10.864 7.397c-.169-1.68.629-2.03 1.836-2.332.632-.127 1.276-.19 1.92-.189 0 0-2.58.349-2.93 1.784-.323 1.32 1.14 4.44 1.14 4.44-.937-1.064-1.61-2.332-1.966-3.703zM5.67 17.09c-.454-.386-.642-.72-.57-1.038l.058-.446c.016-.146.087-.28.198-.376.112-.095.255-.144.402-.138.065-.008.131-.002.194.019.062.02.12.055.166.101.026.034.044.073.052.115.008.042.006.085-.006.125l-.258 1.152h1.727l.251-1.125c.034-.108.042-.222.023-.333-.018-.11-.063-.216-.13-.307-.245-.307-.84-.463-1.75-.463-1.606 0-2.52.43-2.706 1.278l-.176.793c-.026.108-.026.221 0 .329.027.108.079.208.152.292.44.459.916.884 1.42 1.272.446.381.628.72.56 1.02l-.187.84c-.034.152-.161.336-.57.336-.076.01-.154.002-.228-.022-.074-.024-.142-.064-.198-.118-.027-.035-.046-.075-.054-.119-.009-.043-.007-.088.005-.13l.328-1.471H2.647l-.34 1.513c-.032.107-.039.22-.02.331.02.111.064.216.13.306.264.329.91.496 1.92.496 1.61 0 2.52-.442 2.72-1.313l.202-.901c.033-.127.036-.26.008-.387-.028-.128-.086-.248-.169-.349-.436-.469-.914-.898-1.427-1.282zM12.624 16.192c-.24-.298-.812-.45-1.707-.45-1.493 0-2.33.36-2.488 1.063l-.222.993h1.648c.01-.068.022-.154.034-.255.022-.17.043-.293.062-.378.12-.516.337-.778.657-.778.063-.006.127.002.187.024s.114.057.158.103c.03.043.051.092.06.144.009.052.005.106-.01.156l-.19.848c-.028.128-.184.26-.852.48-.59.175-1.16.41-1.704.7-.115.062-.217.147-.3.248-.081.102-.143.22-.18.345l-.255 1.147c-.023.072-.03.149-.018.223.012.075.042.146.087.207.172.13.369.226.578.28.21.055.429.068.643.038.82 0 1.128-.143 1.243-.263l.3-.313-.11.497h1.493l.994-4.452c.03-.103.037-.211.018-.317-.018-.105-.062-.205-.126-.29zm-2.407 4.142c-.023.112-.087.211-.18.278-.093.067-.208.096-.321.082-.066.007-.134 0-.196-.023s-.119-.06-.165-.108c-.03-.039-.05-.085-.058-.133-.009-.048-.006-.098.008-.145l.231-1.038c.06-.265.346-.437.873-.526l.18-.03-.372 1.643zM17.501 15.93c-.274-.133-.575-.198-.88-.192-.415-.025-.83.042-1.216.198l-.232.12.36-1.623h-1.72l-1.522 6.813h1.292l.24-.218.076.04c.317.17.672.259 1.032.257.441.008.88-.074 1.29-.24.144-.041.275-.118.382-.223.107-.104.187-.234.232-.377l.918-4.105c.044-.194-.032-.33-.252-.45zm-1.56.86l-.79 3.54c-.025.113-.092.214-.188.28-.095.067-.212.095-.328.08-.066.007-.132 0-.194-.023-.063-.022-.12-.058-.165-.106-.03-.04-.05-.086-.058-.134-.01-.05-.007-.1.007-.147l.794-3.547c.036-.158.155-.346.52-.346.063-.007.127 0 .187.02s.116.055.161.1c.032.04.053.088.063.138.01.05.007.102-.007.15l-.002-.004zM22.497 16.192c-.24-.298-.812-.45-1.706-.45-1.494 0-2.332.36-2.49 1.063l-.221.993h1.647c.011-.068.023-.154.034-.255.023-.17.043-.293.062-.378.12-.516.337-.778.659-.778.063-.006.127.002.186.024.06.022.114.057.157.103.031.043.052.092.06.144.01.052.006.106-.01.156l-.187.848c-.03.128-.186.26-.853.48-.59.175-1.162.41-1.705.7-.115.062-.217.147-.3.249-.082.101-.143.218-.18.344l-.255 1.147c-.023.072-.03.149-.017.223.012.075.042.146.086.207.166.207.588.318 1.22.318.82 0 1.13-.143 1.245-.263l.3-.313-.11.497h1.49l.996-4.452c.03-.103.037-.211.018-.317-.019-.105-.062-.205-.126-.29zm-2.407 4.142c-.023.112-.087.211-.18.278-.093.067-.208.096-.322.082-.066.007-.133 0-.195-.023-.063-.023-.119-.06-.165-.108-.03-.04-.05-.085-.058-.133-.009-.049-.006-.098.008-.145l.232-1.038c.06-.265.345-.437.872-.526l.178-.03-.37 1.643zM26.67 18.657l-.042.25h-.614l.043-.25c0-.021 0-.032-.021-.032h-2.04c-.01 0-.018.002-.026.008-.007.006-.012.015-.013.024l-.12.672c0 .02 0 .031.027.031h2.04c.08-.003.158.012.23.044.073.032.138.08.189.141.052.06.088.133.108.21.019.078.02.159.002.237l-.12.673c-.036.174-.13.331-.267.446-.136.114-.307.18-.485.185h-2.04c-.08.004-.16-.01-.233-.042-.073-.032-.138-.08-.189-.142-.051-.061-.088-.133-.107-.21-.019-.078-.02-.16-.001-.237l.044-.251h.608l-.044.25c0 .021 0 .032.027.032h2.04c.02 0 .03-.01.034-.031l.12-.673c0-.02 0-.032-.023-.032h-2.04c-.08.004-.16-.01-.233-.042-.073-.032-.137-.08-.189-.141-.051-.062-.088-.134-.107-.211-.018-.078-.019-.159-.001-.237l.12-.672c.035-.175.129-.333.265-.448.137-.114.309-.18.487-.184h2.04c.08-.003.158.012.23.044.073.032.138.08.189.14.052.061.09.133.11.21.019.079.02.16.003.238zM29.235 18.66c.079-.003.158.012.23.044.072.032.136.08.187.141.05.061.087.132.106.21.019.076.02.156.002.233l-.24 1.38c-.036.173-.129.329-.264.443-.135.113-.305.179-.482.185h-1.476l-.184 1.044h-.6l.647-3.68h2.074zm-.322 2.008l.24-1.38c0-.021 0-.032-.027-.032h-1.44l-.014.001-.012.007-.008.01-.003.014-.24 1.38c0 .022 0 .033.026.033h1.44c.005 0 .01 0 .014-.002l.011-.007c.004-.003.006-.007.008-.01l.005-.014zM30.84 18.66h1.44c.079-.003.157.012.23.044.072.032.136.08.187.14.051.061.087.133.106.21.02.077.02.157.003.234l-.24 1.38c-.036.173-.13.33-.265.443-.135.114-.305.179-.482.185h-1.44c-.08.003-.158-.012-.23-.044-.073-.032-.137-.08-.188-.14-.05-.061-.087-.133-.105-.21-.02-.076-.02-.157-.003-.234l.24-1.38c.036-.173.13-.33.265-.443.135-.114.305-.179.482-.184zm1.339.6h-1.44c-.005 0-.01 0-.014.002-.005.001-.009.004-.012.007l-.01.01-.003.014-.24 1.38c0 .022 0 .033.026.033h1.44c.005 0 .01 0 .014-.002l.012-.007.009-.01.003-.014.24-1.38c.005-.026-.004-.037-.025-.037v.005zM33.967 18.66h1.484l-.105.6h-1.481c-.005 0-.01 0-.014.002-.005.001-.01.004-.013.007l-.008.01c-.003.005-.004.01-.004.014l-.354 2.008h-.6l.353-2.008c.036-.173.13-.33.265-.443.136-.114.305-.179.482-.184l-.005-.005zM37.31 19.256h-1.04l-.25 1.412c0 .022 0 .033.026.033h1.01l-.104.6h-1.01c-.08.004-.158-.011-.23-.043-.074-.032-.138-.08-.189-.14-.05-.061-.087-.133-.106-.21-.018-.077-.018-.158 0-.235l.506-2.87h.6l-.153.863h1.043l-.102.59zM40.369 19.29l-.02.112h-.6l.019-.113c0-.021 0-.032-.027-.032h-1.44c-.005 0-.01 0-.013.002-.005.001-.009.003-.012.006-.004.003-.006.007-.008.011-.002.004-.004.009-.004.013l-.065.36c0 .018 0 .027.028.027h1.44c.08-.004.158.01.231.042.073.032.137.08.188.141.05.061.086.133.104.21.018.076.02.156.003.233l-.064.36c-.032.174-.125.332-.263.443-.132.118-.303.183-.48.185h-1.44c-.08.003-.158-.011-.23-.044-.073-.032-.137-.08-.188-.141-.05-.06-.087-.132-.106-.209-.019-.077-.02-.157-.003-.234l.02-.113h.6l-.019.113c-.004.022.005.032.027.032h1.44l.014-.001.011-.007c.004-.003.006-.007.008-.01.002-.005.004-.01.004-.014l.065-.36c0-.018 0-.026-.028-.026h-1.44c-.079.003-.158-.012-.23-.044-.072-.032-.137-.08-.188-.14-.05-.06-.087-.132-.106-.209-.018-.076-.019-.157-.001-.234l.063-.36c.036-.173.13-.328.265-.442.136-.114.305-.18.481-.185h1.44c.08-.004.159.011.23.043.073.032.137.08.188.14.05.062.087.133.106.21.019.077.02.157.002.234h-.002z"/>
    <path fill="#B5B5B5" d="M54.815 13.2c-.311-1.118-.883-2.148-1.669-3.003-.785-.855-1.762-1.512-2.85-1.916l-.224-.078-.12-.042c-2.265-.787-15.246-5.247-21.802-6.209C19.673.709 10.685 1.346 9.256 4.65c-1.32 3.06 3.84 7.376 3.84 7.376s-3.882-4.064-2.418-6.408c1.32-2.117 7.92-1.352 16.393 1.619 6.6 2.315 12.342 9.061 14.03 11.19.606 1.238 1.547 2.281 2.715 3.01 1.17.73 2.52 1.118 3.898 1.119h.181c1.275-.035 2.519-.398 3.612-1.055 1.093-.656 1.998-1.584 2.628-2.693.479-.843.785-1.773.902-2.735.117-.963.041-1.94-.222-2.872zm-10.069 8.457c-.127-.1-.336-.267-.547-.445-.211-.178-.418-.383-.539-.504.073-.12.205-.335.37-.627.164-.291.36-.59.48-.775.231.014.786.05 1.392.098.434.034.87.01 1.298-.075.3.388.669.718 1.088.973.42.256.789.48 1.04.623-.082.277-.198.543-.347.79-.12.21-.24.384-.34.529-1.326.186-2.677-.018-3.89-.587h-.005zm6.47-12.685c.711.4 1.348.917 1.883 1.531.022.17.048.36.078.6.063.404.072.814.03 1.22l-2.113.261c-.324-.29-.85-.754-1.306-1.111-.381-.3-.794-.558-1.23-.768l-.19-1.852c.375-.105.759-.18 1.146-.223.314-.031.6-.056.82-.076.303.119.598.257.883.416v.002zm2.135 2.106l-.042-.32c.587.743 1.02 1.595 1.272 2.508.171.615.26 1.25.262 1.89-.163-.09-.392-.195-.54-.26-.052-.416-.156-.825-.31-1.215-.19-.431-.491-.988-.628-1.239.063-.453.059-.912-.014-1.364zm-7.912 3.89c-.155.11-.585.415-1.096.796-.417.31-.708.517-.862.625-.372-.165-.733-.355-1.08-.569-.356-.222-.679-.493-.96-.805-.007-.288-.013-.896.035-1.514.02-.373.107-.738.256-1.08.3-.357.655-.663 1.05-.909.442-.315.917-.58 1.417-.79l1.56 1.218c-.151.428-.241.876-.267 1.33-.048.593-.055 1.244-.053 1.7v-.003zm-1.4-4.372c-.478.209-.933.468-1.357.772-.353.234-.68.506-.976.81l-.328-.256c.042-.082.081-.165.127-.24.854-1.504 2.223-2.648 3.855-3.22.035.12.066.217.086.294-.253.228-.489.476-.704.74-.258.353-.493.72-.703 1.103v-.003zm1.625 2.686c.025-.46.12-.913.283-1.344.444-.267.911-.492 1.396-.673l1.183-.383c.409.202.795.445 1.153.726.47.369 1.017.851 1.334 1.137.01.443-.017.887-.077 1.326-.093.743-.174 1.185-.209 1.358-.29.162-.773.41-1.492.72-.445.202-.9.38-1.365.535-.17-.111-.747-.488-1.32-.902-.328-.231-.64-.484-.932-.757-.006-.448 0-1.125.046-1.743zm1.944 4.703c.158-.578.24-.938.284-1.12.481-.156.953-.34 1.413-.551.728-.319 1.212-.567 1.508-.731.14.1.425.303.84.608.46.336.856.672 1.023.817-.058.515-.143 1.025-.255 1.53-.102.434-.252.855-.45 1.254-.308.3-.67.539-1.065.707-.438.175-.896.294-1.364.353-.24-.143-.67-.394-1.172-.7-.412-.25-.773-.576-1.064-.96.043-.192.134-.589.302-1.207zm1.89-9.533c-.462.053-.918.147-1.362.281-.366-.068-.734-.116-1.105-.145-.476-.006-.952.024-1.423.09-.018-.067-.045-.157-.08-.276.65-.214 1.329-.331 2.013-.35h.179c.174 0 .347.008.52.021.052 0 .104.01.155.016.12.012.248.026.37.044l.167.028c.12.021.25.047.375.075.046.011.092.02.137.033.168.042.336.089.5.144l-.447.04zm-8.071 10.08l-.023-.042c-.137-.267-.257-.542-.36-.824l-.012-.03c-.047-.13-.09-.262-.13-.394l-.015-.049c-.08-.27-.142-.544-.19-.82.084-.174.217-.438.335-.648.102-.18.228-.345.375-.49.27.281.576.528.907.735.339.21.69.397 1.054.56.088.513.228 1.015.417 1.5.16.412.35.814.569 1.2-.12.19-.315.493-.47.77-.157.277-.274.47-.349.59-.055-.016-.224-.07-.35-.112-.16-.07-.312-.155-.457-.251l.055.098c-.436-.418-.816-.89-1.13-1.406-.084-.13-.158-.26-.228-.389l.002.002zm.402.88c-.077-.108-.151-.216-.222-.326.07.108.145.216.222.324v.002zm1.503 1.544c-.08-.06-.159-.12-.24-.188.081.061.16.125.24.186v.002zm-.324-.26c-.101-.086-.2-.175-.296-.267.096.09.195.178.296.265v.002zm.68.512c-.084-.056-.167-.112-.247-.171.08.053.163.113.247.172zm8.936-1.047c-.165-.099-.322-.21-.47-.335.193-.398.341-.815.441-1.246.116-.521.203-1.049.262-1.58.342-.31.655-.652.931-1.021.202-.28.38-.573.538-.879.164.072.324.152.48.24l.03.018c-.046 1.831-.797 3.574-2.096 4.864l-.116-.061zm-10.22-.042c.098.104.199.206.302.306-.103-.102-.202-.204-.301-.309v.003zm-.53-.646c.067.091.136.181.207.269-.07-.093-.14-.18-.206-.271v.002zm.26.335c.078.095.16.187.24.278-.082-.093-.162-.186-.24-.28v.002zm1.656 1.469c.12.075.24.149.36.22-.123-.074-.242-.147-.36-.223v.003z"/>
    <path fill="#939598" d="M54.815 13.2c-.442-1.58-1.397-2.967-2.715-3.944-1.318-.976-2.925-1.485-4.565-1.447-1.938.05-3.778.86-5.122 2.256-1.345 1.396-2.086 3.265-2.062 5.203.023 1.938.808 3.789 2.186 5.152 1.377 1.363 3.236 2.13 5.174 2.132h.182c1.274-.034 2.518-.398 3.611-1.054 1.094-.657 1.999-1.584 2.629-2.693.478-.843.785-1.772.902-2.734.117-.962.043-1.938-.22-2.87zm-.788 5.542c-.705 1.25-1.764 2.261-3.043 2.909-1.28.647-2.723.9-4.147.726-1.424-.173-2.764-.764-3.851-1.699-1.088-.935-1.874-2.171-2.259-3.553-.384-1.381-.35-2.846.097-4.208.448-1.363 1.29-2.562 2.419-3.446 1.129-.884 2.495-1.413 3.925-1.52 1.43-.109 2.86.21 4.109.915.829.468 1.558 1.095 2.145 1.844.587.75 1.02 1.607 1.276 2.524.255.918.328 1.876.213 2.821-.116.945-.416 1.858-.884 2.687z"/>
</svg>
