<svg width="32" height="32" viewBox="0 0 32 32" fill="none" xmlns="http://www.w3.org/2000/svg">
    <path fill-rule="evenodd" clip-rule="evenodd" d="M8 0h15.975C28.394 0 32 3.606 32 8.025v15.95C32 28.394 28.394 32 23.975 32H8c-4.394 0-8-3.606-8-8V8.025C0 3.606 3.606 0 8 0zm17.752 20.165s.153-1.701.153-3.378v-1.574c0-1.676-.153-3.378-.153-3.378s-.152-1.448-.761-2.083c-.693-.738-1.469-.826-1.89-.875a6.367 6.367 0 0 1-.117-.014C20.19 8.66 16 8.635 16 8.635s-4.19.025-7.01.228c-.033.005-.07.01-.109.014-.417.048-1.176.136-1.871.9-.585.636-.762 2.058-.762 2.058s-.153 1.701-.153 3.378v1.574c0 1.677.153 3.378.153 3.378s.152 1.422.762 2.057c.64.705 1.461.8 1.963.857.094.01.177.02.246.032 1.6.152 6.806.229 6.806.229s4.19-.026 6.985-.229l.134-.015c.422-.045 1.165-.124 1.847-.874.584-.635.761-2.057.761-2.057zm-11.81-1.473v-5.841l5.385 2.946-5.384 2.895z" fill="#90949C"/>
</svg>
