<svg width="32" height="32" viewBox="0 0 32 32" fill="none" xmlns="http://www.w3.org/2000/svg">
    <path d="M23.956 0H8.019C3.603 0 0 3.606 0 8.025V24c0 4.394 3.603 8 8.019 8h15.962C28.396 32 32 28.394 32 23.975V8.025C31.975 3.606 28.371 0 23.956 0zm-.026 11.987v.534C23.93 17.854 19.82 24 12.282 24c-2.309 0-4.466-.66-6.268-1.803.33.025.635.05.965.05 1.928 0 3.68-.634 5.075-1.726a4.09 4.09 0 0 1-3.832-2.794c.254.05.508.076.761.076.381 0 .762-.05 1.091-.152a4.058 4.058 0 0 1-3.222-3.962v-.05c.507.304 1.167.482 1.827.507a4.018 4.018 0 0 1-1.827-3.352c0-.737.203-1.423.558-2.032a11.72 11.72 0 0 0 8.425 4.216 3.739 3.739 0 0 1-.102-.915c0-2.234 1.828-4.038 4.086-4.038 1.168 0 2.233.483 2.995 1.27a7.615 7.615 0 0 0 2.588-.99c-.305.94-.964 1.727-1.802 2.235a8.105 8.105 0 0 0 2.36-.635 8.335 8.335 0 0 1-2.03 2.082z" fill="#90949C"/>
</svg>
